<svg width="15" height="20" viewBox="0 0 15 20" fill="none" xmlns="http://www.w3.org/2000/svg">
<path d="M0.00117151 9.95572C0.00117151 7.50092 0.00117151 5.04612 0.00117151 2.59132C0.00117151 0.948223 0.896204 0.00368958 2.45665 0.00368958C5.82591 -0.00122986 9.19517 -0.00122986 12.5644 0.00368958C14.0921 0.00368958 14.9965 0.958062 14.9965 2.57164C15.0012 7.54028 15.0012 12.5089 14.9965 17.4776C14.9965 19.0272 14.078 19.9963 12.6066 19.9963C9.19517 20.0012 5.78374 20.0012 2.37231 19.9963C0.92432 19.9914 0.0105436 19.0223 0.00585754 17.4972C-0.00351453 14.9834 0.00117151 12.4696 0.00117151 9.95572ZM9.63566 4.68208C10.3011 4.68208 10.9665 4.687 11.6366 4.68208C12.1005 4.67716 12.377 4.42135 12.3676 4.03271C12.3582 3.649 12.0818 3.40794 11.6132 3.40794C10.2964 3.40303 8.97493 3.40303 7.65815 3.40794C7.18955 3.40794 6.91307 3.64408 6.9037 4.03271C6.89433 4.43611 7.18018 4.67716 7.68158 4.68208C8.33294 4.687 8.9843 4.68208 9.63566 4.68208ZM9.5888 16.5921C10.2823 16.5921 10.9806 16.597 11.6741 16.5921C12.0958 16.5871 12.3723 16.3215 12.3676 15.9476C12.3629 15.5885 12.1099 15.3278 11.7022 15.3228C10.3245 15.313 8.9515 15.313 7.5738 15.3228C7.16612 15.3228 6.91307 15.5786 6.9037 15.9427C6.89433 16.3166 7.17081 16.5871 7.58786 16.5921C8.25797 16.597 8.92338 16.5921 9.5888 16.5921ZM4.03585 17.4431C4.80904 17.448 5.45103 16.7888 5.46509 15.982C5.47915 15.1802 4.84653 14.4915 4.07802 14.4767C3.27671 14.4619 2.63004 15.1261 2.63004 15.9574C2.63004 16.7692 3.26265 17.4382 4.03585 17.4431ZM4.05459 2.5618C3.2814 2.55688 2.63941 3.21117 2.63004 4.02288C2.61598 4.85426 3.25797 5.53314 4.05459 5.52822C4.82779 5.52331 5.46509 4.85426 5.46509 4.04747C5.46509 3.24068 4.82779 2.56672 4.05459 2.5618ZM9.61223 10.6346C10.2776 10.6346 10.9478 10.6395 11.6132 10.6346C12.0865 10.6297 12.3629 10.3886 12.3629 10C12.3629 9.61628 12.0865 9.37031 11.6085 9.37031C10.287 9.36539 8.96556 9.36539 7.64409 9.37031C7.17081 9.37031 6.89433 9.61628 6.89433 10.0049C6.89433 10.3886 7.17549 10.6297 7.64878 10.6346C8.30951 10.6395 8.96087 10.6346 9.61223 10.6346ZM4.03116 11.4758C4.8231 11.4808 5.45572 10.8363 5.46977 10.0197C5.47915 9.20305 4.85122 8.53892 4.06396 8.52909C3.27202 8.52417 2.63941 9.16369 2.63004 9.98524C2.62067 10.8068 3.24391 11.466 4.03116 11.4758Z" fill="url(#paint0_linear_145_1648)"/>
<defs>
<linearGradient id="paint0_linear_145_1648" x1="7.5" y1="0" x2="7.5" y2="20" gradientUnits="userSpaceOnUse">
<stop stop-color="#FF4E71"/>
<stop offset="1" stop-color="#FB0230"/>
</linearGradient>
</defs>
</svg>
