<svg width="21" height="20" viewBox="0 0 21 20" fill="none" xmlns="http://www.w3.org/2000/svg">
<path d="M20.9235 8.66713C20.8269 7.76967 20.3898 7.26197 19.49 7.05684C17.9295 6.69273 17.0602 5.20552 17.411 3.63625C17.4567 3.42599 17.5076 3.22599 17.5279 3.12342C17.5279 2.54905 17.3042 2.20546 16.9637 1.91827C16.1249 1.19005 15.1947 0.610556 14.173 0.169521C13.4613 -0.133049 13.0597 -0.0407408 12.5311 0.528501C11.2959 1.86699 9.68957 1.86186 8.45435 0.502858C7.99177 -0.00997251 7.47837 -0.112539 6.8633 0.154133C5.94324 0.554141 5.09942 1.06185 4.31152 1.6875C3.75745 2.12853 3.56429 2.667 3.75745 3.37984C4.23019 5.15936 3.27963 6.65683 1.47 7.04145C0.636351 7.21581 0.305942 7.54403 0.153445 8.36968C-0.0295506 9.38509 -0.0600499 10.4005 0.122946 11.421C0.244943 12.1339 0.595686 12.5903 1.29717 12.6569C2.96447 12.8057 4.36235 14.6621 3.62529 16.5339C3.39654 17.1083 3.5592 17.6314 4.02178 18.0365C4.90626 18.8109 5.8924 19.4161 6.97513 19.8725C7.55462 20.1186 8.08836 20.0161 8.4391 19.4981C9.51166 17.8981 11.7889 17.9494 12.8158 19.4314C13.1614 19.9289 13.685 20.0058 14.234 19.7699C15.2506 19.334 16.1758 18.7442 17.0043 18.0006C17.4059 17.6365 17.5736 17.1801 17.4364 16.616C16.9382 14.5544 17.6804 13.3082 19.7289 12.7646C20.344 12.5954 20.7049 12.2313 20.8371 11.5954C21.0455 10.621 21.0302 9.64663 20.9235 8.66713ZM16.9942 8.60046C15.9419 9.62612 15.9064 10.5595 16.8772 11.6877C17.1263 11.98 17.1975 12.298 17.0806 12.6518C16.8264 13.38 16.4604 14.0416 15.9877 14.6519C15.7284 14.9852 15.3828 15.0621 14.971 14.9288C13.6138 14.4878 12.709 15.0057 12.4091 16.4006C12.3074 16.8468 12.0634 17.1032 11.6059 17.1493C10.8485 17.2263 10.0911 17.1904 9.34391 17.0416C8.87117 16.9545 8.59668 16.6827 8.49501 16.1801C8.23577 14.8878 7.17846 14.2621 5.93815 14.6519C5.42475 14.8108 5.00792 14.7237 4.69276 14.2877C4.27594 13.7083 3.94045 13.0877 3.72695 12.4005C3.57954 11.9185 3.71678 11.5544 4.07769 11.2313C5.09942 10.3133 5.1655 9.25688 4.26577 8.23122C3.94553 7.87224 3.87436 7.49787 4.05736 7.06709C4.33185 6.41067 4.6826 5.8004 5.12484 5.24142C5.41458 4.87731 5.75007 4.80551 6.18215 4.94397C7.41737 5.33885 8.30693 4.84141 8.65768 3.57472C8.77967 3.10291 9.05925 2.87214 9.53199 2.83624C10.2538 2.7747 10.9705 2.80547 11.6873 2.94393C12.1803 3.03111 12.4752 3.2824 12.6124 3.80549C12.8869 4.86192 13.8121 5.53886 14.8084 5.26193C15.7539 5.00039 16.2418 5.41578 16.6637 6.13374C16.7247 6.24144 16.7807 6.35426 16.8417 6.46708C16.8518 6.46195 16.8671 6.45682 16.8772 6.45682C17.0145 6.79016 17.1517 7.13376 17.2737 7.47223C17.4262 7.90301 17.3398 8.26712 16.9942 8.60046Z" fill="url(#paint0_linear_145_1649)"/>
<path d="M14.6506 8.90297C13.883 8.64143 13.6136 8.09783 13.7915 7.27217C13.8373 7.07729 13.8729 6.88241 13.761 6.69267C13.639 6.46189 12.8816 5.89265 12.4394 5.67726C12.1242 5.52854 11.8752 5.55931 11.6108 5.8106C11.0364 6.33369 10.401 6.32343 9.8927 5.75932C9.57754 5.40546 9.27254 5.36957 8.8913 5.55419C8.61173 5.69265 8.34232 5.83624 8.07291 5.98496C7.68658 6.20548 7.53917 6.50805 7.61542 6.97986C7.73741 7.71833 7.32059 8.28757 6.56319 8.42604C6.09045 8.50809 5.87187 8.77476 5.82104 9.22092C5.79054 9.50811 5.75496 9.80042 5.74987 10.0876C5.73971 10.5697 5.8922 10.8979 6.42594 11.0517C7.13759 11.2415 7.51883 11.9133 7.29009 12.5697C7.10201 13.1287 7.25451 13.4774 7.69675 13.7749C7.95091 13.9441 8.20507 14.1133 8.45923 14.2826C8.83031 14.5339 9.1353 14.4928 9.46062 14.1492C9.97403 13.6159 10.6908 13.6159 11.1635 14.18C11.5193 14.6056 11.8548 14.6364 12.2869 14.3697C12.5055 14.2364 12.7241 14.1133 12.9477 13.9954C13.3696 13.7749 13.5272 13.4672 13.4408 12.9748C13.3086 12.2518 13.7153 11.6774 14.432 11.5338C14.8997 11.4364 15.1132 11.1851 15.1843 10.7389C15.2352 10.4004 15.2504 10.0517 15.2352 9.70811C15.2301 9.29785 15.0674 9.04656 14.6506 8.90297ZM8.4084 11.1646C7.77299 10.0056 8.18982 8.54399 9.32846 7.89782C10.523 7.21576 11.9972 7.64654 12.6427 8.85169C13.2629 10.0158 12.8461 11.462 11.6871 12.1082C10.5179 12.7595 9.05397 12.3389 8.4084 11.1646Z" fill="url(#paint1_linear_145_1649)"/>
<defs>
<linearGradient id="paint0_linear_145_1649" x1="10.5" y1="0" x2="10.5" y2="20" gradientUnits="userSpaceOnUse">
<stop stop-color="#FF4E71"/>
<stop offset="1" stop-color="#FB0230"/>
</linearGradient>
<linearGradient id="paint1_linear_145_1649" x1="10.5" y1="0" x2="10.5" y2="20" gradientUnits="userSpaceOnUse">
<stop stop-color="#FF4E71"/>
<stop offset="1" stop-color="#FB0230"/>
</linearGradient>
</defs>
</svg>
