<svg width="22" height="20" viewBox="0 0 22 20" fill="none" xmlns="http://www.w3.org/2000/svg">
<path d="M11.0102 4.83028C13.832 4.83028 16.6479 4.83028 19.4697 4.83028C21.0497 4.83028 22 5.789 22 7.37907C22 9.93371 22 12.4883 22 15.043C22 16.6272 21.0439 17.5859 19.4581 17.5801C19.0616 17.5801 18.5486 17.7496 18.2979 17.5099C18.0472 17.2703 18.2279 16.75 18.2221 16.3525C18.2104 15.6042 18.2279 14.8618 18.2162 14.1135C18.1929 12.4124 16.852 11.0444 15.1554 11.0386C12.3803 11.0269 9.59931 11.021 6.82417 11.0386C5.15092 11.0503 3.80416 12.4123 3.78667 14.0901C3.77501 15.1248 3.76918 16.1595 3.7925 17.1884C3.79833 17.5216 3.69922 17.6093 3.38439 17.5859C3.02875 17.5567 2.66729 17.5859 2.31165 17.5801C1.02902 17.5509 0.0145753 16.5629 0.0087452 15.2827C-0.00291507 12.5702 -0.00291507 9.85772 0.0087452 7.14524C0.0145753 5.82408 1.04068 4.83613 2.38161 4.83028C5.25586 4.82443 8.13012 4.83028 11.0102 4.83028ZM5.15092 8.95745C5.14509 8.3904 4.66702 7.92858 4.1015 7.94027C3.55346 7.95196 3.09871 8.41378 3.09288 8.96329C3.08705 9.53034 3.55929 10.0039 4.11899 10.0039C4.69034 9.99802 5.15675 9.5245 5.15092 8.95745Z" fill="url(#paint0_linear_145_1650)"/>
<path d="M10.9748 20C9.65715 20 8.33954 20 7.02193 20C6.23486 20 5.83842 19.5966 5.83842 18.8016C5.83842 17.2934 5.83259 15.7851 5.83842 14.2769C5.83842 13.5111 6.24069 13.1019 6.99861 13.1019C9.66298 13.096 12.3215 13.096 14.9859 13.1019C15.7438 13.1019 16.1461 13.5111 16.1461 14.2769C16.1519 15.7968 16.1519 17.3226 16.1461 18.8425C16.1461 19.5791 15.738 19.9942 15.0034 19.9942C13.6683 20 12.3215 20 10.9748 20Z" fill="url(#paint1_linear_145_1650)"/>
<path d="M10.9811 3.45636C8.80644 3.45636 6.6318 3.45636 4.45716 3.45636C3.89164 3.45636 3.78087 3.3453 3.78087 2.77825C3.78087 2.46257 3.76921 2.14689 3.7867 1.83121C3.82751 0.837419 4.61458 0.018999 5.61153 0.0131532C9.20289 -0.00438439 12.7943 -0.00438439 16.3856 0.0131532C17.4001 0.018999 18.1871 0.837421 18.2163 1.86044C18.2279 2.18781 18.2221 2.52103 18.2163 2.8484C18.2104 3.32191 18.0763 3.45052 17.5924 3.45052C15.3887 3.45636 13.1849 3.45636 10.9811 3.45636Z" fill="url(#paint2_linear_145_1650)"/>
<defs>
<linearGradient id="paint0_linear_145_1650" x1="11" y1="0" x2="11" y2="20" gradientUnits="userSpaceOnUse">
<stop stop-color="#FF4E71"/>
<stop offset="1" stop-color="#FB0230"/>
</linearGradient>
<linearGradient id="paint1_linear_145_1650" x1="11" y1="0" x2="11" y2="20" gradientUnits="userSpaceOnUse">
<stop stop-color="#FF4E71"/>
<stop offset="1" stop-color="#FB0230"/>
</linearGradient>
<linearGradient id="paint2_linear_145_1650" x1="11" y1="0" x2="11" y2="20" gradientUnits="userSpaceOnUse">
<stop stop-color="#FF4E71"/>
<stop offset="1" stop-color="#FB0230"/>
</linearGradient>
</defs>
</svg>
