<svg width="15" height="20" viewBox="0 0 15 20" fill="none" xmlns="http://www.w3.org/2000/svg">
<path d="M14.9883 4.50334C14.9824 4.00995 14.648 3.70308 14.1669 3.65495C14.0261 3.64292 13.8853 3.63089 13.7504 3.64894C13.3632 3.7031 13.2048 3.57674 13.2341 3.14352C13.2693 2.49971 13.2458 1.84988 13.24 1.20606C13.24 0.303522 12.9407 0.0026742 12.0431 0.0026742H7.3966C5.83602 0.0026742 4.26958 -0.00334275 2.70314 0.0026742C2.02845 0.00869115 1.42417 0.237335 0.960692 0.622419C0.896157 0.682589 0.831622 0.742751 0.772954 0.802921C0.291875 1.29631 0.00440012 1.98825 0.00440012 2.78851C-0.00146671 7.59605 -0.00146671 12.4096 0.00440012 17.2232C0.00440012 18.7695 1.12496 19.9609 2.63274 19.985C2.97888 19.991 3.32502 19.997 3.67116 19.991C4.71546 20.003 5.75389 19.997 6.79818 19.997C7.26753 19.991 7.73687 19.991 8.20035 19.997H8.22382C9.60839 19.997 10.9871 20.009 12.3658 19.985C13.8736 19.9609 14.9941 18.7695 14.9941 17.2232C14.9941 15.027 15 12.8368 15 10.6406V10.6346C14.9941 9.39512 15 8.15564 15 6.91614C15 6.10987 14.9941 5.30961 14.9883 4.50334ZM2.94955 3.64292C2.69141 3.64292 2.42153 3.66098 2.19273 3.49852C1.86418 3.25784 1.71165 2.93893 1.80552 2.52376C1.90525 2.08452 2.22206 1.82581 2.72074 1.82581C4.00557 1.81378 5.29627 1.81979 6.58111 1.81979H6.90378C8.28249 1.81979 9.66119 1.83181 11.0399 1.81376C11.3802 1.80775 11.5151 1.90403 11.4799 2.25903C11.4388 2.69225 11.65 3.2458 11.3978 3.54063C11.1338 3.84147 10.5823 3.6369 10.1657 3.6369C7.76034 3.64893 5.35494 3.64292 2.94955 3.64292Z" fill="url(#paint0_linear_145_1652)"/>
<defs>
<linearGradient id="paint0_linear_145_1652" x1="7.5" y1="0" x2="7.5" y2="20" gradientUnits="userSpaceOnUse">
<stop stop-color="#FF4E71"/>
<stop offset="1" stop-color="#FB0230"/>
</linearGradient>
</defs>
</svg>
