<svg width="20" height="20" viewBox="0 0 20 20" fill="none" xmlns="http://www.w3.org/2000/svg">
<path d="M6.99187 0.00245466C8.4548 0.00245466 9.91773 0.00245466 11.3807 0.00245466C12.2285 0.00245466 12.5111 0.278604 12.5111 1.10705C12.5111 1.69801 12.5388 2.2945 12.5 2.87994C12.4723 3.28312 12.6275 3.39358 12.9932 3.34387C13.1207 3.3273 13.2537 3.33834 13.3811 3.34939C13.841 3.39357 14.1569 3.68077 14.1569 4.12813C14.1735 6.00595 14.1624 7.88377 14.168 9.75607C14.168 9.96042 14.0405 10.0654 13.9186 10.1869C12.4169 11.6891 10.9263 13.2079 9.40792 14.6936C8.87595 15.2128 8.55455 15.8037 8.43264 16.5273C8.34951 17.0243 8.2276 17.5159 8.14448 18.0129C8.10569 18.256 8.00595 18.3498 7.7455 18.3498C5.99442 18.3388 4.23779 18.3664 2.48671 18.3388C1.06257 18.3167 0.00415605 17.2232 0.00415605 15.8037C-0.00138535 11.3853 -0.00138535 6.96695 0.00415605 2.55408C0.00415605 1.09048 1.09027 0.00797766 2.55874 0.00245466C4.0383 -0.00306833 5.51231 0.00245466 6.99187 0.00245466ZM6.52085 1.6704C6.4211 1.6704 6.31582 1.6704 6.21607 1.6704C5.0025 1.6704 3.7834 1.66488 2.56983 1.67592C2.09881 1.68144 1.79957 1.91341 1.70537 2.31659C1.61671 2.69768 1.76078 2.99592 2.07664 3.21131C2.29276 3.36043 2.54212 3.34387 2.79148 3.34387C5.06346 3.34387 7.33544 3.34939 9.60741 3.33835C10.0064 3.33835 10.5217 3.52612 10.7711 3.24445C11.0094 2.97935 10.8099 2.47124 10.8487 2.06806C10.8819 1.73668 10.7545 1.65383 10.4331 1.65935C9.12531 1.67592 7.82308 1.6704 6.52085 1.6704Z" fill="url(#paint0_linear_145_1651)"/>
<path d="M17.4766 9.60138C17.8756 9.59586 18.208 9.75602 18.4851 10.0266C18.8453 10.3801 19.211 10.7336 19.5546 11.0981C20.1475 11.7277 20.1531 12.5396 19.5435 13.1527C17.5375 15.1741 15.5205 17.1844 13.5089 19.2003C13.3482 19.3605 13.1598 19.4434 12.9382 19.482C12.1014 19.6422 11.2647 19.8134 10.4279 19.9791C9.87377 20.0895 9.50804 19.7526 9.60778 19.2003C9.77403 18.3056 9.96797 17.4219 10.1453 16.5272C10.1841 16.3339 10.2838 16.1848 10.4168 16.0467C12.4284 14.0308 14.4399 12.0149 16.457 10.0046C16.7396 9.73393 17.0776 9.59034 17.4766 9.60138Z" fill="url(#paint1_linear_145_1651)"/>
<defs>
<linearGradient id="paint0_linear_145_1651" x1="10" y1="0" x2="10" y2="20" gradientUnits="userSpaceOnUse">
<stop stop-color="#FF4E71"/>
<stop offset="1" stop-color="#FB0230"/>
</linearGradient>
<linearGradient id="paint1_linear_145_1651" x1="10" y1="0" x2="10" y2="20" gradientUnits="userSpaceOnUse">
<stop stop-color="#FF4E71"/>
<stop offset="1" stop-color="#FB0230"/>
</linearGradient>
</defs>
</svg>
