<svg width="22" height="20" viewBox="0 0 22 20" fill="none" xmlns="http://www.w3.org/2000/svg">
<path d="M7.89139 3.06524C9.29974 1.34601 10.9911 0.357798 13.083 0.0735161C16.9214 -0.440899 20.4561 1.78598 21.6504 5.44781C22.7757 8.89303 21.105 12.7918 17.7775 14.4907C14.3601 16.237 10.2317 15.3435 7.89139 12.3383C7.346 11.6411 6.95249 10.8627 6.66253 10.0234C6.51065 9.58344 6.64873 9.41421 7.08366 9.32621C8.40226 9.05547 9.49995 9.39392 10.3422 10.4227C11.6332 11.9863 13.2832 12.6361 15.2714 12.1352C17.2597 11.6343 18.454 10.3144 18.7716 8.32447C19.0477 6.57817 18.4057 5.1026 16.9835 4.0467C15.5061 2.94341 13.8562 2.75389 12.1579 3.54582C11.7298 3.74888 11.3777 3.7895 10.9359 3.61351C10.0039 3.24124 9.00978 3.13292 7.89139 3.06524Z" fill="url(#paint0_linear_145_1653)"/>
<path d="M14.0496 16.9273C13.518 17.6989 12.8759 18.2404 12.1718 18.7074C8.53351 21.1171 3.54215 20.0544 1.18109 16.379C-1.13164 12.7781 0.0626988 7.90469 3.79759 5.73196C8.15381 3.19373 13.7872 5.23109 15.2853 9.88791C15.4855 10.5038 15.4717 10.5445 14.8297 10.6731C13.5111 10.937 12.4272 10.5512 11.5987 9.50886C9.71404 7.16015 6.27601 7.07216 4.28085 9.31934C2.86559 10.9167 2.78275 13.3805 4.09445 15.0591C5.48209 16.8393 7.85005 17.4282 9.84521 16.4467C10.2732 16.2369 10.6184 16.1963 11.0672 16.3722C11.9854 16.7445 12.9726 16.8799 14.0496 16.9273Z" fill="url(#paint1_linear_145_1653)"/>
<defs>
<linearGradient id="paint0_linear_145_1653" x1="11" y1="0" x2="11" y2="20" gradientUnits="userSpaceOnUse">
<stop stop-color="#FF4E71"/>
<stop offset="1" stop-color="#FB0230"/>
</linearGradient>
<linearGradient id="paint1_linear_145_1653" x1="11" y1="0" x2="11" y2="20" gradientUnits="userSpaceOnUse">
<stop stop-color="#FF4E71"/>
<stop offset="1" stop-color="#FB0230"/>
</linearGradient>
</defs>
</svg>
