<svg width="22" height="20" viewBox="0 0 22 20" fill="none" xmlns="http://www.w3.org/2000/svg">
<path d="M12.7951 10.7187C12.7951 11.6009 12.7951 12.4892 12.7951 13.3714C12.7951 13.5994 12.7951 13.5994 12.5707 13.6054C10.0025 13.6354 7.85342 15.4899 7.24531 17.8906C7.0859 18.5147 7.04457 19.1509 7.06229 19.793C7.06819 19.9491 7.02686 19.9911 6.86745 19.9971C6.2003 20.0211 5.57447 19.9011 5.03721 19.475C4.31101 18.9048 3.97448 18.1426 4.02762 17.2064C4.05123 16.7923 4.09256 16.3842 4.13389 15.97C4.1516 15.814 4.11027 15.766 3.95087 15.772C3.27781 15.778 2.59885 15.79 1.92579 15.76C0.733174 15.706 -0.140621 14.5837 0.0187877 13.3774C0.190004 12.093 0.325797 10.8027 0.479301 9.51237C0.591478 8.57012 0.69775 7.62789 0.821735 6.69164C0.975239 5.58136 1.96121 4.6031 3.05345 4.44106C3.31914 4.39905 3.59072 4.40505 3.8564 4.40505C4.98407 4.40505 6.11174 4.40505 7.23941 4.40505C8.556 4.40505 9.67186 4.87316 10.5929 5.83341C10.6637 5.90543 10.7405 5.93544 10.835 5.92943C11.142 5.92343 11.4549 5.93545 11.7619 5.92345C11.8741 5.92345 11.9331 5.95345 11.9685 6.07348C12.122 6.67964 12.3759 7.24377 12.7183 7.76591C12.7774 7.85593 12.7951 7.94596 12.7892 8.04798C12.7951 8.94222 12.7951 9.83045 12.7951 10.7187Z" fill="url(#paint0_linear_145_1654)"/>
<path d="M13.02 4.56119C13.02 2.04053 15.0273 0 17.507 0C19.9867 0 22 2.04653 22 4.56119C22 7.07584 19.9867 9.12838 17.507 9.12237C15.0273 9.12237 13.02 7.08184 13.02 4.56119ZM16.5742 4.5732C16.5447 4.60321 16.5211 4.63921 16.4856 4.67522C16.2554 4.90928 16.0251 5.14935 15.7949 5.37741C15.724 5.44343 15.724 5.49143 15.7949 5.55745C16.0428 5.80351 16.2849 6.04958 16.5211 6.29565C16.5978 6.37367 16.6451 6.36766 16.7159 6.28964C16.9343 6.06158 17.1646 5.83953 17.3771 5.60547C17.4716 5.50344 17.5307 5.48543 17.631 5.59946C17.8495 5.83953 18.0856 6.06158 18.3041 6.29565C18.369 6.36766 18.4163 6.36766 18.4871 6.29565C18.7292 6.04358 18.9712 5.79751 19.2133 5.55745C19.2901 5.48543 19.2901 5.43742 19.2133 5.3594C18.9771 5.12534 18.7469 4.87928 18.5048 4.64522C18.4281 4.5672 18.434 4.52518 18.5048 4.45316C18.7351 4.2251 18.9535 3.99105 19.1897 3.76299C19.2782 3.67897 19.296 3.61894 19.1956 3.52892C18.9594 3.30086 18.7292 3.06681 18.5048 2.82675C18.4222 2.74272 18.369 2.73072 18.2864 2.82675C18.0679 3.06081 17.8318 3.28887 17.6133 3.52293C17.5307 3.61295 17.4775 3.60695 17.3949 3.52293C17.1705 3.28287 16.9343 3.05479 16.7041 2.81473C16.6391 2.74871 16.5919 2.73671 16.5211 2.81473C16.2849 3.0668 16.0369 3.31287 15.7949 3.55293C15.7181 3.62495 15.7181 3.67295 15.7949 3.75097C16.031 3.97903 16.2554 4.2191 16.4856 4.45316C16.5211 4.48917 16.5624 4.51919 16.5742 4.5732Z" fill="url(#paint1_linear_145_1654)"/>
<path d="M14.0996 9.25435C14.4479 9.50042 14.7845 9.71047 15.1446 9.87251C15.918 10.2266 16.7269 10.4067 17.5771 10.3826C17.7306 10.3766 17.7719 10.4247 17.7719 10.5747C17.766 11.5169 17.766 12.4592 17.7719 13.4014C17.7719 13.5455 17.7424 13.6055 17.583 13.6055C16.4789 13.5995 15.3749 13.5995 14.2708 13.6055C14.1645 13.6055 14.0878 13.5995 14.0878 13.4494C14.0937 12.0871 14.0878 10.7307 14.0937 9.36839C14.0878 9.34438 14.0937 9.31437 14.0996 9.25435Z" fill="url(#paint2_linear_145_1654)"/>
<defs>
<linearGradient id="paint0_linear_145_1654" x1="11" y1="0" x2="11" y2="20" gradientUnits="userSpaceOnUse">
<stop stop-color="#FF4E71"/>
<stop offset="1" stop-color="#FB0230"/>
</linearGradient>
<linearGradient id="paint1_linear_145_1654" x1="11" y1="0" x2="11" y2="20" gradientUnits="userSpaceOnUse">
<stop stop-color="#FF4E71"/>
<stop offset="1" stop-color="#FB0230"/>
</linearGradient>
<linearGradient id="paint2_linear_145_1654" x1="11" y1="0" x2="11" y2="20" gradientUnits="userSpaceOnUse">
<stop stop-color="#FF4E71"/>
<stop offset="1" stop-color="#FB0230"/>
</linearGradient>
</defs>
</svg>
