<svg width="22" height="20" viewBox="0 0 22 20" fill="none" xmlns="http://www.w3.org/2000/svg">
<path d="M0.206373 6.69285C0.711218 7.01007 1.18877 7.30746 1.67315 7.61146C2.95573 8.4045 4.23149 9.20413 5.62323 9.81213C5.7392 9.865 5.79378 9.93108 5.78696 10.0566C5.78014 10.1888 5.78014 10.321 5.78696 10.4532C5.81425 10.8365 6.1076 11.1537 6.48965 11.2065C6.88534 11.2594 7.28103 11.0347 7.39018 10.658C7.44476 10.473 7.50616 10.4466 7.69036 10.4928C9.90077 11.0083 12.118 11.0083 14.3284 10.4928C14.5058 10.4532 14.574 10.4664 14.6286 10.658C14.7377 11.0347 15.1334 11.2594 15.5291 11.2065C15.9112 11.1537 16.2659 10.8365 16.225 10.4598C16.1704 9.97074 16.416 9.79892 16.8185 9.61388C18.2989 8.9398 19.6497 8.04762 21.0278 7.1885C21.2871 7.02989 21.5463 6.86468 21.826 6.69285C21.9488 7.41319 21.9829 8.11372 21.9898 8.80762C22.0034 10.5655 22.0034 12.3234 21.9898 14.0813C21.9829 14.9801 21.9284 15.8789 21.7373 16.7644C21.3826 18.4628 20.3593 19.4343 18.5991 19.7515C17.3779 19.9762 16.1363 19.9894 14.9015 19.996C12.0293 20.0027 9.15714 20.0026 6.28498 19.9828C5.26847 19.9762 4.25878 19.9233 3.25591 19.7185C1.59129 19.3748 0.615707 18.3901 0.274595 16.7908C0.0903946 15.9185 0.0289946 15.0396 0.0221724 14.1606C0.0085279 12.026 -0.0392279 9.89143 0.0699278 7.76345C0.104039 7.41319 0.131328 7.06294 0.206373 6.69285Z" fill="url(#paint0_linear_145_1655)"/>
<path d="M5.78638 8.10053C4.85173 7.65114 3.98531 7.11585 3.11206 6.58055C2.34797 6.11134 1.59753 5.6289 0.833438 5.1663C0.669705 5.06717 0.690171 5.00108 0.765216 4.87551C1.29053 3.98996 2.1092 3.49432 3.11206 3.25641C3.91027 3.06476 4.72211 3.00528 5.54078 2.98546C5.78638 2.97885 5.94329 2.87971 6.07974 2.70788C6.24347 2.50963 6.3458 2.28493 6.43449 2.04702C6.89158 0.771555 7.97632 0.0181737 9.36123 0.00495647C10.4733 -0.00165216 11.5785 -0.00165216 12.6905 0.00495647C14.0686 0.0115651 15.1465 0.764961 15.6104 2.0206C15.6582 2.14616 15.7127 2.26511 15.7741 2.38407C15.9924 2.78719 16.2994 2.99867 16.8111 3.00528C17.7867 3.01189 18.7486 3.11761 19.6628 3.4877C20.3314 3.75865 20.8499 4.20144 21.2387 4.80283C21.3547 4.98126 21.3615 5.06718 21.1501 5.19935C19.7037 6.08491 18.2915 7.01672 16.7906 7.81636C16.6201 7.90888 16.4427 7.9948 16.2585 8.08732C16.2312 8.03445 16.2108 7.98818 16.1903 7.94852C16.0129 7.59166 15.6582 7.40002 15.2898 7.46611C14.8872 7.5388 14.6143 7.83619 14.5871 8.25253C14.5529 8.76801 14.5529 8.76801 14.0345 8.89357C11.9059 9.40244 9.77739 9.376 7.66249 8.80766C7.49194 8.7614 7.43736 8.69531 7.451 8.5367C7.45783 8.40453 7.45783 8.26574 7.43054 8.14018C7.36232 7.7701 7.07578 7.51237 6.70056 7.46611C6.36627 7.42645 6.02516 7.61148 5.86142 7.9287C5.84096 7.98157 5.81367 8.03444 5.78638 8.10053ZM11.019 2.9524C11.2919 2.9524 11.5716 2.9524 11.8445 2.9524C12.5609 2.9524 13.2704 2.9524 13.9867 2.9524C14.0686 2.9524 14.2323 3.01189 14.1709 2.82024C13.9526 2.13955 13.591 1.59104 12.5881 1.60425C11.5648 1.61747 10.5415 1.60425 9.51814 1.60425C8.63807 1.60425 8.21509 1.90824 7.92856 2.70788C7.85352 2.91275 7.89445 2.95902 8.11276 2.95902C9.0747 2.9458 10.0503 2.9524 11.019 2.9524Z" fill="url(#paint1_linear_145_1655)"/>
<defs>
<linearGradient id="paint0_linear_145_1655" x1="11" y1="0" x2="11" y2="20" gradientUnits="userSpaceOnUse">
<stop stop-color="#FF4E71"/>
<stop offset="1" stop-color="#FB0230"/>
</linearGradient>
<linearGradient id="paint1_linear_145_1655" x1="11" y1="0" x2="11" y2="20" gradientUnits="userSpaceOnUse">
<stop stop-color="#FF4E71"/>
<stop offset="1" stop-color="#FB0230"/>
</linearGradient>
</defs>
</svg>
