<svg width="20" height="20" viewBox="0 0 20 20" fill="none" xmlns="http://www.w3.org/2000/svg">
<path d="M7.77119 17.4939C7.09367 17.4939 6.4734 17.4939 5.85314 17.4939C4.67941 17.4939 3.50568 17.4987 2.33195 17.4939C0.981686 17.4843 0.0083497 16.5056 0.00357844 15.1497C-0.00119281 11.7122 -0.00119281 8.27473 0.00357844 4.84202C0.00357844 3.58161 0.933974 2.57424 2.11725 2.49785C2.40352 2.47875 2.55143 2.54082 2.51803 2.86547C2.49418 3.10896 2.50849 3.35722 2.51803 3.60548C2.55143 4.80383 3.46751 5.78256 4.6651 5.80643C6.27301 5.84462 7.88092 5.83985 9.48884 5.80643C10.696 5.78256 11.6311 4.78951 11.6645 3.58161C11.6693 3.38109 11.6645 3.1758 11.6693 2.9705C11.6693 2.46443 11.7027 2.43578 12.2228 2.51217C13.2868 2.66495 14.1265 3.56729 14.1694 4.64628C14.1981 5.35765 14.1694 6.06901 14.1838 6.77561C14.1885 7.02387 14.0883 7.09548 13.8545 7.10981C12.9337 7.15755 12.051 7.38194 11.2303 7.80685C11.0395 7.90234 10.8439 7.91189 10.6387 7.91189C8.24831 7.91189 5.85791 7.91189 3.46751 7.91189C3.31006 7.91189 3.14307 7.90234 2.99516 7.94053C2.66594 8.03124 2.49417 8.25086 2.5228 8.58984C2.55143 8.90016 2.73751 9.09114 3.04764 9.13888C3.19078 9.15798 3.33869 9.1532 3.48183 9.1532C5.21856 9.1532 6.96007 9.1532 8.69681 9.1532C8.84949 9.1532 9.00694 9.1532 9.26459 9.1532C8.84472 9.64018 8.49165 10.0508 8.19583 10.5043C8.08609 10.6762 7.90955 10.6141 7.75687 10.6141C6.26347 10.6189 4.77484 10.6189 3.28143 10.6141C2.98561 10.6141 2.73751 10.6857 2.5896 10.9627C2.35104 11.4114 2.68025 11.8698 3.25758 11.8745C4.51719 11.8841 5.7768 11.8889 7.03641 11.8698C7.38949 11.865 7.57079 11.9175 7.38949 12.3138C7.24635 12.6289 7.36086 13.092 7.0889 13.2782C6.80739 13.4739 6.38752 13.3355 6.02491 13.3403C5.1136 13.3498 4.19751 13.3402 3.2862 13.345C2.78522 13.3498 2.50849 13.579 2.51803 13.9705C2.5228 14.3572 2.80431 14.5863 3.30052 14.5911C4.44562 14.5959 5.59072 14.5911 6.73582 14.5959C6.87896 14.5959 7.09844 14.5243 7.10798 14.7678C7.15569 15.694 7.37994 16.5868 7.77119 17.4939Z" fill="url(#paint0_linear_133_845)"/>
<path d="M14.3937 8.75178C17.5093 8.75655 20.0143 11.2869 19.9999 14.4093C19.9856 17.4935 17.4521 20.0048 14.3555 20C11.2447 19.9952 8.73977 17.4601 8.75408 14.3329C8.77317 11.2344 11.2829 8.747 14.3937 8.75178ZM14.3889 11.244C13.9357 11.2392 13.5778 11.5782 13.554 12.0699C13.5349 12.4471 13.5349 12.8242 13.5492 13.1966C13.5587 13.464 13.4538 13.5547 13.1914 13.5452C12.8431 13.5308 12.4948 13.5356 12.1512 13.5452C11.6025 13.5595 11.2399 13.908 11.2495 14.3902C11.259 14.8533 11.6168 15.178 12.1464 15.2018C12.2323 15.2066 12.3182 15.2018 12.4089 15.2018C13.5444 15.2018 13.5444 15.2018 13.5444 16.319C13.5444 16.405 13.5444 16.4909 13.5444 16.5816C13.5635 17.145 13.8832 17.4887 14.3794 17.4839C14.8708 17.4792 15.1857 17.1354 15.2001 16.5625C15.2096 16.214 15.2144 15.8655 15.2001 15.5217C15.1905 15.2734 15.2907 15.1923 15.5293 15.2018C15.8919 15.2162 16.2545 15.2162 16.6123 15.2018C17.1467 15.1827 17.4855 14.8533 17.4807 14.3711C17.4807 13.8889 17.142 13.5595 16.6123 13.5452C16.2497 13.5356 15.8871 13.5308 15.5293 13.5452C15.2907 13.5547 15.1905 13.4735 15.2001 13.2205C15.2144 12.8433 15.2191 12.4662 15.2001 12.0938C15.1762 11.5925 14.8374 11.2487 14.3889 11.244Z" fill="url(#paint1_linear_133_845)"/>
<path d="M7.04592 4.99457C6.32069 4.99457 5.60023 5.00412 4.875 4.99457C3.93983 4.97547 3.36728 4.40256 3.33865 3.4668C3.32911 3.10395 3.32911 2.74111 3.33865 2.38303C3.35296 1.89128 3.57244 1.67644 4.06388 1.65734C4.12114 1.65257 4.17839 1.64779 4.23565 1.65734C4.64598 1.71463 4.88931 1.59528 5.09924 1.17514C5.50003 0.37306 6.23003 -0.018431 7.12703 0.000666179C8.03834 0.0197633 8.74448 0.454223 9.13096 1.28972C9.27409 1.59528 9.44109 1.70509 9.75599 1.66212C9.91344 1.64302 10.0757 1.64779 10.2331 1.66689C10.5146 1.69554 10.7627 1.83877 10.7961 2.12522C10.8725 2.76975 10.9488 3.43338 10.7246 4.05881C10.5003 4.67947 10.0089 4.98979 9.34566 4.99934C8.58226 4.99934 7.81409 4.99457 7.04592 4.99457Z" fill="url(#paint2_linear_133_845)"/>
<defs>
<linearGradient id="paint0_linear_133_845" x1="10" y1="0" x2="10" y2="20" gradientUnits="userSpaceOnUse">
<stop stop-color="#FF4E71"/>
<stop offset="1" stop-color="#FB0230"/>
</linearGradient>
<linearGradient id="paint1_linear_133_845" x1="10" y1="0" x2="10" y2="20" gradientUnits="userSpaceOnUse">
<stop stop-color="#FF4E71"/>
<stop offset="1" stop-color="#FB0230"/>
</linearGradient>
<linearGradient id="paint2_linear_133_845" x1="10" y1="0" x2="10" y2="20" gradientUnits="userSpaceOnUse">
<stop stop-color="#FF4E71"/>
<stop offset="1" stop-color="#FB0230"/>
</linearGradient>
</defs>
</svg>
