<svg width="15" height="20" viewBox="0 0 15 20" fill="none" xmlns="http://www.w3.org/2000/svg">
<path d="M7.49467 14.2805C6.43944 14.2805 5.38421 14.2712 4.33359 14.2851C4.03407 14.2898 3.78063 14.2108 3.52719 14.0574C0.955931 12.4869 -0.408033 9.38778 0.108062 6.27932C0.610332 3.24056 3.00649 0.754718 6.01089 0.146036C8.99226 -0.457999 12.1119 0.847647 13.7523 3.39854C16.0517 6.97164 15.0794 11.7296 11.605 13.9738C11.2778 14.1829 10.9507 14.2944 10.5544 14.2898C9.53139 14.2665 8.51303 14.2805 7.49467 14.2805Z" fill="url(#paint0_linear_133_846)"/>
<path d="M7.51768 15.9483C8.55448 15.9483 9.59128 15.9576 10.6235 15.9437C10.9414 15.939 11.052 16.032 11.0566 16.3711C11.0797 18.3412 9.46686 20 7.49464 20C5.52243 20 3.90963 18.3552 3.93267 16.3758C3.93728 16.0459 4.02944 15.939 4.35661 15.9437C5.40723 15.9623 6.46245 15.9483 7.51768 15.9483Z" fill="url(#paint1_linear_133_846)"/>
<defs>
<linearGradient id="paint0_linear_133_846" x1="7.5" y1="0" x2="7.5" y2="20" gradientUnits="userSpaceOnUse">
<stop stop-color="#FF4E71"/>
<stop offset="1" stop-color="#FB0230"/>
</linearGradient>
<linearGradient id="paint1_linear_133_846" x1="7.5" y1="0" x2="7.5" y2="20" gradientUnits="userSpaceOnUse">
<stop stop-color="#FF4E71"/>
<stop offset="1" stop-color="#FB0230"/>
</linearGradient>
</defs>
</svg>
