<svg width="24" height="20" viewBox="0 0 24 20" fill="none" xmlns="http://www.w3.org/2000/svg">
<path d="M19.6673 6.6846C19.5132 6.92227 19.3532 7.15993 19.1873 7.39165C19.0511 7.58178 18.9326 7.70062 18.8022 7.75409C18.6245 7.82539 18.4289 7.77786 18.1623 7.61149C16.9062 6.85691 15.5493 6.35781 14.1095 6.10232C11.2596 5.60323 8.58141 6.09638 6.06917 7.51049C5.67218 7.73627 5.45296 7.83133 5.25743 7.75409C5.09745 7.69468 4.95525 7.52237 4.74787 7.21935C4.62344 7.0411 4.49901 6.86285 4.38051 6.67866C4.08426 6.21521 4.14943 5.91813 4.62344 5.63293C6.89868 4.26636 9.36352 3.59496 12.0061 3.55337C14.6665 3.58308 17.1491 4.25448 19.4362 5.63293C19.8983 5.92407 19.9635 6.22115 19.6673 6.6846Z" fill="url(#paint0_linear_133_847)"/>
<path d="M17.5935 9.60764C17.5935 9.76806 17.5106 9.95819 17.3447 10.2018C17.1906 10.4276 17.0425 10.6534 16.8766 10.8673C16.7581 11.0336 16.6455 11.1346 16.5211 11.1762C16.3611 11.2356 16.1774 11.1941 15.9345 11.0633C13.5467 9.76212 11.1174 9.66706 8.63476 10.7841C8.48663 10.8494 8.34443 10.9267 8.20223 11.0039C7.87635 11.1822 7.68675 11.2535 7.50899 11.1822C7.36679 11.1228 7.24236 10.9802 7.06461 10.7365C6.92241 10.5345 6.78021 10.3385 6.64985 10.1364C6.50765 9.92254 6.44248 9.75024 6.4484 9.59576C6.46025 9.3878 6.6143 9.22143 6.91648 9.04319C8.49849 8.12818 10.2049 7.67067 12.0358 7.68255C13.837 7.67661 15.5138 8.13412 17.078 9.01942C17.4276 9.21549 17.5876 9.3878 17.5935 9.60764Z" fill="url(#paint1_linear_133_847)"/>
<path d="M15.1346 13.5591C14.9568 13.8146 14.7672 14.0641 14.5895 14.3196C14.5065 14.4325 14.4236 14.5157 14.3288 14.5632C14.1629 14.6524 13.9673 14.6524 13.7422 14.5454C12.6046 14.0107 11.467 14.0047 10.3293 14.5395C10.0923 14.6524 9.8968 14.6583 9.72498 14.5632C9.62425 14.5098 9.53537 14.4206 9.45242 14.3018C9.26874 14.0344 9.06729 13.7789 8.88361 13.5056C8.76511 13.3333 8.71178 13.1729 8.72363 13.0244C8.73549 12.8283 8.86584 12.656 9.11469 12.5193C10.0212 12.0143 11.0048 11.7944 12.018 11.7707C13.043 11.8004 14.0029 12.0083 14.8857 12.4896C15.1701 12.6441 15.3183 12.8164 15.3301 13.0244C15.336 13.1907 15.2709 13.363 15.1346 13.5591Z" fill="url(#paint2_linear_133_847)"/>
<path d="M14.0621 17.9679C14.0621 18.2293 14.0087 18.4848 13.9139 18.7106C13.6058 19.4711 12.8652 20.0059 12.0061 20C11.1528 19.9881 10.4359 19.4593 10.1337 18.7106C10.033 18.4551 9.97967 18.1818 9.9856 17.8907C9.99152 17.4332 10.1574 17.0113 10.4241 16.6726C10.4359 16.6548 10.4478 16.637 10.4655 16.6251C10.8507 16.1617 11.4313 15.8646 12.0653 15.8824C12.6815 15.8943 13.2326 16.1854 13.594 16.6311C13.6058 16.6489 13.6177 16.6608 13.6295 16.6786C13.9021 17.0291 14.0621 17.4807 14.0621 17.9679Z" fill="url(#paint3_linear_133_847)"/>
<path d="M23.649 7.01111L16.1715 18.0625C16.1656 18.0744 16.1597 18.0803 16.1537 18.0922C16.1419 17.4743 15.9878 16.8861 15.7271 16.3573C15.6086 16.1256 15.4724 15.9057 15.3183 15.6978L21.8892 5.97133L21.9603 5.87032C21.9603 5.87032 21.9189 5.82873 21.8359 5.75149C21.1545 5.10979 17.7002 2.11522 11.9943 2.04986C6.29438 2.10333 2.84004 5.09791 2.15866 5.7396C2.0757 5.82279 2.03423 5.86438 2.03423 5.86438L2.10533 5.96539L8.67627 15.6918C8.52221 15.8998 8.38001 16.1196 8.26743 16.3513C8.00673 16.8742 7.85268 17.4624 7.84083 18.0863C7.8349 18.0744 7.82898 18.0685 7.82305 18.0566L0.3515 7.01111C-0.187684 6.21493 -0.0988071 5.15138 0.564804 4.45621C0.736632 4.27797 4.80718 0.0831827 11.9706 0C11.9825 0 11.9943 0 12.0002 0C12.0121 0 12.0239 0 12.0299 0C19.1933 0.0831827 23.2639 4.27797 23.4298 4.45621C24.0993 5.15138 24.1882 6.21493 23.649 7.01111Z" fill="url(#paint4_linear_133_847)"/>
<defs>
<linearGradient id="paint0_linear_133_847" x1="12" y1="0" x2="12" y2="20" gradientUnits="userSpaceOnUse">
<stop stop-color="#FF4E71"/>
<stop offset="1" stop-color="#FB0230"/>
</linearGradient>
<linearGradient id="paint1_linear_133_847" x1="12" y1="0" x2="12" y2="20" gradientUnits="userSpaceOnUse">
<stop stop-color="#FF4E71"/>
<stop offset="1" stop-color="#FB0230"/>
</linearGradient>
<linearGradient id="paint2_linear_133_847" x1="12" y1="0" x2="12" y2="20" gradientUnits="userSpaceOnUse">
<stop stop-color="#FF4E71"/>
<stop offset="1" stop-color="#FB0230"/>
</linearGradient>
<linearGradient id="paint3_linear_133_847" x1="12" y1="0" x2="12" y2="20" gradientUnits="userSpaceOnUse">
<stop stop-color="#FF4E71"/>
<stop offset="1" stop-color="#FB0230"/>
</linearGradient>
<linearGradient id="paint4_linear_133_847" x1="12" y1="0" x2="12" y2="20" gradientUnits="userSpaceOnUse">
<stop stop-color="#FF4E71"/>
<stop offset="1" stop-color="#FB0230"/>
</linearGradient>
</defs>
</svg>
