<svg width="19" height="20" viewBox="0 0 19 20" fill="none" xmlns="http://www.w3.org/2000/svg">
<path d="M18.9972 10.0205C18.9972 12.6558 18.9972 15.2912 18.9972 17.9266C18.9972 19.3347 18.3498 20 16.9661 20C12.6565 20 8.3469 20 4.03094 20C2.64729 20 2.01894 19.367 2.01894 17.9718C2.01894 17.4874 2.00624 16.9965 2.02528 16.512C2.03163 16.2213 1.94912 16.0857 1.64446 16.118C1.45405 16.1374 1.25095 16.1309 1.06054 16.1051C0.451227 16.0082 0.000589551 15.485 0.000589551 14.8649C0.000589551 14.2319 0.476615 13.7087 1.10497 13.6312C1.39693 13.5924 1.77775 13.7668 1.96181 13.5278C2.13953 13.2888 1.9999 12.9078 2.01894 12.5913C2.02528 12.5137 2.01894 12.4362 2.01894 12.3652C2.01259 12.0293 2.1078 11.6353 1.96816 11.3769C1.79679 11.0604 1.3652 11.2929 1.05419 11.2348C0.451227 11.125 -0.00575745 10.6147 0.000589551 10.0011C0.00693656 9.38747 0.457574 8.86427 1.06689 8.7803C1.11132 8.77384 1.15574 8.77384 1.20017 8.76738C2.01894 8.71571 2.01894 8.71571 2.01894 7.85663C2.01894 7.48845 1.9999 7.12673 2.02528 6.75856C2.04433 6.44851 1.91739 6.35162 1.63177 6.37746C1.45405 6.39038 1.26999 6.38392 1.09227 6.36454C0.482962 6.29995 0.0259776 5.79613 0.000589551 5.17604C-0.0184515 4.56887 0.425839 4.01984 1.0288 3.92295C1.08593 3.91003 1.1494 3.90357 1.20652 3.89711C2.01894 3.84544 2.01894 3.84544 2.01894 3.03803C2.01894 2.61172 2.01259 2.18541 2.02528 1.7591C2.05067 0.7773 2.73615 0.0344877 3.69455 0.0280285C5.64308 0.00219151 7.58526 0.0280285 9.53379 0.01511C9.86384 0.01511 9.88923 0.176591 9.88923 0.44142C9.88288 2.06915 9.88288 3.70334 9.88923 5.33107C9.88923 5.5636 9.79402 5.8478 10.086 5.97699C10.3526 6.09326 10.4922 5.8478 10.6509 5.69924C11.0761 5.31815 11.5077 4.93705 11.9203 4.53658C12.1868 4.27175 12.4153 4.25883 12.6883 4.53012C13.1325 4.96289 13.5959 5.36982 14.0529 5.78967C14.1861 5.9124 14.3131 6.06096 14.5225 5.98345C14.7637 5.89302 14.7256 5.6734 14.7256 5.47963C14.7256 3.83252 14.7447 2.19187 14.7129 0.544768C14.7003 0.0861616 14.8526 -0.0171862 15.2461 0.00219151C15.8554 0.0280285 16.4711 0.00865075 17.0867 0.00865075C18.3117 0.01511 18.9972 0.712708 18.9972 1.97226C19.0035 4.6593 18.9972 7.33989 18.9972 10.0205Z" fill="url(#paint0_linear_133_848)"/>
<defs>
<linearGradient id="paint0_linear_133_848" x1="9.5" y1="0" x2="9.5" y2="20" gradientUnits="userSpaceOnUse">
<stop stop-color="#FF4E71"/>
<stop offset="1" stop-color="#FB0230"/>
</linearGradient>
</defs>
</svg>
