<svg width="17" height="20" viewBox="0 0 17 20" fill="none" xmlns="http://www.w3.org/2000/svg">
<path d="M5.68862 7.9165C6.09468 7.9165 6.50075 7.90603 6.91215 7.92174C7.1045 7.92698 7.21136 7.86938 7.31287 7.70706C7.85251 6.8431 8.41351 5.98961 8.94781 5.12042C9.17755 4.74866 9.47676 4.57586 9.92556 4.58634C10.8713 4.60204 11.817 4.58634 12.768 4.59681C12.9336 4.59681 13.0191 4.56016 13.0672 4.3926C13.1741 4.02607 13.3023 3.66478 13.4412 3.30872C13.5053 3.14117 13.4733 3.05215 13.3397 2.93696C12.8428 2.5076 12.6344 1.96304 12.784 1.32424C12.939 0.648779 13.3771 0.214182 14.0663 0.046626C15.0227 -0.183763 16.0005 0.465515 16.1394 1.42372C16.2836 2.3924 15.5623 3.29302 14.5793 3.34014C14.3709 3.35061 14.2907 3.42916 14.2373 3.60195C14.1251 3.96847 13.9915 4.32453 13.8686 4.68582C13.8259 4.80625 13.8312 4.9005 13.906 5.02093C14.6006 6.09434 15.2899 7.17821 15.9791 8.25685C16.1928 8.59196 16.1928 8.92184 15.9738 9.25695C15.3273 10.2675 14.6808 11.2886 14.0289 12.2939C13.9167 12.4615 13.89 12.5976 13.9969 12.7861C14.232 13.205 14.4403 13.6343 14.6487 14.0637C14.7128 14.1946 14.7823 14.2313 14.9372 14.2051C15.931 14.0061 16.8714 14.6659 16.9889 15.6398C17.1011 16.5875 16.3478 17.4515 15.37 17.4934C14.3762 17.5352 13.5588 16.7394 13.5962 15.7654C13.6068 15.4356 13.703 15.1319 13.9114 14.8701C14.0076 14.7496 14.0129 14.6554 13.9434 14.5192C13.6923 14.048 13.4519 13.582 13.2221 13.1003C13.1473 12.9484 13.0565 12.9065 12.8962 12.9065C12.0841 12.9118 11.2666 12.9118 10.4545 12.9065C10.3049 12.9065 10.2194 12.9432 10.1339 13.0741C9.57293 13.9695 8.99589 14.8491 8.44023 15.7445C8.22651 16.0901 7.93265 16.2472 7.52125 16.2419C6.46869 16.2315 5.41613 16.2419 4.36358 16.2367C4.20329 16.2367 4.10177 16.2786 4.01094 16.4095C3.856 16.6294 3.69037 16.8441 3.51939 17.0535C3.42856 17.1635 3.42322 17.242 3.50871 17.3677C4.21397 18.394 3.67434 19.703 2.44547 19.9648C1.78829 20.1062 1.08302 19.813 0.692987 19.2422C0.324325 18.6977 0.324325 17.9437 0.703673 17.3991C1.10439 16.8284 1.80966 16.5351 2.45615 16.6975C2.6485 16.7446 2.74467 16.6975 2.84619 16.5509C2.99579 16.3362 3.15073 16.1267 3.32171 15.9278C3.42856 15.8021 3.43925 15.7131 3.34308 15.5665C2.71796 14.603 2.10886 13.6239 1.4784 12.6604C1.21659 12.2625 1.21125 11.9012 1.4784 11.5032C2.11955 10.5241 2.73398 9.53446 3.36979 8.55007C3.45528 8.41917 3.46062 8.33539 3.36979 8.20449C3.04387 7.74371 2.71796 7.27246 2.41341 6.79598C2.30655 6.62842 2.20503 6.59177 2.01269 6.62842C1.23262 6.78027 0.447212 6.36661 0.142665 5.67021C-0.172567 4.94239 0.0464926 4.13079 0.682301 3.67002C1.35017 3.18306 2.26915 3.23542 2.86756 3.80092C3.46597 4.36642 3.57282 5.26703 3.09196 5.93725C2.9851 6.0891 2.99044 6.17811 3.09196 6.31949C3.40719 6.75932 3.71174 7.20439 4.00026 7.65993C4.12315 7.84843 4.25137 7.93745 4.48646 7.92174C4.88718 7.89556 5.2879 7.9165 5.68862 7.9165ZM5.92905 9.58682C5.59245 9.58682 5.25585 9.59206 4.91924 9.58159C4.76964 9.57635 4.67881 9.62348 4.59867 9.74914C4.14452 10.4717 3.68503 11.1891 3.22553 11.9064C3.15073 12.0216 3.1347 12.1106 3.21485 12.2311C3.68503 12.9536 4.14986 13.6815 4.60401 14.4093C4.67881 14.5245 4.75895 14.5768 4.90321 14.5716C5.59245 14.5664 6.28169 14.5664 6.97092 14.5716C7.10984 14.5716 7.19533 14.5297 7.27013 14.4093C7.72962 13.6815 8.19445 12.9536 8.65929 12.2311C8.72875 12.1263 8.74478 12.0426 8.66997 11.9274C8.19445 11.1943 7.72962 10.4613 7.26479 9.72296C7.19533 9.613 7.11518 9.57112 6.98695 9.57112C6.63966 9.59206 6.28169 9.58682 5.92905 9.58682ZM11.459 6.25142C11.1224 6.25142 10.7858 6.25666 10.4492 6.25142C10.3049 6.24618 10.2141 6.28284 10.1286 6.41374C9.67979 7.13632 9.21495 7.85891 8.75012 8.57102C8.66997 8.69668 8.66463 8.79093 8.75012 8.9166C9.21495 9.63395 9.67979 10.3513 10.1286 11.0739C10.2087 11.2048 10.2996 11.2414 10.4492 11.2414C11.1331 11.2362 11.8116 11.2362 12.4955 11.2414C12.6344 11.2414 12.7199 11.21 12.7947 11.0844C13.2595 10.3461 13.7244 9.613 14.1999 8.87995C14.264 8.77523 14.2694 8.70716 14.1999 8.60244C13.7244 7.86938 13.2595 7.13632 12.7947 6.39803C12.7199 6.2776 12.6344 6.23571 12.4955 6.24095C12.1482 6.26189 11.8063 6.25142 11.459 6.25142Z" fill="url(#paint0_linear_133_849)"/>
<path d="M5.93975 10.8329C5.66726 10.8329 5.39477 10.8381 5.12228 10.8329C4.85514 10.8276 4.67348 10.6548 4.66813 10.4244C4.66279 10.1888 4.83911 10.0108 5.10625 10.0056C5.66192 9.99508 6.21758 9.99508 6.77325 10.0056C7.04039 10.0108 7.21671 10.1888 7.21137 10.4244C7.20602 10.6548 7.02436 10.8276 6.75722 10.8329C6.48473 10.8381 6.21224 10.8329 5.93975 10.8329Z" fill="url(#paint1_linear_133_849)"/>
<path d="M11.9399 10.8331C11.5712 10.8331 11.3414 10.4822 11.5231 10.2257C11.9559 9.62353 12.41 9.04232 12.8695 8.46111C13.0031 8.28832 13.2168 8.28832 13.3985 8.40875C13.5855 8.53442 13.6442 8.72292 13.5374 8.93236C13.484 9.03708 13.4038 9.13657 13.329 9.23082C12.9817 9.68636 12.6291 10.1419 12.2818 10.5974C12.1803 10.7336 12.0627 10.8278 11.9399 10.8331Z" fill="url(#paint2_linear_133_849)"/>
<defs>
<linearGradient id="paint0_linear_133_849" x1="8.5" y1="0" x2="8.5" y2="20" gradientUnits="userSpaceOnUse">
<stop stop-color="#FF4E71"/>
<stop offset="1" stop-color="#FB0230"/>
</linearGradient>
<linearGradient id="paint1_linear_133_849" x1="8.5" y1="0" x2="8.5" y2="20" gradientUnits="userSpaceOnUse">
<stop stop-color="#FF4E71"/>
<stop offset="1" stop-color="#FB0230"/>
</linearGradient>
<linearGradient id="paint2_linear_133_849" x1="8.5" y1="0" x2="8.5" y2="20" gradientUnits="userSpaceOnUse">
<stop stop-color="#FF4E71"/>
<stop offset="1" stop-color="#FB0230"/>
</linearGradient>
</defs>
</svg>
