<svg width="15" height="20" viewBox="0 0 15 20" fill="none" xmlns="http://www.w3.org/2000/svg">
<path d="M7.79464 19.9892C6.32287 19.9892 5.11452 20.0007 3.9119 19.9834C2.62337 19.9661 1.48948 19.5856 0.687728 18.4843C-0.159833 17.3253 -0.234281 15.9011 0.521652 14.6787C1.66128 12.8278 2.72646 10.9366 3.78018 9.03384C4.18678 8.30156 4.36431 7.50009 4.37004 6.66979C4.37577 5.45893 4.37004 4.24808 4.37576 3.03723C4.37576 2.80082 4.3185 2.6855 4.07797 2.60478C3.39076 2.37414 3.04716 1.76871 3.17314 1.08833C3.29913 0.431006 3.81454 0.00432448 4.52466 0.00432448C6.5004 -0.00144149 8.47613 -0.00144149 10.4576 0.00432448C11.1963 0.00432448 11.7175 0.431006 11.8377 1.11139C11.958 1.78601 11.6087 2.37414 10.9157 2.62208C10.7325 2.6855 10.6294 2.74893 10.6351 2.9738C10.6638 4.36917 10.595 5.7703 10.6752 7.16566C10.7153 7.84028 10.9157 8.46877 11.2422 9.0569C12.2959 10.9539 13.3668 12.8509 14.5007 14.7018C15.7949 16.8064 14.4377 19.6029 11.9866 19.9085C10.4977 20.093 9.00872 19.9315 7.79464 19.9892ZM5.0458 9.77765C6.12816 9.52394 7.02726 9.78341 7.91491 10.2043C8.53912 10.5042 9.22634 10.458 9.89637 10.3369C10.1483 10.2908 10.2113 10.2101 10.0682 9.97369C9.69593 9.35097 9.42105 8.68788 9.30078 7.96713C9.26642 7.76532 9.16334 7.70766 8.98009 7.71343C8.63648 7.7192 8.29287 7.73073 7.94927 7.70766C7.58848 7.6846 7.35941 7.47703 7.34223 7.10224C7.31932 6.72745 7.54267 6.50834 7.88627 6.43915C8.0638 6.40455 8.25851 6.42185 8.44177 6.41609C9.2607 6.38726 9.14616 6.6006 9.16907 5.64345C9.1748 5.34938 9.06599 5.26866 8.7911 5.28019C8.36159 5.29749 7.93209 5.29172 7.50258 5.28019C7.03298 5.27442 6.74092 5.02072 6.74092 4.64017C6.73519 4.25961 7.03871 3.98861 7.49113 3.98285C7.94927 3.97708 8.40741 3.96555 8.86555 3.98861C9.18052 4.00591 9.20916 3.8041 9.15189 3.60806C9.06599 3.29669 9.44968 2.74893 8.88273 2.7028C7.97217 2.62208 7.05017 2.6855 6.13388 2.67397C5.859 2.6682 5.84182 2.81812 5.84182 3.03146C5.84754 3.72338 5.84182 4.41529 5.84182 5.10721C5.859 6.68132 5.92772 8.2612 5.0458 9.77765ZM8.39596 15.065C7.68584 15.0304 7.06735 15.607 7.02726 16.3336C6.98717 17.0658 7.54267 17.6943 8.25851 17.7347C8.99727 17.7751 9.62148 17.1985 9.65012 16.4489C9.67302 15.7339 9.10607 15.0996 8.39596 15.065ZM6.35723 13.5255C6.36868 13.0066 5.96781 12.5799 5.45812 12.5626C4.9599 12.5453 4.52466 12.9662 4.50748 13.4794C4.4903 13.9753 4.91408 14.4308 5.41231 14.4481C5.90481 14.4596 6.34577 14.0272 6.35723 13.5255ZM10.9673 13.9234C10.973 13.5774 10.7497 13.3237 10.4461 13.3237C10.1083 13.3237 9.91355 13.5082 9.88491 13.8484C9.85628 14.1656 10.1197 14.4596 10.4232 14.4423C10.7554 14.4193 10.9329 14.2174 10.9673 13.9234Z" fill="url(#paint0_linear_133_850)"/>
<defs>
<linearGradient id="paint0_linear_133_850" x1="7.5" y1="0" x2="7.5" y2="20" gradientUnits="userSpaceOnUse">
<stop stop-color="#FF4E71"/>
<stop offset="1" stop-color="#FB0230"/>
</linearGradient>
</defs>
</svg>
