<svg width="16" height="20" viewBox="0 0 16 20" fill="none" xmlns="http://www.w3.org/2000/svg">
<path d="M0.00124961 9.95572C0.00124961 7.50092 0.00124961 5.04612 0.00124961 2.59132C0.00124961 0.948223 0.955951 0.00368958 2.62043 0.00368958C6.21431 -0.00122986 9.80819 -0.00122986 13.4021 0.00368958C15.0316 0.00368958 15.9963 0.958062 15.9963 2.57164C16.0012 7.54028 16.0012 12.5089 15.9963 17.4776C15.9963 19.0272 15.0166 19.9963 13.447 19.9963C9.80819 20.0012 6.16932 20.0012 2.53046 19.9963C0.985942 19.9914 0.0112465 19.0223 0.00624805 17.4972C-0.00374883 14.9834 0.00124961 12.4696 0.00124961 9.95572ZM10.278 4.68208C10.9878 4.68208 11.6976 4.687 12.4124 4.68208C12.9072 4.67716 13.2021 4.42135 13.1921 4.03271C13.1821 3.649 12.8872 3.40794 12.3874 3.40794C10.9828 3.40303 9.57326 3.40303 8.1687 3.40794C7.66885 3.40794 7.37395 3.64408 7.36395 4.03271C7.35395 4.43611 7.65886 4.67716 8.19369 4.68208C8.88847 4.687 9.58326 4.68208 10.278 4.68208ZM10.2281 16.5921C10.9678 16.5921 11.7126 16.597 12.4524 16.5921C12.9022 16.5871 13.1971 16.3215 13.1921 15.9476C13.1871 15.5885 12.9172 15.3278 12.4824 15.3228C11.0128 15.313 9.54827 15.313 8.07873 15.3228C7.64386 15.3228 7.37395 15.5786 7.36395 15.9427C7.35395 16.3166 7.64886 16.5871 8.09372 16.5921C8.8085 16.597 9.51828 16.5921 10.2281 16.5921ZM4.3049 17.4431C5.12965 17.448 5.81443 16.7888 5.82943 15.982C5.84442 15.1802 5.16963 14.4915 4.34989 14.4767C3.49516 14.4619 2.80537 15.1261 2.80537 15.9574C2.80537 16.7692 3.48016 17.4382 4.3049 17.4431ZM4.3299 2.5618C3.50016 2.55688 2.81537 3.21117 2.80537 4.02288C2.79038 4.85426 3.47516 5.53314 4.3249 5.52822C5.14964 5.52331 5.82943 4.85426 5.82943 4.04747C5.82943 3.24068 5.14964 2.56672 4.3299 2.5618ZM10.258 10.6346C10.9678 10.6346 11.6826 10.6395 12.3924 10.6346C12.8972 10.6297 13.1921 10.3886 13.1921 10C13.1921 9.61628 12.8972 9.37031 12.3874 9.37031C10.9778 9.36539 9.56826 9.36539 8.1587 9.37031C7.65386 9.37031 7.35895 9.61628 7.35895 10.0049C7.35895 10.3886 7.65886 10.6297 8.1637 10.6346C8.86348 10.6395 9.55826 10.6346 10.258 10.6346ZM4.29991 11.4758C5.14464 11.4808 5.81943 10.8363 5.83443 10.0197C5.84442 9.20305 5.17463 8.53892 4.3349 8.52909C3.49016 8.52417 2.81537 9.16369 2.80537 9.98524C2.79538 10.8068 3.46017 11.466 4.29991 11.4758Z" fill="url(#paint0_linear_133_851)"/>
<defs>
<linearGradient id="paint0_linear_133_851" x1="8" y1="0" x2="8" y2="20" gradientUnits="userSpaceOnUse">
<stop stop-color="#FF4E71"/>
<stop offset="1" stop-color="#FB0230"/>
</linearGradient>
</defs>
</svg>
