<svg width="22" height="20" viewBox="0 0 22 20" fill="none" xmlns="http://www.w3.org/2000/svg">
<path d="M7.89139 3.06528C9.29974 1.34603 10.9911 0.357802 13.083 0.0735168C16.9214 -0.440903 20.4561 1.78599 21.6504 5.44785C22.7757 8.89311 21.105 12.7851 17.7775 14.4908C14.3601 16.2371 10.2317 15.3437 7.89139 12.3384C7.346 11.6412 6.95249 10.8628 6.66253 10.0235C6.51065 9.58352 6.64873 9.4143 7.08366 9.32631C8.40226 9.05556 9.49995 9.394 10.3422 10.4228C11.6332 11.9864 13.2832 12.6362 15.2714 12.1353C17.2597 11.6344 18.454 10.3145 18.7716 8.32454C19.0477 6.57822 18.4057 5.10265 16.9835 4.04673C15.5061 2.94344 13.8562 2.75392 12.1579 3.54585C11.7298 3.74891 11.3777 3.78952 10.9359 3.61354C10.0039 3.24126 9.00979 3.12619 7.89139 3.06528Z" fill="url(#paint0_linear_133_852)"/>
<path d="M14.0496 16.9272C13.518 17.6989 12.8759 18.2404 12.1718 18.7074C8.53351 21.1171 3.54215 20.0544 1.18109 16.379C-1.13164 12.7713 0.0626988 7.90459 3.79759 5.72507C8.15381 3.18682 13.7872 5.22419 15.2853 9.88104C15.4855 10.497 15.4717 10.5376 14.8297 10.6662C13.5111 10.9302 12.4272 10.5444 11.5987 9.502C9.71404 7.15326 6.27601 7.06527 4.28085 9.31248C2.86559 10.9099 2.78275 13.3737 4.09445 15.0523C5.48209 16.8325 7.85005 17.4214 9.84521 16.4399C10.2732 16.2301 10.6184 16.1895 11.0672 16.3654C11.9854 16.7445 12.9726 16.8799 14.0496 16.9272Z" fill="url(#paint1_linear_133_852)"/>
<defs>
<linearGradient id="paint0_linear_133_852" x1="11" y1="0" x2="11" y2="20" gradientUnits="userSpaceOnUse">
<stop stop-color="#FF4E71"/>
<stop offset="1" stop-color="#FB0230"/>
</linearGradient>
<linearGradient id="paint1_linear_133_852" x1="11" y1="0" x2="11" y2="20" gradientUnits="userSpaceOnUse">
<stop stop-color="#FF4E71"/>
<stop offset="1" stop-color="#FB0230"/>
</linearGradient>
</defs>
</svg>
