<svg width="22" height="20" viewBox="0 0 22 20" fill="none" xmlns="http://www.w3.org/2000/svg">
<path d="M16.9431 7.51192C16.9482 7.83857 16.8501 7.93555 16.5195 7.92534C15.7602 7.90493 14.9957 7.91003 14.2312 7.92024C12.1598 7.94065 10.6309 9.46165 10.6205 11.5135C10.6102 13.0906 10.6102 14.6728 10.6257 16.25C10.6309 16.5715 10.5379 16.6736 10.2073 16.6736C8.19792 16.6583 6.18856 16.6736 4.18436 16.6634C2.72769 16.6532 1.76175 15.6885 1.75659 14.2543C1.75659 13.4581 1.75659 12.6619 1.75659 11.8656C1.79274 11.9014 1.8289 11.9371 1.86506 11.9728L3.88992 13.9736C4.03972 14.1216 4.39614 14.4738 4.97984 14.581C5.1348 14.6065 5.2846 14.6371 5.43956 14.6677C5.88896 14.7494 6.35902 14.8362 6.82907 14.9127C7.41794 15.0046 7.98097 14.8566 8.39938 14.4993C8.81261 14.1471 9.04506 13.6418 9.04506 13.0702C9.04506 12.9426 9.03473 12.815 9.0089 12.6874C8.97791 12.5138 8.94692 12.3403 8.91592 12.1668C8.85394 11.8146 8.79195 11.4777 8.73513 11.1409C8.65248 10.6203 8.41487 10.1711 8.03779 9.80872C7.71237 9.49738 7.38178 9.17072 7.06152 8.84917C6.92722 8.71646 6.79292 8.57865 6.65345 8.44595L5.82181 7.62421C5.10381 6.91475 4.36515 6.17977 3.63165 5.46011C3.09444 4.91398 2.42293 4.64347 1.75659 4.65368C1.75659 4.46483 1.75659 4.27088 1.75659 4.08203C1.76175 2.57635 2.87749 1.56575 4.40131 1.66273C4.63375 1.67804 4.70607 1.75971 4.7009 1.97407C4.7009 2.33646 4.7009 2.69884 4.70607 3.06123C4.73706 4.44952 5.703 5.39886 7.10801 5.40907C8.606 5.41928 10.0988 5.41928 11.5968 5.40907C13.0018 5.39886 13.9626 4.43931 13.9832 3.05102C13.9884 2.68863 13.9936 2.32625 13.9832 1.96387C13.9781 1.73419 14.0711 1.67294 14.2932 1.66273C15.8376 1.57596 16.9276 2.56614 16.9379 4.08203C16.9431 5.22532 16.9276 6.36862 16.9431 7.51192Z" fill="url(#paint0_linear_133_853)"/>
<path d="M21.9948 11.5388C21.9897 10.1812 21.0341 9.18079 19.6652 9.16547C17.847 9.13995 16.0287 9.13995 14.2105 9.16547C12.8416 9.18589 11.886 10.1863 11.8809 11.5388C11.8757 12.5545 11.8809 13.5651 11.8809 14.5808C11.8809 15.5812 11.8809 16.5816 11.8809 17.5769C11.886 19.0111 12.8675 19.9911 14.3035 19.9962C16.0597 20.0013 17.8211 20.0013 19.5826 19.9962C21.0031 19.9911 22 19.0162 22 17.6228C22 15.5965 22 13.5651 21.9948 11.5388ZM15.1867 11.4623C16.3593 11.4572 17.5267 11.4572 18.6993 11.4623C19.1693 11.4623 19.4379 11.6869 19.4483 12.0697C19.4586 12.4627 19.1797 12.6974 18.6786 12.7025C18.1052 12.7077 17.537 12.7025 16.9688 12.7025C16.3696 12.7025 15.7704 12.7077 15.1713 12.7025C14.6909 12.6974 14.4274 12.478 14.4223 12.0952C14.4171 11.7022 14.6909 11.4674 15.1867 11.4623ZM18.7354 17.7096C17.537 17.7198 16.3386 17.7198 15.1351 17.7096C14.6805 17.7045 14.4068 17.4442 14.4171 17.0614C14.4274 16.6939 14.6805 16.4693 15.1299 16.4642C15.7446 16.454 16.3593 16.4591 16.974 16.4591C17.5577 16.4591 18.1466 16.4489 18.7303 16.4591C19.1797 16.4693 19.4328 16.6888 19.4483 17.0563C19.4638 17.4391 19.19 17.7045 18.7354 17.7096ZM18.6786 15.2035C17.5267 15.2086 16.3696 15.2086 15.2126 15.2035C14.7012 15.2035 14.4274 14.984 14.4171 14.5961C14.4119 14.2031 14.6805 13.9785 15.1867 13.9734C15.7704 13.9683 16.3541 13.9734 16.943 13.9734C17.5267 13.9734 18.1104 13.9683 18.6941 13.9734C19.1745 13.9785 19.4379 14.198 19.4431 14.5757C19.4586 14.9585 19.1745 15.1984 18.6786 15.2035Z" fill="url(#paint1_linear_133_853)"/>
<path d="M9.34983 4.1738C8.61634 4.1738 7.88801 4.1789 7.15451 4.1738C6.39002 4.1687 5.98195 3.77058 5.97162 3.0254C5.96129 2.3874 5.96129 1.7545 5.97162 1.1165C5.98195 0.422356 6.40035 0.00893201 7.09769 0.003828C8.59051 -0.001276 10.0833 -0.001276 11.5761 0.003828C12.2683 0.00893201 12.7022 0.417252 12.7177 1.10629C12.7384 1.7545 12.7384 2.40781 12.7177 3.05602C12.6971 3.77058 12.2735 4.16359 11.54 4.16869C10.8168 4.1789 10.0833 4.1738 9.34983 4.1738Z" fill="url(#paint2_linear_133_853)"/>
<path d="M0.000385494 7.74649C-0.00477997 7.56785 0.0417092 7.39941 0.155349 7.26671C0.465277 6.89922 0.801033 6.54704 1.18328 6.25612C1.63267 5.91415 2.19571 5.99071 2.6451 6.42965C3.65237 7.41983 4.65964 8.42021 5.66174 9.41039C6.12663 9.86975 6.58636 10.3342 7.05641 10.7885C7.22171 10.9467 7.30952 11.1202 7.34568 11.3397C7.42833 11.8654 7.53164 12.386 7.62461 12.9117C7.69693 13.3252 7.46449 13.5906 7.04608 13.5242C6.44172 13.4323 5.83736 13.315 5.233 13.2027C5.08837 13.1771 4.98506 13.0802 4.88692 12.9832C3.39926 11.5132 1.91161 10.0433 0.429119 8.57333C0.191508 8.34365 -0.00477997 8.09356 0.000385494 7.74649Z" fill="url(#paint3_linear_133_853)"/>
<defs>
<linearGradient id="paint0_linear_133_853" x1="11" y1="0" x2="11" y2="20" gradientUnits="userSpaceOnUse">
<stop stop-color="#FF4E71"/>
<stop offset="1" stop-color="#FB0230"/>
</linearGradient>
<linearGradient id="paint1_linear_133_853" x1="11" y1="0" x2="11" y2="20" gradientUnits="userSpaceOnUse">
<stop stop-color="#FF4E71"/>
<stop offset="1" stop-color="#FB0230"/>
</linearGradient>
<linearGradient id="paint2_linear_133_853" x1="11" y1="0" x2="11" y2="20" gradientUnits="userSpaceOnUse">
<stop stop-color="#FF4E71"/>
<stop offset="1" stop-color="#FB0230"/>
</linearGradient>
<linearGradient id="paint3_linear_133_853" x1="11" y1="0" x2="11" y2="20" gradientUnits="userSpaceOnUse">
<stop stop-color="#FF4E71"/>
<stop offset="1" stop-color="#FB0230"/>
</linearGradient>
</defs>
</svg>
