<svg width="20" height="20" viewBox="0 0 20 20" fill="none" xmlns="http://www.w3.org/2000/svg">
<path d="M11.0161 0.0503585C4.69517 -0.574037 -0.574059 4.69498 0.0503614 11.0211C0.515938 15.6986 4.3008 19.4833 8.97847 19.9488C15.3048 20.5787 20.5741 15.3042 19.9496 8.97811C19.4841 4.30063 15.6992 0.515916 11.0161 0.0503585ZM10.0466 2.20288C12.2539 2.22479 14.0615 4.05963 14.045 6.26145C14.0286 8.79189 11.6952 10.7746 9.0935 10.194C7.53245 9.8435 6.29456 8.55637 6.02617 6.97895C5.5825 4.39921 7.56531 2.17549 10.0466 2.20288ZM14.549 16.3668C13.2673 17.2596 11.7445 17.7361 9.99726 17.7963C8.38692 17.7416 6.97923 17.3417 5.76326 16.5914C3.27105 15.0468 3.92286 11.158 6.80943 10.6158C6.82587 10.6103 6.84778 10.6103 6.86421 10.6048C7.11069 10.561 7.32978 10.6158 7.5434 10.7691C8.98943 11.8098 10.9887 11.7222 12.484 10.7472C12.8291 10.5227 13.1632 10.5884 13.5028 10.676C13.5192 10.6815 13.5356 10.687 13.5521 10.687C16.1319 11.3716 16.7344 14.8441 14.549 16.3668Z" fill="url(#paint0_linear_89_132)"/>
<defs>
<linearGradient id="paint0_linear_89_132" x1="10" y1="0" x2="10" y2="20" gradientUnits="userSpaceOnUse">
<stop stop-color="#FF4E71"/>
<stop offset="1" stop-color="#FB0230"/>
</linearGradient>
</defs>
</svg>
