<svg width="15" height="20" viewBox="0 0 15 20" fill="none" xmlns="http://www.w3.org/2000/svg">
<path d="M4.62924 10.4666C3.09032 8.68057 3.523 5.43568 5.99419 4.36768C6.32427 4.2268 6.41795 4.04501 6.40903 3.69962C6.38672 2.89521 6.39564 2.09535 6.40456 1.29095C6.41349 0.509263 6.88631 -0.0133735 7.54648 0.000260542C8.18881 0.0138945 8.63934 0.522897 8.64826 1.27731C8.65718 2.0999 8.66164 2.92248 8.6438 3.74052C8.63488 4.04501 8.72409 4.20408 9.01403 4.32224C10.0757 4.75852 10.7715 5.53112 11.1507 6.65365C12.0919 9.44407 13.5817 13.8342 14.902 17.7199C15.4864 19.4332 13.3141 20.7012 12.1498 19.3287C9.45117 16.1247 6.41795 12.539 4.62924 10.4666ZM9.30397 8.21247C9.30843 7.15811 8.48321 6.33552 7.43943 6.38551C6.53392 6.42642 5.78008 7.21719 5.75331 8.1443C5.72209 9.20775 6.50716 10.0394 7.5331 10.0303C8.53228 10.0258 9.29951 9.23502 9.30397 8.21247Z" fill="url(#paint0_linear_89_169)"/>
<path d="M2.89388 9.56221C3.60758 11.0892 4.75396 12.08 5.64163 13.2797C5.91818 13.6479 6.22597 13.9978 6.53821 14.3296C6.77908 14.5841 6.84153 14.7386 6.5962 15.0204C5.64163 16.1383 4.25437 17.7699 2.84036 19.4241C1.67613 20.7875 -0.482806 19.5196 0.0970745 17.8108L2.89388 9.56221Z" fill="url(#paint1_linear_89_169)"/>
<defs>
<linearGradient id="paint0_linear_89_169" x1="7.5" y1="0" x2="7.5" y2="20" gradientUnits="userSpaceOnUse">
<stop stop-color="#FF4E71"/>
<stop offset="1" stop-color="#FB0230"/>
</linearGradient>
<linearGradient id="paint1_linear_89_169" x1="7.5" y1="0" x2="7.5" y2="20" gradientUnits="userSpaceOnUse">
<stop stop-color="#FF4E71"/>
<stop offset="1" stop-color="#FB0230"/>
</linearGradient>
</defs>
</svg>
