<svg width="25" height="20" viewBox="0 0 25 20" fill="none" xmlns="http://www.w3.org/2000/svg">
<path d="M9.54141 10.4666C7.95635 8.68057 8.40201 5.43568 10.9473 4.36768C11.2873 4.2268 11.3837 4.04501 11.3746 3.69962C11.3516 2.89521 11.3608 2.09535 11.37 1.29095C11.3791 0.509263 11.8662 -0.0133735 12.5461 0.000260542C13.2077 0.0138945 13.6717 0.522897 13.6809 1.27731C13.6901 2.0999 13.6947 2.92248 13.6763 3.74052C13.6671 4.04501 13.759 4.20408 14.0577 4.32224C15.1511 4.75852 15.8678 5.53112 16.2584 6.65365C17.2278 9.44407 18.7623 13.8342 20.1222 17.7199C20.7241 19.4332 18.4866 20.7012 17.2875 19.3287C14.5079 16.1247 11.3837 12.539 9.54141 10.4666ZM14.3563 8.21247C14.3609 7.15811 13.5109 6.33552 12.4359 6.38551C11.5032 6.42642 10.7268 7.21719 10.6992 8.1443C10.667 9.20775 11.4756 10.0394 12.5323 10.0303C13.5615 10.0258 14.3517 9.23502 14.3563 8.21247Z" fill="url(#paint0_linear_89_172)"/>
<path d="M7.74954 9.56221C8.48463 11.0892 9.66538 12.08 10.5797 13.2797C10.8645 13.6479 11.1815 13.9978 11.5031 14.3296C11.7512 14.5841 11.8155 14.7386 11.5629 15.0204C10.5797 16.1383 9.15082 17.7699 7.6944 19.4241C6.49528 20.7875 4.27161 19.5196 4.86887 17.8108L7.74954 9.56221Z" fill="url(#paint1_linear_89_172)"/>
<path d="M5.3328 10.0166C5.02957 10.7755 4.06475 11.1891 3.2929 10.8846C2.52564 10.5846 2.11674 9.63026 2.42916 8.86675C2.72779 8.13052 3.69261 7.7215 4.44608 8.00781C5.20875 8.29867 5.63602 9.25759 5.3328 10.0166Z" fill="url(#paint2_linear_89_172)"/>
<path d="M2.81975 12.1117C3.60998 12.3343 3.99131 13.4751 3.71565 14.1113C3.40324 14.8339 2.44761 15.2702 1.69873 14.993C0.936066 14.7112 0.499602 13.7432 0.793641 12.9842C1.09687 12.2162 2.03871 11.8117 2.81975 12.1117Z" fill="url(#paint3_linear_89_172)"/>
<path d="M4.96083 6.68072C4.06952 6.39895 3.82602 5.31277 4.06952 4.70833C4.37735 3.94483 5.31919 3.53581 6.10942 3.84485C6.87668 4.14025 7.29017 5.07645 6.99154 5.83086C6.67912 6.61255 5.76484 6.9943 4.96083 6.68072Z" fill="url(#paint4_linear_89_172)"/>
<path d="M0.242258 17.2063C0.311173 17.0336 0.366305 16.8609 0.449004 16.6927C0.586835 16.4019 0.885468 16.2564 1.17032 16.3201C1.44598 16.3837 1.65273 16.6337 1.60678 16.9609C1.53327 17.479 1.3449 17.9698 1.0187 18.3833C0.853307 18.5924 0.563863 18.656 0.301984 18.5106C0.0355117 18.3606 -0.0379981 18.0879 0.0171342 17.8107C0.0584834 17.6017 0.168748 17.4108 0.242258 17.2063Z" fill="url(#paint5_linear_89_172)"/>
<path d="M6.63284 1.04542C6.71094 0.845458 6.77526 0.636403 6.87634 0.445527C7.02336 0.172847 7.35415 0.0592307 7.62981 0.159213C7.89169 0.254651 8.06168 0.54551 7.98358 0.840913C7.87331 1.28175 7.70332 1.7044 7.48279 2.09979C7.33578 2.36338 7.02336 2.44518 6.7477 2.33611C6.47204 2.22249 6.32042 1.90891 6.41231 1.58169C6.46285 1.39536 6.55014 1.21812 6.62365 1.04088C6.62365 1.04542 6.62824 1.04542 6.63284 1.04542Z" fill="url(#paint6_linear_89_172)"/>
<path d="M19.6674 10.0167C19.9706 10.7756 20.9354 11.1892 21.7073 10.8847C22.4745 10.5847 22.8834 9.63036 22.5756 8.86231C22.277 8.12608 21.3122 7.71706 20.5587 8.00337C19.7868 8.29878 19.3642 9.2577 19.6674 10.0167Z" fill="url(#paint7_linear_89_172)"/>
<path d="M22.1761 12.1117C21.3859 12.3343 21.0045 13.4751 21.2802 14.1113C21.5926 14.8339 22.5483 15.2702 23.2971 14.993C24.0598 14.7112 24.4963 13.7432 24.2022 12.9842C23.9036 12.2162 22.9617 11.8117 22.1761 12.1117Z" fill="url(#paint8_linear_89_172)"/>
<path d="M20.0395 6.68072C20.9308 6.39895 21.1743 5.31277 20.9308 4.70833C20.623 3.94483 19.6811 3.53581 18.8909 3.84485C18.1236 4.14025 17.7102 5.07645 18.0088 5.83086C18.3212 6.61255 19.2355 6.9943 20.0395 6.68072Z" fill="url(#paint9_linear_89_172)"/>
<path d="M24.7577 17.2063C24.6888 17.0336 24.6337 16.8609 24.551 16.6927C24.4132 16.4019 24.1145 16.2564 23.8297 16.3201C23.554 16.3837 23.3473 16.6337 23.3932 16.9609C23.4667 17.479 23.6551 17.9698 23.9813 18.3833C24.1467 18.5924 24.4361 18.656 24.698 18.5106C24.9645 18.3606 25.038 18.0879 24.9829 17.8107C24.9415 17.6017 24.8313 17.4108 24.7577 17.2063C24.7531 17.2063 24.7531 17.2063 24.7577 17.2063Z" fill="url(#paint10_linear_89_172)"/>
<path d="M18.3672 1.04542C18.2891 0.845458 18.2247 0.636403 18.1237 0.445527C17.9767 0.172847 17.6459 0.0592307 17.3702 0.159213C17.1083 0.254651 16.9383 0.54551 17.0164 0.840913C17.1267 1.28175 17.2967 1.7044 17.5172 2.09979C17.6642 2.36338 17.9767 2.44518 18.2523 2.33611C18.528 2.22249 18.6796 1.90891 18.5877 1.58169C18.5372 1.39536 18.4499 1.21812 18.3764 1.04088C18.3764 1.04542 18.3718 1.04542 18.3672 1.04542Z" fill="url(#paint11_linear_89_172)"/>
<defs>
<linearGradient id="paint0_linear_89_172" x1="12.5" y1="0" x2="12.5" y2="20" gradientUnits="userSpaceOnUse">
<stop stop-color="#FF4E71"/>
<stop offset="1" stop-color="#FB0230"/>
</linearGradient>
<linearGradient id="paint1_linear_89_172" x1="12.5" y1="0" x2="12.5" y2="20" gradientUnits="userSpaceOnUse">
<stop stop-color="#FF4E71"/>
<stop offset="1" stop-color="#FB0230"/>
</linearGradient>
<linearGradient id="paint2_linear_89_172" x1="12.5" y1="0" x2="12.5" y2="20" gradientUnits="userSpaceOnUse">
<stop stop-color="#FF4E71"/>
<stop offset="1" stop-color="#FB0230"/>
</linearGradient>
<linearGradient id="paint3_linear_89_172" x1="12.5" y1="0" x2="12.5" y2="20" gradientUnits="userSpaceOnUse">
<stop stop-color="#FF4E71"/>
<stop offset="1" stop-color="#FB0230"/>
</linearGradient>
<linearGradient id="paint4_linear_89_172" x1="12.5" y1="0" x2="12.5" y2="20" gradientUnits="userSpaceOnUse">
<stop stop-color="#FF4E71"/>
<stop offset="1" stop-color="#FB0230"/>
</linearGradient>
<linearGradient id="paint5_linear_89_172" x1="12.5" y1="0" x2="12.5" y2="20" gradientUnits="userSpaceOnUse">
<stop stop-color="#FF4E71"/>
<stop offset="1" stop-color="#FB0230"/>
</linearGradient>
<linearGradient id="paint6_linear_89_172" x1="12.5" y1="0" x2="12.5" y2="20" gradientUnits="userSpaceOnUse">
<stop stop-color="#FF4E71"/>
<stop offset="1" stop-color="#FB0230"/>
</linearGradient>
<linearGradient id="paint7_linear_89_172" x1="12.5" y1="0" x2="12.5" y2="20" gradientUnits="userSpaceOnUse">
<stop stop-color="#FF4E71"/>
<stop offset="1" stop-color="#FB0230"/>
</linearGradient>
<linearGradient id="paint8_linear_89_172" x1="12.5" y1="0" x2="12.5" y2="20" gradientUnits="userSpaceOnUse">
<stop stop-color="#FF4E71"/>
<stop offset="1" stop-color="#FB0230"/>
</linearGradient>
<linearGradient id="paint9_linear_89_172" x1="12.5" y1="0" x2="12.5" y2="20" gradientUnits="userSpaceOnUse">
<stop stop-color="#FF4E71"/>
<stop offset="1" stop-color="#FB0230"/>
</linearGradient>
<linearGradient id="paint10_linear_89_172" x1="12.5" y1="0" x2="12.5" y2="20" gradientUnits="userSpaceOnUse">
<stop stop-color="#FF4E71"/>
<stop offset="1" stop-color="#FB0230"/>
</linearGradient>
<linearGradient id="paint11_linear_89_172" x1="12.5" y1="0" x2="12.5" y2="20" gradientUnits="userSpaceOnUse">
<stop stop-color="#FF4E71"/>
<stop offset="1" stop-color="#FB0230"/>
</linearGradient>
</defs>
</svg>
