<svg width="25" height="20" viewBox="0 0 25 20" fill="none" xmlns="http://www.w3.org/2000/svg">
<path d="M19.163 3.57285C15.9136 3.55904 13.2659 6.16472 13.2567 9.37349C13.2474 12.6007 15.8673 15.2064 19.1214 15.2156C22.3522 15.2202 24.9814 12.6375 24.9999 9.44254C25.0184 6.21536 22.4032 3.58666 19.163 3.57285ZM22.6577 6.97037C22.6253 7.03942 22.5791 7.10848 22.5328 7.16833C21.2506 8.81184 19.9684 10.4554 18.6816 12.0989C18.5566 12.26 18.427 12.4119 18.2373 12.504C18.1771 12.5362 18.1123 12.5546 18.0567 12.55C17.904 12.5546 17.7929 12.4902 17.6911 12.4073C17.5568 12.3014 17.455 12.1587 17.3532 12.0206C16.7699 11.2242 16.2654 10.3771 15.6822 9.58065C15.5803 9.44254 15.5202 9.28602 15.534 9.11568C15.5572 8.74278 15.9229 8.50339 16.2885 8.61848C16.4228 8.65992 16.5339 8.74278 16.6403 8.83025C17.0569 9.18013 17.4828 9.52541 17.8947 9.87989C17.9827 9.95355 18.029 9.94895 18.1077 9.87068C19.2371 8.74278 20.3711 7.61949 21.5052 6.49619C21.6116 6.3903 21.7227 6.28442 21.8616 6.21536C22.1023 6.09106 22.343 6.10948 22.5189 6.27521C22.7133 6.45476 22.7735 6.73558 22.6577 6.97037Z" fill="url(#paint0_linear_89_175)"/>
<path d="M7.92449 10.4324C7.22091 10.4324 6.51271 10.4278 5.80913 10.4324C5.57306 10.4324 5.39717 10.4094 5.32774 10.1286C5.04538 9.03752 4.48067 8.07075 3.92522 7.09937C2.91152 5.33156 3.03649 3.33817 4.25849 1.79133C5.42031 0.322757 7.44309 -0.340173 9.22054 0.170835C11.1183 0.714069 12.4468 2.27472 12.6782 4.2497C12.7893 5.19345 12.5718 6.07736 12.1182 6.90141C11.5396 7.96026 10.9147 8.99609 10.5953 10.17C10.5259 10.4278 10.3546 10.437 10.1463 10.437C9.40569 10.4278 8.66509 10.4324 7.92449 10.4324Z" fill="url(#paint1_linear_89_175)"/>
<path d="M7.93373 19.9988C5.65174 19.9988 3.36975 19.9988 1.08776 19.9988C0.208295 19.9988 0 19.7871 0 18.917C0 18.6684 0 18.4152 0 18.162C0.0138863 16.7348 0.944271 15.7773 2.37456 15.7635C4.27699 15.7451 6.17479 15.7589 8.07722 15.7589C9.85004 15.7589 11.6275 15.7543 13.4003 15.7589C15.0158 15.7635 15.9137 16.6658 15.9276 18.2771C15.9323 18.5303 15.9323 18.7835 15.9276 19.0321C15.9184 19.7641 15.6916 19.9942 14.9371 19.9942C12.6042 20.0035 10.2713 19.9988 7.93373 19.9988Z" fill="url(#paint2_linear_89_175)"/>
<path d="M7.98934 14.2948C6.96175 14.2948 5.92953 14.281 4.90194 14.304C4.51776 14.3132 4.41129 14.1797 4.40666 13.8114C4.39278 12.4303 4.88806 11.9055 6.27206 11.9055C7.48017 11.9055 8.69291 11.9009 9.90103 11.9055C11.086 11.9101 11.8544 12.969 11.5165 14.1015C11.4378 14.3639 11.2387 14.2856 11.0767 14.2902C10.0491 14.2994 9.02156 14.2948 7.98934 14.2948Z" fill="url(#paint3_linear_89_175)"/>
<defs>
<linearGradient id="paint0_linear_89_175" x1="12.5" y1="0" x2="12.5" y2="20" gradientUnits="userSpaceOnUse">
<stop stop-color="#FF4E71"/>
<stop offset="1" stop-color="#FB0230"/>
</linearGradient>
<linearGradient id="paint1_linear_89_175" x1="12.5" y1="0" x2="12.5" y2="20" gradientUnits="userSpaceOnUse">
<stop stop-color="#FF4E71"/>
<stop offset="1" stop-color="#FB0230"/>
</linearGradient>
<linearGradient id="paint2_linear_89_175" x1="12.5" y1="0" x2="12.5" y2="20" gradientUnits="userSpaceOnUse">
<stop stop-color="#FF4E71"/>
<stop offset="1" stop-color="#FB0230"/>
</linearGradient>
<linearGradient id="paint3_linear_89_175" x1="12.5" y1="0" x2="12.5" y2="20" gradientUnits="userSpaceOnUse">
<stop stop-color="#FF4E71"/>
<stop offset="1" stop-color="#FB0230"/>
</linearGradient>
</defs>
</svg>
