<svg width="23" height="20" viewBox="0 0 23 20" fill="none" xmlns="http://www.w3.org/2000/svg">
<path d="M12.0016 16.8616C10.5982 15.4303 9.82702 13.5266 9.83151 11.5047C9.83599 9.81445 10.392 8.26054 11.3245 7.00196C11.2842 6.88382 11.2483 6.76569 11.208 6.6521C10.8269 5.53437 10.1274 4.76196 9.06033 4.32577C8.76889 4.20764 8.6837 4.04407 8.68819 3.73965C8.70612 2.9218 8.70164 2.09941 8.69267 1.27701C8.6837 0.522775 8.23086 0.0138913 7.58522 0.000260482C6.92164 -0.0133703 6.44638 0.509144 6.43741 1.29064C6.42845 2.09032 6.41948 2.89454 6.4419 3.69876C6.45087 4.04407 6.35671 4.22581 6.02492 4.36667C3.53652 5.43441 3.10161 8.67855 4.64845 10.4642C6.44638 12.5406 9.49972 16.1255 12.2123 19.3242C13.1314 20.4101 14.6828 19.8513 15.0101 18.729C13.8847 18.3655 12.8579 17.7294 12.0016 16.8616ZM7.57177 10.0325C6.54054 10.0371 5.75142 9.21015 5.78281 8.14695C5.80971 7.22005 6.56296 6.42946 7.47761 6.38857C8.52229 6.33859 9.35176 7.16098 9.34728 8.2151C9.34728 9.23741 8.57161 10.028 7.57177 10.0325Z" fill="url(#paint0_linear_89_178)"/>
<path d="M2.9088 9.56464C3.62617 11.0913 4.77846 12.0818 5.6707 13.2813C5.94868 13.6493 6.25805 13.9992 6.5719 14.3309C6.81402 14.5853 6.87679 14.7398 6.63019 15.0215C5.6707 16.1392 4.2763 17.7704 2.85499 19.4243C1.68477 20.7874 -0.485294 19.5197 0.0975748 17.8113L2.9088 9.56464Z" fill="url(#paint1_linear_89_178)"/>
<path d="M17.3461 5.78427C14.9967 5.77518 12.9701 7.20642 12.0913 9.25104C11.7954 9.94167 11.6295 10.7095 11.625 11.5092C11.6205 13.6992 12.8176 15.5985 14.5887 16.5753C15.3957 17.0206 16.3193 17.275 17.3057 17.275C20.4353 17.2796 22.9865 14.7306 22.9999 11.5774C23.0178 8.39229 20.4846 5.7979 17.3461 5.78427ZM20.7357 9.13745C20.7043 9.2056 20.6595 9.27376 20.6101 9.33282C19.3682 10.9549 18.1262 12.577 16.8843 14.199C16.7632 14.3581 16.6377 14.508 16.4538 14.5989C16.3956 14.6261 16.3283 14.6488 16.279 14.6443C16.1265 14.6443 16.0234 14.5852 15.9248 14.5034C15.7903 14.3989 15.6961 14.2581 15.5975 14.1218C15.0325 13.3357 14.5393 12.4997 13.9744 11.7137C13.8802 11.5819 13.822 11.4274 13.8309 11.2548C13.8533 10.8867 14.2076 10.6505 14.5618 10.7641C14.6918 10.805 14.7994 10.8867 14.9025 10.9731C15.306 11.3184 15.7185 11.6591 16.1176 12.009C16.2028 12.0817 16.2476 12.0772 16.3238 11.9999C17.4178 10.8867 18.5163 9.7781 19.6148 8.66946C19.7224 8.56495 19.8255 8.46045 19.96 8.3923C20.1932 8.26507 20.4308 8.28779 20.5967 8.44682C20.785 8.62856 20.8433 8.90572 20.7357 9.13745Z" fill="url(#paint2_linear_89_178)"/>
<defs>
<linearGradient id="paint0_linear_89_178" x1="11.5" y1="0" x2="11.5" y2="20" gradientUnits="userSpaceOnUse">
<stop stop-color="#FF4E71"/>
<stop offset="1" stop-color="#FB0230"/>
</linearGradient>
<linearGradient id="paint1_linear_89_178" x1="11.5" y1="0" x2="11.5" y2="20" gradientUnits="userSpaceOnUse">
<stop stop-color="#FF4E71"/>
<stop offset="1" stop-color="#FB0230"/>
</linearGradient>
<linearGradient id="paint2_linear_89_178" x1="11.5" y1="0" x2="11.5" y2="20" gradientUnits="userSpaceOnUse">
<stop stop-color="#FF4E71"/>
<stop offset="1" stop-color="#FB0230"/>
</linearGradient>
</defs>
</svg>
