<svg width="20" height="20" viewBox="0 0 20 20" fill="none" xmlns="http://www.w3.org/2000/svg">
<path d="M7.23325 5.74107C7.94965 5.74107 8.66605 5.73613 9.37752 5.74601C9.56526 5.74601 9.66408 5.72131 9.65914 5.49403C9.65419 5.20747 9.85182 5.02466 10.1038 5.02466C10.3508 5.02466 10.5583 5.21735 10.5583 5.48909C10.5534 5.71142 10.6423 5.74601 10.84 5.74601C12.1493 5.74107 13.4585 5.74107 14.7678 5.74107C14.8617 5.74107 14.9556 5.73613 15.0445 5.74601C15.3014 5.77565 15.4645 5.94364 15.4744 6.17585C15.4842 6.41795 15.3212 6.64522 15.0643 6.65016C14.8074 6.65016 14.7925 6.76874 14.7975 6.97131C14.8024 8.85866 14.8024 10.7411 14.7975 12.6284C14.7975 12.8211 14.8074 12.9347 15.0544 12.9347C15.3163 12.9347 15.4842 13.1521 15.4744 13.3942C15.4694 13.6561 15.2767 13.8389 14.9704 13.8389C14.1255 13.8438 13.2807 13.8438 12.4358 13.8438C12.0949 13.8438 12.0949 13.8438 12.2431 14.1403C12.4457 14.5355 12.6581 14.9308 12.8607 15.326C13.0089 15.6225 12.9398 15.8992 12.6927 16.0177C12.4506 16.1363 12.2085 16.0375 12.0504 15.7509C11.7491 15.1877 11.4477 14.6195 11.1611 14.0464C11.0821 13.8932 10.9882 13.834 10.8153 13.8389C10.4052 13.8488 10 13.8488 9.58997 13.8389C9.40716 13.834 9.30835 13.8883 9.22435 14.0563C8.93285 14.6393 8.62653 15.2075 8.32514 15.7855C8.22633 15.9782 8.07317 16.082 7.85084 16.0573C7.64333 16.0326 7.51981 15.9091 7.45558 15.7114C7.40617 15.5632 7.46546 15.4397 7.53463 15.3162C7.75202 14.9061 7.95953 14.4911 8.18186 14.0859C8.28562 13.8982 8.26586 13.834 8.03364 13.8389C7.08503 13.8488 6.13641 13.8438 5.19273 13.8438C5.10874 13.8438 5.02475 13.8488 4.94076 13.8389C4.6789 13.8043 4.51092 13.6166 4.51586 13.3745C4.5208 13.1423 4.68384 12.9397 4.93088 12.9347C5.16803 12.9347 5.19767 12.8359 5.19273 12.6334C5.18779 10.7312 5.18779 8.82407 5.18779 6.9219C5.18779 6.77862 5.20756 6.66004 4.98522 6.6551C4.6789 6.65016 4.50597 6.44759 4.51091 6.18079C4.5208 5.91893 4.7036 5.74601 5.01981 5.74107C5.76586 5.73613 6.49708 5.74107 7.23325 5.74107ZM7.50005 11.5415C7.69767 11.5415 7.82119 11.4278 7.92495 11.2697C8.24609 10.7905 8.57712 10.3211 8.89827 9.84186C8.99214 9.69858 9.04155 9.69858 9.15518 9.82704C9.54056 10.2766 9.93582 10.7213 10.336 11.161C10.5929 11.4426 10.8795 11.4328 11.1117 11.1264C11.6799 10.3804 12.2431 9.62941 12.8064 8.87842C13.0139 8.60174 12.9941 8.33988 12.7619 8.16696C12.5346 7.99403 12.2925 8.05332 12.0751 8.33988C11.6601 8.8883 11.2402 9.43178 10.835 9.98514C10.7214 10.1383 10.6522 10.1482 10.5238 9.99996C10.1631 9.57506 9.78265 9.16498 9.4121 8.74996C9.07119 8.36459 8.79945 8.37941 8.49807 8.80925C8.26586 9.14522 8.03858 9.48119 7.80637 9.8221C7.57416 10.1581 7.337 10.4891 7.11961 10.8399C6.93186 11.161 7.14431 11.5415 7.50005 11.5415Z" fill="url(#paint0_linear_89_144)"/>
<path d="M10 20C4.48617 20 0 15.5138 0 10C0 4.48617 4.48617 0 10 0C15.5138 0 20 4.48617 20 10C20 15.5138 15.5138 20 10 20ZM10 1.97628C5.57312 1.97628 1.97628 5.57312 1.97628 10C1.97628 14.4269 5.57312 18.0237 10 18.0237C14.4269 18.0237 18.0237 14.4269 18.0237 10C18.0237 5.57312 14.4219 1.97628 10 1.97628Z" fill="url(#paint1_linear_89_144)"/>
<defs>
<linearGradient id="paint0_linear_89_144" x1="10" y1="0" x2="10" y2="20" gradientUnits="userSpaceOnUse">
<stop stop-color="#FF4E71"/>
<stop offset="1" stop-color="#FB0230"/>
</linearGradient>
<linearGradient id="paint1_linear_89_144" x1="10" y1="0" x2="10" y2="20" gradientUnits="userSpaceOnUse">
<stop stop-color="#FF4E71"/>
<stop offset="1" stop-color="#FB0230"/>
</linearGradient>
</defs>
</svg>
