<svg width="20" height="20" viewBox="0 0 20 20" fill="none" xmlns="http://www.w3.org/2000/svg">
<path d="M9.9975 0C4.48837 0 0 4.48949 0 10C0 15.5105 4.48837 20 9.9975 20C15.5116 20.005 20 15.5155 20 10C20 4.48448 15.5116 0 9.9975 0ZM12.9297 16.8969C12.9497 16.1111 12.9547 15.3253 12.9297 14.5395C12.9147 14.1291 13.0348 13.8639 13.35 13.5786C14.8061 12.2573 15.3615 10.5906 14.9312 8.67868C14.5209 6.86186 13.375 5.63063 11.6087 4.99499C11.2634 4.86987 11.1334 4.92492 11.1434 5.32533C11.1634 6.34635 11.1634 7.37237 11.1434 8.39339C11.1283 9.06406 10.653 9.5045 10.0175 9.4995C9.39204 9.49449 8.9317 9.02903 8.91669 8.37337C8.90168 7.86286 8.91168 7.35235 8.91168 6.83684C8.91168 6.2963 8.90168 5.75075 8.91669 5.21021C8.92669 4.92492 8.82162 4.87988 8.57143 4.95996C8.17113 5.09009 7.78084 5.25025 7.42057 5.47547C4.45834 7.32733 4.15812 11.4014 6.82512 13.6837C6.98524 13.8238 7.13035 13.9389 7.12534 14.1942C7.11033 15.0801 7.11033 15.971 7.12034 16.8569C7.12034 16.8769 7.12034 16.8969 7.12034 16.9169C4.41831 15.7858 2.51188 13.1131 2.51188 10.005C2.51188 5.87587 5.8694 2.51752 9.9975 2.51752C14.1256 2.51752 17.4831 5.87587 17.4831 10.005C17.4881 13.0931 15.6067 15.7507 12.9297 16.8969Z" fill="url(#paint0_linear_89_181)"/>
<defs>
<linearGradient id="paint0_linear_89_181" x1="10" y1="0" x2="10" y2="20" gradientUnits="userSpaceOnUse">
<stop stop-color="#FF4E71"/>
<stop offset="1" stop-color="#FB0230"/>
</linearGradient>
</defs>
</svg>
