<svg width="20" height="20" viewBox="0 0 20 20" fill="none" xmlns="http://www.w3.org/2000/svg">
<path d="M0.00609356 9.11907C0.00609356 7.14874 0.000451374 5.17841 0.00609356 3.20807C0.0117357 1.24332 1.2643 0.00418626 3.26163 0.00418626C6.46075 -0.00139542 9.65422 -0.00139542 12.8533 0.00418626C14.8394 0.00418626 16.092 1.2489 16.092 3.21923C16.0976 6.79709 16.0863 10.375 16.1032 13.9528C16.1089 14.4328 15.9509 14.5166 15.5108 14.511C12.9098 14.4887 10.3031 14.4998 7.70203 14.4998C6.80492 14.4998 6.63001 14.6561 6.5341 15.5157C6.34226 17.2907 4.91479 18.5465 3.17136 18.4796C1.41664 18.4126 0.0343045 17.0172 0.0117357 15.2366C-0.010833 13.1993 0.00609356 11.162 0.00609356 9.11907ZM7.48763 10.3582C7.95029 10.3415 8.41294 10.1405 8.77969 9.72748C9.68244 8.70045 10.5965 7.67342 11.4936 6.64081C11.8998 6.17194 11.9055 5.71425 11.5218 5.41842C11.1663 5.13933 10.7488 5.23422 10.3482 5.68634C9.48496 6.66313 8.62171 7.63435 7.76974 8.61672C7.53841 8.88464 7.35221 8.91813 7.07575 8.6837C6.6018 8.27624 6.10529 7.8911 5.61442 7.50597C5.18562 7.17107 4.75117 7.18223 4.45778 7.52829C4.17002 7.86878 4.23773 8.31531 4.65525 8.65579C5.19126 9.09675 5.73855 9.52654 6.28584 9.95632C6.61309 10.2019 6.97983 10.347 7.48763 10.3582Z" fill="url(#paint0_linear_89_147)"/>
<path d="M4.92038 19.903C5.03322 19.8639 5.14607 19.8248 5.25891 19.7858C6.5679 19.3336 7.44808 18.4629 7.8656 17.1512C8.17028 16.2023 8.4806 15.9735 9.50183 15.9735C12.5937 15.9735 15.6913 15.9735 18.7832 15.9735C19.906 15.9735 20.2558 16.4647 19.8157 17.4917C19.1443 19.0601 17.9087 19.9476 16.1991 19.97C12.4414 20.0258 8.68371 19.9867 4.92602 19.9867C4.92602 19.9588 4.92038 19.9309 4.92038 19.903Z" fill="url(#paint1_linear_89_147)"/>
<defs>
<linearGradient id="paint0_linear_89_147" x1="10" y1="0" x2="10" y2="20" gradientUnits="userSpaceOnUse">
<stop stop-color="#FF4E71"/>
<stop offset="1" stop-color="#FB0230"/>
</linearGradient>
<linearGradient id="paint1_linear_89_147" x1="10" y1="0" x2="10" y2="20" gradientUnits="userSpaceOnUse">
<stop stop-color="#FF4E71"/>
<stop offset="1" stop-color="#FB0230"/>
</linearGradient>
</defs>
</svg>
