<svg width="20" height="20" viewBox="0 0 20 20" fill="none" xmlns="http://www.w3.org/2000/svg">
<path d="M9.16891 20C8.77596 19.8332 8.47369 19.7069 8.17646 19.5755C6.18149 18.686 4.19156 17.7966 2.19155 16.9122C0.720509 16.2602 -0.0099728 15.1434 0.000102812 13.5161C0.0152162 11.1661 0.00514062 8.82115 0.00514062 6.47116C0.00514062 6.14267 -0.00997281 5.81418 0.171388 5.48063C1.69281 6.15783 3.20415 6.84514 4.7306 7.50718C6.13111 8.11362 7.48628 8.81609 8.93213 9.31136C9.12357 9.37706 9.17395 9.46297 9.17395 9.63985C9.16891 13.0612 9.16891 16.4877 9.16891 20Z" fill="url(#paint0_linear_89_150)"/>
<path d="M10.8312 19.9242C10.8312 19.7523 10.8312 19.5856 10.8312 19.4137C10.8312 16.2501 10.8412 13.0814 10.8211 9.91777C10.8161 9.49326 10.9521 9.3467 11.345 9.2052C12.3173 8.84638 13.2543 8.40671 14.3073 7.95693C14.3073 8.44714 14.3073 8.88681 14.3073 9.32649C14.3073 9.5539 14.2972 9.78132 14.3224 10.0037C14.3828 10.4585 14.7506 10.782 15.1687 10.7668C15.5969 10.7516 15.9395 10.4231 15.9546 9.95315C15.9748 9.22541 15.9949 8.49262 15.9546 7.75983C15.9294 7.3151 16.1007 7.11801 16.4886 6.95629C17.5113 6.53177 18.5239 6.07188 19.5264 5.60189C19.8186 5.46544 19.9345 5.53114 19.9546 5.82931C19.9748 6.05672 19.9949 6.27909 19.9949 6.50651C20 8.85649 19.9899 11.2014 20 13.5514C20.005 15.1282 19.3048 16.24 17.869 16.8818C15.733 17.837 13.602 18.7921 11.4659 19.7422C11.2745 19.8281 11.0931 19.9393 10.8312 19.9242Z" fill="url(#paint1_linear_89_150)"/>
<path d="M6.1413 1.42756C7.13879 0.99294 8.07582 0.548212 9.03804 0.17929C9.77356 -0.103719 10.5443 -0.0380207 11.2698 0.280364C13.5368 1.281 15.7937 2.29175 18.0507 3.30755C18.3832 3.45411 18.8668 3.62593 18.8819 3.93421C18.897 4.23743 18.363 4.27786 18.0608 4.41937C17.2144 4.81356 16.3529 5.18248 15.5016 5.57162C15.2849 5.66764 15.1036 5.70807 14.8668 5.59183C12.0507 4.2526 9.22948 2.92852 6.41334 1.59939C6.33778 1.55896 6.27229 1.50842 6.1413 1.42756Z" fill="url(#paint2_linear_89_150)"/>
<path d="M13.0481 6.66332C12.2874 6.99687 11.572 7.34558 10.8365 7.63364C10.237 7.86611 9.61233 7.84084 9.01283 7.57299C6.44859 6.4359 3.88938 5.28871 1.32514 4.15667C0.987607 4.01011 1.03295 3.88883 1.2798 3.71194C2.11104 3.13077 3.0783 2.8326 3.9851 2.40808C4.11105 2.34744 4.22188 2.41314 4.33271 2.46367C7.19922 3.81302 10.0607 5.16742 12.9272 6.52182C12.9524 6.53698 12.9675 6.57236 13.0481 6.66332Z" fill="url(#paint3_linear_89_150)"/>
<defs>
<linearGradient id="paint0_linear_89_150" x1="10" y1="0" x2="10" y2="20" gradientUnits="userSpaceOnUse">
<stop stop-color="#FF4E71"/>
<stop offset="1" stop-color="#FB0230"/>
</linearGradient>
<linearGradient id="paint1_linear_89_150" x1="10" y1="0" x2="10" y2="20" gradientUnits="userSpaceOnUse">
<stop stop-color="#FF4E71"/>
<stop offset="1" stop-color="#FB0230"/>
</linearGradient>
<linearGradient id="paint2_linear_89_150" x1="10" y1="0" x2="10" y2="20" gradientUnits="userSpaceOnUse">
<stop stop-color="#FF4E71"/>
<stop offset="1" stop-color="#FB0230"/>
</linearGradient>
<linearGradient id="paint3_linear_89_150" x1="10" y1="0" x2="10" y2="20" gradientUnits="userSpaceOnUse">
<stop stop-color="#FF4E71"/>
<stop offset="1" stop-color="#FB0230"/>
</linearGradient>
</defs>
</svg>
