<svg width="18" height="18" viewBox="0 0 18 18" fill="none" xmlns="http://www.w3.org/2000/svg">
<path d="M5.53431 13.9821L5.52603 14.6548L6.14035 14.4391L7.09163 17.3557L5.68665 17.8488L5.62704 17.8703C4.10393 18.4054 2.52827 17.2174 2.54798 15.5491L2.56703 13.9443L5.53431 13.9821ZM15.452 15.5491C15.4717 17.2174 13.8961 18.4054 12.373 17.8703L12.3134 17.8488L10.9084 17.3557L11.8597 14.4391L12.4731 14.6548L12.4657 13.9821L15.433 13.9443L15.452 15.5491ZM8.43618 13.6411C8.86814 13.5293 9.32343 13.5479 9.74762 13.6969L9.80723 13.7184L11.2122 14.2115L10.2609 17.128L9 16.6839L7.73907 17.128L6.78779 14.2115L8.19277 13.7184L8.25239 13.6969L8.43618 13.6411ZM5.06156 10.1403L5.09965 10.1927C5.40566 10.6186 5.56793 11.1374 5.56163 11.6686L5.54259 13.2734L2.57531 13.2356L2.59104 11.8533L1.79623 10.7468L4.17486 8.9067L5.06156 10.1403ZM16.2038 10.7468L15.4081 11.8533L15.4247 13.2356L12.4574 13.2734L12.4384 11.6686C12.4321 11.1374 12.5943 10.6186 12.9004 10.1927L12.9384 10.1403L13.8251 8.9067L16.2038 10.7468ZM3.99851 7.59833L3.37839 7.7985L3.76669 8.33799L1.38806 10.1781L0.501355 8.94364L0.46327 8.89124C-0.497583 7.55351 0.104488 5.63223 1.63975 5.13623L1.69936 5.11647L3.11594 4.65858L3.99851 7.59833ZM16.3006 5.11647L16.3603 5.13623C17.8955 5.63223 18.4976 7.55352 17.5367 8.89124L17.4986 8.94364L16.6119 10.1781L14.2333 8.33799L14.6208 7.7985L14.0015 7.59833L14.8841 4.65858L16.3006 5.11647ZM8.23086 4.68865L7.37313 5.94547L7.3367 5.99874C7.04089 6.43224 6.61587 6.75316 6.1271 6.91107L6.06749 6.92997L4.65091 7.38786L3.76835 4.44811L5.03921 4.03661L5.80835 2.91037L8.23086 4.68865ZM12.96 4.03661L14.2317 4.44811L13.3491 7.38786L11.9325 6.92997L11.8729 6.91107C11.3841 6.75316 10.9591 6.43224 10.6633 5.99874L10.6269 5.94547L9.76914 4.68865L12.1917 2.91037L12.96 4.03661ZM7.18685 0.89756C8.14659 -0.3392 10.0024 -0.297741 10.9026 1.02127L10.939 1.07453L11.7967 2.33135L9.37422 4.11049L9 3.56155L8.62578 4.11049L6.20327 2.33135L7.061 1.07453L7.09743 1.02127L7.18685 0.89756Z" fill="url(#paint0_linear_89_184)"/>
<defs>
<linearGradient id="paint0_linear_89_184" x1="9" y1="0" x2="9" y2="18" gradientUnits="userSpaceOnUse">
<stop stop-color="#FF4E71"/>
<stop offset="1" stop-color="#FB0230"/>
</linearGradient>
</defs>
</svg>
