<svg width="20" height="20" viewBox="0 0 20 20" fill="none" xmlns="http://www.w3.org/2000/svg">
<path d="M0 8.72833C0 6.63895 0 4.55545 0 2.46606C0.00587849 0.953466 0.958194 0 2.47485 0C5.54342 0 8.61199 0 11.6806 0C13.1972 0 14.1554 0.94758 14.1554 2.46606C14.1613 4.96155 14.1495 7.45116 14.1613 9.94665C14.1613 10.2468 14.0614 10.4587 13.8497 10.6647C12.4506 12.0478 11.081 13.4721 9.65836 14.8317C8.99409 15.4673 8.5826 16.1854 8.51206 17.0918C8.48854 17.4155 8.34746 17.5155 8.01826 17.5096C6.13715 17.492 4.25603 17.5037 2.36903 17.4979C0.969951 17.4979 0.00587849 16.5267 0 15.1201C0 12.9895 0 10.8589 0 8.72833ZM7.09534 6.67426C5.87849 6.67426 4.66752 6.67426 3.45067 6.67426C3.05094 6.67426 2.73938 6.80374 2.58066 7.18631C2.32788 7.78664 2.75113 8.334 3.49182 8.33988C5.87849 8.34577 8.26516 8.34577 10.6518 8.33988C11.2867 8.33988 11.657 8.02206 11.657 7.51002C11.657 6.99208 11.2867 6.68015 10.6577 6.67426C9.47025 6.66838 8.28279 6.67426 7.09534 6.67426ZM5.39058 11.6711C6.07248 11.6711 6.75439 11.677 7.43041 11.6711C7.94772 11.6652 8.31219 11.3239 8.31807 10.8589C8.32982 10.3822 7.9536 10.0173 7.41278 10.0173C6.07836 10.0114 4.74982 10.0114 3.4154 10.0173C2.86283 10.0173 2.50424 10.3645 2.51012 10.8589C2.51599 11.3533 2.8687 11.6711 3.43304 11.677C4.08555 11.677 4.73806 11.6711 5.39058 11.6711ZM4.98496 5.00275C5.5199 5.00275 6.05485 5.01452 6.58979 5.00275C7.14825 4.99098 7.49508 4.6555 7.48332 4.15523C7.47156 3.67849 7.14237 3.35479 6.59567 3.3489C5.54342 3.33713 4.48529 3.33713 3.43304 3.3489C2.86283 3.35479 2.52187 3.67849 2.52187 4.17288C2.52187 4.66727 2.8687 4.99098 3.43304 5.00275C3.94447 5.00864 4.46765 5.00275 4.98496 5.00275Z" fill="url(#paint0_linear_89_154)"/>
<path d="M17.6824 9.7349C17.9235 9.72902 18.1527 9.78787 18.3349 9.9409C18.8346 10.3588 19.3167 10.8061 19.7105 11.324C20.1749 11.9302 20.0691 12.6836 19.4754 13.2898C18.1292 14.6435 16.7771 15.9972 15.4251 17.345C14.802 17.9688 14.1671 18.5868 13.5557 19.2225C13.3441 19.4402 13.109 19.5638 12.8033 19.6109C12.092 19.7228 11.3807 19.8581 10.6635 19.9817C10.0992 20.0818 9.74059 19.7639 9.82877 19.2048C9.9581 18.3926 10.1168 17.5804 10.2638 16.7682C10.299 16.574 10.4284 16.4386 10.5636 16.3032C12.5623 14.308 14.5551 12.3069 16.5538 10.3117C16.8653 9.99387 17.2063 9.7349 17.6824 9.7349Z" fill="url(#paint1_linear_89_154)"/>
<defs>
<linearGradient id="paint0_linear_89_154" x1="10" y1="0" x2="10" y2="20" gradientUnits="userSpaceOnUse">
<stop stop-color="#FF4E71"/>
<stop offset="1" stop-color="#FB0230"/>
</linearGradient>
<linearGradient id="paint1_linear_89_154" x1="10" y1="0" x2="10" y2="20" gradientUnits="userSpaceOnUse">
<stop stop-color="#FF4E71"/>
<stop offset="1" stop-color="#FB0230"/>
</linearGradient>
</defs>
</svg>
