<svg width="18" height="20" viewBox="0 0 18 20" fill="none" xmlns="http://www.w3.org/2000/svg">
<path d="M18 6.54905C17.988 8.43633 17.8495 10.2403 17.4161 12.0263C16.802 14.5626 15.2549 16.4379 13.2141 17.974C12.0763 18.8313 10.8241 19.4743 9.46355 19.9029C9.22877 19.9744 9.00001 20.0458 8.73513 19.9625C5.44215 18.8968 2.84751 16.9738 1.25821 13.8839C0.409382 12.2407 0.18062 10.4189 0.0602185 8.59708C-0.0601827 6.73361 0.00603798 4.87014 0.2047 3.01262C0.25286 2.53634 0.487643 2.29224 0.939147 2.17317C3.52777 1.47065 6.1164 0.756216 8.70503 0.0417865C8.90971 -0.0177493 9.10235 -0.0117957 9.30703 0.0477401C11.8957 0.76217 14.4843 1.4766 17.0729 2.17912C17.5244 2.30415 17.7472 2.56015 17.7953 3.03048C17.9217 4.21525 17.9759 5.41192 18 6.54905ZM5.51439 7.7219C5.31573 7.7219 5.14717 7.7993 5.00871 7.93623C4.84015 8.09698 4.67761 8.26368 4.51506 8.43038C4.03346 8.91262 4.03346 9.18648 4.52108 9.67468C5.55051 10.6987 6.57994 11.7227 7.60938 12.7408C8.097 13.223 8.37994 13.223 8.86155 12.7408C10.499 11.1154 12.1365 9.49012 13.7739 7.86479C14.6528 6.98961 14.6468 6.8765 13.7438 6.00132C13.2141 5.49527 12.9492 5.49527 12.4254 6.01323C11.1552 7.26943 9.897 8.53159 8.62677 9.7878C8.17526 10.2343 8.3077 10.2224 7.84416 9.76994C7.25419 9.19244 6.67025 8.60303 6.0863 8.01958C5.91172 7.87074 5.74918 7.73381 5.51439 7.7219Z" fill="url(#paint0_linear_89_157)"/>
<defs>
<linearGradient id="paint0_linear_89_157" x1="9" y1="0" x2="9" y2="20" gradientUnits="userSpaceOnUse">
<stop stop-color="#FF4E71"/>
<stop offset="1" stop-color="#FB0230"/>
</linearGradient>
</defs>
</svg>
