<svg width="20" height="20" viewBox="0 0 20 20" fill="none" xmlns="http://www.w3.org/2000/svg">
<path d="M9.95565 15.9369C7.64934 15.9369 5.33749 15.9369 3.03118 15.9369C1.18503 15.9369 0.004158 14.7615 0.004158 12.9184C-0.001386 9.6074 -0.001386 6.30193 0.004158 2.99093C0.004158 1.18092 1.19058 0.00551832 3.00901 0C7.67152 0 12.334 0 16.9965 0C18.815 0 19.9958 1.1754 19.9958 2.99093C20.0014 6.31296 20.0014 9.64051 19.9958 12.9625C19.9903 14.745 18.8039 15.9259 17.0132 15.9314C14.6625 15.9424 12.3063 15.9369 9.95565 15.9369ZM10 11.5664C12.5558 11.5664 15.1116 11.5609 17.6674 11.5719C18.0277 11.5719 18.1331 11.4781 18.1331 11.1139C18.1164 8.432 18.1275 5.75009 18.122 3.06819C18.122 2.20181 17.7893 1.86519 16.9245 1.86519C12.3063 1.86519 7.68815 1.86519 3.06999 1.86519C2.21622 1.87071 1.87803 2.20733 1.87803 3.07371C1.87803 5.73906 1.88912 8.40441 1.86694 11.0698C1.8614 11.4836 1.97782 11.5774 2.38254 11.5774C4.92169 11.5609 7.46085 11.5664 10 11.5664ZM10.9314 13.7296C10.9203 13.2219 10.4879 12.8025 9.98337 12.8135C9.48441 12.8246 9.06306 13.2605 9.06861 13.7627C9.07415 14.2704 9.50104 14.6843 10.0166 14.6732C10.5378 14.6622 10.9425 14.2428 10.9314 13.7296Z" fill="url(#paint0_linear_89_160)"/>
<path d="M9.95544 19.9984C8.69141 19.9984 7.43292 19.9984 6.16889 19.9984C5.47034 19.9984 5.05454 19.6894 5.01019 19.1486C4.96029 18.5912 5.29293 18.2325 6.00257 18.1387C6.25205 18.1056 6.2465 17.9677 6.25205 17.7966C6.30194 16.8695 6.30194 16.8695 7.25551 16.8695C9.2569 16.8695 11.2583 16.8806 13.2597 16.864C13.6311 16.8585 13.8141 16.9468 13.7531 17.3441C13.7365 17.4655 13.7642 17.5924 13.7475 17.7138C13.7143 18.0173 13.8085 18.1387 14.1467 18.1553C14.6734 18.1829 15.0227 18.6078 15.0005 19.11C14.9783 19.6066 14.5958 19.9929 14.0635 19.9984C12.6942 20.0039 11.3248 19.9929 9.95544 19.9984Z" fill="url(#paint1_linear_89_160)"/>
<defs>
<linearGradient id="paint0_linear_89_160" x1="10" y1="0" x2="10" y2="20" gradientUnits="userSpaceOnUse">
<stop stop-color="#FF4E71"/>
<stop offset="1" stop-color="#FB0230"/>
</linearGradient>
<linearGradient id="paint1_linear_89_160" x1="10" y1="0" x2="10" y2="20" gradientUnits="userSpaceOnUse">
<stop stop-color="#FF4E71"/>
<stop offset="1" stop-color="#FB0230"/>
</linearGradient>
</defs>
</svg>
