<svg width="20" height="20" viewBox="0 0 20 20" fill="none" xmlns="http://www.w3.org/2000/svg">
<path d="M4.94714 1.30369C6.25138 1.30369 7.56093 1.29318 8.86517 1.30895C9.20979 1.3142 9.39005 1.26164 9.37944 0.851604C9.37414 0.336436 9.73997 0 10.1959 0C10.6413 0 11.0283 0.34695 11.023 0.84109C11.0177 1.24587 11.1821 1.30895 11.532 1.30369C13.9231 1.29318 16.3142 1.29843 18.7053 1.29843C18.875 1.29843 19.0446 1.29318 19.2143 1.30895C19.6808 1.36152 19.983 1.66641 19.9989 2.08696C20.0202 2.52853 19.718 2.93856 19.2514 2.94382C18.7795 2.94907 18.7583 3.15935 18.7583 3.52732C18.7689 6.939 18.7689 10.3559 18.7583 13.7676C18.7583 14.1145 18.7742 14.3196 19.2249 14.3196C19.702 14.3196 20.0096 14.7086 19.9936 15.1554C19.983 15.6285 19.6384 15.9597 19.0764 15.9649C17.5336 15.9807 15.9908 15.9702 14.448 15.9702C13.8277 15.9702 13.8224 15.9755 14.098 16.5064C14.4692 17.2213 14.8562 17.9363 15.222 18.6564C15.4977 19.1926 15.3705 19.692 14.9198 19.9128C14.4798 20.1231 14.0291 19.9496 13.7534 19.4292C13.202 18.4041 12.656 17.379 12.1311 16.3434C11.9879 16.0648 11.813 15.9597 11.5002 15.9649C10.7526 15.986 10.0051 15.986 9.2628 15.9649C8.92879 15.9544 8.74323 16.0596 8.59478 16.3592C8.0646 17.4106 7.50261 18.4462 6.94592 19.487C6.76566 19.834 6.48466 20.0285 6.08173 19.9812C5.7053 19.9391 5.47202 19.7078 5.36068 19.3609C5.27585 19.098 5.38189 18.872 5.50383 18.6407C5.90146 17.8995 6.27789 17.1477 6.69143 16.4118C6.8823 16.0701 6.83988 15.9597 6.42634 15.9649C4.69796 15.9807 2.96427 15.9702 1.23588 15.9702C1.08213 15.9702 0.928376 15.9755 0.779925 15.9597C0.302763 15.8966 -0.00474125 15.5602 0.00586235 15.1186C0.0164659 14.6981 0.308065 14.3301 0.76402 14.3248C1.19877 14.3196 1.24648 14.1461 1.24648 13.7834C1.23058 10.3349 1.23588 6.88643 1.23588 3.44321C1.23588 3.18037 1.26769 2.9701 0.864754 2.96484C0.308065 2.94907 -0.0153449 2.5811 0.000560547 2.10798C0.0164659 1.62961 0.355781 1.3142 0.928375 1.30895C2.26973 1.29318 3.61109 1.30369 4.94714 1.30369ZM5.44021 11.8068C5.80603 11.8068 6.02871 11.5965 6.21957 11.3179C6.80807 10.4558 7.41248 9.59894 7.99037 8.73157C8.16003 8.47399 8.25546 8.47399 8.45693 8.70529C9.16207 9.52009 9.88842 10.3244 10.6148 11.1234C11.0866 11.6333 11.6062 11.6123 12.0303 11.0656C13.0695 9.71459 14.098 8.35834 15.1213 6.99682C15.4977 6.49217 15.4606 6.02431 15.0418 5.7089C14.6282 5.39875 14.1829 5.49863 13.7852 6.01905C13.0218 7.00733 12.2636 7.99562 11.5161 8.99967C11.3093 9.27828 11.1821 9.29405 10.9488 9.02595C10.2861 8.25846 9.59682 7.51725 8.92349 6.76026C8.29788 6.06111 7.79951 6.09265 7.25872 6.87066C6.83458 7.48045 6.41574 8.09024 5.9969 8.70529C5.57805 9.31508 5.138 9.91435 4.74567 10.5452C4.39575 11.1129 4.79339 11.8068 5.44021 11.8068Z" fill="url(#paint0_linear_89_163)"/>
<defs>
<linearGradient id="paint0_linear_89_163" x1="10" y1="0" x2="10" y2="20" gradientUnits="userSpaceOnUse">
<stop stop-color="#FF4E71"/>
<stop offset="1" stop-color="#FB0230"/>
</linearGradient>
</defs>
</svg>
