<svg width="21" height="19" viewBox="0 0 21 19" fill="none" xmlns="http://www.w3.org/2000/svg">
<path d="M15.0832 16.1601C15.0832 14.6093 16.3956 13.3358 18.0122 13.3204C19.6502 13.305 21 14.5888 21 16.1652C21 17.7468 19.6555 19.0203 18.0122 18.9998C16.3743 18.9792 15.0832 17.7211 15.0832 16.1601Z" fill="url(#paint0_linear_89_141)"/>
<path d="M2.96123 0C4.6045 0 5.89564 1.24268 5.90631 2.82427C5.91698 4.39046 4.61517 5.66395 2.98791 5.67935C1.34463 5.69476 -0.0158661 4.39046 0.000139802 2.81914C0.0161457 1.25295 1.33396 0 2.96123 0Z" fill="url(#paint1_linear_89_141)"/>
<path d="M2.93475 14.2703C4.01248 14.2549 4.90881 15.0867 4.93549 16.1189C4.96216 17.1664 4.04983 18.0548 2.95076 18.0548C1.87303 18.0496 0.992702 17.2024 0.987367 16.1702C0.982032 15.1329 1.85168 14.2857 2.93475 14.2703Z" fill="url(#paint2_linear_89_141)"/>
<path d="M2.93475 7.53316C4.03382 7.52289 4.90881 8.32909 4.93549 9.3715C4.96216 10.4293 4.06583 11.292 2.95076 11.292C1.85169 11.2869 0.992703 10.4653 0.987367 9.42285C0.982032 8.37531 1.84101 7.54343 2.93475 7.53316Z" fill="url(#paint3_linear_89_141)"/>
<path d="M10.5801 0.955072C11.6899 0.949937 12.5328 1.74073 12.5435 2.80882C12.5595 3.89745 11.6952 4.73446 10.5748 4.72419C9.48105 4.71392 8.63807 3.89745 8.63807 2.8345C8.64341 1.77154 9.47038 0.965342 10.5801 0.955072Z" fill="url(#paint4_linear_89_141)"/>
<path d="M16.0756 2.77812C16.1076 1.73058 16.9826 0.934645 18.087 0.955185C19.2074 0.975725 20.0557 1.84868 20.0077 2.92191C19.9597 3.95918 19.058 4.75511 17.9642 4.71917C16.8812 4.68322 16.0435 3.82567 16.0756 2.77812Z" fill="url(#paint5_linear_89_141)"/>
<path d="M8.63818 9.37664C8.65418 8.31882 9.5025 7.52289 10.6122 7.53316C11.7166 7.54343 12.549 8.34963 12.5436 9.41772C12.5436 10.5063 11.6793 11.3177 10.5375 11.292C9.44381 11.2663 8.62751 10.4447 8.63818 9.37664Z" fill="url(#paint6_linear_89_141)"/>
<path d="M18.0333 11.2919C16.9342 11.2867 16.0805 10.4703 16.0752 9.42273C16.0699 8.37518 16.9235 7.54331 18.0173 7.53817C19.143 7.5279 20.0233 8.36491 20.0073 9.43814C19.9967 10.4805 19.1323 11.2919 18.0333 11.2919Z" fill="url(#paint7_linear_89_141)"/>
<path d="M12.5434 15.9648C12.5541 17.0329 11.7324 17.8494 10.628 17.8648C9.51827 17.8802 8.65929 17.0946 8.63795 16.0367C8.61661 14.9481 9.45959 14.1008 10.5853 14.1008C11.6844 14.0957 12.5327 14.907 12.5434 15.9648Z" fill="url(#paint8_linear_89_141)"/>
<defs>
<linearGradient id="paint0_linear_89_141" x1="10.5" y1="0" x2="10.5" y2="19" gradientUnits="userSpaceOnUse">
<stop stop-color="#FF4E71"/>
<stop offset="1" stop-color="#FB0230"/>
</linearGradient>
<linearGradient id="paint1_linear_89_141" x1="10.5" y1="0" x2="10.5" y2="19" gradientUnits="userSpaceOnUse">
<stop stop-color="#FF4E71"/>
<stop offset="1" stop-color="#FB0230"/>
</linearGradient>
<linearGradient id="paint2_linear_89_141" x1="10.5" y1="0" x2="10.5" y2="19" gradientUnits="userSpaceOnUse">
<stop stop-color="#FF4E71"/>
<stop offset="1" stop-color="#FB0230"/>
</linearGradient>
<linearGradient id="paint3_linear_89_141" x1="10.5" y1="0" x2="10.5" y2="19" gradientUnits="userSpaceOnUse">
<stop stop-color="#FF4E71"/>
<stop offset="1" stop-color="#FB0230"/>
</linearGradient>
<linearGradient id="paint4_linear_89_141" x1="10.5" y1="0" x2="10.5" y2="19" gradientUnits="userSpaceOnUse">
<stop stop-color="#FF4E71"/>
<stop offset="1" stop-color="#FB0230"/>
</linearGradient>
<linearGradient id="paint5_linear_89_141" x1="10.5" y1="0" x2="10.5" y2="19" gradientUnits="userSpaceOnUse">
<stop stop-color="#FF4E71"/>
<stop offset="1" stop-color="#FB0230"/>
</linearGradient>
<linearGradient id="paint6_linear_89_141" x1="10.5" y1="0" x2="10.5" y2="19" gradientUnits="userSpaceOnUse">
<stop stop-color="#FF4E71"/>
<stop offset="1" stop-color="#FB0230"/>
</linearGradient>
<linearGradient id="paint7_linear_89_141" x1="10.5" y1="0" x2="10.5" y2="19" gradientUnits="userSpaceOnUse">
<stop stop-color="#FF4E71"/>
<stop offset="1" stop-color="#FB0230"/>
</linearGradient>
<linearGradient id="paint8_linear_89_141" x1="10.5" y1="0" x2="10.5" y2="19" gradientUnits="userSpaceOnUse">
<stop stop-color="#FF4E71"/>
<stop offset="1" stop-color="#FB0230"/>
</linearGradient>
</defs>
</svg>
