<svg width="20" height="20" viewBox="0 0 20 20" fill="none" xmlns="http://www.w3.org/2000/svg">
<path d="M9.95565 15.9369C7.64934 15.9369 5.33749 15.9369 3.03118 15.9369C1.18503 15.9369 0.004158 14.7615 0.004158 12.9184C-0.001386 9.6074 -0.001386 6.30193 0.004158 2.99093C0.004158 1.18092 1.19058 0.00551832 3.00901 0C7.67152 0 12.334 0 16.9965 0C18.815 0 19.9958 1.1754 19.9958 2.99093C20.0014 6.31296 20.0014 9.64051 19.9958 12.9625C19.9903 14.745 18.8039 15.9259 17.0132 15.9314C14.6625 15.9424 12.3063 15.9369 9.95565 15.9369ZM10 11.5664C12.5558 11.5664 15.1116 11.5609 17.6674 11.5719C18.0277 11.5719 18.1331 11.4781 18.1331 11.1139C18.1164 8.432 18.1275 5.75009 18.122 3.06819C18.122 2.20181 17.7893 1.86519 16.9245 1.86519C12.3063 1.86519 7.68815 1.86519 3.06999 1.86519C2.21622 1.87071 1.87803 2.20733 1.87803 3.07371C1.87803 5.73906 1.88912 8.40441 1.86694 11.0698C1.8614 11.4836 1.97782 11.5774 2.38254 11.5774C4.92169 11.5609 7.46085 11.5664 10 11.5664ZM10.9314 13.7296C10.9203 13.2219 10.4879 12.8025 9.98337 12.8135C9.48441 12.8246 9.06306 13.2605 9.06861 13.7627C9.07415 14.2704 9.50104 14.6843 10.0166 14.6732C10.5378 14.6622 10.9425 14.2428 10.9314 13.7296Z" fill="url(#paint0_linear_89_166)"/>
<path d="M9.95544 19.9984C8.69141 19.9984 7.43292 19.9984 6.16889 19.9984C5.47034 19.9984 5.05454 19.6894 5.01019 19.1486C4.96029 18.5912 5.29293 18.2325 6.00257 18.1387C6.25205 18.1056 6.2465 17.9677 6.25205 17.7966C6.30194 16.8695 6.30194 16.8695 7.25551 16.8695C9.2569 16.8695 11.2583 16.8806 13.2597 16.864C13.6311 16.8585 13.8141 16.9468 13.7531 17.3441C13.7365 17.4655 13.7642 17.5924 13.7475 17.7138C13.7143 18.0173 13.8085 18.1387 14.1467 18.1553C14.6734 18.1829 15.0227 18.6078 15.0005 19.11C14.9783 19.6066 14.5958 19.9929 14.0635 19.9984C12.6942 20.0039 11.3248 19.9929 9.95544 19.9984Z" fill="url(#paint1_linear_89_166)"/>
<path d="M15.0732 3.02969C15.5223 3.02969 15.9658 3.05728 16.4038 3.14006C16.5756 3.17317 16.6754 3.2725 16.559 3.42149C15.9159 4.2382 15.8161 5.2315 15.6609 6.19721C15.4446 7.53816 14.7794 8.59768 13.6872 9.3868C12.8168 10.0159 11.8688 10.1042 10.8708 9.7179C10.5604 9.59649 10.5382 9.51924 10.6602 9.21021C11.0871 8.15621 11.6359 7.17395 12.3123 6.25791C12.3677 6.18065 12.4287 6.1034 12.4841 6.02614C12.5451 5.92681 12.5673 5.82196 12.4731 5.73919C12.3788 5.65089 12.2735 5.684 12.1848 5.76126C11.963 5.97647 11.7302 6.18065 11.5195 6.41242C10.9374 7.05255 10.4717 7.77545 10.0559 8.53146C10.0004 8.62527 9.97825 8.76875 9.82857 8.76323C9.68997 8.75771 9.6567 8.61975 9.60681 8.52042C8.89717 7.21258 9.34069 5.41912 10.6047 4.4479C11.9297 3.43253 13.4377 3.04624 15.0732 3.02969Z" fill="url(#paint2_linear_89_166)"/>
<path d="M6.44095 6.05938C7.07297 6.07593 7.79924 6.19182 8.42571 6.66639C8.68628 6.86505 8.87477 7.09131 8.86923 7.45551C8.86368 7.79213 8.96902 8.12875 9.14088 8.42122C9.25731 8.61988 9.24622 8.79647 9.16306 8.99513C9.05218 9.27104 8.96348 9.29312 8.75835 9.07238C8.22612 8.504 7.62737 8.01838 6.951 7.62658C6.90665 7.60451 6.86784 7.57692 6.82349 7.55484C6.71261 7.48862 6.60173 7.46103 6.51857 7.58795C6.44095 7.70936 6.51857 7.78661 6.60173 7.85835C7.11178 8.31637 7.59965 8.80199 8.04317 9.33174C8.08198 9.37589 8.12079 9.42004 8.15405 9.46418C8.48669 9.86702 8.45897 9.96083 7.93784 10.0988C7.13395 10.314 6.45204 9.99946 5.81448 9.56903C5.37096 9.26552 5.08267 8.8351 4.83319 8.36604C4.55045 7.83628 4.27879 7.30652 3.7632 6.94783C3.56362 6.80987 3.73548 6.72158 3.85745 6.66639C4.63361 6.29115 5.44303 6.05938 6.44095 6.05938Z" fill="url(#paint3_linear_89_166)"/>
<defs>
<linearGradient id="paint0_linear_89_166" x1="10" y1="0" x2="10" y2="20" gradientUnits="userSpaceOnUse">
<stop stop-color="#FF4E71"/>
<stop offset="1" stop-color="#FB0230"/>
</linearGradient>
<linearGradient id="paint1_linear_89_166" x1="10" y1="0" x2="10" y2="20" gradientUnits="userSpaceOnUse">
<stop stop-color="#FF4E71"/>
<stop offset="1" stop-color="#FB0230"/>
</linearGradient>
<linearGradient id="paint2_linear_89_166" x1="10" y1="0" x2="10" y2="20" gradientUnits="userSpaceOnUse">
<stop stop-color="#FF4E71"/>
<stop offset="1" stop-color="#FB0230"/>
</linearGradient>
<linearGradient id="paint3_linear_89_166" x1="10" y1="0" x2="10" y2="20" gradientUnits="userSpaceOnUse">
<stop stop-color="#FF4E71"/>
<stop offset="1" stop-color="#FB0230"/>
</linearGradient>
</defs>
</svg>
