<svg width="20" height="20" viewBox="0 0 20 20" fill="none" xmlns="http://www.w3.org/2000/svg">
<path d="M7.7925 5.80762C8.23038 5.82849 8.58069 5.94957 8.8601 6.2293C10.499 7.87011 12.138 9.50257 13.7685 11.1476C14.123 11.5024 14.2648 11.9492 14.1397 12.4377C13.7435 13.9866 13.3515 15.5356 12.922 17.0762C12.7426 17.7192 12.1963 18.049 11.4415 18.049C8.18868 18.0448 5.02759 18.5876 1.96659 19.6856C1.74557 19.7649 1.52871 19.8443 1.30769 19.9278C0.911509 20.0739 0.561204 19.9988 0.269283 19.6981C-0.0101269 19.4101 -0.0685111 19.0635 0.0774493 18.6878C0.51116 17.5438 0.882317 16.3831 1.17007 15.1932C1.69135 13.0347 1.95408 10.8428 1.95408 8.62163C1.95408 7.69058 2.30856 7.22297 3.19266 6.98917C4.57303 6.62593 5.95757 6.2627 7.33794 5.90364C7.50475 5.85772 7.67156 5.83267 7.7925 5.80762ZM10.0153 12.3959C10.0278 11.0682 8.99772 10.0036 7.67573 9.98271C6.33707 9.96183 5.24862 11.0181 5.24028 12.3458C5.22777 13.6568 6.28702 14.7465 7.58816 14.7674C8.92265 14.7882 10.0028 13.7361 10.0153 12.3959Z" fill="url(#paint0_linear_131_483)"/>
<path d="M12.826 0C13.2347 0.00417509 13.5725 0.146128 13.8519 0.425859C15.7577 2.3297 17.6677 4.22937 19.5611 6.14573C20.1532 6.74277 20.1407 7.56526 19.5569 8.17483C18.898 8.85954 18.2266 9.53173 17.5426 10.1914C16.9213 10.7884 16.1039 10.7801 15.4867 10.1663C13.5975 8.28338 11.7084 6.39624 9.83175 4.50492C9.21037 3.87866 9.21454 3.05617 9.83592 2.42155C10.4823 1.76189 11.1412 1.11057 11.7918 0.45926C12.0837 0.167004 12.4257 0.00417509 12.826 0Z" fill="url(#paint1_linear_131_483)"/>
<defs>
<linearGradient id="paint0_linear_131_483" x1="10" y1="0" x2="10" y2="20" gradientUnits="userSpaceOnUse">
<stop stop-color="#FF4E71"/>
<stop offset="1" stop-color="#FB0230"/>
</linearGradient>
<linearGradient id="paint1_linear_131_483" x1="10" y1="0" x2="10" y2="20" gradientUnits="userSpaceOnUse">
<stop stop-color="#FF4E71"/>
<stop offset="1" stop-color="#FB0230"/>
</linearGradient>
</defs>
</svg>
