<svg width="23" height="20" viewBox="0 0 23 20" fill="none" xmlns="http://www.w3.org/2000/svg">
<path d="M11.5171 10.8359C9.73953 10.8359 7.96196 10.8442 6.18438 10.8276C5.8623 10.8235 5.72776 10.8939 5.74815 11.2497C5.77668 11.8043 5.78076 12.3629 5.74815 12.9133C5.72776 13.2775 5.87046 13.3437 6.18846 13.3354C6.85301 13.3147 7.52164 13.323 8.19027 13.3313C9.20952 13.3437 9.84961 13.9934 9.85777 15.0279C9.86592 16.1204 9.86592 17.2129 9.85777 18.3054C9.84961 19.3358 9.20137 19.9897 8.17804 19.9938C6.005 20.0021 3.83603 20.0021 1.66298 19.9938C0.672271 19.9897 0.0158734 19.3317 0.00771937 18.3385C-0.00451165 17.2295 -0.000434646 16.1163 0.00771937 15.0072C0.0158734 14.0058 0.664117 13.3478 1.64668 13.3313C2.33161 13.323 3.01655 13.3106 3.69741 13.3354C4.04803 13.3478 4.12957 13.2195 4.11734 12.8926C4.09288 12.2512 4.10511 11.6098 4.11327 10.9683C4.12142 9.83861 4.78597 9.16822 5.91123 9.16408C7.34633 9.15994 8.78144 9.15167 10.2206 9.17236C10.559 9.1765 10.7099 9.11028 10.6895 8.72543C10.6569 8.17091 10.6609 7.61639 10.6895 7.06187C10.7058 6.72667 10.5794 6.65632 10.2777 6.6646C9.59276 6.68529 8.9119 6.67701 8.22696 6.66874C7.24033 6.65632 6.58801 6.00248 6.57985 5.00103C6.56762 3.89199 6.56762 2.77881 6.57985 1.66977C6.58801 0.668322 7.24033 0.0103455 8.22696 0.00620733C10.4163 -0.00206911 12.6016 -0.00206911 14.7909 0.00620733C15.7735 0.0103455 16.4177 0.676598 16.4258 1.68219C16.434 2.77467 16.434 3.86716 16.4258 4.95965C16.4177 6.01904 15.7694 6.65632 14.7135 6.66874C14.0449 6.67287 13.3803 6.68943 12.7117 6.66046C12.3855 6.64805 12.2999 6.75978 12.3162 7.07428C12.3407 7.6288 12.3407 8.18746 12.3162 8.73785C12.2999 9.08132 12.41 9.1765 12.7443 9.17236C14.1794 9.1558 15.6145 9.16408 17.0537 9.16408C18.2442 9.16822 18.8843 9.82206 18.8924 11.0346C18.8965 11.676 18.9087 12.3174 18.8883 12.9588C18.8802 13.2609 18.9862 13.3395 19.2675 13.3354C19.9524 13.3188 20.6333 13.323 21.3182 13.3313C22.3375 13.3437 22.9857 13.9892 22.9939 15.0197C23.002 16.1121 23.002 17.2046 22.9939 18.2971C22.9857 19.3317 22.3416 19.9897 21.3223 19.9938C19.1493 20.0021 16.9803 20.0021 14.8073 19.9938C13.7921 19.9897 13.1479 19.3275 13.1438 18.293C13.1357 17.2005 13.1357 16.108 13.1438 15.0155C13.152 13.9892 13.8043 13.3437 14.8276 13.3313C15.5126 13.323 16.1975 13.3147 16.8784 13.3354C17.1719 13.3437 17.2616 13.2485 17.2535 12.9547C17.2331 12.4002 17.2249 11.8415 17.2535 11.2911C17.2738 10.927 17.1678 10.8235 16.805 10.8276C15.0396 10.8483 13.2784 10.8359 11.5171 10.8359Z" fill="url(#paint0_linear_132_70)"/>
<defs>
<linearGradient id="paint0_linear_132_70" x1="11.5" y1="0" x2="11.5" y2="20" gradientUnits="userSpaceOnUse">
<stop stop-color="#FF4E71"/>
<stop offset="1" stop-color="#FB0230"/>
</linearGradient>
</defs>
</svg>
