<svg width="21" height="20" viewBox="0 0 21 20" fill="none" xmlns="http://www.w3.org/2000/svg">
<path d="M14.5221 13.0521C10.9498 13.0424 8.06335 10.127 8.06812 6.51884C8.07764 2.9299 11.0022 -0.0143799 14.5507 5.28363e-05C18.1135 0.0144856 21.0095 2.94914 21 6.54771C20.9952 10.1463 18.0945 13.0569 14.5221 13.0521ZM13.7934 7.1154C13.7934 7.3367 13.7743 7.558 13.7981 7.77449C13.841 8.1738 14.1935 8.48651 14.565 8.45283C14.9699 8.41434 15.2604 8.17861 15.2652 7.76487C15.2652 7.38962 15.3938 7.19237 15.7129 6.99993C16.5655 6.47073 16.8894 5.41714 16.5417 4.47901C16.1892 3.50721 15.2414 2.94914 14.1935 3.09347C13.2551 3.21855 12.474 4.07009 12.393 5.05151C12.3549 5.5326 12.6074 5.88861 13.0265 5.95115C13.4647 6.0137 13.7886 5.75872 13.8791 5.28244C13.8982 5.1766 13.9125 5.06113 13.9553 4.96492C14.0982 4.6474 14.3602 4.53675 14.6841 4.6041C14.9985 4.67145 15.1699 4.89756 15.1747 5.21027C15.1794 5.52298 15.008 5.74428 14.7031 5.83569C13.8029 6.10991 13.7886 6.12916 13.7934 7.1154ZM15.2747 9.96346C15.2652 9.55453 14.927 9.22739 14.5126 9.2322C14.0982 9.23701 13.7743 9.56896 13.7839 9.98751C13.7886 10.3916 14.1459 10.7428 14.5412 10.7332C14.9365 10.7284 15.2842 10.3628 15.2747 9.96346Z" fill="url(#paint0_linear_132_77)"/>
<path d="M17.0466 14.1827C17.2038 15.9435 16.0178 17.2568 14.2936 17.2713C12.6551 17.2857 11.0118 17.2905 9.37327 17.2713C8.03483 17.252 6.86311 17.6658 5.82475 18.5125C5.32938 18.9214 4.81973 19.3111 4.31484 19.7104C3.92426 20.0231 3.49558 20.0953 3.04785 19.8644C2.61917 19.6431 2.41435 19.2726 2.42864 18.7867C2.42864 18.7097 2.42388 18.628 2.42864 18.551C2.49056 17.8005 2.4858 17.228 1.50936 16.9345C0.523397 16.6362 0.028033 15.6885 0.0185068 14.6253C-0.00530879 11.96 -0.00530879 9.29479 0.0137437 6.62954C0.0232699 5.16702 1.18547 3.99797 2.64775 3.96429C3.97666 3.93543 5.3008 3.95948 6.62971 3.94986C6.90121 3.94986 6.98695 4.00759 6.89645 4.30106C6.67734 5.0275 6.5535 5.77801 6.58208 6.53813C6.59161 6.87971 6.44395 6.91819 6.16769 6.91338C5.38654 6.89895 4.60539 6.90857 3.82424 6.91338C3.46224 6.91338 3.19074 7.06733 3.05738 7.42334C2.94782 7.71681 3.02403 7.97659 3.23361 8.20752C3.40985 8.39996 3.63848 8.42401 3.87663 8.42401C4.7197 8.42401 5.56277 8.43363 6.40585 8.4192C6.67734 8.41439 6.84405 8.46731 6.89645 8.77521C6.93931 9.02056 7.02981 9.26111 7.13937 9.48722C7.28226 9.79031 7.19176 9.86728 6.88692 9.86247C5.98193 9.84804 5.07694 9.85766 4.17194 9.85766C4.03381 9.85766 3.89092 9.85285 3.75279 9.86728C3.30029 9.91058 3.00974 10.2185 3.01451 10.6274C3.01927 11.0411 3.31458 11.349 3.77184 11.3587C4.55299 11.3779 5.33415 11.3635 6.1153 11.3683C6.72498 11.3683 7.34418 11.3009 7.93957 11.3875C8.58735 11.4838 8.80646 12.1861 9.26372 12.5662C11.4405 14.3847 13.8792 14.9717 16.618 14.2885C16.7513 14.25 16.8847 14.2212 17.0466 14.1827ZM6.17245 12.8212C5.42464 12.8212 4.67684 12.8164 3.92903 12.8212C3.3384 12.826 3.00022 13.1098 3.00974 13.5813C3.01927 14.0335 3.35269 14.327 3.90997 14.327C5.40559 14.3318 6.90121 14.3318 8.39683 14.327C8.95411 14.327 9.28277 14.0335 9.28753 13.5765C9.29229 13.1147 8.97317 12.826 8.41588 12.8212C7.66807 12.8164 6.92026 12.8212 6.17245 12.8212Z" fill="url(#paint1_linear_132_77)"/>
<defs>
<linearGradient id="paint0_linear_132_77" x1="10.5" y1="0" x2="10.5" y2="20" gradientUnits="userSpaceOnUse">
<stop stop-color="#FF4E71"/>
<stop offset="1" stop-color="#FB0230"/>
</linearGradient>
<linearGradient id="paint1_linear_132_77" x1="10.5" y1="0" x2="10.5" y2="20" gradientUnits="userSpaceOnUse">
<stop stop-color="#FF4E71"/>
<stop offset="1" stop-color="#FB0230"/>
</linearGradient>
</defs>
</svg>
