<svg width="18" height="20" viewBox="0 0 18 20" fill="none" xmlns="http://www.w3.org/2000/svg">
<path d="M8.97463 19.9945C7.13192 19.9945 5.2892 19.9839 3.45178 19.9998C2.14388 20.0104 1.10073 19.5339 0.45472 18.3689C-0.196585 17.1881 -0.138338 16.0126 0.565918 14.8635C1.95855 12.6078 3.34058 10.3467 4.7385 8.0963C4.91854 7.80507 4.99797 7.51913 4.99797 7.17494C4.98738 5.61287 4.98738 4.05609 4.99797 2.49402C4.99797 2.20279 4.9662 2.02805 4.62731 1.92214C4.18251 1.77917 3.98659 1.39792 4.01836 0.921358C4.05013 0.48186 4.34666 0.142969 4.79146 0.0423613C4.92913 0.0105903 5.0721 0 5.21507 0C7.74086 0 10.2667 0 12.7977 0C13.4914 0 13.9203 0.3283 13.9786 0.878997C14.0315 1.37145 13.8091 1.77917 13.322 1.93803C13.0519 2.02275 12.999 2.15513 12.999 2.404C13.0095 4.05609 13.0095 5.71348 12.999 7.36557C12.999 7.61444 13.089 7.81566 13.2161 8.01688C14.6246 10.2991 16.0331 12.5813 17.4363 14.8688C18.1511 16.0338 18.1935 17.2305 17.521 18.4166C16.9015 19.5021 15.9219 19.9945 14.6828 19.9998C12.7819 19.9998 10.8809 19.9945 8.97463 19.9945ZM12.7077 11.0033C12.2365 10.2355 11.834 9.53659 11.3892 8.8694C11.1033 8.43519 10.9762 7.9904 10.9815 7.46618C11.0027 5.7982 10.9815 4.13023 10.9974 2.46225C11.0027 2.12866 10.9285 2.00157 10.5632 2.00687C9.53592 2.03334 8.50336 2.02805 7.4761 2.00687C7.11603 1.99628 6.99954 2.09159 7.00483 2.46755C7.02601 4.19906 7.01013 5.92529 7.01542 7.6568C7.01542 8.02747 6.9307 8.35577 6.72949 8.67348C6.31117 9.33008 5.91403 10.0026 5.50101 10.6592C5.35804 10.8816 5.31038 11.0033 5.66516 11.0033C7.96855 10.9981 10.2772 11.0033 12.7077 11.0033Z" fill="url(#paint0_linear_132_79)"/>
<defs>
<linearGradient id="paint0_linear_132_79" x1="9" y1="0" x2="9" y2="20" gradientUnits="userSpaceOnUse">
<stop stop-color="#FF4E71"/>
<stop offset="1" stop-color="#FB0230"/>
</linearGradient>
</defs>
</svg>
