<svg width="19" height="20" viewBox="0 0 19 20" fill="none" xmlns="http://www.w3.org/2000/svg">
<path d="M18.9947 10.0318C18.9602 12.4144 19.0639 14.8039 18.9256 17.1865C18.9186 17.3101 18.9186 17.4268 18.9048 17.5504C18.7387 19.1503 18.1368 19.7614 16.5247 19.8713C13.9508 20.0429 11.377 20.0429 8.80315 19.8713C7.21871 19.7683 6.65828 19.1984 6.45763 17.6397C6.31925 16.5891 6.38152 15.5317 6.36076 14.4812C6.35385 14.0417 6.20855 13.6915 5.75882 13.5542C5.19146 13.3757 4.70022 13.7739 4.70022 14.4194C4.6933 15.4905 4.65871 16.5617 4.79708 17.6328C4.84552 18.0036 4.7279 18.1272 4.35427 18.0929C3.80076 18.0448 3.24032 18.0448 2.68681 17.9967C1.0401 17.8731 0.223665 17.0766 0.0991244 15.4425C0.0368539 14.6185 0.00917816 13.7877 0.0160971 12.9568C0.029935 10.2446 -0.0600112 7.5324 0.0783676 4.82019C0.0922054 4.6142 0.106043 4.40821 0.147557 4.20221C0.403558 2.82894 1.07469 2.1835 2.47924 2.02558C3.10194 1.95691 3.73157 1.96378 4.35427 1.91572C4.72098 1.88825 4.84552 2.00498 4.79708 2.37576C4.65871 3.40572 4.70022 4.4494 4.70022 5.47936C4.70022 6.11793 4.9839 6.46811 5.4959 6.48185C6.03557 6.49558 6.34001 6.13853 6.35385 5.47936C6.36768 4.41507 6.31233 3.34392 6.45763 2.27277C6.63752 0.90636 7.17028 0.281521 8.53331 0.171659C11.294 -0.0549309 14.0685 -0.0617973 16.8291 0.178525C18.2544 0.30212 18.801 1.02309 18.9117 2.61608C19.0363 4.40821 18.9809 6.20719 18.9947 8.00618C18.9947 8.67908 18.9947 9.35199 18.9947 10.0318ZM11.1072 10.8901C10.7335 11.2677 10.3738 11.6316 10.014 11.9955C9.56423 12.4487 9.5158 12.9019 9.88942 13.2589C10.2423 13.6023 10.7128 13.5817 11.1418 13.1697C11.9997 12.3389 12.8576 11.5012 13.7018 10.6566C14.1446 10.2171 14.1446 9.79143 13.7018 9.35199C12.8576 8.50742 11.9997 7.66973 11.1418 6.8389C10.7128 6.42692 10.2492 6.39945 9.89634 6.74277C9.52964 7.09982 9.57115 7.553 10.0209 8.00618C10.3807 8.3701 10.7405 8.73401 11.1833 9.18719C10.8996 9.18719 10.7128 9.18719 10.5329 9.18719C8.2358 9.18719 5.93871 9.18719 3.64162 9.18719C3.43405 9.18719 3.22649 9.16659 3.02584 9.25586C2.70756 9.39318 2.52075 9.62664 2.51383 9.96996C2.5 10.3339 2.69373 10.5879 3.02584 10.739C3.22649 10.8283 3.43405 10.8077 3.64162 10.8077C5.93871 10.8077 8.2358 10.8077 10.5329 10.8145C10.7128 10.8214 10.9065 10.7596 11.1072 10.8901Z" fill="url(#paint0_linear_132_82)"/>
<defs>
<linearGradient id="paint0_linear_132_82" x1="9.5" y1="0" x2="9.5" y2="20" gradientUnits="userSpaceOnUse">
<stop stop-color="#FF4E71"/>
<stop offset="1" stop-color="#FB0230"/>
</linearGradient>
</defs>
</svg>
