<svg width="20" height="20" viewBox="0 0 20 20" fill="none" xmlns="http://www.w3.org/2000/svg">
<path d="M14.5638 1.14845C14.2004 1.4668 13.8824 1.73967 13.5774 2.01903C13.4411 2.14247 13.2854 2.27891 13.2594 2.45432C13.1816 2.97407 12.909 2.83764 12.5715 2.72719C9.6188 1.76566 6.93861 2.2919 4.69972 4.43587C2.44784 6.58634 1.74697 9.28254 2.662 12.2646C3.57702 15.2272 5.64719 17.0463 8.70377 17.5855C13.6099 18.4561 17.9709 14.532 17.7048 9.54891C17.6594 8.7368 17.4971 7.95068 17.1856 7.19704C17.1013 6.99564 17.0753 6.89169 17.3414 6.82022C17.8995 6.6708 18.211 6.18353 18.6068 5.81971C18.9313 5.51435 18.9248 5.50786 19.1 5.89767C21.897 12.0827 17.8021 19.2358 11.0595 19.9439C5.69911 20.5091 0.851413 16.741 0.0986246 11.4135C-0.686611 5.81971 3.30446 0.700169 8.95686 0.0764686C10.8388 -0.131431 13.0128 0.264878 14.5638 1.14845Z" fill="url(#paint0_linear_145_2417)"/>
<path d="M12.6496 5.31326C12.124 5.83951 11.5983 6.35926 11.0792 6.892C10.9494 7.02194 10.8196 6.96997 10.6833 6.93748C8.94411 6.57366 7.28278 7.63914 6.90639 9.36082C6.54297 11.037 7.60077 12.6937 9.29454 13.0965C11.514 13.6228 13.5582 11.6217 13.078 9.37381C13.026 9.12043 13.0715 8.96451 13.2532 8.79559C13.7399 8.32781 14.2071 7.84704 14.6874 7.35978C15.823 9.13992 15.7711 12.2714 13.4608 14.188C11.3128 15.9681 8.15887 15.8317 6.18605 13.8632C4.20674 11.9011 4.0445 8.74361 5.80965 6.58015C7.69162 4.26727 10.8131 4.15682 12.6496 5.31326Z" fill="url(#paint1_linear_145_2417)"/>
<path d="M16.8744 6.20303C16.4137 6.13156 15.9464 6.06659 15.4921 5.97563C15.239 5.92366 15.0638 5.98863 14.8756 6.17704C13.5063 7.56737 12.1241 8.94471 10.7418 10.322C10.6509 10.413 10.5601 10.5105 10.4627 10.5884C10.1577 10.8223 9.72293 10.7833 9.46984 10.5169C9.22323 10.2571 9.20377 9.84128 9.42441 9.54892C9.4958 9.45796 9.58665 9.38 9.66452 9.29554C11.0533 7.90521 12.4356 6.51487 13.8308 5.13104C14.019 4.94263 14.0839 4.76722 14.0255 4.51384C13.9606 4.20848 13.9606 3.89014 13.8762 3.59128C13.7205 3.04554 13.8957 2.65573 14.2851 2.27242C14.96 1.60973 15.6349 0.93406 16.3617 0.323353C17.0302 -0.235378 17.6012 -0.0599621 17.77 0.771638C18.036 2.1035 17.9063 1.96706 19.2301 2.22694C20.0348 2.38936 20.236 2.98058 19.7039 3.61077C19.016 4.42938 18.2826 5.20251 17.4974 5.92366C17.3222 6.09258 17.134 6.22252 16.8744 6.20303Z" fill="url(#paint2_linear_145_2417)"/>
<defs>
<linearGradient id="paint0_linear_145_2417" x1="10" y1="0" x2="10" y2="20" gradientUnits="userSpaceOnUse">
<stop stop-color="#FF4E71"/>
<stop offset="1" stop-color="#FB0230"/>
</linearGradient>
<linearGradient id="paint1_linear_145_2417" x1="10" y1="0" x2="10" y2="20" gradientUnits="userSpaceOnUse">
<stop stop-color="#FF4E71"/>
<stop offset="1" stop-color="#FB0230"/>
</linearGradient>
<linearGradient id="paint2_linear_145_2417" x1="10" y1="0" x2="10" y2="20" gradientUnits="userSpaceOnUse">
<stop stop-color="#FF4E71"/>
<stop offset="1" stop-color="#FB0230"/>
</linearGradient>
</defs>
</svg>
