<svg width="21" height="20" viewBox="0 0 21 20" fill="none" xmlns="http://www.w3.org/2000/svg">
<path d="M10.4941 19.9987C7.51801 19.9987 4.54189 19.9987 1.56578 19.9987C0.445843 19.9987 -0.0570898 19.4521 0.00512869 18.3063C0.0362379 17.6809 0.0932715 17.0554 0.254003 16.4457C0.694717 14.727 1.75243 13.5602 3.36493 12.9032C4.19451 12.5669 5.06038 12.3619 5.95218 12.2568C6.44992 12.199 6.58992 12.2988 6.71435 12.7929C7.06174 14.2119 7.66318 15.5049 8.53424 16.6717C8.70016 16.8925 8.86607 17.1395 9.19791 17.0554C9.56085 16.9608 9.61788 16.6612 9.63862 16.3406C9.65936 16.0778 9.66973 15.815 9.73195 15.5627C9.88231 14.9636 9.77343 14.4275 9.46234 13.8966C9.22902 13.5024 9.34308 13.35 9.80454 13.3448C10.2815 13.3395 10.7534 13.3342 11.2304 13.3448C11.64 13.3553 11.7748 13.5287 11.5467 13.8546C10.9141 14.7691 11.3341 15.7099 11.4067 16.6454C11.4222 16.8662 11.5881 17.0081 11.8007 17.0607C12.0651 17.1237 12.2362 16.9766 12.3866 16.7821C13.2317 15.6731 13.8384 14.4432 14.2065 13.0924C14.2428 12.9505 14.2687 12.8086 14.3102 12.6667C14.3983 12.3566 14.6005 12.199 14.9168 12.241C16.1664 12.3934 17.3796 12.672 18.4788 13.329C20.0654 14.2803 20.7446 15.7782 20.9416 17.5599C20.9728 17.849 20.9883 18.1434 20.9987 18.4324C21.0298 19.4416 20.5113 19.9934 19.521 19.9934C16.5034 20.0039 13.4962 19.9987 10.4941 19.9987Z" fill="url(#paint0_linear_145_2421)"/>
<path d="M15.2384 5.17726C15.1865 6.64891 14.9065 8.18363 14.1133 9.5817C13.4755 10.7065 12.62 11.5894 11.3394 11.9153C10.0483 12.2412 8.91802 11.868 7.95882 10.9745C6.77148 9.87078 6.21152 8.43593 5.92635 6.86968C5.73969 5.8185 5.62044 4.75679 5.8745 3.70036C6.45002 1.28266 8.66914 -0.262559 11.1216 0.0370262C13.4496 0.320844 15.2332 2.39692 15.2384 4.83565C15.2384 4.90923 15.2384 4.9828 15.2384 5.17726Z" fill="url(#paint1_linear_145_2421)"/>
<defs>
<linearGradient id="paint0_linear_145_2421" x1="10.5" y1="0" x2="10.5" y2="20" gradientUnits="userSpaceOnUse">
<stop stop-color="#FF4E71"/>
<stop offset="1" stop-color="#FB0230"/>
</linearGradient>
<linearGradient id="paint1_linear_145_2421" x1="10.5" y1="0" x2="10.5" y2="20" gradientUnits="userSpaceOnUse">
<stop stop-color="#FF4E71"/>
<stop offset="1" stop-color="#FB0230"/>
</linearGradient>
</defs>
</svg>
