<svg width="20" height="20" viewBox="0 0 20 20" fill="none" xmlns="http://www.w3.org/2000/svg">
<path d="M9.99017 5.04383C12.2545 5.04383 14.5248 5.04383 16.7891 5.04383C18.7905 5.04383 19.9973 6.25536 19.9973 8.25469C19.9973 9.68704 20.0033 11.1194 19.9973 12.5458C19.9914 14.3661 18.6471 15.6492 16.813 15.5895C16.5859 15.5836 16.4904 15.5358 16.4963 15.2851C16.5083 14.4377 16.5083 13.5962 16.4963 12.7487C16.4963 12.5279 16.574 12.4682 16.7891 12.4503C17.2372 12.4204 17.4582 12.1996 17.4343 11.8415C17.4164 11.4894 17.1774 11.2925 16.7174 11.2925C12.2246 11.2925 7.73184 11.2925 3.23309 11.2925C2.79696 11.2925 2.53408 11.5013 2.51019 11.8415C2.48629 12.1757 2.73721 12.4264 3.16737 12.4503C3.40037 12.4622 3.44817 12.5458 3.44817 12.7547C3.4422 13.6021 3.43622 14.4436 3.44817 15.2911C3.44817 15.506 3.38843 15.5776 3.16737 15.5895C1.40492 15.6611 0.0188475 14.3661 0.00689868 12.5995C-0.00505018 11.0895 0.000924247 9.57961 0.00689868 8.06967C0.0128731 6.30907 1.26153 5.04383 3.03594 5.03786C5.35401 5.0319 7.67209 5.04383 9.99017 5.04383ZM4.01574 8.70826C4.32641 8.70826 4.63708 8.7202 4.94775 8.7023C5.33012 8.68439 5.5452 8.46357 5.55117 8.12936C5.55117 7.79514 5.33609 7.56238 4.95373 7.55045C4.34434 7.53254 3.73494 7.53254 3.12555 7.55045C2.76111 7.55642 2.51616 7.81304 2.51616 8.12339C2.51616 8.4397 2.76111 8.68439 3.12555 8.7023C3.4183 8.7202 3.71702 8.70826 4.01574 8.70826Z" fill="url(#paint0_linear_145_2418)"/>
<path d="M9.99039 12.4622C11.6453 12.4622 13.2943 12.4682 14.9492 12.4563C15.2598 12.4563 15.3375 12.5458 15.3375 12.8502C15.3256 14.8018 15.3315 16.7533 15.3315 18.6989C15.3315 19.5405 14.8715 20 14.0291 20C11.3346 20 8.64017 20 5.9457 20C5.10331 20 4.62535 19.5345 4.61938 18.7049C4.6134 16.7414 4.62535 14.7779 4.60743 12.8144C4.60743 12.504 4.71497 12.4503 4.98979 12.4503C6.65666 12.4682 8.32353 12.4622 9.99039 12.4622ZM10.0023 13.7931C9.50646 13.7931 9.01656 13.7872 8.52068 13.7931C8.0965 13.7991 7.83362 14.0319 7.82765 14.3721C7.82765 14.7122 8.0965 14.951 8.51471 14.9569C9.48854 14.9629 10.4624 14.9629 11.4362 14.9569C11.8783 14.951 12.1173 14.7421 12.1173 14.378C12.1173 14.0199 11.8783 13.8051 11.4422 13.7931C10.9642 13.7872 10.4803 13.7931 10.0023 13.7931ZM9.96052 17.4576C10.4564 17.4576 10.9463 17.4635 11.4422 17.4576C11.8843 17.4516 12.1233 17.2368 12.1233 16.8787C12.1233 16.5206 11.8843 16.2998 11.4482 16.2998C10.4743 16.2938 9.50049 16.2938 8.52666 16.2998C8.10247 16.3057 7.8396 16.5385 7.8396 16.8787C7.8396 17.2188 8.10845 17.4516 8.52666 17.4576C8.99864 17.4635 9.48256 17.4576 9.96052 17.4576Z" fill="url(#paint1_linear_145_2418)"/>
<path d="M9.97802 3.87424C7.94671 3.87424 5.91541 3.8623 3.8841 3.88021C3.51966 3.88618 3.44199 3.76681 3.43602 3.42066C3.41212 2.42995 3.60928 1.53473 4.35608 0.824522C4.90573 0.299327 5.56292 0.0068914 6.32764 0.0068914C8.76521 0.000923273 11.1968 -0.00504486 13.6344 0.0068914C15.1937 0.0188277 16.4543 1.2781 16.5021 2.82981C16.532 3.87424 16.532 3.87424 15.4864 3.87424C13.6523 3.87424 11.8122 3.87424 9.97802 3.87424Z" fill="url(#paint2_linear_145_2418)"/>
<defs>
<linearGradient id="paint0_linear_145_2418" x1="10" y1="0" x2="10" y2="20" gradientUnits="userSpaceOnUse">
<stop stop-color="#FF4E71"/>
<stop offset="1" stop-color="#FB0230"/>
</linearGradient>
<linearGradient id="paint1_linear_145_2418" x1="10" y1="0" x2="10" y2="20" gradientUnits="userSpaceOnUse">
<stop stop-color="#FF4E71"/>
<stop offset="1" stop-color="#FB0230"/>
</linearGradient>
<linearGradient id="paint2_linear_145_2418" x1="10" y1="0" x2="10" y2="20" gradientUnits="userSpaceOnUse">
<stop stop-color="#FF4E71"/>
<stop offset="1" stop-color="#FB0230"/>
</linearGradient>
</defs>
</svg>
