<svg width="21" height="20" viewBox="0 0 21 20" fill="none" xmlns="http://www.w3.org/2000/svg">
<path d="M10.5263 6.31254C12.8793 6.31254 15.2385 6.35579 17.5915 6.30018C19.5564 6.25694 21.0656 7.82617 20.9978 9.70429C20.9547 10.9646 20.9978 12.2311 20.9855 13.4914C20.9732 14.9186 20.117 15.7711 18.6879 15.7835C18.189 15.7897 17.69 15.7958 17.1849 15.7835C16.8954 15.7773 16.7784 15.8947 16.7846 16.1851C16.7969 16.7349 16.7969 17.2847 16.7846 17.8346C16.7599 19.0826 15.8852 19.9846 14.6471 19.9907C11.8691 20.0031 9.09724 20.0031 6.31921 19.9907C5.10575 19.9846 4.22491 19.0826 4.19411 17.8717C4.18179 17.3712 4.15715 16.8646 4.20027 16.3642C4.23723 15.8762 4.04627 15.7464 3.59046 15.7773C3.11 15.8082 2.62338 15.7897 2.13676 15.7835C0.904821 15.7526 0.0239822 14.8753 0.0116627 13.6273C-0.000656681 12.2496 -0.00681639 10.8781 0.0116627 9.50042C0.0363016 7.69025 1.40376 6.33107 3.22087 6.31872C5.65396 6.30018 8.09321 6.31254 10.5263 6.31254ZM10.4955 17.8902C11.6412 17.8902 12.7869 17.8964 13.9326 17.8902C14.5116 17.884 14.6903 17.711 14.6903 17.1303C14.6964 15.8823 14.6964 14.6406 14.6903 13.3926C14.6841 12.8242 14.4993 12.6327 13.9326 12.6327C11.6412 12.6265 9.34979 12.6265 7.05837 12.6327C6.48552 12.6327 6.30689 12.818 6.30073 13.3926C6.29457 14.6406 6.29457 15.8823 6.30073 17.1303C6.30689 17.711 6.47936 17.884 7.05837 17.8902C8.20408 17.8964 9.34979 17.8902 10.4955 17.8902ZM17.8317 8.42543C17.2404 8.43161 16.803 8.87643 16.803 9.46952C16.803 10.0812 17.265 10.5321 17.881 10.5136C18.4662 10.5013 18.8973 10.0379 18.885 9.44482C18.8789 8.8579 18.4169 8.41926 17.8317 8.42543Z" fill="url(#paint0_linear_145_2424)"/>
<path d="M10.483 4.20571C8.81984 4.20571 7.15672 4.21188 5.4936 4.20571C4.6066 4.20571 4.20006 3.79178 4.20006 2.90214C4.1939 2.30287 4.18774 1.7036 4.20622 1.10433C4.21854 0.461817 4.66204 0.00463353 5.30265 0.00463353C8.77057 -0.00154451 12.2446 -0.00154451 15.7126 0.00463353C16.3285 0.00463353 16.7659 0.461812 16.7844 1.07962C16.8028 1.72831 16.7967 2.37701 16.7905 3.01952C16.7782 3.76089 16.3593 4.19335 15.6202 4.19953C13.9078 4.21189 12.1954 4.20571 10.483 4.20571Z" fill="url(#paint1_linear_145_2424)"/>
<defs>
<linearGradient id="paint0_linear_145_2424" x1="10.5" y1="0" x2="10.5" y2="20" gradientUnits="userSpaceOnUse">
<stop stop-color="#FF4E71"/>
<stop offset="1" stop-color="#FB0230"/>
</linearGradient>
<linearGradient id="paint1_linear_145_2424" x1="10.5" y1="0" x2="10.5" y2="20" gradientUnits="userSpaceOnUse">
<stop stop-color="#FF4E71"/>
<stop offset="1" stop-color="#FB0230"/>
</linearGradient>
</defs>
</svg>
