<svg width="29" height="20" viewBox="0 0 29 20" fill="none" xmlns="http://www.w3.org/2000/svg">
<path d="M15.8971 14.5448C15.8971 14.7851 15.8971 15.032 15.8971 15.279C15.8707 15.279 14.4737 15.279 14.4737 15.279C14.4737 15.279 13.07 15.279 13.0503 15.279C13.0503 15.032 13.0503 14.7917 13.0503 14.5448C13.5247 14.5448 13.9992 14.5448 14.4737 14.5448C14.9481 14.5448 15.4226 14.5448 15.8971 14.5448Z" fill="url(#paint0_linear_145_2425)"/>
<path d="M28.9383 6.21558L23.416 19.0432C23.1986 19.7373 22.4605 20.1177 21.7752 19.8908L18.131 19.4436C18.5857 19.3101 18.9811 19.0632 19.304 18.7362C19.8114 18.2222 20.1277 17.5081 20.1409 16.6939C21.8345 16.6271 22.9679 15.4458 22.9811 13.7106C22.9811 13.3769 22.9811 13.0498 22.9811 12.7228C22.9745 12.1822 22.9745 11.675 22.9877 11.1611C23.0206 10.1533 22.6648 9.20557 21.9728 8.4781C21.4325 7.9108 20.7406 7.54372 19.9827 7.41024C20.0816 7.15662 20.1343 6.86964 20.1343 6.56931C20.1409 6.16219 20.1409 5.67498 20.1343 5.18777C20.1013 3.97976 19.1854 3.06542 17.9992 3.05875C16.7933 3.05875 15.5939 3.05207 14.388 3.05207C13.2413 3.05207 12.0947 3.05207 10.9547 3.05207C9.75533 3.05207 8.83276 3.97976 8.8064 5.20112C8.79981 5.58154 8.79981 5.95529 8.79981 6.31569V6.4692C8.79981 6.81625 8.85912 7.12993 8.96456 7.41024C7.24462 7.68388 5.99255 9.11881 5.96619 10.9475C5.95301 11.7818 5.95301 12.6894 5.96619 13.804C5.98596 15.4125 7.19849 16.6538 8.79322 16.6872H8.79981V16.7139C8.83276 18.1088 9.74875 19.2167 11.0272 19.4903L7.383 19.9375C6.69766 20.1577 5.9596 19.7773 5.74214 19.0899L0.0617214 6.32237C-0.155742 5.62827 0.219877 4.88744 0.898628 4.66052L3.57409 3.78622L3.51478 3.28566C3.42912 2.56486 3.94312 1.90413 4.66141 1.82404L7.92996 1.43694L7.93655 1.35686C7.97609 0.629381 8.59553 0.0687516 9.30723 0.108796L13.5049 0.342393L19.6928 0.0020186C20.4111 -0.0380259 21.0239 0.522593 21.0635 1.25007L21.07 1.33015L24.3386 1.71725C25.0503 1.80401 25.5643 2.45808 25.4786 3.17888L25.4193 3.67943L28.1014 4.55373C28.7801 4.77398 29.1557 5.52148 28.9383 6.21558Z" fill="url(#paint1_linear_145_2425)"/>
<path d="M14.4931 8.80497C16.0878 8.80497 17.6826 8.83166 19.2707 8.79829C20.5953 8.76492 21.6167 9.83944 21.5706 11.1209C21.5376 11.9818 21.5706 12.8428 21.564 13.7037C21.5574 14.6782 20.9775 15.2588 20.0088 15.2655C19.6727 15.2655 19.33 15.2721 18.9939 15.2655C18.7962 15.2588 18.7238 15.3389 18.7238 15.5391C18.7303 15.9129 18.7303 16.2933 18.7238 16.667C18.704 17.5213 18.1175 18.1353 17.2806 18.1353C15.4025 18.142 13.531 18.142 11.6529 18.1353C10.8292 18.1287 10.2361 17.5146 10.2163 16.6871C10.2097 16.3467 10.19 15.9996 10.2163 15.6592C10.2427 15.3255 10.1109 15.2388 9.80115 15.2588C9.47825 15.2788 9.14876 15.2655 8.81927 15.2588C7.98236 15.2388 7.38269 14.6448 7.3761 13.7905C7.36951 12.8495 7.36292 11.9151 7.3761 10.974C7.39587 9.73934 8.31844 8.81164 9.54415 8.79829C11.1982 8.79829 12.8456 8.80497 14.4931 8.80497ZM14.4733 16.7071C15.2509 16.7071 16.0219 16.7071 16.7995 16.7071C17.1883 16.7071 17.3069 16.5803 17.3135 16.1865C17.3201 15.3389 17.3201 14.4846 17.3135 13.637C17.3135 13.2499 17.1883 13.1164 16.7995 13.1164C15.2509 13.1097 13.7023 13.1097 12.1537 13.1164C11.7649 13.1164 11.6463 13.2432 11.6397 13.637C11.6331 14.4846 11.6331 15.3389 11.6397 16.1865C11.6397 16.5803 11.7649 16.7004 12.1537 16.7071C12.9247 16.7071 13.6957 16.7071 14.4733 16.7071ZM19.4289 10.2466C19.0335 10.2532 18.7303 10.5536 18.7303 10.9607C18.7303 11.3745 19.0467 11.6815 19.4618 11.6748C19.8572 11.6681 20.1472 11.3478 20.1406 10.9473C20.1406 10.5402 19.8308 10.2399 19.4289 10.2466Z" fill="url(#paint2_linear_145_2425)"/>
<path d="M14.4669 7.36357C13.3401 7.36357 12.2198 7.36357 11.0929 7.36357C10.4933 7.36357 10.2231 7.08326 10.2165 6.47592C10.2165 6.0688 10.2099 5.65501 10.2165 5.24789C10.2231 4.8074 10.5262 4.49371 10.9611 4.49371C13.3071 4.48704 15.6531 4.48704 17.9991 4.49371C18.4142 4.49371 18.7108 4.8074 18.7239 5.22787C18.7371 5.66836 18.7305 6.10884 18.7239 6.556C18.7174 7.06323 18.434 7.3569 17.9332 7.36357C16.7799 7.37024 15.6201 7.36357 14.4669 7.36357Z" fill="url(#paint3_linear_145_2425)"/>
<defs>
<linearGradient id="paint0_linear_145_2425" x1="14.5" y1="0" x2="14.5" y2="20" gradientUnits="userSpaceOnUse">
<stop stop-color="#FF4E71"/>
<stop offset="1" stop-color="#FB0230"/>
</linearGradient>
<linearGradient id="paint1_linear_145_2425" x1="14.5" y1="0" x2="14.5" y2="20" gradientUnits="userSpaceOnUse">
<stop stop-color="#FF4E71"/>
<stop offset="1" stop-color="#FB0230"/>
</linearGradient>
<linearGradient id="paint2_linear_145_2425" x1="14.5" y1="0" x2="14.5" y2="20" gradientUnits="userSpaceOnUse">
<stop stop-color="#FF4E71"/>
<stop offset="1" stop-color="#FB0230"/>
</linearGradient>
<linearGradient id="paint3_linear_145_2425" x1="14.5" y1="0" x2="14.5" y2="20" gradientUnits="userSpaceOnUse">
<stop stop-color="#FF4E71"/>
<stop offset="1" stop-color="#FB0230"/>
</linearGradient>
</defs>
</svg>
