<svg width="25" height="20" viewBox="0 0 25 20" fill="none" xmlns="http://www.w3.org/2000/svg">
<path d="M9.92194 7.51648C12.1373 7.51648 14.3584 7.55591 16.5737 7.5052C18.4237 7.46576 19.8445 8.89696 19.7807 10.6099C19.7401 11.7594 19.7807 12.9145 19.7691 14.0639C19.7575 15.3655 18.9514 16.1431 17.606 16.1544C17.1362 16.16 16.6665 16.1656 16.191 16.1544C15.9184 16.1487 15.8082 16.2558 15.814 16.5206C15.8256 17.0221 15.8256 17.5236 15.814 18.0251C15.7908 19.1633 14.9673 19.9859 13.8017 19.9915C11.1862 20.0028 8.57651 20.0028 5.96103 19.9915C4.81858 19.9859 3.98928 19.1633 3.96028 18.0589C3.94869 17.6025 3.92549 17.1404 3.96608 16.684C4.00088 16.2389 3.8211 16.1206 3.39196 16.1487C2.93961 16.1769 2.48147 16.16 2.02333 16.1544C0.851875 16.1318 0.0225788 15.3317 0.0109803 14.1935C-0.000618255 12.937 -0.00641753 11.6861 0.0109803 10.4296C0.0341774 8.77863 1.32162 7.53901 3.0324 7.52774C5.33471 7.50521 7.63122 7.51648 9.92194 7.51648ZM9.89294 18.0758C10.9716 18.0758 12.0503 18.0814 13.1289 18.0758C13.6741 18.0701 13.8422 17.9124 13.8422 17.3827C13.848 16.2445 13.848 15.112 13.8422 13.9738C13.8364 13.4554 13.6625 13.2807 13.1289 13.2807C10.9716 13.2751 8.81428 13.2751 6.65695 13.2807C6.11761 13.2807 5.94944 13.4497 5.94364 13.9738C5.93784 15.112 5.93784 16.2445 5.94364 17.3827C5.94944 17.9124 6.11182 18.0701 6.65695 18.0758C7.73561 18.0814 8.81428 18.0758 9.89294 18.0758ZM16.7999 9.44352C16.2431 9.44915 15.8314 9.85485 15.8314 10.3958C15.8314 10.9536 16.2663 11.3649 16.8463 11.348C17.3972 11.3368 17.8031 10.9142 17.7915 10.3732C17.7858 9.83794 17.3566 9.43788 16.7999 9.44352Z" fill="url(#paint0_linear_145_2426)"/>
<path d="M9.8871 5.59496C8.3213 5.59496 6.7555 5.60059 5.18969 5.59496C4.3546 5.59496 3.97184 5.21743 3.97184 4.40604C3.96605 3.85948 3.96025 3.31292 3.97764 2.76636C3.98924 2.18036 4.40679 1.7634 5.00991 1.7634C8.27491 1.75776 11.5457 1.75776 14.8107 1.7634C15.3906 1.7634 15.8024 2.18037 15.8198 2.74384C15.8372 3.33547 15.8314 3.9271 15.8256 4.5131C15.814 5.18926 15.4196 5.58368 14.7237 5.58932C13.1057 5.60059 11.4935 5.59496 9.8871 5.59496Z" fill="url(#paint1_linear_145_2426)"/>
<path d="M25 3.48222C25 3.62872 25 3.76958 25 3.91608C24.9942 3.93861 24.9884 3.95551 24.9884 3.97805C24.9536 4.4908 24.8144 4.98102 24.5535 5.43179C23.8517 6.64887 22.7789 7.30812 21.3465 7.39827C20.7317 7.43772 20.1344 7.32503 19.5777 7.05457C18.2206 6.39532 17.4841 5.33036 17.3798 3.85973C17.3334 3.1892 17.4899 2.55249 17.8263 1.96086C18.4178 0.918451 19.3225 0.281735 20.5288 0.0563498C20.6737 0.0281766 20.8187 0.0281732 20.9637 0C21.1145 0 21.2595 0 21.4102 0C21.4276 0.00563463 21.4508 0.0112803 21.4682 0.0112803C21.9322 0.0394534 22.3787 0.146515 22.7963 0.349362C23.9677 0.90719 24.681 1.80873 24.9362 3.05962C24.971 3.19485 24.9768 3.34135 25 3.48222ZM21.7756 4.49644C21.7756 4.45136 21.7756 4.40629 21.7756 4.36122C21.7756 4.0006 21.7756 3.64562 21.7756 3.285C21.7756 2.992 21.5842 2.76661 21.3059 2.7159C20.9463 2.64828 20.6215 2.91311 20.6157 3.27936C20.61 3.51038 20.6157 3.74703 20.6157 3.97805C20.6157 4.54715 20.6157 5.12188 20.6157 5.69098C20.6157 6.10794 20.9985 6.37841 21.3987 6.24318C21.6248 6.16993 21.7756 5.95582 21.7756 5.70226C21.7756 5.29657 21.7756 4.8965 21.7756 4.49644ZM21.8336 1.61715C21.8336 1.27908 21.5436 0.997341 21.1957 0.997341C20.8477 0.997341 20.5636 1.27344 20.5578 1.61151C20.552 1.94396 20.8419 2.23131 21.1899 2.23695C21.532 2.24258 21.8278 1.95523 21.8336 1.61715Z" fill="url(#paint2_linear_145_2426)"/>
<defs>
<linearGradient id="paint0_linear_145_2426" x1="12.5" y1="0" x2="12.5" y2="20" gradientUnits="userSpaceOnUse">
<stop stop-color="#FF4E71"/>
<stop offset="1" stop-color="#FB0230"/>
</linearGradient>
<linearGradient id="paint1_linear_145_2426" x1="12.5" y1="0" x2="12.5" y2="20" gradientUnits="userSpaceOnUse">
<stop stop-color="#FF4E71"/>
<stop offset="1" stop-color="#FB0230"/>
</linearGradient>
<linearGradient id="paint2_linear_145_2426" x1="12.5" y1="0" x2="12.5" y2="20" gradientUnits="userSpaceOnUse">
<stop stop-color="#FF4E71"/>
<stop offset="1" stop-color="#FB0230"/>
</linearGradient>
</defs>
</svg>
