<svg width="19" height="20" viewBox="0 0 19 20" fill="none" xmlns="http://www.w3.org/2000/svg">
<path d="M16.5726 10.0875C16.5726 11.6489 16.5726 13.2102 16.5726 14.7766C16.5726 15.3821 16.2943 15.6723 15.7035 15.6723C14.9222 15.6723 14.1361 15.6723 13.3549 15.6723C12.7495 15.6723 12.4712 15.3871 12.4712 14.7716C12.4712 11.6238 12.4712 8.4811 12.4712 5.33337C12.4712 4.98307 12.4614 4.97306 12.1294 4.97306C11.7437 4.97306 11.3579 4.97306 10.9771 4.97306C10.5816 4.97306 10.3033 4.79291 10.1764 4.46262C10.0543 4.13734 10.1373 3.82206 10.4254 3.55183C11.5874 2.45587 12.7544 1.36493 13.9213 0.273988C14.3119 -0.0913292 14.8099 -0.0913292 15.2006 0.273988C16.3675 1.36493 17.5344 2.45587 18.6965 3.55183C18.9846 3.82206 19.0676 4.14234 18.9455 4.46262C18.8234 4.7879 18.5403 4.96805 18.1448 4.97306C17.72 4.97306 17.2952 4.97306 16.8655 4.97306C16.597 4.97306 16.5677 5.00309 16.5677 5.27332C16.5726 6.87971 16.5726 8.4811 16.5726 10.0875Z" fill="url(#paint0_linear_145_2422)"/>
<path d="M5.93351 14.1211C5.93351 12.4747 5.93351 10.8283 5.93351 9.18186C5.93351 8.57633 6.26064 8.24104 6.85143 8.24104C7.61312 8.24104 8.37481 8.24104 9.13649 8.24104C9.71264 8.24104 10.0447 8.58135 10.0447 9.17686C10.0447 12.4697 10.0447 15.7626 10.0447 19.0554C10.0447 19.6509 9.7224 19.9912 9.14626 19.9962C8.37969 20.0013 7.60824 20.0013 6.84167 19.9962C6.25087 19.9912 5.93839 19.656 5.93839 19.0454C5.93351 17.399 5.93351 15.7626 5.93351 14.1211Z" fill="url(#paint1_linear_145_2422)"/>
<path d="M0.00122065 15.9924C0.00122065 14.9715 0.00122065 13.9506 0.00122065 12.9297C0.00122065 12.3242 0.323472 11.9889 0.914267 11.9889C1.68572 11.9889 2.45229 11.9889 3.22374 11.9889C3.77547 11.9889 4.11237 12.3292 4.11237 12.8947C4.11237 14.9565 4.11237 17.0183 4.11237 19.0801C4.11237 19.6405 3.79012 19.9808 3.24815 19.9909C2.45717 20.0009 1.66619 20.0009 0.880089 19.9909C0.323472 19.9859 0.00610325 19.6456 0.00610325 19.0701C-0.00366195 18.0442 0.00122065 17.0183 0.00122065 15.9924Z" fill="url(#paint2_linear_145_2422)"/>
<path d="M14.522 18.0344C13.9703 18.0344 13.4234 18.0344 12.8717 18.0344C12.4762 18.0344 12.2272 17.8142 12.2223 17.4589C12.2174 17.0985 12.4713 16.8533 12.8668 16.8533C13.9703 16.8483 15.0786 16.8483 16.1821 16.8533C16.5043 16.8533 16.7387 17.0385 16.7973 17.3087C16.8559 17.569 16.7436 17.8292 16.5239 17.9593C16.4116 18.0243 16.2895 18.0344 16.1674 18.0344C15.6206 18.0344 15.0737 18.0344 14.522 18.0344Z" fill="url(#paint3_linear_145_2422)"/>
<path d="M14.5321 18.725C15.0936 18.725 15.6599 18.725 16.2214 18.725C16.4705 18.725 16.6609 18.8351 16.7634 19.0703C16.8562 19.2805 16.8318 19.4857 16.6999 19.6708C16.573 19.851 16.3826 19.911 16.1775 19.911C15.8894 19.911 15.6013 19.911 15.3133 19.911C14.5076 19.911 13.7069 19.911 12.9013 19.911C12.5009 19.911 12.2568 19.7109 12.2275 19.3806C12.1982 19.0003 12.4423 18.735 12.8427 18.73C13.4091 18.72 13.9706 18.725 14.5321 18.725Z" fill="url(#paint4_linear_145_2422)"/>
<defs>
<linearGradient id="paint0_linear_145_2422" x1="9.5" y1="0" x2="9.5" y2="20" gradientUnits="userSpaceOnUse">
<stop stop-color="#FF4E71"/>
<stop offset="1" stop-color="#FB0230"/>
</linearGradient>
<linearGradient id="paint1_linear_145_2422" x1="9.5" y1="0" x2="9.5" y2="20" gradientUnits="userSpaceOnUse">
<stop stop-color="#FF4E71"/>
<stop offset="1" stop-color="#FB0230"/>
</linearGradient>
<linearGradient id="paint2_linear_145_2422" x1="9.5" y1="0" x2="9.5" y2="20" gradientUnits="userSpaceOnUse">
<stop stop-color="#FF4E71"/>
<stop offset="1" stop-color="#FB0230"/>
</linearGradient>
<linearGradient id="paint3_linear_145_2422" x1="9.5" y1="0" x2="9.5" y2="20" gradientUnits="userSpaceOnUse">
<stop stop-color="#FF4E71"/>
<stop offset="1" stop-color="#FB0230"/>
</linearGradient>
<linearGradient id="paint4_linear_145_2422" x1="9.5" y1="0" x2="9.5" y2="20" gradientUnits="userSpaceOnUse">
<stop stop-color="#FF4E71"/>
<stop offset="1" stop-color="#FB0230"/>
</linearGradient>
</defs>
</svg>
