<svg width="23" height="16" viewBox="0 0 23 16" fill="none" xmlns="http://www.w3.org/2000/svg">
<path d="M14.5346 11.5126C12.2019 11.5126 9.86366 11.5071 7.53092 11.5181C7.24617 11.5181 7.19141 11.4355 7.19141 11.1822C7.20237 7.56495 7.20237 3.94765 7.19141 0.33035C7.19141 0.060567 7.27903 0 7.54187 0C11.4517 0.00550578 15.367 0.00551116 19.2768 0.00551116C20.591 0.00551116 21.615 0.770822 21.834 1.90501C21.8723 2.10873 21.8778 2.32344 21.8778 2.53266C21.8778 5.4177 21.8778 8.29722 21.8833 11.1822C21.8833 11.4355 21.8231 11.5181 21.5438 11.5181C19.2056 11.5071 16.8674 11.5126 14.5346 11.5126ZM16.7633 4.60284C16.0131 5.31309 15.3012 5.99029 14.5894 6.67301C14.4689 6.78863 14.3922 6.73908 14.2991 6.64549C13.8939 6.24907 13.4832 5.85816 13.0725 5.47275C12.6892 5.10937 12.3497 5.11489 11.9609 5.48377C11.5448 5.88019 11.1286 6.2766 10.7124 6.67852C10.1046 7.25663 9.50225 7.84024 8.89442 8.41835C8.66991 8.63307 8.6261 8.88083 8.73562 9.15612C8.83419 9.40388 9.05322 9.5195 9.32154 9.53051C9.56796 9.54152 9.75414 9.4204 9.92389 9.25522C10.7179 8.48992 11.5174 7.73014 12.3114 6.96483C12.4647 6.81067 12.5633 6.78313 12.733 6.95381C13.0999 7.33371 13.4887 7.68607 13.872 8.04945C14.2937 8.44587 14.6332 8.44588 15.0548 8.04396C15.8543 7.28416 16.6483 6.51886 17.4478 5.75906C17.5245 5.68749 17.5792 5.58838 17.7052 5.56085C17.7161 5.58838 17.7271 5.61041 17.738 5.63794C17.853 6.03435 18.1213 6.22705 18.4882 6.18851C18.8496 6.14997 19.0687 5.8912 19.0741 5.47826C19.0796 4.96072 19.0851 4.44868 19.0741 3.93114C19.0632 3.54573 18.8168 3.29247 18.4225 3.28146C17.8421 3.26494 17.2671 3.26494 16.6866 3.28146C16.3362 3.28697 16.1062 3.49619 16.0405 3.81552C15.9529 4.19542 16.1829 4.45419 16.7633 4.60284Z" fill="url(#paint0_linear_145_2423)"/>
<path d="M11.5118 12.8067C15.0437 12.8067 18.5757 12.8177 22.1131 12.7956C22.814 12.7901 23.0933 13.1921 22.9728 13.7812C22.7429 14.9429 21.7134 15.8403 20.4211 15.9725C20.2349 15.9945 20.0432 16 19.8516 16C14.2826 16 8.71357 16 3.14456 16C1.99462 16 1.04181 15.6146 0.379226 14.6786C0.154714 14.3648 0.0451954 14.0069 0.00686402 13.6325C-0.0478951 13.093 0.225901 12.8011 0.795396 12.7956C3.16099 12.7956 5.52658 12.7956 7.89218 12.7956C9.09688 12.8066 10.3071 12.8067 11.5118 12.8067Z" fill="url(#paint1_linear_145_2423)"/>
<path d="M3.47316 5.12015C2.77224 5.12015 2.0768 5.11464 1.37588 5.12565C1.18423 5.12565 1.11304 5.0761 1.11852 4.88339C1.13494 4.39888 1.12947 3.90887 1.11852 3.42436C1.11304 3.24818 1.17327 3.19862 1.35946 3.19862C2.77772 3.20413 4.19598 3.20413 5.60876 3.19862C5.78399 3.19862 5.86066 3.24267 5.85518 3.42436C5.84423 3.90887 5.84423 4.39888 5.85518 4.88339C5.86066 5.07059 5.78947 5.13116 5.59781 5.12565C4.89142 5.11464 4.17955 5.12015 3.47316 5.12015Z" fill="url(#paint2_linear_145_2423)"/>
<path d="M3.47319 8.3028C2.77227 8.3028 2.07683 8.29728 1.37591 8.30829C1.18426 8.30829 1.11307 8.26425 1.11855 8.07155C1.1295 7.58704 1.1295 7.09703 1.11855 6.61252C1.11307 6.45285 1.16783 6.39779 1.33758 6.39779C2.7668 6.40329 4.19053 6.40329 5.61975 6.39779C5.81688 6.39779 5.84973 6.47488 5.84973 6.63455C5.84426 7.11355 5.83878 7.58705 5.84973 8.06606C5.85521 8.25325 5.7895 8.30829 5.59237 8.30829C4.89145 8.29728 4.17958 8.3028 3.47319 8.3028Z" fill="url(#paint3_linear_145_2423)"/>
<path d="M3.50054 9.60767C4.20145 9.60767 4.89689 9.61317 5.59781 9.60216C5.79494 9.59665 5.86066 9.65171 5.85518 9.84441C5.84423 10.3234 5.84423 10.7969 5.85518 11.2759C5.86066 11.4686 5.78399 11.5182 5.59234 11.5182C4.18503 11.5127 2.77772 11.5127 1.37041 11.5182C1.17327 11.5182 1.11304 11.4631 1.11851 11.2759C1.12947 10.7969 1.12947 10.3234 1.11851 9.84441C1.11304 9.65171 1.18423 9.60216 1.37588 9.60767C2.08775 9.61317 2.79414 9.60767 3.50054 9.60767Z" fill="url(#paint4_linear_145_2423)"/>
<path d="M3.50577 1.92135C2.8158 1.92135 2.13131 1.91583 1.44135 1.92684C1.18946 1.93235 1.1566 1.85527 1.23326 1.64055C1.57824 0.699057 2.42701 0.0603797 3.47291 0.0163334C4.19026 -0.0111955 4.9076 0.0108336 5.62494 0.00532786C5.82208 0.00532786 5.85493 0.087916 5.84946 0.247584C5.84398 0.726587 5.8385 1.20009 5.84946 1.67909C5.85493 1.86629 5.78922 1.92684 5.59209 1.92684C4.90212 1.91583 4.20121 1.92135 3.50577 1.92135Z" fill="url(#paint5_linear_145_2423)"/>
<defs>
<linearGradient id="paint0_linear_145_2423" x1="11.5" y1="0" x2="11.5" y2="16" gradientUnits="userSpaceOnUse">
<stop stop-color="#FF4E71"/>
<stop offset="1" stop-color="#FB0230"/>
</linearGradient>
<linearGradient id="paint1_linear_145_2423" x1="11.5" y1="0" x2="11.5" y2="16" gradientUnits="userSpaceOnUse">
<stop stop-color="#FF4E71"/>
<stop offset="1" stop-color="#FB0230"/>
</linearGradient>
<linearGradient id="paint2_linear_145_2423" x1="11.5" y1="0" x2="11.5" y2="16" gradientUnits="userSpaceOnUse">
<stop stop-color="#FF4E71"/>
<stop offset="1" stop-color="#FB0230"/>
</linearGradient>
<linearGradient id="paint3_linear_145_2423" x1="11.5" y1="0" x2="11.5" y2="16" gradientUnits="userSpaceOnUse">
<stop stop-color="#FF4E71"/>
<stop offset="1" stop-color="#FB0230"/>
</linearGradient>
<linearGradient id="paint4_linear_145_2423" x1="11.5" y1="0" x2="11.5" y2="16" gradientUnits="userSpaceOnUse">
<stop stop-color="#FF4E71"/>
<stop offset="1" stop-color="#FB0230"/>
</linearGradient>
<linearGradient id="paint5_linear_145_2423" x1="11.5" y1="0" x2="11.5" y2="16" gradientUnits="userSpaceOnUse">
<stop stop-color="#FF4E71"/>
<stop offset="1" stop-color="#FB0230"/>
</linearGradient>
</defs>
</svg>
