<svg width="20" height="20" viewBox="0 0 20 20" fill="none" xmlns="http://www.w3.org/2000/svg">
<path d="M15.4476 10.9212C16.0958 10.9212 16.744 10.8939 17.3922 10.9266C18.8738 10.9974 19.9849 12.1737 19.9904 13.6604C19.9958 14.853 19.9958 16.051 19.9904 17.2436C19.9849 18.7848 18.803 19.9828 17.2615 19.9937C16.0795 20.0046 14.892 19.9992 13.71 19.9937C12.0977 19.9883 10.9212 18.8338 10.9048 17.2273C10.8939 16.0456 10.8885 14.8584 10.9048 13.6767C10.9266 12.0757 12.0923 10.9266 13.6991 10.9103C14.282 10.9049 14.8648 10.9103 15.4476 10.9103C15.4476 10.9157 15.4476 10.9158 15.4476 10.9212Z" fill="url(#paint0_linear_145_2420)"/>
<path d="M0 4.54461C0 3.96192 0 3.37922 0 2.79653C0.00544699 1.20094 1.19289 0.00833872 2.78886 0.00833872C3.96541 0.00289303 5.14196 0.00289303 6.32395 0.00833872C7.66936 0.0137844 8.74786 0.879661 9.03655 2.19752C9.08013 2.38812 9.09647 2.58417 9.09647 2.78021C9.09647 3.95648 9.10192 5.13275 9.09647 6.31446C9.09102 7.66499 8.24674 8.72145 6.93402 9.03186C6.73792 9.08087 6.53639 9.09721 6.33485 9.09721C5.1474 9.09721 3.95451 9.09721 2.76707 9.09721C1.22012 9.09176 0.0217879 7.89916 0.010894 6.34714C-1.01458e-08 5.74811 0 5.14908 0 4.54461ZM4.54279 7.27836C5.13106 7.27836 5.71934 7.27836 6.30761 7.27836C6.88499 7.27836 7.27173 6.89715 7.27173 6.31446C7.27173 5.13819 7.27173 3.96193 7.27173 2.78566C7.27173 2.21931 6.88499 1.83267 6.31851 1.83267C5.13651 1.83267 3.95451 1.83267 2.76707 1.83267C2.19514 1.83267 1.81929 2.20842 1.81929 2.78566C1.81385 3.96738 1.81385 5.14907 1.81929 6.33623C1.81929 6.90803 2.20058 7.28378 2.77252 7.28378C3.36624 7.27833 3.95451 7.27836 4.54279 7.27836Z" fill="url(#paint1_linear_145_2420)"/>
<path d="M4.52645 19.9941C3.95451 19.9941 3.38258 19.9941 2.81609 19.9941C1.182 19.9887 0.00544699 18.8124 0 17.1787C0 16.0242 0 14.8697 0 13.7152C0 12.1468 1.09484 10.9706 2.65813 10.9161C3.92728 10.878 5.20187 10.878 6.47647 10.9216C7.9635 10.9706 9.07468 12.1523 9.08558 13.639C9.09647 14.8425 9.09647 16.0405 9.08558 17.244C9.07468 18.7906 7.89268 19.9723 6.34574 19.9887C5.74113 19.9995 5.13651 19.9941 4.52645 19.9941ZM4.54279 18.1807C5.12562 18.1807 5.70844 18.1861 6.29127 18.1807C6.90678 18.1752 7.27173 17.8049 7.27173 17.1841C7.27173 16.0297 7.27173 14.8751 7.27173 13.7261C7.27173 13.1107 6.89589 12.7295 6.28582 12.7295C5.12561 12.7295 3.96541 12.7295 2.8052 12.7295C2.18969 12.7295 1.81929 13.0998 1.81929 13.7207C1.81929 14.8751 1.81929 16.0296 1.81929 17.1787C1.81929 17.8158 2.17335 18.1752 2.81065 18.1807C3.38803 18.1807 3.96541 18.1807 4.54279 18.1807Z" fill="url(#paint2_linear_145_2420)"/>
<path d="M10.9158 4.54444C10.9158 3.89096 10.8885 3.23745 10.9212 2.58397C11.0029 1.12453 12.1631 0.0245056 13.6229 0.00816854C14.8431 -0.00272285 16.0632 -0.00272285 17.2833 0.00816854C18.803 0.0245056 19.9905 1.22802 19.9959 2.74737C20.0014 3.95087 20.0014 5.14892 19.9959 6.35242C19.9905 7.8881 18.7867 9.09159 17.2561 9.09703C16.085 9.10248 14.9139 9.09703 13.7428 9.09703C12.1087 9.09703 10.9267 7.92623 10.9103 6.29252C10.9049 5.70983 10.9103 5.12713 10.9103 4.54444C10.9103 4.54444 10.9103 4.54444 10.9158 4.54444ZM18.1712 4.56621C18.1712 3.97263 18.1712 3.37907 18.1712 2.78549C18.1657 2.19736 17.7953 1.8325 17.2071 1.8325C16.036 1.8325 14.8649 1.8325 13.6937 1.8325C13.1 1.8325 12.7242 2.20823 12.7187 2.80181C12.7133 3.97264 12.7133 5.14347 12.7187 6.31429C12.7187 6.90243 13.1055 7.27819 13.6937 7.27819C14.8594 7.27819 16.0251 7.27819 17.1907 7.27819C17.7953 7.27819 18.1657 6.90786 18.1657 6.29794C18.1766 5.7207 18.1712 5.14346 18.1712 4.56621Z" fill="url(#paint3_linear_145_2420)"/>
<path d="M4.6083 5.7425C4.47757 5.7425 4.34685 5.7425 4.21612 5.7425C3.75857 5.73161 3.4263 5.42662 3.39907 4.96918C3.38273 4.68056 3.38273 4.38651 3.39907 4.09789C3.42086 3.65134 3.72044 3.34093 4.16709 3.31371C4.46123 3.29737 4.76082 3.29737 5.0604 3.31371C5.52339 3.34093 5.82298 3.66768 5.83387 4.13056C5.83932 4.3974 5.83932 4.66426 5.83387 4.93109C5.82298 5.39942 5.49071 5.73705 5.02227 5.7425C4.88065 5.7425 4.74447 5.7425 4.6083 5.7425Z" fill="url(#paint4_linear_145_2420)"/>
<path d="M4.54281 16.6719C4.40663 16.6719 4.27046 16.6719 4.13428 16.6719C3.68218 16.6611 3.33358 16.3234 3.32813 15.8714C3.32268 15.5991 3.32268 15.3268 3.32813 15.0491C3.33358 14.6026 3.6604 14.2595 4.1125 14.2377C4.40119 14.2268 4.69532 14.2268 4.98401 14.2377C5.42522 14.254 5.74659 14.5808 5.76838 15.0328C5.77927 15.3105 5.77927 15.5937 5.76838 15.8714C5.74659 16.3506 5.40343 16.6665 4.91865 16.6719C4.79337 16.6719 4.66809 16.6719 4.54281 16.6719Z" fill="url(#paint5_linear_145_2420)"/>
<path d="M15.4478 5.74269C15.3171 5.74269 15.1863 5.74269 15.0556 5.74269C14.5926 5.7318 14.2549 5.41594 14.2331 4.95306C14.2222 4.66988 14.2222 4.38125 14.2331 4.09808C14.2494 3.66242 14.549 3.35202 14.9848 3.3139C15.3007 3.28667 15.6166 3.28667 15.9271 3.3139C16.3629 3.35202 16.6625 3.6842 16.6679 4.1253C16.6734 4.39758 16.6734 4.66988 16.6679 4.94761C16.657 5.39415 16.3193 5.7318 15.8727 5.74269C15.731 5.74269 15.5894 5.74269 15.4478 5.74269Z" fill="url(#paint6_linear_145_2420)"/>
<defs>
<linearGradient id="paint0_linear_145_2420" x1="10" y1="0" x2="10" y2="20" gradientUnits="userSpaceOnUse">
<stop stop-color="#FF4E71"/>
<stop offset="1" stop-color="#FB0230"/>
</linearGradient>
<linearGradient id="paint1_linear_145_2420" x1="10" y1="0" x2="10" y2="20" gradientUnits="userSpaceOnUse">
<stop stop-color="#FF4E71"/>
<stop offset="1" stop-color="#FB0230"/>
</linearGradient>
<linearGradient id="paint2_linear_145_2420" x1="10" y1="0" x2="10" y2="20" gradientUnits="userSpaceOnUse">
<stop stop-color="#FF4E71"/>
<stop offset="1" stop-color="#FB0230"/>
</linearGradient>
<linearGradient id="paint3_linear_145_2420" x1="10" y1="0" x2="10" y2="20" gradientUnits="userSpaceOnUse">
<stop stop-color="#FF4E71"/>
<stop offset="1" stop-color="#FB0230"/>
</linearGradient>
<linearGradient id="paint4_linear_145_2420" x1="10" y1="0" x2="10" y2="20" gradientUnits="userSpaceOnUse">
<stop stop-color="#FF4E71"/>
<stop offset="1" stop-color="#FB0230"/>
</linearGradient>
<linearGradient id="paint5_linear_145_2420" x1="10" y1="0" x2="10" y2="20" gradientUnits="userSpaceOnUse">
<stop stop-color="#FF4E71"/>
<stop offset="1" stop-color="#FB0230"/>
</linearGradient>
<linearGradient id="paint6_linear_145_2420" x1="10" y1="0" x2="10" y2="20" gradientUnits="userSpaceOnUse">
<stop stop-color="#FF4E71"/>
<stop offset="1" stop-color="#FB0230"/>
</linearGradient>
</defs>
</svg>
