<svg width="33" height="25" viewBox="0 0 33 25" fill="none" xmlns="http://www.w3.org/2000/svg">
<path d="M16.504 24.9976C15.1711 24.9976 13.8436 25.003 12.5107 24.9976C10.0384 24.9867 8.27015 23.1833 8.2594 20.6684C8.25403 19.6526 8.22178 18.6369 8.49588 17.632C9.30745 14.639 11.9625 12.5206 15.026 12.5043C16.375 12.4989 17.7294 12.3794 19.0731 12.6075C22.2656 13.1507 24.6895 15.9753 24.7433 19.2398C24.7594 20.06 24.8346 20.8857 24.6519 21.7059C24.2273 23.6125 22.6203 24.9541 20.6908 24.9976C20.6478 24.9976 20.6048 24.9976 20.5618 24.9976C19.2128 24.9976 17.8584 24.9976 16.504 24.9976Z" fill="url(#paint0_linear_569_959)"/>
<path d="M16.5255 11.0974C13.4889 11.1083 11.0219 8.64766 11.0004 5.58953C10.9789 2.54768 13.4459 0.0164365 16.4557 0.000140938C19.5138 -0.0215865 22.0076 2.47164 22.013 5.5515C22.0184 8.60421 19.5622 11.092 16.5255 11.0974Z" fill="url(#paint1_linear_569_959)"/>
<path d="M5.53986 9.73949C6.05582 9.73949 6.57178 9.73406 7.08774 9.73949C7.74882 9.74493 8.35615 9.9459 8.92048 10.2718C10.0814 10.9399 10.0868 11.054 9.08709 11.8959C6.93726 13.7102 5.7226 16.0187 5.55061 18.8596C5.52374 19.2996 5.4055 19.468 4.95403 19.4462C4.18009 19.4136 3.40615 19.4571 2.63758 19.4245C1.18107 19.3647 0.0577769 18.2132 0.0201547 16.7357C-0.00671824 15.7363 -0.00671824 14.7368 0.0201547 13.7428C0.0739006 11.6026 1.80452 9.8427 3.92748 9.74493C4.46494 9.71777 5.0024 9.73949 5.53986 9.73949Z" fill="url(#paint2_linear_569_959)"/>
<path d="M27.5058 9.74493C28.2368 9.75036 28.9731 9.65802 29.6879 9.79925C31.5798 10.1795 32.9557 11.8688 32.9879 13.8351C33.004 14.7694 33.004 15.6982 32.9879 16.6325C32.961 18.2241 31.8377 19.3756 30.2684 19.4245C29.4944 19.4462 28.7205 19.4136 27.9519 19.4408C27.5864 19.4517 27.479 19.3104 27.4628 18.9519C27.2855 15.8069 25.8934 13.3245 23.3781 11.4886C23.018 11.2278 23.0342 11.0866 23.3405 10.8204C24.0446 10.2012 24.8347 9.79925 25.7698 9.75036C26.3449 9.7232 26.9254 9.74493 27.5058 9.74493Z" fill="url(#paint3_linear_569_959)"/>
<path d="M1.40143 4.19897C1.39068 1.87957 3.21804 0.00557619 5.50224 0.000144325C7.7757 -0.00528754 9.65143 1.87957 9.64606 4.16638C9.64606 6.43147 7.79719 8.31089 5.56136 8.33262C3.27179 8.35435 1.41755 6.51295 1.40143 4.19897Z" fill="url(#paint4_linear_569_959)"/>
<path d="M31.612 4.19355C31.6013 6.50752 29.7524 8.35435 27.4575 8.33806C25.2162 8.32176 23.3728 6.44234 23.3674 4.17725C23.362 1.89044 25.2377 0.000149596 27.5058 0.00558146C29.7954 0.00558146 31.6228 1.87414 31.612 4.19355Z" fill="url(#paint5_linear_569_959)"/>
<defs>
<linearGradient id="paint0_linear_569_959" x1="16.5" y1="0" x2="16.5" y2="25" gradientUnits="userSpaceOnUse">
<stop stop-color="#FF4E71"/>
<stop offset="1" stop-color="#FB0230"/>
</linearGradient>
<linearGradient id="paint1_linear_569_959" x1="16.5" y1="0" x2="16.5" y2="25" gradientUnits="userSpaceOnUse">
<stop stop-color="#FF4E71"/>
<stop offset="1" stop-color="#FB0230"/>
</linearGradient>
<linearGradient id="paint2_linear_569_959" x1="16.5" y1="0" x2="16.5" y2="25" gradientUnits="userSpaceOnUse">
<stop stop-color="#FF4E71"/>
<stop offset="1" stop-color="#FB0230"/>
</linearGradient>
<linearGradient id="paint3_linear_569_959" x1="16.5" y1="0" x2="16.5" y2="25" gradientUnits="userSpaceOnUse">
<stop stop-color="#FF4E71"/>
<stop offset="1" stop-color="#FB0230"/>
</linearGradient>
<linearGradient id="paint4_linear_569_959" x1="16.5" y1="0" x2="16.5" y2="25" gradientUnits="userSpaceOnUse">
<stop stop-color="#FF4E71"/>
<stop offset="1" stop-color="#FB0230"/>
</linearGradient>
<linearGradient id="paint5_linear_569_959" x1="16.5" y1="0" x2="16.5" y2="25" gradientUnits="userSpaceOnUse">
<stop stop-color="#FF4E71"/>
<stop offset="1" stop-color="#FB0230"/>
</linearGradient>
</defs>
</svg>
