<svg width="18" height="18" viewBox="0 0 18 18" fill="none" xmlns="http://www.w3.org/2000/svg">
<path d="M8.09267 0.40968C8.49215 -0.136677 9.30765 -0.136678 9.70714 0.409679L12.3544 4.03017C12.4778 4.19897 12.651 4.32484 12.8497 4.39006L17.111 5.78893C17.7541 6.00003 18.0061 6.77561 17.6099 7.32438L14.9847 10.9608C14.8623 11.1304 14.7961 11.334 14.7955 11.5431L14.7819 16.0282C14.7798 16.705 14.1201 17.1843 13.4758 16.9771L9.20604 15.6041C9.00697 15.5401 8.79284 15.5401 8.59377 15.6041L4.32404 16.9771C3.67971 17.1843 3.01996 16.705 3.01791 16.0282L3.00433 11.5431C3.00369 11.334 2.93752 11.1304 2.81512 10.9608L0.18987 7.32438C-0.206298 6.77561 0.0457033 6.00003 0.688767 5.78893L4.9501 4.39006C5.14878 4.32484 5.32201 4.19897 5.44544 4.03017L8.09267 0.40968Z" fill="url(#paint0_linear_132_820)"/>
<defs>
<linearGradient id="paint0_linear_132_820" x1="8.8999" y1="-0.694336" x2="8.8999" y2="19.3057" gradientUnits="userSpaceOnUse">
<stop stop-color="#FF4E71"/>
<stop offset="1" stop-color="#FB0230"/>
</linearGradient>
</defs>
</svg>
