<svg width="19" height="20" viewBox="0 0 19 20" fill="none" xmlns="http://www.w3.org/2000/svg">
<path d="M6.3669 10.4687C4.78551 8.68309 5.23013 5.43896 7.76952 4.37121C8.10872 4.23036 8.20497 4.04861 8.1958 3.7033C8.17289 2.89908 8.18205 2.09941 8.19122 1.29519C8.20497 0.509144 8.69085 -0.0133703 9.36924 0.000260472C10.0293 0.0138913 10.4923 0.522775 10.5014 1.27701C10.5106 2.09941 10.5152 2.9218 10.4968 3.73965C10.4877 4.04407 10.5793 4.2031 10.8773 4.32123C11.9682 4.75742 12.6833 5.52983 13.0729 6.6521C14.0401 9.44642 15.571 13.8355 16.9278 17.7158C17.5283 19.4287 15.296 20.6964 14.0996 19.3242C11.3265 16.1255 8.20497 12.5406 6.3669 10.4687ZM11.1706 8.2151C11.1752 7.16098 10.3272 6.33859 9.25465 6.38857C8.32415 6.42946 7.5495 7.22005 7.522 8.14695C7.48991 9.21015 8.29665 10.0416 9.3509 10.0325C10.3777 10.028 11.1706 9.23741 11.1706 8.2151Z" fill="url(#paint0_linear_132_819)"/>
<path d="M4.58387 9.56464C5.31727 11.0913 6.49529 12.0818 7.40745 13.2813C7.69164 13.6493 8.00792 13.9992 8.32878 14.3309C8.5763 14.5853 8.64047 14.7398 8.38837 15.0215C7.40745 16.1392 5.98191 17.7704 4.52887 19.4243C3.33252 20.7874 1.11399 19.5197 1.70988 17.8113L4.58387 9.56464Z" fill="url(#paint1_linear_132_819)"/>
<path d="M5.91323 4.11223C6.35327 4.10314 6.62371 3.85324 6.62371 3.47158C6.62371 3.08992 6.35786 2.84002 5.91323 2.83548C5.09275 2.82639 4.26768 2.82639 3.44719 2.83548C3.01632 2.84002 2.75963 3.08992 2.75046 3.45795C2.7413 3.84416 3.01173 4.10314 3.44719 4.11223C3.86431 4.12132 4.28143 4.11223 4.69855 4.11223C5.10191 4.11223 5.50987 4.12132 5.91323 4.11223Z" fill="url(#paint2_linear_132_819)"/>
<path d="M3.62137 8.65583C4.06141 8.64675 4.33185 8.39685 4.33185 8.01519C4.33185 7.63352 4.06599 7.38363 3.62137 7.37908C2.80088 7.36999 1.97581 7.36999 1.15533 7.37908C0.724455 7.38363 0.467766 7.63352 0.458599 8.00156C0.449431 8.38776 0.719871 8.64675 1.15533 8.65583C1.57244 8.66492 1.98956 8.65583 2.40668 8.65583C2.81005 8.65583 3.218 8.66492 3.62137 8.65583Z" fill="url(#paint3_linear_132_819)"/>
<path d="M4.53812 6.38403C4.97815 6.37495 5.24859 6.12505 5.24859 5.74338C5.24859 5.36172 4.98274 5.11182 4.53812 5.10728C3.71763 5.09819 1.51744 5.09819 0.696953 5.10728C0.266082 5.11182 0.00939339 5.36172 0.000225937 5.72975C-0.00894152 6.11596 0.261498 6.37495 0.696953 6.38403C1.11407 6.39312 2.90631 6.38403 3.32343 6.38403C3.7268 6.38403 4.13475 6.39312 4.53812 6.38403Z" fill="url(#paint4_linear_132_819)"/>
<path d="M14.3015 4.11223C14.7186 4.11223 15.1357 4.12132 15.5528 4.11223C15.9883 4.10314 16.2587 3.84416 16.2495 3.45795C16.2404 3.08992 15.9837 2.84002 15.5574 2.83548C14.7369 2.82639 13.9118 2.82639 13.0913 2.83548C12.6421 2.84002 12.3763 3.08992 12.3763 3.47158C12.3763 3.85324 12.6467 4.10314 13.0868 4.11223C13.4901 4.12132 13.8981 4.11223 14.3015 4.11223Z" fill="url(#paint5_linear_132_819)"/>
<path d="M16.5933 8.65583C17.0104 8.65583 17.4276 8.66492 17.8447 8.65583C18.2801 8.64675 18.5506 8.38776 18.5414 8.00156C18.5322 7.63352 18.2755 7.38363 17.8493 7.37908C17.0288 7.36999 16.2037 7.36999 15.3832 7.37908C14.934 7.38363 14.6682 7.63352 14.6682 8.01519C14.6682 8.39685 14.9386 8.64675 15.3786 8.65583C15.782 8.66492 16.1899 8.65583 16.5933 8.65583Z" fill="url(#paint6_linear_132_819)"/>
<path d="M15.6766 6.38403C16.0937 6.38403 17.8859 6.39312 18.303 6.38403C18.7385 6.37495 19.0089 6.11596 18.9998 5.72975C18.9906 5.36172 18.7339 5.11182 18.3076 5.10728C17.4871 5.09819 15.287 5.09819 14.4665 5.10728C14.0173 5.11182 13.7514 5.36172 13.7514 5.74338C13.7514 6.12505 14.0218 6.37495 14.4619 6.38403C14.8653 6.39312 15.2732 6.38403 15.6766 6.38403Z" fill="url(#paint7_linear_132_819)"/>
<defs>
<linearGradient id="paint0_linear_132_819" x1="9.5" y1="0" x2="9.5" y2="20" gradientUnits="userSpaceOnUse">
<stop stop-color="#FF4E71"/>
<stop offset="1" stop-color="#FB0230"/>
</linearGradient>
<linearGradient id="paint1_linear_132_819" x1="9.5" y1="0" x2="9.5" y2="20" gradientUnits="userSpaceOnUse">
<stop stop-color="#FF4E71"/>
<stop offset="1" stop-color="#FB0230"/>
</linearGradient>
<linearGradient id="paint2_linear_132_819" x1="9.5" y1="0" x2="9.5" y2="20" gradientUnits="userSpaceOnUse">
<stop stop-color="#FF4E71"/>
<stop offset="1" stop-color="#FB0230"/>
</linearGradient>
<linearGradient id="paint3_linear_132_819" x1="9.5" y1="0" x2="9.5" y2="20" gradientUnits="userSpaceOnUse">
<stop stop-color="#FF4E71"/>
<stop offset="1" stop-color="#FB0230"/>
</linearGradient>
<linearGradient id="paint4_linear_132_819" x1="9.5" y1="0" x2="9.5" y2="20" gradientUnits="userSpaceOnUse">
<stop stop-color="#FF4E71"/>
<stop offset="1" stop-color="#FB0230"/>
</linearGradient>
<linearGradient id="paint5_linear_132_819" x1="9.5" y1="0" x2="9.5" y2="20" gradientUnits="userSpaceOnUse">
<stop stop-color="#FF4E71"/>
<stop offset="1" stop-color="#FB0230"/>
</linearGradient>
<linearGradient id="paint6_linear_132_819" x1="9.5" y1="0" x2="9.5" y2="20" gradientUnits="userSpaceOnUse">
<stop stop-color="#FF4E71"/>
<stop offset="1" stop-color="#FB0230"/>
</linearGradient>
<linearGradient id="paint7_linear_132_819" x1="9.5" y1="0" x2="9.5" y2="20" gradientUnits="userSpaceOnUse">
<stop stop-color="#FF4E71"/>
<stop offset="1" stop-color="#FB0230"/>
</linearGradient>
</defs>
</svg>
