<svg width="19" height="20" viewBox="0 0 19 20" fill="none" xmlns="http://www.w3.org/2000/svg">
<path d="M9.20187 19.9814C8.0927 19.9359 6.68472 20.0875 5.29193 19.9157C3.13438 19.6429 1.41238 17.9958 1.07305 15.8587C0.698263 13.4741 0.3488 11.0793 0.0398544 8.68451C-0.264027 6.3049 1.1946 4.43556 3.56994 4.11727C3.89408 4.0718 4.0055 3.89497 4.11186 3.65246C4.57781 2.6319 5.13999 1.69218 6.08202 1.02528C8.89799 -0.970359 13.1067 0.0603021 14.6211 3.13713C14.6768 3.24323 14.7426 3.34932 14.7781 3.46047C14.925 3.89497 15.1833 4.0819 15.6745 4.14758C17.665 4.4103 19.2097 6.3251 18.9767 8.31569C18.6728 10.8873 18.3183 13.4538 17.8827 16.0052C17.4877 18.3141 15.4264 19.9359 13.0257 19.9763C11.8507 19.9965 10.6706 19.9814 9.20187 19.9814ZM13.4714 10.0385C13.4663 9.61413 13.2587 9.31099 12.8788 9.13921C12.4534 8.94723 12.0634 9.04827 11.7443 9.38172C10.853 10.3214 9.94131 11.246 9.09045 12.2211C8.73592 12.6253 8.50294 12.6152 8.15348 12.2666C7.85973 11.9786 7.52039 11.731 7.19119 11.4835C6.67966 11.0995 6.0567 11.1601 5.7123 11.6148C5.37803 12.0493 5.47426 12.6404 5.95541 13.0345C6.64927 13.6054 7.3482 14.1713 8.05725 14.727C8.57891 15.1413 9.07019 15.116 9.53107 14.631C10.7466 13.3528 11.9469 12.0645 13.1574 10.7812C13.3498 10.569 13.4765 10.3315 13.4714 10.0385ZM9.48549 4.07685C10.4528 4.07685 11.4202 4.06674 12.3876 4.0819C12.7927 4.08695 12.8282 3.9657 12.6408 3.64235C11.8608 2.27824 10.5947 2.05089 9.17148 2.09131C7.92557 2.12162 6.96834 2.57633 6.33526 3.66762C6.15799 3.9758 6.21877 4.08695 6.58343 4.0819C7.55078 4.06674 8.51814 4.07685 9.48549 4.07685Z" fill="url(#paint0_linear_132_824)"/>
<defs>
<linearGradient id="paint0_linear_132_824" x1="9.5" y1="0" x2="9.5" y2="20" gradientUnits="userSpaceOnUse">
<stop stop-color="#FF4E71"/>
<stop offset="1" stop-color="#FB0230"/>
</linearGradient>
</defs>
</svg>
