<svg width="18" height="20" viewBox="0 0 18 20" fill="none" xmlns="http://www.w3.org/2000/svg">
<path d="M13.5661 2.00032C13.5661 0.769353 12.7274 0 11.3906 0C8.69165 0 5.99266 0 3.29368 0C1.95689 0 1.11314 0.774482 1.11314 1.99519C1.11314 3.68777 1.11314 5.37522 1.11314 7.06779C1.11314 8.11924 1.11314 9.17069 1.11314 10.2221C1.13347 10.2119 1.15889 10.2016 1.17922 10.1965C1.47402 10.0785 1.77899 10.0221 2.08396 10.0221C2.79556 10.0221 3.46649 10.3299 4.07135 10.9453C4.32549 11.2018 4.57963 11.4531 4.83378 11.7096C5.3014 12.1814 5.77918 12.6636 6.25697 13.1457C7.88856 11.4941 9.5354 9.83234 11.1365 8.21669C11.9497 7.40118 12.7579 6.58054 13.5712 5.75989C13.5661 4.50328 13.5712 3.2518 13.5661 2.00032ZM4.12726 2.71325C5.05742 2.70299 5.9825 2.70299 6.91265 2.71325C7.39044 2.71838 7.68525 2.97996 7.69541 3.36464C7.70558 3.76983 7.40569 4.04167 6.91265 4.05193C6.43995 4.06219 5.97233 4.05193 5.49963 4.05193C5.04217 4.05193 4.58472 4.05706 4.12726 4.05193C3.62914 4.04167 3.32417 3.78009 3.32417 3.38003C3.32417 2.97483 3.62406 2.71325 4.12726 2.71325ZM7.64967 9.45279C7.04989 9.45792 6.45012 9.45279 5.85543 9.45279C5.28106 9.45279 4.7067 9.45792 4.13743 9.45279C3.64439 9.44766 3.33434 9.18608 3.32926 8.79114C3.32417 8.39108 3.63931 8.11411 4.12218 8.10898C5.29123 8.10386 6.46537 8.10386 7.63442 8.10898C8.1122 8.10898 8.44259 8.40134 8.43242 8.79114C8.42734 9.17069 8.10712 9.44253 7.64967 9.45279ZM10.4757 6.74979C8.37651 6.74979 6.2773 6.75492 4.17809 6.74979C3.52749 6.74979 3.15136 6.30357 3.38008 5.81631C3.5224 5.50344 3.79688 5.40086 4.14759 5.40086C5.21499 5.40086 6.28747 5.40086 7.35486 5.40086C8.39684 5.40086 9.43882 5.39573 10.4859 5.40086C11.0399 5.40086 11.3652 5.65731 11.3652 6.07789C11.3601 6.49847 11.0348 6.74979 10.4757 6.74979Z" fill="url(#paint0_linear_132_832)"/>
<path d="M0 13.4073C0.0101657 13.3508 0.0101657 13.2431 0.0508283 13.1457C0.371047 12.3712 0.91491 11.7968 1.68242 11.4941C2.22628 11.2787 2.69899 11.53 3.09545 11.9301C4.06627 12.9097 5.04217 13.8791 5.99774 14.869C6.21122 15.0947 6.31288 15.0639 6.51111 14.8588C9.26601 12.0686 12.026 9.28353 14.786 6.49847C15.645 5.63167 16.3057 5.66757 17.2105 6.49847C18.4253 7.61147 18.0847 8.46289 17.2206 9.31943C13.8406 12.6687 10.5113 16.0692 7.16171 19.4544C6.44503 20.1776 6.06382 20.1827 5.35222 19.4646C3.73588 17.8336 2.12462 16.2026 0.503201 14.5767C0.198231 14.2638 0.00508283 13.9048 0 13.4073Z" fill="url(#paint1_linear_132_832)"/>
<defs>
<linearGradient id="paint0_linear_132_832" x1="9" y1="0" x2="9" y2="20" gradientUnits="userSpaceOnUse">
<stop stop-color="#FF4E71"/>
<stop offset="1" stop-color="#FB0230"/>
</linearGradient>
<linearGradient id="paint1_linear_132_832" x1="9" y1="0" x2="9" y2="20" gradientUnits="userSpaceOnUse">
<stop stop-color="#FF4E71"/>
<stop offset="1" stop-color="#FB0230"/>
</linearGradient>
</defs>
</svg>
