<svg width="20" height="20" viewBox="0 0 20 20" fill="none" xmlns="http://www.w3.org/2000/svg">
<path d="M15.4476 10.9212C16.0958 10.9212 16.744 10.894 17.3922 10.9266C18.8738 10.9974 19.985 12.1737 19.9904 13.6604C19.9958 14.853 19.9958 16.051 19.9904 17.2436C19.985 18.7848 18.803 19.9828 17.2615 19.9937C16.0795 20.0046 14.892 19.9992 13.71 19.9937C12.0977 19.9883 10.9212 18.8338 10.9048 17.2273C10.8939 16.0456 10.8885 14.8584 10.9048 13.6767C10.9266 12.0757 12.0923 10.9266 13.6991 10.9103C14.282 10.9048 14.8648 10.9103 15.4476 10.9103C15.4476 10.9157 15.4476 10.9212 15.4476 10.9212Z" fill="url(#paint0_linear_133_1235)"/>
<path d="M0 4.55005C0 3.96736 0 3.38467 0 2.80198C0.00544699 1.20095 1.19289 0.0137844 2.78886 0.00833872C3.96541 0.00289303 5.14196 0.00289303 6.32395 0.00833872C7.66936 0.0137844 8.74786 0.87965 9.03655 2.19751C9.08013 2.38811 9.09647 2.58415 9.09647 2.7802C9.09647 3.95647 9.10192 5.13274 9.09647 6.31445C9.09102 7.66499 8.24674 8.72145 6.93402 9.03185C6.73792 9.08086 6.53639 9.0972 6.33485 9.0972C5.1474 9.0972 3.95451 9.0972 2.76707 9.0972C1.21468 9.09176 0.016341 7.89915 0 6.35257C0 5.7481 0 5.14907 0 4.55005ZM4.54279 7.27834C5.13106 7.27834 5.71934 7.27834 6.30761 7.27834C6.88499 7.27834 7.27173 6.89714 7.27173 6.31445C7.27173 5.13818 7.27173 3.96191 7.27173 2.78564C7.27173 2.21929 6.88499 1.83265 6.31851 1.83265C5.13651 1.83265 3.95451 1.83265 2.76707 1.83265C2.19514 1.83265 1.81929 2.2084 1.81929 2.78564C1.81385 3.96736 1.81385 5.14907 1.81929 6.33624C1.81929 6.90803 2.20058 7.28379 2.77252 7.28379C3.36624 7.27834 3.95451 7.27834 4.54279 7.27834Z" fill="url(#paint1_linear_133_1235)"/>
<path d="M4.52645 19.9994C3.95451 19.9994 3.38258 19.9994 2.81609 19.9994C1.182 19.994 0.00544699 18.8177 0 17.184C0 16.0295 0 14.875 0 13.7205C0 12.1522 1.09484 10.9759 2.65813 10.9215C3.92728 10.8833 5.20187 10.8833 6.47647 10.9269C7.9635 10.9759 9.07468 12.1576 9.08558 13.6443C9.09647 14.8478 9.09647 16.0459 9.08558 17.2494C9.07468 18.7959 7.89268 19.9776 6.34574 19.994C5.74113 19.9994 5.13651 19.994 4.52645 19.9994ZM4.54279 18.1806C5.12562 18.1806 5.70844 18.186 6.29127 18.1806C6.90678 18.1751 7.27173 17.8048 7.27173 17.184C7.27173 16.0295 7.27173 14.875 7.27173 13.726C7.27173 13.1106 6.89589 12.7294 6.28582 12.7294C5.12562 12.7294 3.96541 12.7294 2.8052 12.7294C2.18969 12.7294 1.81929 13.0997 1.81929 13.7205C1.81929 14.875 1.81929 16.0295 1.81929 17.1786C1.81929 17.8157 2.17335 18.1751 2.81065 18.1806C3.38803 18.1806 3.96541 18.1806 4.54279 18.1806Z" fill="url(#paint2_linear_133_1235)"/>
<path d="M10.9158 4.54443C10.9158 3.89095 10.8885 3.23747 10.9212 2.58398C11.0029 1.12454 12.1631 0.0245056 13.6229 0.00816854C14.8431 -0.00272285 16.0632 -0.00272285 17.2833 0.00816854C18.803 0.0245056 19.9905 1.228 19.9959 2.74735C20.0014 3.95085 20.0014 5.1489 19.9959 6.3524C19.9905 7.88809 18.7867 9.09159 17.2561 9.09703C16.085 9.10248 14.9139 9.09703 13.7428 9.09703C12.1087 9.09703 10.9267 7.92621 10.9103 6.2925C10.9049 5.70981 10.9103 5.12712 10.9103 4.54443C10.9103 4.54443 10.9103 4.54443 10.9158 4.54443ZM18.1712 4.57166C18.1712 3.97808 18.1712 3.3845 18.1712 2.79092C18.1657 2.20278 17.7953 1.83792 17.2071 1.83792C16.036 1.83792 14.8649 1.83792 13.6937 1.83792C13.1 1.83792 12.7242 2.21367 12.7187 2.80726C12.7133 3.97808 12.7133 5.1489 12.7187 6.31973C12.7187 6.90786 13.1055 7.28362 13.6937 7.28362C14.8594 7.28362 16.0251 7.28362 17.1907 7.28362C17.7953 7.28362 18.1657 6.91331 18.1657 6.30339C18.1766 5.7207 18.1712 5.14346 18.1712 4.57166Z" fill="url(#paint3_linear_133_1235)"/>
<path d="M4.60803 5.74248C4.47731 5.74248 4.34658 5.74248 4.21585 5.74248C3.7583 5.73159 3.42604 5.42663 3.3988 4.9692C3.38246 4.68057 3.38246 4.38651 3.3988 4.09789C3.42059 3.65134 3.72018 3.34093 4.16683 3.3137C4.46097 3.29737 4.76055 3.29737 5.06013 3.3137C5.52313 3.34093 5.82271 3.66768 5.83361 4.13056C5.83905 4.3974 5.83905 4.66424 5.83361 4.93108C5.82271 5.39941 5.49045 5.73704 5.02201 5.74248C4.88038 5.74793 4.74421 5.74248 4.60803 5.74248Z" fill="url(#paint4_linear_133_1235)"/>
<path d="M4.54281 16.6719C4.40663 16.6719 4.27046 16.6719 4.13428 16.6719C3.68219 16.661 3.33358 16.3234 3.32813 15.8714C3.32268 15.5991 3.32268 15.3268 3.32813 15.0491C3.33358 14.6026 3.6604 14.2595 4.1125 14.2377C4.40119 14.2268 4.69532 14.2268 4.98401 14.2377C5.42522 14.254 5.74659 14.5808 5.76838 15.0328C5.77928 15.3105 5.77928 15.5937 5.76838 15.8714C5.74659 16.3506 5.40343 16.6665 4.91865 16.6719C4.79337 16.6774 4.66809 16.6719 4.54281 16.6719Z" fill="url(#paint5_linear_133_1235)"/>
<path d="M15.4478 5.74268C15.3171 5.74268 15.1863 5.74268 15.0556 5.74268C14.5926 5.73178 14.2549 5.41594 14.2331 4.95305C14.2222 4.66987 14.2222 4.38125 14.2331 4.09808C14.2494 3.66242 14.549 3.35202 14.9848 3.3139C15.3007 3.28667 15.6166 3.28667 15.9271 3.3139C16.3629 3.35202 16.6625 3.6842 16.6679 4.12531C16.6734 4.39759 16.6734 4.66987 16.6679 4.94761C16.657 5.39415 16.3193 5.73178 15.8727 5.74268C15.731 5.74812 15.5894 5.74268 15.4478 5.74268Z" fill="url(#paint6_linear_133_1235)"/>
<defs>
<linearGradient id="paint0_linear_133_1235" x1="10" y1="0" x2="10" y2="20" gradientUnits="userSpaceOnUse">
<stop stop-color="#FF4E71"/>
<stop offset="1" stop-color="#FB0230"/>
</linearGradient>
<linearGradient id="paint1_linear_133_1235" x1="10" y1="0" x2="10" y2="20" gradientUnits="userSpaceOnUse">
<stop stop-color="#FF4E71"/>
<stop offset="1" stop-color="#FB0230"/>
</linearGradient>
<linearGradient id="paint2_linear_133_1235" x1="10" y1="0" x2="10" y2="20" gradientUnits="userSpaceOnUse">
<stop stop-color="#FF4E71"/>
<stop offset="1" stop-color="#FB0230"/>
</linearGradient>
<linearGradient id="paint3_linear_133_1235" x1="10" y1="0" x2="10" y2="20" gradientUnits="userSpaceOnUse">
<stop stop-color="#FF4E71"/>
<stop offset="1" stop-color="#FB0230"/>
</linearGradient>
<linearGradient id="paint4_linear_133_1235" x1="10" y1="0" x2="10" y2="20" gradientUnits="userSpaceOnUse">
<stop stop-color="#FF4E71"/>
<stop offset="1" stop-color="#FB0230"/>
</linearGradient>
<linearGradient id="paint5_linear_133_1235" x1="10" y1="0" x2="10" y2="20" gradientUnits="userSpaceOnUse">
<stop stop-color="#FF4E71"/>
<stop offset="1" stop-color="#FB0230"/>
</linearGradient>
<linearGradient id="paint6_linear_133_1235" x1="10" y1="0" x2="10" y2="20" gradientUnits="userSpaceOnUse">
<stop stop-color="#FF4E71"/>
<stop offset="1" stop-color="#FB0230"/>
</linearGradient>
</defs>
</svg>
