<svg width="23" height="20" viewBox="0 0 23 20" fill="none" xmlns="http://www.w3.org/2000/svg">
<path d="M11.5107 4.83102C14.4607 4.83102 17.4047 4.83102 20.3547 4.83102C22.0065 4.83102 23 5.78994 23 7.38035C23 9.93553 23 12.4907 23 15.0459C23 16.6305 22.0004 17.5894 20.3425 17.5835C19.9281 17.5835 19.3917 17.7531 19.1296 17.5134C18.8675 17.2736 19.0564 16.7532 19.0504 16.3556C19.0382 15.6072 19.0564 14.8646 19.0443 14.1162C19.0199 12.4147 17.618 11.0465 15.8443 11.0406C12.943 11.0289 10.0356 11.0231 7.13436 11.0406C5.38505 11.0523 3.97708 12.4147 3.95879 14.0928C3.9466 15.1278 3.94051 16.1627 3.96489 17.1918C3.97098 17.5251 3.86737 17.6128 3.53823 17.5894C3.16642 17.5601 2.78853 17.5894 2.41672 17.5835C1.07579 17.5543 0.0152378 16.5661 0.00914271 15.2856C-0.00304757 12.5726 -0.00304757 9.85952 0.00914271 7.14647C0.0152378 5.82503 1.08798 4.83687 2.48986 4.83102C5.49477 4.82517 8.49967 4.83102 11.5107 4.83102ZM5.39115 8.95907C5.38505 8.3919 4.88525 7.92998 4.29402 7.94167C3.72108 7.95337 3.24566 8.41529 3.23957 8.96492C3.23347 9.53208 3.72718 10.0057 4.31231 10.0057C4.90354 9.99985 5.39724 9.52624 5.39115 8.95907Z" fill="url(#paint0_linear_145_1216)"/>
<path d="M11.4742 19.9985C10.0967 19.9985 8.71921 19.9985 7.34171 19.9985C6.51886 19.9985 6.10439 19.5951 6.10439 18.7999C6.10439 17.2913 6.0983 15.7828 6.10439 14.2742C6.10439 13.5083 6.52496 13.099 7.31733 13.099C10.1028 13.0931 12.8822 13.0931 15.6677 13.099C16.46 13.099 16.8806 13.5083 16.8806 14.2742C16.8867 15.7945 16.8867 17.3206 16.8806 18.8408C16.8806 19.5775 16.4539 19.9927 15.686 19.9927C14.2902 20.0044 12.8822 19.9985 11.4742 19.9985Z" fill="url(#paint1_linear_145_1216)"/>
<path d="M11.4802 3.45709C9.20673 3.45709 6.93325 3.45709 4.65976 3.45709C4.06853 3.45709 3.95272 3.346 3.95272 2.77883C3.95272 2.46309 3.94053 2.14735 3.95882 1.8316C4.00149 0.837596 4.82433 0.0190031 5.8666 0.013156C9.6212 -0.00438532 13.3758 -0.00438532 17.1304 0.013156C18.191 0.0190031 19.0138 0.837596 19.0443 1.86084C19.0565 2.18828 19.0504 2.52156 19.0443 2.849C19.0382 3.32261 18.898 3.45125 18.3921 3.45125C16.0881 3.45709 13.7842 3.45709 11.4802 3.45709Z" fill="url(#paint2_linear_145_1216)"/>
<defs>
<linearGradient id="paint0_linear_145_1216" x1="11.5" y1="0" x2="11.5" y2="20" gradientUnits="userSpaceOnUse">
<stop stop-color="#FF4E71"/>
<stop offset="1" stop-color="#FB0230"/>
</linearGradient>
<linearGradient id="paint1_linear_145_1216" x1="11.5" y1="0" x2="11.5" y2="20" gradientUnits="userSpaceOnUse">
<stop stop-color="#FF4E71"/>
<stop offset="1" stop-color="#FB0230"/>
</linearGradient>
<linearGradient id="paint2_linear_145_1216" x1="11.5" y1="0" x2="11.5" y2="20" gradientUnits="userSpaceOnUse">
<stop stop-color="#FF4E71"/>
<stop offset="1" stop-color="#FB0230"/>
</linearGradient>
</defs>
</svg>
