<svg width="24" height="20" viewBox="0 0 24 20" fill="none" xmlns="http://www.w3.org/2000/svg">
<path d="M19.6671 6.68856C19.5131 6.92616 19.3531 7.16376 19.1872 7.39542C19.0509 7.5855 18.9324 7.7043 18.8021 7.75776C18.6243 7.82904 18.4288 7.78152 18.1621 7.6152C16.906 6.86082 15.5492 6.36186 14.1094 6.10644C11.2594 5.60748 8.58126 6.1005 6.06902 7.51422C5.67204 7.73994 5.45281 7.83498 5.25728 7.75776C5.0973 7.69836 4.9551 7.5261 4.74772 7.22316C4.6233 7.04496 4.49887 6.86676 4.38037 6.68262C4.08411 6.2193 4.14929 5.9223 4.6233 5.63718C6.89854 4.27099 9.36338 3.59977 12.006 3.55819C14.6663 3.58789 17.149 4.25911 19.436 5.63718C19.8982 5.9223 19.9634 6.2193 19.6671 6.68856Z" fill="url(#paint0_linear_145_1217)"/>
<path d="M17.5931 9.61109C17.5931 9.77147 17.5101 9.96154 17.3442 10.2051C17.1902 10.4308 17.042 10.6565 16.8761 10.8704C16.7576 11.0367 16.6451 11.1377 16.5206 11.1792C16.3607 11.2386 16.177 11.1971 15.9341 11.0664C13.5462 9.76552 11.1169 9.67048 8.63433 10.7872C8.4862 10.8525 8.344 10.9298 8.2018 11.007C7.87592 11.1852 7.68631 11.2565 7.50856 11.1852C7.36636 11.1258 7.24193 10.9832 7.06418 10.7397C6.92197 10.5377 6.77977 10.3417 6.64942 10.1397C6.50722 9.9259 6.44204 9.75364 6.44797 9.5992C6.45982 9.3913 6.61387 9.22498 6.91605 9.04678C8.49805 8.13203 10.2045 7.67465 12.0353 7.68653C13.8366 7.68059 15.5134 8.13797 17.0776 9.02302C17.4272 9.21904 17.5872 9.39131 17.5931 9.61109Z" fill="url(#paint1_linear_145_1217)"/>
<path d="M15.1342 13.5612C14.9564 13.8166 14.7668 14.0661 14.5891 14.3215C14.5061 14.4343 14.4231 14.5175 14.3283 14.565C14.1624 14.6541 13.9669 14.6541 13.7418 14.5472C12.6041 14.0126 11.4665 14.0067 10.3289 14.5413C10.0919 14.6541 9.89637 14.6601 9.72454 14.565C9.62382 14.5116 9.53494 14.4225 9.45199 14.3037C9.26831 14.0364 9.06686 13.7809 8.88318 13.5077C8.76468 13.3354 8.71135 13.1751 8.7232 13.0266C8.73505 12.8305 8.8654 12.6583 9.11426 12.5217C10.0208 12.0168 11.0044 11.797 12.0176 11.7732C13.0426 11.8029 14.0025 12.0108 14.8853 12.492C15.1697 12.6464 15.3178 12.8187 15.3297 13.0266C15.3356 13.1869 15.2704 13.3592 15.1342 13.5612Z" fill="url(#paint2_linear_145_1217)"/>
<path d="M14.0622 17.9685C14.0622 18.2298 14.0089 18.4853 13.9141 18.711C13.606 19.4713 12.8653 20.0059 12.0062 20C11.153 19.9881 10.4361 19.4594 10.1339 18.711C10.0331 18.4556 9.97982 18.1823 9.98574 17.8913C9.99167 17.4339 10.1576 17.0121 10.4242 16.6736C10.4361 16.6557 10.4479 16.6379 10.4657 16.626C10.8508 16.1627 11.4315 15.8657 12.0655 15.8835C12.6817 15.8954 13.2327 16.1865 13.5941 16.632C13.606 16.6498 13.6178 16.6617 13.6297 16.6795C13.9022 17.03 14.0622 17.4814 14.0622 17.9685Z" fill="url(#paint3_linear_145_1217)"/>
<path d="M23.649 7.00918L16.1715 18.0635C16.1656 18.0754 16.1597 18.0813 16.1537 18.0932C16.1419 17.4754 15.9878 16.8874 15.7271 16.3587C15.6086 16.1271 15.4724 15.9073 15.3183 15.6994L21.8892 5.97562L21.9603 5.87464C21.9603 5.87464 21.9189 5.83306 21.8359 5.75584C21.1545 5.11432 17.7002 2.12057 11.9943 2.05523C6.28845 2.12057 2.83412 5.11432 2.15273 5.75584C2.06978 5.83306 2.0283 5.87464 2.0283 5.87464L2.09941 5.97562L8.67034 15.6994C8.51629 15.9073 8.37409 16.1271 8.26151 16.3587C8.0008 16.8814 7.84675 17.4695 7.8349 18.0932C7.82898 18.0813 7.82305 18.0754 7.81713 18.0635L0.3515 7.00918C-0.187684 6.21322 -0.0988071 5.14996 0.564804 4.45499C0.736632 4.27679 4.80718 0.0890997 11.9706 0C11.9825 0 11.9943 0 12.0002 0C12.0121 0 12.0239 0 12.0299 0C19.1933 0.0831598 23.2639 4.27679 23.4298 4.45499C24.0993 5.14996 24.1882 6.21322 23.649 7.00918Z" fill="url(#paint4_linear_145_1217)"/>
<defs>
<linearGradient id="paint0_linear_145_1217" x1="12" y1="0" x2="12" y2="20" gradientUnits="userSpaceOnUse">
<stop stop-color="#FF4E71"/>
<stop offset="1" stop-color="#FB0230"/>
</linearGradient>
<linearGradient id="paint1_linear_145_1217" x1="12" y1="0" x2="12" y2="20" gradientUnits="userSpaceOnUse">
<stop stop-color="#FF4E71"/>
<stop offset="1" stop-color="#FB0230"/>
</linearGradient>
<linearGradient id="paint2_linear_145_1217" x1="12" y1="0" x2="12" y2="20" gradientUnits="userSpaceOnUse">
<stop stop-color="#FF4E71"/>
<stop offset="1" stop-color="#FB0230"/>
</linearGradient>
<linearGradient id="paint3_linear_145_1217" x1="12" y1="0" x2="12" y2="20" gradientUnits="userSpaceOnUse">
<stop stop-color="#FF4E71"/>
<stop offset="1" stop-color="#FB0230"/>
</linearGradient>
<linearGradient id="paint4_linear_145_1217" x1="12" y1="0" x2="12" y2="20" gradientUnits="userSpaceOnUse">
<stop stop-color="#FF4E71"/>
<stop offset="1" stop-color="#FB0230"/>
</linearGradient>
</defs>
</svg>
