<svg width="24" height="20" viewBox="0 0 24 20" fill="none" xmlns="http://www.w3.org/2000/svg">
<path d="M12.0676 16.0974C11.1436 16.1084 10.3235 15.9487 9.53624 15.6293C9.38862 15.5688 9.27927 15.5798 9.14259 15.6569C8.66693 15.9322 8.1858 16.1965 7.71014 16.4663C7.49691 16.5874 7.27275 16.6975 7.04312 16.5268C6.79709 16.3506 6.79163 16.0919 6.8463 15.8275C6.95565 15.3155 7.05953 14.7979 7.18527 14.2913C7.22901 14.1206 7.18527 14.016 7.07593 13.8893C4.13996 10.5525 5.24436 4.78191 9.97909 3.25116C13.6969 2.05079 17.5569 4.26432 18.3715 8.10221C19.208 12.0502 16.5946 15.5853 12.8385 16.0478C12.5597 16.0863 12.2754 16.0919 12.0676 16.0974ZM15.3152 10.7562C15.9987 10.7562 16.5509 10.2056 16.5509 9.52284C16.5509 8.84006 15.9987 8.28392 15.3207 8.28392C14.6373 8.28392 14.0851 8.83455 14.0851 9.51733C14.0796 10.2056 14.6263 10.7562 15.3152 10.7562ZM8.66693 10.7562C9.35035 10.7562 9.90255 10.2111 9.90255 9.52284C9.90802 8.84006 9.35035 8.28392 8.6724 8.28392C7.98898 8.28392 7.43677 8.83455 7.43677 9.51733C7.43677 10.2056 7.98898 10.7562 8.66693 10.7562ZM13.2212 9.51733C13.2212 8.82904 12.6745 8.28392 11.9856 8.28943C11.3022 8.28943 10.7609 8.84006 10.7664 9.53385C10.7664 10.2276 11.3131 10.7673 12.002 10.7618C12.6854 10.7562 13.2212 10.2111 13.2212 9.51733Z" fill="url(#paint0_linear_134_2296)"/>
<path d="M11.7833 17.5786C13.6914 17.6832 15.4629 17.0665 17.0265 15.8166C18.1364 14.9301 18.9456 13.8068 19.4595 12.4743C19.6399 12.0172 19.629 11.5162 19.7165 11.0316C19.7875 10.6462 19.8149 10.2552 19.8969 9.86978C20.1375 8.69144 19.8696 7.58467 19.4376 6.51094C18.12 3.20166 14.8779 1.18084 11.3405 1.45065C7.60628 1.73698 4.47348 4.75443 4.02516 8.49321C3.93221 9.25859 4.1345 9.97991 4.22745 10.7178C4.3532 11.7034 4.52269 12.689 4.66484 13.6746C4.75778 14.3354 4.56096 14.6437 3.93768 14.8365C3.57683 14.9466 3.20505 15.0512 2.82234 15.0402C2.06238 15.0182 1.49924 14.6272 1.05091 14.0491C0.143334 12.8707 -0.108165 11.5162 0.0394537 10.068C0.137866 9.12643 0.433104 8.26195 1.14933 7.59568C1.60859 7.16619 2.13345 6.86335 2.7786 6.85233C2.96449 6.84683 2.95902 6.72018 2.99729 6.61006C3.70805 4.45159 4.99835 2.73913 6.89552 1.51122C12.0895 -1.85313 19.0604 0.646733 20.974 6.56601C21.045 6.78626 21.1435 6.87436 21.3676 6.89088C22.3135 6.94594 22.9531 7.47454 23.4015 8.27296C24.3473 9.95238 24.1505 12.5238 22.9641 14.0325C22.5322 14.5777 22.0073 14.9796 21.2911 15.0567C20.892 15.0953 20.5202 14.9631 20.1484 14.853C19.9461 14.7924 19.8422 14.831 19.7165 15.0072C18.3988 16.8628 16.6493 18.1017 14.4623 18.7129C14.2929 18.757 14.2218 18.8175 14.2218 19.0102C14.2218 19.6104 13.8281 19.9904 13.2377 19.9959C12.4066 20.0014 11.5756 20.0014 10.7445 19.9959C10.1541 19.9904 9.76588 19.6049 9.76042 19.0102C9.76042 18.834 9.75495 18.6523 9.76588 18.4761C9.78775 17.9916 10.1705 17.6116 10.6571 17.5841C10.6735 17.5841 10.6899 17.5841 10.7117 17.5841C11.0288 17.5786 11.3569 17.5786 11.7833 17.5786Z" fill="url(#paint1_linear_134_2296)"/>
<defs>
<linearGradient id="paint0_linear_134_2296" x1="12" y1="0" x2="12" y2="20" gradientUnits="userSpaceOnUse">
<stop stop-color="#FF4E71"/>
<stop offset="1" stop-color="#FB0230"/>
</linearGradient>
<linearGradient id="paint1_linear_134_2296" x1="12" y1="0" x2="12" y2="20" gradientUnits="userSpaceOnUse">
<stop stop-color="#FF4E71"/>
<stop offset="1" stop-color="#FB0230"/>
</linearGradient>
</defs>
</svg>
