<svg width="23" height="20" viewBox="0 0 23 20" fill="none" xmlns="http://www.w3.org/2000/svg">
<path d="M13.377 10.7188C13.377 11.601 13.377 12.4893 13.377 13.3715C13.377 13.5995 13.377 13.5995 13.1425 13.6055C10.4574 13.6355 8.21061 15.49 7.57484 17.8906C7.40818 18.5147 7.36497 19.1509 7.38349 19.793C7.38966 19.9491 7.34646 19.9911 7.1798 19.9971C6.4823 20.0211 5.82801 19.9011 5.26631 19.475C4.50708 18.9048 4.15525 18.1426 4.2108 17.2064C4.23549 16.7923 4.2787 16.3842 4.32191 15.9701C4.34043 15.8141 4.29722 15.7661 4.13056 15.7721C3.42689 15.7781 2.71705 15.7901 2.01338 15.7601C0.76652 15.706 -0.147017 14.5838 0.0196422 13.3775C0.198646 12.0932 0.340615 10.8028 0.501101 9.51252C0.618379 8.57029 0.729485 7.62807 0.859109 6.69184C1.0196 5.58156 2.05041 4.60333 3.19233 4.44129C3.4701 4.39928 3.75403 4.40528 4.0318 4.40528C5.21076 4.40528 6.38971 4.40528 7.56867 4.40528C8.94515 4.40528 10.1118 4.87339 11.0747 5.83363C11.1487 5.90564 11.229 5.93565 11.3278 5.92965C11.6487 5.92365 11.9759 5.93565 12.2968 5.92365C12.4141 5.92365 12.4758 5.95366 12.5129 6.07369C12.6734 6.67983 12.9388 7.24397 13.2968 7.7661C13.3585 7.85612 13.377 7.94614 13.3709 8.04817C13.377 8.94239 13.377 9.8306 13.377 10.7188Z" fill="url(#paint0_linear_134_2297)"/>
<path d="M13.6116 4.56111C13.6116 2.0405 15.7102 0 18.3027 0C20.8952 0 23 2.0465 23 4.56111C23 7.07573 20.8952 9.12823 18.3027 9.12223C15.7102 9.12223 13.6116 7.08173 13.6116 4.56111ZM17.3274 4.57312C17.2966 4.60313 17.2719 4.63913 17.2348 4.67514C16.9941 4.9092 16.7534 5.14926 16.5126 5.37731C16.4386 5.44333 16.4386 5.49134 16.5126 5.55736C16.7719 5.80342 17.025 6.04948 17.2719 6.29554C17.3521 6.37356 17.4015 6.36756 17.4756 6.28954C17.704 6.06148 17.9447 5.83943 18.1669 5.60537C18.2657 5.50335 18.3274 5.48534 18.4323 5.59937C18.6607 5.83943 18.9076 6.06148 19.136 6.29554C19.2039 6.36755 19.2533 6.36755 19.3273 6.29554C19.5804 6.04348 19.8335 5.79742 20.0866 5.55736C20.1668 5.48534 20.1668 5.43733 20.0866 5.35931C19.8397 5.12525 19.5989 4.87919 19.3458 4.64513C19.2656 4.56711 19.2718 4.5251 19.3458 4.45309C19.5866 4.22503 19.815 3.99097 20.0619 3.76292C20.1545 3.6789 20.173 3.61888 20.068 3.52886C19.8211 3.3008 19.5804 3.06675 19.3458 2.82669C19.2594 2.74267 19.2039 2.73067 19.1175 2.82669C18.8891 3.06075 18.6422 3.28881 18.4138 3.52286C18.3274 3.61288 18.2718 3.60688 18.1854 3.52286C17.9509 3.2828 17.704 3.05475 17.4632 2.81469C17.3953 2.74867 17.3459 2.73667 17.2719 2.81469C17.025 3.06675 16.7657 3.31281 16.5126 3.55287C16.4324 3.62488 16.4324 3.6729 16.5126 3.75092C16.7596 3.97897 16.9941 4.21903 17.2348 4.45309C17.2719 4.4891 17.3151 4.51911 17.3274 4.57312Z" fill="url(#paint1_linear_134_2297)"/>
<path d="M14.7412 9.25421C15.1053 9.50027 15.4572 9.71033 15.8337 9.87236C16.6423 10.2265 17.4879 10.4065 18.3768 10.3825C18.5373 10.3765 18.5805 10.4245 18.5805 10.5745C18.5743 11.5168 18.5743 12.459 18.5805 13.4012C18.5805 13.5453 18.5496 13.6053 18.383 13.6053C17.2287 13.5993 16.0744 13.5993 14.9202 13.6053C14.8091 13.6053 14.7288 13.5993 14.7288 13.4492C14.735 12.0869 14.7288 10.7306 14.735 9.36824C14.7288 9.34424 14.735 9.31423 14.7412 9.25421Z" fill="url(#paint2_linear_134_2297)"/>
<defs>
<linearGradient id="paint0_linear_134_2297" x1="11.5" y1="0" x2="11.5" y2="20" gradientUnits="userSpaceOnUse">
<stop stop-color="#FF4E71"/>
<stop offset="1" stop-color="#FB0230"/>
</linearGradient>
<linearGradient id="paint1_linear_134_2297" x1="11.5" y1="0" x2="11.5" y2="20" gradientUnits="userSpaceOnUse">
<stop stop-color="#FF4E71"/>
<stop offset="1" stop-color="#FB0230"/>
</linearGradient>
<linearGradient id="paint2_linear_134_2297" x1="11.5" y1="0" x2="11.5" y2="20" gradientUnits="userSpaceOnUse">
<stop stop-color="#FF4E71"/>
<stop offset="1" stop-color="#FB0230"/>
</linearGradient>
</defs>
</svg>
