<svg width="27" height="20" viewBox="0 0 27 20" fill="none" xmlns="http://www.w3.org/2000/svg">
<path d="M13.5071 19.9975C12.4171 19.9975 11.3271 20.0031 10.2427 19.9975C8.22004 19.9864 6.77045 18.543 6.76484 16.5388C6.76484 15.7227 6.73674 14.9121 6.95587 14.1127C7.61886 11.7199 9.79324 10.021 12.2991 10.0099C13.4003 10.0044 14.5128 9.90998 15.6141 10.0932C18.2211 10.5262 20.21 12.7858 20.2494 15.3951C20.2606 16.0502 20.3224 16.7109 20.1763 17.366C19.828 18.8927 18.5132 19.9642 16.94 19.9975C16.9063 19.9975 16.867 19.9975 16.8333 19.9975C15.7152 19.9975 14.614 19.9975 13.5071 19.9975Z" fill="url(#paint0_linear_132_448)"/>
<path d="M13.524 8.87737C11.0406 8.88292 9.02352 6.9176 9.00104 4.46927C8.98419 2.0376 11.0012 0.0167589 13.4622 0.00010363C15.9624 -0.0165517 18.002 1.97653 18.0076 4.44151C18.0132 6.88429 16.0018 8.87182 13.524 8.87737Z" fill="url(#paint1_linear_132_448)"/>
<path d="M4.53417 7.78931C4.95557 7.78931 5.37696 7.78375 5.79835 7.78931C6.33773 7.79486 6.83216 7.95586 7.2985 8.21679C8.24804 8.74976 8.25366 8.84414 7.43335 9.51591C5.67474 10.9649 4.68026 12.8137 4.53979 15.0843C4.51732 15.4396 4.4218 15.5673 4.05098 15.5507C3.4217 15.5229 2.7868 15.5562 2.15753 15.534C0.966392 15.484 0.0449484 14.5625 0.0168557 13.3855C-0.00561856 12.586 -0.00561856 11.7866 0.0168557 10.9927C0.0618041 9.27718 1.47768 7.87258 3.21381 7.79486C3.65768 7.77265 4.09593 7.78931 4.53417 7.78931Z" fill="url(#paint2_linear_132_448)"/>
<path d="M22.5023 7.79483C23.0979 7.79483 23.6991 7.72265 24.289 7.83924C25.8398 8.14459 26.9635 9.49366 26.9916 11.0648C27.0028 11.8087 27.0028 12.5582 26.9916 13.3022C26.9691 14.5735 26.0533 15.4951 24.7666 15.534C24.1373 15.5506 23.5025 15.5284 22.8732 15.5451C22.5754 15.5562 22.4855 15.4452 22.4686 15.1565C22.3226 12.6415 21.182 10.654 19.1256 9.18832C18.8334 8.97735 18.8447 8.86631 19.0919 8.65535C19.665 8.16124 20.3167 7.83924 21.0809 7.80038C21.5584 7.77817 22.0304 7.79483 22.5023 7.79483Z" fill="url(#paint3_linear_132_448)"/>
<path d="M1.15176 3.35883C1.14052 1.49899 2.63506 0.00556702 4.50042 1.52595e-05C6.36016 -0.0055365 7.89402 1.50454 7.89402 3.33107C7.89402 5.14095 6.38263 6.64548 4.55098 6.66213C2.67439 6.68434 1.16299 5.20757 1.15176 3.35883Z" fill="url(#paint4_linear_132_448)"/>
<path d="M25.8622 3.35342C25.851 5.20771 24.3396 6.67893 22.463 6.66782C20.6314 6.65672 19.12 5.15219 19.1144 3.34232C19.1087 1.51024 20.6426 0.000156222 22.5023 0.00570798C24.3733 0.00570798 25.8679 1.49913 25.8622 3.35342Z" fill="url(#paint5_linear_132_448)"/>
<defs>
<linearGradient id="paint0_linear_132_448" x1="13.5" y1="0" x2="13.5" y2="20" gradientUnits="userSpaceOnUse">
<stop stop-color="#FF4E71"/>
<stop offset="1" stop-color="#FB0230"/>
</linearGradient>
<linearGradient id="paint1_linear_132_448" x1="13.5" y1="0" x2="13.5" y2="20" gradientUnits="userSpaceOnUse">
<stop stop-color="#FF4E71"/>
<stop offset="1" stop-color="#FB0230"/>
</linearGradient>
<linearGradient id="paint2_linear_132_448" x1="13.5" y1="0" x2="13.5" y2="20" gradientUnits="userSpaceOnUse">
<stop stop-color="#FF4E71"/>
<stop offset="1" stop-color="#FB0230"/>
</linearGradient>
<linearGradient id="paint3_linear_132_448" x1="13.5" y1="0" x2="13.5" y2="20" gradientUnits="userSpaceOnUse">
<stop stop-color="#FF4E71"/>
<stop offset="1" stop-color="#FB0230"/>
</linearGradient>
<linearGradient id="paint4_linear_132_448" x1="13.5" y1="0" x2="13.5" y2="20" gradientUnits="userSpaceOnUse">
<stop stop-color="#FF4E71"/>
<stop offset="1" stop-color="#FB0230"/>
</linearGradient>
<linearGradient id="paint5_linear_132_448" x1="13.5" y1="0" x2="13.5" y2="20" gradientUnits="userSpaceOnUse">
<stop stop-color="#FF4E71"/>
<stop offset="1" stop-color="#FB0230"/>
</linearGradient>
</defs>
</svg>
