<svg width="18" height="20" viewBox="0 0 18 20" fill="none" xmlns="http://www.w3.org/2000/svg">
<path d="M17.9851 6.10971C17.4669 12.4836 14.8076 16.8312 9.79689 19.7473C9.21027 20.0906 8.69209 20.081 8.11036 19.7376C3.01657 16.7441 0.30835 12.3337 0.00526382 6.47242C-0.0533979 5.3553 0.376788 4.55736 1.36915 4.00121C3.48586 2.81639 5.58791 1.61222 7.68018 0.383878C8.5601 -0.133576 9.37648 -0.123904 10.2564 0.388714C12.2656 1.56386 14.2747 2.74385 16.3181 3.8513C17.5256 4.51383 18.1024 5.41333 17.9851 6.10971ZM10.6621 12.3192C11.1608 12.2611 11.4834 11.9855 11.3563 11.5841C10.9799 10.4041 11.2781 9.52877 12.2656 8.76952C12.686 8.44551 12.4464 7.85068 11.9136 7.71527C11.6301 7.64273 11.3368 7.60888 11.0483 7.5847C10.5595 7.54601 10.2026 7.3429 10.0218 6.86897C9.94843 6.67069 9.82622 6.49176 9.73334 6.30316C9.57691 5.97914 9.4107 5.66964 8.98051 5.68415C8.58455 5.69865 8.39878 5.98881 8.29123 6.30316C7.97837 7.20265 7.40642 7.72011 6.39939 7.67175C6.34073 7.66691 6.28696 7.69593 6.2283 7.70076C5.89588 7.72494 5.61235 7.8265 5.49503 8.16502C5.3777 8.50354 5.51947 8.78887 5.79322 8.97263C6.63893 9.54812 6.88824 10.3122 6.61938 11.2746C6.59493 11.3665 6.58516 11.4632 6.58027 11.5599C6.56071 12.1402 6.99579 12.4401 7.55307 12.2321C7.60685 12.2128 7.66551 12.1886 7.70951 12.1547C8.55033 11.5115 9.38626 11.4825 10.2417 12.1402C10.364 12.2418 10.5497 12.2708 10.6621 12.3192Z" fill="url(#paint0_linear_132_451)"/>
<defs>
<linearGradient id="paint0_linear_132_451" x1="9" y1="0" x2="9" y2="20" gradientUnits="userSpaceOnUse">
<stop stop-color="#FF4E71"/>
<stop offset="1" stop-color="#FB0230"/>
</linearGradient>
</defs>
</svg>
