<svg width="20" height="20" viewBox="0 0 20 20" fill="none" xmlns="http://www.w3.org/2000/svg">
<path d="M18.986 15.3868C18.414 15.3868 17.8371 15.3719 17.265 15.3918C17.0037 15.4017 16.9297 15.3323 16.9297 15.0598C16.9396 13.0381 16.9347 11.0214 16.9347 9.00465C16.9347 7.08207 16.9347 5.15949 16.9347 3.23692C16.9347 1.31434 15.6279 0.00123877 13.7097 0.00123877C10.0113 0.00123877 6.31297 0.00123877 2.61461 0.00123877C2.52585 0.00123877 2.44202 -0.00371632 2.35819 0.00619387C1.94398 0.0408795 1.63825 0.358006 1.62838 0.759368C1.61852 1.15578 1.91439 1.49768 2.32861 1.53732C2.59489 1.55714 2.85624 1.58687 3.09293 1.72066C3.65015 2.02292 3.92137 2.50356 3.92137 3.13286C3.9263 4.11397 3.92137 5.09508 3.92137 6.07618C4.31586 6.84422 9.39493 16.2044 9.49356 16.4076C9.61684 16.6652 9.68587 16.9477 9.69573 17.2499C9.70067 17.4184 9.7056 17.5819 9.71053 17.7504C9.72532 18.1716 9.73518 18.6126 9.75491 19.0338C9.7697 19.3757 9.69573 19.7076 9.55273 20C11.7274 20 13.8971 20 16.0717 20C18.1428 20 19.7257 18.5878 19.9821 16.5265C20.0807 15.7337 19.775 15.3868 18.986 15.3868ZM9.39987 3.85135C10.8546 3.84639 12.3142 3.84639 13.7689 3.85135C14.2916 3.85135 14.6417 4.16847 14.6367 4.62434C14.6318 5.07526 14.2817 5.38743 13.759 5.38743C13.0243 5.39238 12.2944 5.38743 11.5597 5.38743C10.8348 5.38743 10.1149 5.39238 9.39 5.38743C8.87223 5.38743 8.51719 5.0703 8.52212 4.61443C8.52212 4.15856 8.87223 3.85135 9.39987 3.85135ZM6.98854 8.47445C6.97867 8.01363 7.33865 7.6965 7.88107 7.6965C8.85744 7.6965 9.83874 7.6965 10.8151 7.6965C11.7915 7.6965 12.7728 7.6965 13.7491 7.6965C14.2817 7.6965 14.6269 7.99876 14.6367 8.44967C14.6466 8.9105 14.2866 9.22762 13.7442 9.22762C11.7865 9.22762 9.83381 9.22762 7.87614 9.22762C7.34851 9.23258 6.9984 8.93032 6.98854 8.47445ZM9.38014 13.0777C8.8673 13.0777 8.51226 12.7457 8.52212 12.2948C8.53198 11.8538 8.87716 11.5466 9.38014 11.5417C10.105 11.5367 10.825 11.5417 11.5498 11.5417C12.2944 11.5417 13.0391 11.5367 13.7837 11.5417C14.3014 11.5417 14.6515 11.8687 14.6417 12.3246C14.6318 12.7656 14.2866 13.0777 13.7837 13.0777C12.3142 13.0777 10.8447 13.0777 9.38014 13.0777ZM18.2907 17.017C18.2809 17.0468 18.271 17.0765 18.2611 17.1062C17.8272 17.9783 17.122 18.4441 16.1555 18.454C14.4691 18.4689 12.7777 18.459 11.0912 18.459C11.0222 18.459 10.9433 18.4887 10.8595 18.4045C11.106 18.0526 11.3279 17.6661 11.4167 17.245C11.4808 16.9526 11.6189 16.9179 11.8753 16.9179C13.9119 16.9278 15.9484 16.9229 17.9899 16.9229C18.0935 16.9229 18.197 16.8932 18.2956 16.9477C18.2907 16.9774 18.2956 17.0022 18.2907 17.017Z" fill="url(#paint0_linear_145_862)"/>
<path d="M5.58805 12.8003C6.2439 14.0143 6.89974 15.2283 7.56051 16.4423C7.67393 16.6504 7.78734 16.8536 7.8909 17.0667C7.92542 17.141 7.94021 17.2153 7.94021 17.2946C7.95993 17.8991 7.97473 18.4987 7.99938 19.1032C8.01418 19.3807 7.77748 19.6037 7.52599 19.5739C7.45203 19.564 7.38299 19.5343 7.32382 19.4897C6.82084 19.1379 6.31293 18.7811 5.80995 18.4293C5.74585 18.3847 5.69161 18.3302 5.65216 18.2559C5.09494 17.2252 4.53772 16.1995 3.9805 15.1689C3.01893 13.3949 2.06229 11.621 1.10071 9.84709C0.987296 9.63897 1.00702 9.58942 1.21413 9.48041C1.80587 9.15833 2.3976 8.8412 2.98441 8.51912C3.18165 8.41011 3.2211 8.42002 3.32959 8.61822C3.98543 9.83222 4.64127 11.0462 5.29218 12.2553C5.39574 12.4386 5.48943 12.617 5.58805 12.8003Z" fill="url(#paint1_linear_145_862)"/>
<path d="M0.76059 8.79168C0.622518 8.866 0.573207 8.85114 0.494309 8.7124C0.356237 8.45473 0.218165 8.19211 0.0800925 7.93445C0.0603679 7.8948 0.0406433 7.85021 0.0258499 7.81057C-0.0382549 7.60741 0.0159876 7.44389 0.19844 7.33488C0.361168 7.23578 0.528827 7.14163 0.696485 7.04748C1.02687 6.8691 1.35233 6.69072 1.68271 6.51729C1.92434 6.38846 2.1561 6.46278 2.28924 6.70063C2.43718 6.9682 2.58018 7.23578 2.72812 7.4984C2.80208 7.62723 2.78729 7.68669 2.65415 7.75606C2.33856 7.92949 1.07618 8.61825 0.76059 8.79168Z" fill="url(#paint2_linear_145_862)"/>
<defs>
<linearGradient id="paint0_linear_145_862" x1="10" y1="0" x2="10" y2="20" gradientUnits="userSpaceOnUse">
<stop stop-color="#FF4E71"/>
<stop offset="1" stop-color="#FB0230"/>
</linearGradient>
<linearGradient id="paint1_linear_145_862" x1="10" y1="0" x2="10" y2="20" gradientUnits="userSpaceOnUse">
<stop stop-color="#FF4E71"/>
<stop offset="1" stop-color="#FB0230"/>
</linearGradient>
<linearGradient id="paint2_linear_145_862" x1="10" y1="0" x2="10" y2="20" gradientUnits="userSpaceOnUse">
<stop stop-color="#FF4E71"/>
<stop offset="1" stop-color="#FB0230"/>
</linearGradient>
</defs>
</svg>
