<svg width="16" height="20" viewBox="0 0 16 20" fill="none" xmlns="http://www.w3.org/2000/svg">
<path d="M15.1206 13.7214C14.6229 13.7214 14.1209 13.7081 13.6231 13.7258C13.3957 13.7346 13.3314 13.6728 13.3314 13.43C13.34 11.6289 13.3357 9.82779 13.3357 8.02667C13.3357 6.31385 13.3357 4.5966 13.3357 2.88378C13.3357 1.17095 12.1943 0.001104 10.5253 0.001104C7.30296 0.001104 4.08065 0.001104 0.858346 0.001104C0.785405 0.001104 0.708172 -0.00331125 0.63523 0.00551776C0.279103 0.0364193 0.00878968 0.323362 0.000208303 0.676523C-0.00837308 1.02968 0.249068 1.3387 0.609486 1.3696C0.841184 1.39167 1.07288 1.41816 1.27883 1.53294C1.75939 1.80664 1.99538 2.23484 1.99967 2.79549C2.00396 4.08011 1.99967 5.36914 1.99967 6.65376C1.99967 8.3401 1.99538 10.0264 1.99967 11.7172C2.35151 11.5715 2.72909 11.4876 3.12383 11.4876H3.15816C4.65561 11.5053 5.93852 12.6619 6.14019 14.1717C6.16164 14.3173 6.17022 14.4542 6.17451 14.5866C6.75375 14.9839 7.11846 15.6549 7.11846 16.4142C7.11846 16.8954 7.11846 17.3722 7.11846 17.8401C8.93772 17.8401 10.7613 17.8401 12.5805 17.8401C14.3826 17.8357 15.7599 16.582 15.983 14.7411C16.0731 14.0304 15.8071 13.7214 15.1206 13.7214ZM6.77092 3.43559C8.04096 3.43559 9.30672 3.43559 10.5768 3.43559C11.0316 3.43559 11.3362 3.71812 11.3362 4.12425C11.3319 4.53039 11.0273 4.80409 10.5682 4.80409C9.92887 4.8085 9.28955 4.80409 8.65024 4.80409C8.01951 4.80409 7.39307 4.8085 6.76234 4.80409C6.30752 4.80409 6.00288 4.52156 6.00288 4.11542C6.00717 3.70929 6.31181 3.43559 6.77092 3.43559ZM4.66848 7.55874C4.6599 7.14819 4.97312 6.86566 5.44938 6.86566C6.30323 6.86125 7.15279 6.86566 8.00664 6.86566C8.86048 6.86566 9.71004 6.86566 10.5639 6.86566C11.0273 6.86566 11.3276 7.13494 11.3362 7.53666C11.3448 7.95163 11.0316 8.23416 10.5596 8.23416C8.85619 8.23416 7.15279 8.23416 5.44938 8.23416C4.9817 8.22974 4.67706 7.96046 4.66848 7.55874ZM6.74946 11.6598C6.29894 11.6598 5.99001 11.364 6.00288 10.9623C6.01147 10.5694 6.31181 10.2957 6.74946 10.2913C7.3802 10.2869 8.00664 10.2913 8.63737 10.2913C9.28526 10.2913 9.93316 10.2869 10.5811 10.2913C11.0316 10.2957 11.3362 10.5827 11.3276 10.9888C11.319 11.3861 11.0187 11.6598 10.5811 11.6598C9.30672 11.6642 8.02809 11.6642 6.74946 11.6598ZM14.5113 15.1782C14.5027 15.2047 14.4942 15.2312 14.4856 15.2576C14.108 16.0346 13.4944 16.4496 12.6492 16.4584C11.1775 16.4716 9.71004 16.4628 8.23833 16.4628C8.17826 16.4628 8.10961 16.4893 8.03667 16.4142C8.25121 16.1008 8.44429 15.7565 8.52152 15.3812C8.5773 15.1208 8.69744 15.0899 8.92055 15.0899C10.6969 15.0987 12.469 15.0943 14.2453 15.0943C14.3354 15.0943 14.4255 15.0678 14.5113 15.1164C14.5113 15.1429 14.5156 15.1605 14.5113 15.1782Z" fill="url(#paint0_linear_145_863)"/>
<path d="M3.13234 19.9989C2.54451 19.9989 1.9524 19.9989 1.36457 19.9989C0.669482 19.9989 0.244703 19.5574 0.244703 18.8423C0.244703 18.0433 0.244703 17.2442 0.244703 16.4452C0.244703 15.8802 0.549342 15.4829 1.08139 15.3592C1.17149 15.3372 1.18436 15.293 1.18436 15.2136C1.18866 14.8957 1.15862 14.5779 1.2144 14.26C1.37315 13.3153 2.20984 12.6002 3.14521 12.6134C4.10203 12.6267 4.92585 13.3639 5.05457 14.3218C5.09318 14.6132 5.07173 14.909 5.07602 15.2003C5.07602 15.293 5.09318 15.3416 5.19616 15.3637C5.69388 15.4696 6.01997 15.889 6.02426 16.4143C6.02855 17.2398 6.02426 18.0609 6.02426 18.8864C6.02426 19.5398 5.58661 19.9901 4.9473 19.9945C4.34231 20.0033 3.73733 19.9989 3.13234 19.9989ZM3.11947 15.3283C3.40265 15.3283 3.69013 15.3239 3.97331 15.3283C4.05484 15.3283 4.08916 15.3019 4.08487 15.218C4.08058 14.9973 4.08916 14.7721 4.08058 14.5514C4.05484 14.0614 3.6558 13.6553 3.17954 13.6376C2.67323 13.6199 2.25275 13.9731 2.1841 14.4763C2.14977 14.7191 2.1798 14.9619 2.16693 15.2047C2.16264 15.3063 2.19697 15.3372 2.29136 15.3328C2.56597 15.3239 2.84057 15.3283 3.11947 15.3283ZM3.13234 18.5509C3.48417 18.5509 3.49705 18.5421 3.49705 18.1757C3.49705 18.0786 3.52708 18.0124 3.59573 17.9417C3.87034 17.6769 3.87463 17.2398 3.6086 16.9661C3.34687 16.6924 2.9178 16.6924 2.65607 16.9661C2.39434 17.2398 2.39434 17.6769 2.66894 17.9417C2.74618 18.0168 2.77621 18.0874 2.76763 18.1934C2.76334 18.2419 2.76763 18.2949 2.76763 18.3435C2.76763 18.4803 2.84057 18.5465 2.96929 18.5509C3.02507 18.5509 3.07656 18.5509 3.13234 18.5509Z" fill="url(#paint1_linear_145_863)"/>
<defs>
<linearGradient id="paint0_linear_145_863" x1="8" y1="0" x2="8" y2="20" gradientUnits="userSpaceOnUse">
<stop stop-color="#FF4E71"/>
<stop offset="1" stop-color="#FB0230"/>
</linearGradient>
<linearGradient id="paint1_linear_145_863" x1="8" y1="0" x2="8" y2="20" gradientUnits="userSpaceOnUse">
<stop stop-color="#FF4E71"/>
<stop offset="1" stop-color="#FB0230"/>
</linearGradient>
</defs>
</svg>
