<svg width="24" height="20" viewBox="0 0 24 20" fill="none" xmlns="http://www.w3.org/2000/svg">
<path d="M6.47056 3.34288C6.94124 4.44621 7.39123 5.49283 7.83605 6.53429C8.35845 7.75104 8.86534 8.97811 9.40843 10.1794C9.5998 10.6073 9.62049 11.0198 9.53774 11.4529C9.09292 13.675 7.04468 15.2423 4.68094 15.1753C2.26547 15.1083 0.3362 13.4533 0.0155169 11.1693C-0.0258615 10.8703 0.0155169 10.5919 0.139652 10.3083C1.14308 7.99336 2.13616 5.66812 3.12925 3.35319C3.22235 3.13665 3.28442 2.94073 3.22752 2.68294C3.08787 2.02816 3.4189 1.35276 4.00337 1.01764C4.58266 0.687668 5.33782 0.734069 5.83436 1.20324C6.06712 1.41978 6.28953 1.48165 6.58435 1.4765C7.52054 1.46619 8.4619 1.46619 9.40326 1.4765C9.6567 1.48165 9.81187 1.41978 9.96187 1.17746C10.9343 -0.400195 13.0963 -0.389884 14.0738 1.19293C14.2083 1.41463 14.348 1.48165 14.5911 1.4765C15.5635 1.46619 16.5307 1.46103 17.5031 1.4765C17.7721 1.48165 17.9634 1.40432 18.16 1.21871C18.6772 0.734069 19.4375 0.677356 20.0323 1.02795C20.6168 1.36823 20.9323 2.03332 20.7875 2.70356C20.7358 2.94073 20.7927 3.12634 20.8806 3.32741C21.853 5.59078 22.8099 7.85931 23.803 10.1124C24.0099 10.5815 24.0461 11.0249 23.9478 11.5147C23.5081 13.7369 21.3306 15.3248 18.9048 15.1702C16.5152 15.0155 14.5756 13.211 14.4359 11.0198C14.4204 10.7414 14.4825 10.4991 14.5859 10.2516C15.5014 8.13257 16.4117 6.01356 17.3169 3.89454C17.3893 3.72956 17.5083 3.56973 17.4876 3.34288C16.4686 3.34288 15.4549 3.34288 14.4359 3.34288C14.3014 3.34288 14.2083 3.37897 14.1411 3.51302C13.9807 3.82236 13.7687 4.09046 13.4842 4.29154C13.329 4.39981 13.3446 4.55448 13.3446 4.70915C13.3446 8.42129 13.3497 12.1334 13.3394 15.8456C13.3394 16.1858 13.4532 16.258 13.7687 16.258C15.098 16.2426 16.4273 16.258 17.7565 16.2477C18.0565 16.2426 18.1807 16.3199 18.16 16.6344C18.1341 17.0675 18.1858 17.5109 18.0824 17.9388C17.7876 19.1298 16.7583 19.965 15.4807 19.9805C13.1635 20.0011 10.8463 20.0114 8.53431 19.9805C7.01882 19.9599 5.93781 18.8359 5.88091 17.3201C5.83954 16.2529 5.83954 16.2529 6.90503 16.2529C8.01708 16.2529 9.12912 16.2426 10.236 16.258C10.567 16.2632 10.6963 16.2013 10.6963 15.8301C10.6808 12.1334 10.686 8.43676 10.6912 4.74009C10.6912 4.52354 10.655 4.34825 10.4584 4.22451C10.355 4.15749 10.236 4.06984 10.1946 3.96157C9.936 3.29648 9.39291 3.3171 8.81878 3.33772C8.05328 3.3635 7.29295 3.34288 6.47056 3.34288ZM22.5668 10.6537C21.6151 8.43676 20.7047 6.30228 19.7892 4.17295C19.6082 3.76049 19.2306 4.10077 18.9565 3.9925C18.7134 3.89454 18.6772 4.13171 18.6151 4.27607C17.7514 6.28165 16.8979 8.28724 16.029 10.2877C15.9152 10.5558 15.8997 10.6847 16.2514 10.6589C16.5617 10.6383 16.8772 10.6537 17.1876 10.6537C18.9565 10.6537 20.7203 10.6537 22.5668 10.6537ZM1.53618 10.6331C1.61893 10.6383 1.71203 10.6486 1.80514 10.6486C3.77578 10.6486 5.74643 10.6383 7.71708 10.6589C8.11018 10.664 8.11018 10.5558 7.9757 10.2413C7.1171 8.27177 6.25332 6.30228 5.44127 4.31216C5.2292 3.78627 4.85162 4.08015 4.55163 3.9925C4.24129 3.8997 4.23612 4.17811 4.16888 4.34309C3.31545 6.31774 2.46719 8.2924 1.6241 10.267C1.57238 10.3753 1.48445 10.4784 1.53618 10.6331Z" fill="url(#paint0_linear_134_1947)"/>
<defs>
<linearGradient id="paint0_linear_134_1947" x1="12" y1="0" x2="12" y2="20" gradientUnits="userSpaceOnUse">
<stop stop-color="#FF4E71"/>
<stop offset="1" stop-color="#FB0230"/>
</linearGradient>
</defs>
</svg>
