<svg width="20" height="20" viewBox="0 0 20 20" fill="none" xmlns="http://www.w3.org/2000/svg">
<path d="M9.99766 0C10.4746 0 10.8768 0.364735 10.8534 0.869753C10.8347 1.28592 10.9937 1.37477 11.3725 1.42153C14.9684 1.88914 18.1576 5.10629 18.5878 8.69285C18.6298 9.02952 18.7187 9.16046 19.0788 9.14643C19.6212 9.12305 19.9953 9.49713 20 9.9928C20.0046 10.4978 19.6259 10.8813 19.0601 10.8579C18.7093 10.8438 18.6252 10.9701 18.5878 11.2881C18.1482 14.9354 14.931 18.1526 11.2743 18.5921C10.9516 18.6295 10.8394 18.7324 10.8534 19.0691C10.8721 19.6302 10.484 20.0137 9.97896 19.9996C9.48796 19.9903 9.11855 19.6162 9.14193 19.0691C9.16063 18.6997 9.01099 18.6249 8.68366 18.5828C5.08302 18.1479 1.8518 14.9214 1.41692 11.3255C1.37483 10.9701 1.27196 10.8392 0.902541 10.8532C0.36946 10.8719 -0.00463281 10.4838 4.33496e-05 9.98812C0.0047195 9.49714 0.378812 9.11837 0.921246 9.14175C1.27663 9.15578 1.37483 9.0342 1.41692 8.69285C1.84712 5.09226 5.06899 1.85641 8.66496 1.41685C9.04373 1.37009 9.16531 1.25787 9.1466 0.869753C9.12322 0.364735 9.51602 0 9.99766 0ZM4.98015 9.1324C5.4992 9.1324 6.02293 9.12305 6.54198 9.13708C6.77112 9.14643 6.87867 9.07161 6.95816 8.85184C7.3042 7.94 7.94015 7.30405 8.852 6.95802C9.04373 6.8832 9.13725 6.80838 9.13725 6.57926C9.12322 5.52714 9.12322 4.47034 9.13725 3.41822C9.14193 3.17506 9.08581 3.10492 8.82862 3.14233C6.02761 3.5585 3.53989 6.05086 3.13774 8.83781C3.10033 9.09967 3.18918 9.14643 3.42299 9.14175C3.93737 9.12305 4.45642 9.1324 4.98015 9.1324ZM15.0152 9.1324C15.5342 9.1324 16.058 9.12305 16.577 9.13708C16.8061 9.14175 16.8997 9.10434 16.8623 8.83781C16.4648 6.05086 13.9724 3.56318 11.1714 3.14233C10.9189 3.10492 10.8581 3.17506 10.8628 3.41822C10.8721 4.47034 10.8721 5.52714 10.8628 6.57926C10.8628 6.77565 10.9095 6.87853 11.1059 6.94867C12.0552 7.2947 12.7052 7.94467 13.0512 8.88924C13.1213 9.07628 13.2149 9.14643 13.4159 9.14175C13.949 9.12305 14.4821 9.1324 15.0152 9.1324ZM4.98482 10.8672C4.65749 10.8672 4.33484 10.8672 4.00751 10.8672C3.03954 10.8672 3.03954 10.8672 3.27803 11.8024C3.93737 14.3649 6.23803 16.4598 8.8146 16.8573C9.05775 16.8947 9.13257 16.8433 9.1279 16.5908C9.11387 15.5246 9.11854 14.4585 9.1279 13.3923C9.1279 13.2006 9.05775 13.1211 8.88941 13.0603C7.94483 12.7143 7.28549 12.0643 6.94413 11.1197C6.86464 10.9 6.74774 10.8626 6.54198 10.8672C6.02761 10.8766 5.50388 10.8672 4.98482 10.8672ZM10.8628 15.0009C10.8628 15.5199 10.8815 16.0437 10.8581 16.5627C10.844 16.8713 10.9609 16.8947 11.2228 16.8479C14.0753 16.3336 16.3339 14.0703 16.8482 11.2226C16.895 10.9561 16.8669 10.8532 16.5583 10.8579C15.5202 10.8766 14.4774 10.8719 13.4346 10.8579C13.2195 10.8579 13.1167 10.914 13.0418 11.1244C12.7005 12.055 12.0552 12.7003 11.1246 13.0416C10.9142 13.1211 10.8534 13.224 10.8581 13.4344C10.8721 13.9628 10.8628 14.4818 10.8628 15.0009Z" fill="url(#paint0_linear_134_1948)"/>
<defs>
<linearGradient id="paint0_linear_134_1948" x1="10" y1="0" x2="10" y2="20" gradientUnits="userSpaceOnUse">
<stop stop-color="#FF4E71"/>
<stop offset="1" stop-color="#FB0230"/>
</linearGradient>
</defs>
</svg>
