<svg width="20" height="20" viewBox="0 0 20 20" fill="none" xmlns="http://www.w3.org/2000/svg">
<path d="M20 9.29126C19.8631 12.182 18.3927 14.8444 15.3556 16.4571C12.3084 18.0749 9.26625 17.8518 6.361 15.9906C6.0872 15.8182 5.97059 15.8486 5.76271 16.0616C4.57627 17.2534 3.37969 18.4299 2.17803 19.6014C1.43778 20.3215 0.291899 20.0223 0.0434564 19.0537C-0.0883703 18.5516 0.0890888 18.1408 0.449077 17.7808C1.63045 16.6042 2.80168 15.4175 3.98812 14.2511C4.20107 14.0432 4.196 13.9164 4.03375 13.678C0.388234 8.35306 3.61799 0.98432 9.98623 0.0866827C15.2948 -0.653741 20.0101 3.42873 20 9.29126ZM17.5004 8.7537C17.5004 5.31529 14.7117 2.51588 11.2741 2.51081C7.82123 2.50067 5.00724 5.31022 5.00724 8.75877C5.00724 12.1921 7.80602 14.9966 11.2386 15.0067C14.6914 15.0067 17.5004 12.2073 17.5004 8.7537Z" fill="url(#paint0_linear_134_1949)"/>
<path d="M14.367 10.1787H8.19138C7.48661 10.1787 6.91875 9.61069 6.91875 8.90576C6.91875 8.20084 7.48661 7.63285 8.19138 7.63285H14.367C15.0717 7.63285 15.6396 8.20084 15.6396 8.90576C15.6396 9.60562 15.0717 10.1787 14.367 10.1787Z" fill="url(#paint1_linear_134_1949)"/>
<defs>
<linearGradient id="paint0_linear_134_1949" x1="10" y1="0" x2="10" y2="20" gradientUnits="userSpaceOnUse">
<stop stop-color="#FF4E71"/>
<stop offset="1" stop-color="#FB0230"/>
</linearGradient>
<linearGradient id="paint1_linear_134_1949" x1="10" y1="0" x2="10" y2="20" gradientUnits="userSpaceOnUse">
<stop stop-color="#FF4E71"/>
<stop offset="1" stop-color="#FB0230"/>
</linearGradient>
</defs>
</svg>
