<svg width="99" height="99" viewBox="0 0 99 99" fill="none" xmlns="http://www.w3.org/2000/svg">
<circle cx="49.3684" cy="49.3684" r="49.3684" fill="white"/>
<path d="M70.5095 44.2453C70.4782 43.4632 70.4261 42.6914 70.3635 41.951C70.0298 41.8258 69.5918 41.7737 69.0495 41.7737H29.2325C28.8779 41.7737 28.5651 41.7946 28.2939 41.8363C27.7204 48.3542 28.0332 57.5107 28.8258 61.4736C30.3797 69.316 37.0645 70.3797 43.8745 70.6926C49.6833 70.9533 61.3844 71.3601 65.8687 67.5848C70.9475 63.3299 70.8015 50.513 70.5095 44.2453ZM39.9533 61.5153C38.4828 61.4215 37.3252 60.1179 37.4295 58.6474C37.5338 57.177 38.8583 56.0298 40.3183 56.1549C41.747 56.2697 42.8629 57.5315 42.7899 58.9603C42.7169 60.4307 41.4237 61.5987 39.9533 61.5153ZM40.1201 52.5362C38.6497 52.5466 37.4191 51.316 37.4295 49.8455C37.4295 48.3647 38.681 47.1445 40.1514 47.1758C41.5802 47.1966 42.769 48.3855 42.7899 49.8143C42.8108 51.2951 41.601 52.5362 40.1201 52.5362ZM49.0576 61.5153C47.5767 61.4945 46.367 60.2534 46.3982 58.7726C46.4295 57.3438 47.6288 56.1549 49.0576 56.1445C50.5385 56.1341 51.7691 57.3542 51.7691 58.8351C51.7691 60.3056 50.528 61.5362 49.0576 61.5153ZM49.0263 52.5362C47.5558 52.5049 46.3565 51.2534 46.3982 49.7725C46.44 48.3438 47.6497 47.1758 49.0784 47.1758C50.5593 47.1758 51.7795 48.4064 51.7691 49.8873C51.7482 51.3577 50.5072 52.5674 49.0263 52.5362ZM57.9324 61.5153C56.4516 61.4423 55.294 60.1491 55.3774 58.6683C55.4608 57.1978 56.7748 56.0506 58.2453 56.1549C59.674 56.2488 60.8003 57.5002 60.7378 58.929C60.6856 60.4099 59.4029 61.5883 57.9324 61.5153ZM58.0472 52.5362C56.5663 52.5362 55.3461 51.2847 55.3774 49.8143C55.3983 48.3855 56.5871 47.1966 58.0159 47.1758C59.4968 47.1445 60.7378 48.3647 60.7378 49.8455C60.7482 51.316 59.5176 52.5466 58.0472 52.5362ZM33.0077 31.0842L32.9973 31.1051C33.1746 30.9799 33.3623 30.8652 33.55 30.7505C33.3623 30.8548 33.185 30.9695 33.0077 31.0842Z" fill="#005593"/>
<path d="M69.8212 38.0923C68.9765 38.0923 55.5025 38.1966 49.0054 38.1966H29.5037C29.2325 38.1966 28.9822 38.1862 28.7632 38.1653C28.8988 37.4458 29.0552 36.8096 29.2221 36.2882C30.0251 33.8583 31.3391 32.2314 32.9764 31.1155C32.9764 31.1155 32.9869 31.1155 32.9973 31.1051C33.1746 30.9799 33.3623 30.8652 33.55 30.7505C33.5709 30.7401 33.5917 30.7192 33.623 30.7088C33.8629 30.5732 34.1132 30.4481 34.3635 30.3438C34.3948 30.3229 34.4156 30.3125 34.4469 30.3021C35.9591 29.6033 37.6381 29.1862 39.4318 28.9463C39.4736 28.7273 39.5048 28.4353 39.5361 28.0599C39.63 27.1422 40.3079 26.506 41.1734 26.5269C41.9973 26.5582 42.623 27.1734 42.7169 28.0599C42.7378 28.2372 42.7065 28.4458 42.696 28.6439C43.0402 28.623 43.3843 28.6126 43.7285 28.5918C47.3473 28.404 51.5396 28.3415 55.44 28.5813C55.4191 28.3936 55.44 28.2059 55.4608 28.0182C55.5547 27.1422 56.2013 26.5373 57.0356 26.5269C57.8594 26.5269 58.4956 27.1422 58.6312 27.9973C58.6729 28.258 58.6103 28.55 58.579 28.8316C58.9545 28.8733 59.3195 28.915 59.6845 28.9672C66.1712 29.8223 68.7575 33.243 69.8212 38.0923Z" fill="#005593"/>
</svg>
