<svg width="45" height="45" viewBox="0 0 45 45" fill="none" xmlns="http://www.w3.org/2000/svg">
<path d="M44.1921 16.4472C43.8235 8.12053 42.2731 1.79964 32.9381 0.563651C27.8207 -0.108554 21.5323 -0.0977117 16.3498 0.173339C9.96386 0.498599 3.57792 1.1708 1.26857 8.17474C-0.455308 13.4223 -0.249309 28.7962 0.856576 34.3582C2.47204 42.5114 9.42176 43.6173 16.5016 43.9425C22.5406 44.2136 34.7053 44.6364 39.3674 40.7116C44.6475 36.2881 44.4957 22.9632 44.1921 16.4472ZM14.4091 28.6011C14.4091 29.8479 13.3791 30.8779 12.1323 30.8779C10.8746 30.8779 9.85544 29.8479 9.85544 28.6011V15.5148C9.85544 14.2571 10.8746 13.238 12.1323 13.238C12.7611 13.238 13.3249 13.4982 13.7369 13.9102C14.1489 14.3222 14.4091 14.8859 14.4091 15.5148V28.6011ZM33.8054 23.668C33.7729 23.6897 33.7512 23.7222 33.7187 23.7439C33.697 23.7656 33.6753 23.7981 33.6428 23.8198L28.4929 28.9697C27.6147 29.8588 26.1618 29.8588 25.2728 28.9697C24.3946 28.0807 24.3946 26.6387 25.2728 25.7496L26.6931 24.3293H19.2338C17.9761 24.3293 16.957 23.3102 16.957 22.0525C16.957 20.8057 17.9761 19.7757 19.2338 19.7757H26.6931L25.2728 18.3662C24.3946 17.4772 24.3946 16.0352 25.2728 15.1353C26.1618 14.2571 27.6147 14.2571 28.4929 15.1353L33.6428 20.2853C33.6753 20.3178 33.697 20.3503 33.7187 20.372C34.1741 20.7948 34.4668 21.3912 34.4668 22.0525C34.4668 22.6814 34.2066 23.256 33.8054 23.668Z" fill="#DA0000"/>
</svg>
