<svg width="45" height="45" viewBox="0 0 45 45" fill="none" xmlns="http://www.w3.org/2000/svg">
<path d="M44.1921 16.4472C43.8235 8.12053 42.2731 1.79964 32.9381 0.563651C27.8207 -0.108554 21.5323 -0.0977117 16.3498 0.173339C9.96386 0.498599 3.57792 1.1708 1.26857 8.17474C-0.455308 13.4223 -0.249309 28.7962 0.856576 34.3582C2.47204 42.5114 9.42176 43.6173 16.5016 43.9425C22.5406 44.2136 34.7053 44.6364 39.3674 40.7116C44.6475 36.2881 44.4957 22.9632 44.1921 16.4472ZM21.9877 34.6726C20.3071 34.6726 18.9085 33.2848 18.8652 31.5935C18.8326 29.8804 20.2421 28.4493 21.9768 28.4385C23.7224 28.4276 25.1318 29.8046 25.1427 31.5393C25.1427 33.2523 23.7115 34.6835 21.9877 34.6726ZM24.9584 18.3879C24.9475 18.3879 24.9475 18.3879 24.9475 18.3879C24.8283 20.3286 24.7415 22.2585 24.6006 24.1884C24.4813 25.7605 23.4405 26.7471 21.9985 26.7471C20.5674 26.7471 19.5157 25.7605 19.4181 24.1775C19.1796 20.578 18.9736 16.9785 18.8109 13.3789C18.7134 11.4165 20.1228 9.98536 22.0093 9.98536C23.885 9.98536 25.2619 11.4273 25.2077 13.3789C25.1535 15.0486 25.0451 16.7182 24.9584 18.3879Z" fill="#DE5A00"/>
</svg>
