<svg width="32" height="40" viewBox="0 0 32 40" fill="none" xmlns="http://www.w3.org/2000/svg">
<path d="M27.2046 3.48082V2.12764C27.2046 1.54041 26.9723 1.00425 26.5989 0.62127C26.2256 0.238295 25.7029 0 25.1304 0C23.9855 0 23.0563 0.953182 23.0563 2.12764V3.42975C21.2559 3.42124 19.6298 3.42975 18.0783 3.43826V2.12764C18.0783 1.54041 17.846 1.00425 17.4726 0.62127C17.0993 0.238295 16.5766 0 16.0041 0C14.8592 0 13.93 0.953182 13.93 2.12764V3.44677C12.3288 3.45528 10.7109 3.45528 8.95203 3.45528V2.12764C8.95203 1.54041 8.71973 1.00425 8.34638 0.62127C7.97304 0.238295 7.45035 0 6.87788 0C5.73295 0 4.80373 0.953182 4.80373 2.12764V3.48933C2.33135 3.75315 0.381644 5.77867 0.0248898 8.3063L0 36.1443C0.082966 37.3358 0.846254 38.6379 1.89163 39.1656C4.93648 40.706 6.33861 37.506 9.06819 37.6081C11.2502 37.6847 12.9344 39.9656 15.9212 39.9996C18.5927 40.0251 19.3062 38.8422 21.3389 38.0251C24.923 36.5698 25.9933 39.923 29.2372 39.4549C30.6228 39.2592 31.9502 37.5911 32 36.1443V8.62119C31.7345 5.81271 29.8429 3.8723 27.2046 3.48082ZM16.0705 29.038C14.7182 29.2337 10.2961 29.2252 8.93544 29.0295C6.52113 28.6976 6.52943 25.6423 8.93544 25.3019C10.3708 25.1061 14.461 25.1146 15.9212 25.2848C16.3526 25.3359 16.9749 25.5487 17.2818 25.8551C18.4185 27.0295 17.6137 28.8082 16.0705 29.038ZM24.4501 21.1317C24.2344 21.387 23.6038 21.6594 23.2554 21.7019C18.7752 22.2636 13.1999 21.2849 8.59528 21.6934C6.96915 21.4125 6.5958 19.0551 8.04771 18.2381C13.1916 17.9488 18.4102 18.1785 23.5707 18.119C24.8898 18.3317 25.2383 20.2211 24.4501 21.1317ZM23.5707 14.3403L8.58698 14.3573C6.6041 14.119 6.71195 11.1318 8.59528 10.7744C13.1999 11.1744 18.7752 10.2042 23.2554 10.7573C23.6038 10.7999 24.2344 11.0722 24.4501 11.3275C25.2383 12.2467 24.8898 14.1275 23.5707 14.3403Z" fill="#676767"/>
</svg>
