<svg width="22" height="22" viewBox="0 0 22 22" fill="none" xmlns="http://www.w3.org/2000/svg">
<path d="M0.335782 21.678C-0.0344662 21.3075 -0.0162572 20.767 0.0444392 20.2811C0.262947 18.5927 1.27051 14.8089 1.82892 13.1448C1.9928 12.665 1.95031 12.5192 2.51478 12.4221C5.10045 11.9726 7.94105 11.9848 10.5571 11.5475C11.1458 11.3957 11.1458 10.6183 10.5571 10.4603C7.94712 10.0231 5.10652 10.0291 2.51478 9.58576C1.95031 9.48859 1.98673 9.34283 1.82892 8.86302C1.07021 6.59155 0.754588 3.95567 0.0323 1.64775C-0.14372 0.65778 0.408618 -0.137843 1.47081 0.0200669C8.1899 3.239 14.9454 6.45793 21.5613 9.87122C22.2229 10.5879 22.138 11.8026 21.2943 12.337L1.54971 21.9635C1.13091 22.0546 0.645334 21.9817 0.335782 21.6719V21.678Z" fill="white"/>
</svg>
