<svg width="54" height="40" viewBox="0 0 54 40" fill="none" xmlns="http://www.w3.org/2000/svg">
<path d="M27.0066 40C24.8255 40 22.6532 40 20.4721 40C16.4265 39.9826 13.533 37.0969 13.5154 33.0726C13.5154 31.4472 13.4538 29.8218 13.9024 28.2138C15.2304 23.4246 19.575 20.0348 24.5881 20.0087C26.7956 20 29.0118 19.8088 31.2105 20.1739C36.4347 21.043 40.4011 25.5628 40.4891 30.7866C40.5154 32.0991 40.6386 33.4203 40.3395 34.7327C39.6448 37.7836 37.0151 39.9305 33.8578 40C33.7874 40 33.7171 40 33.6467 40C31.4304 40 29.2229 40 27.0066 40Z" fill="white"/>
<path d="M27.0418 17.7577C22.0728 17.7751 18.036 13.8377 18.0008 8.94415C17.9656 4.07671 22.0024 0.0263011 26.9275 0.000225524C31.9318 -0.0345419 36.0125 3.95502 36.0213 8.88331C36.0301 13.7681 32.0109 17.749 27.0418 17.7577Z" fill="white"/>
<path d="M9.06524 15.5846C9.90954 15.5846 10.7538 15.5846 11.5981 15.5846C12.6799 15.5933 13.6737 15.9149 14.5972 16.4364C16.4968 17.5055 16.5056 17.6881 14.8698 19.0353C11.3519 21.9384 9.36426 25.6324 9.08283 30.1783C9.03885 30.8823 8.84537 31.1518 8.1066 31.117C6.84015 31.0648 5.5737 31.1344 4.31605 31.0822C1.93266 30.9866 0.0945441 29.1439 0.0329805 26.7797C-0.0109935 25.1804 -0.0109935 23.5811 0.0329805 21.9905C0.120928 18.5659 2.95285 15.7498 6.4268 15.5933C7.30628 15.5586 8.18576 15.5933 9.06524 15.5933V15.5846Z" fill="white"/>
<path d="M45.0095 15.5935C46.2056 15.5935 47.4105 15.4544 48.5802 15.6804C51.676 16.2888 53.9274 18.992 53.9802 22.1384C54.0066 23.6334 54.0066 25.1197 53.9802 26.6147C53.9362 29.1615 52.0981 31.0041 49.53 31.0824C48.2636 31.1171 46.9971 31.065 45.7395 31.1084C45.1414 31.1258 44.9655 30.8998 44.9392 30.3262C44.6489 25.2936 42.3711 21.3214 38.2551 18.3836C37.6659 17.9663 37.6922 17.7404 38.1936 17.3145C39.3457 16.3236 40.6385 15.6804 42.1688 15.6022C43.1186 15.55 44.0685 15.5935 45.0095 15.5935Z" fill="white"/>
<path d="M2.29325 6.71883C2.27566 3.0074 5.26589 0.0087106 9.00368 1.87395e-05C12.7239 -0.00867312 15.7933 3.0074 15.7845 6.66668C15.7845 10.2912 12.7591 13.2986 9.10042 13.3333C5.35384 13.3681 2.31964 10.4129 2.29325 6.71014V6.71883Z" fill="white"/>
<path d="M51.72 6.71054C51.7024 10.4133 48.677 13.3685 44.9217 13.3424C41.2542 13.3164 38.2376 10.309 38.2288 6.68447C38.2288 3.0165 41.2982 0.000424407 45.0096 0.000424407C48.7474 0.000424407 51.7376 2.99912 51.72 6.71054Z" fill="white"/>
</svg>
