<svg width="45" height="45" viewBox="0 0 45 45" fill="none" xmlns="http://www.w3.org/2000/svg">
<path d="M44.1921 16.4472C43.8235 8.12053 42.2731 1.79964 32.9381 0.563651C27.8207 -0.108554 21.5323 -0.0977117 16.3498 0.173339C9.96386 0.498599 3.57792 1.1708 1.26857 8.17474C-0.455308 13.4223 -0.249309 28.7962 0.856576 34.3582C2.47204 42.5114 9.42176 43.6173 16.5016 43.9425C22.5406 44.2136 34.7053 44.6364 39.3674 40.7116C44.6475 36.2881 44.4957 22.9632 44.1921 16.4472ZM33.0682 31.767C32.5369 31.8862 32.0165 31.7995 31.5395 31.561C28.3302 29.9563 25.121 28.3626 21.9226 26.7579C20.9902 26.2809 20.5565 25.4894 20.5565 24.4378C20.5674 22.4645 20.5565 20.4913 20.5565 18.518C20.5565 16.5339 20.5457 14.5498 20.5674 12.5549C20.5782 11.1671 21.6082 10.1263 22.9417 10.1155C24.2103 10.1155 25.2836 11.0804 25.3378 12.3489C25.3812 13.509 25.3595 14.6691 25.3595 15.8292C25.3595 18.0843 25.3704 20.3395 25.3487 22.6055C25.3487 22.9741 25.4788 23.1584 25.804 23.321C28.4386 24.6221 31.0624 25.934 33.6862 27.2567C34.6403 27.7446 35.1282 28.7204 34.9872 29.7287C34.8354 30.7695 34.109 31.5393 33.0682 31.767Z" fill="#216D00"/>
</svg>
