<svg width="21" height="20" viewBox="0 0 21 20" fill="none" xmlns="http://www.w3.org/2000/svg">
<path d="M20.9226 8.66935C20.826 7.77166 20.3887 7.26383 19.4888 7.05865C17.928 6.69444 17.0586 5.20685 17.4094 3.63719C17.4551 3.42687 17.506 3.22682 17.5263 3.12423C17.5263 2.54971 17.3026 2.20602 16.962 1.91877C16.1231 1.19036 15.1926 0.610712 14.1707 0.169564C13.4589 -0.133083 13.0573 -0.0407502 12.5285 0.528638C11.293 1.86747 9.68642 1.86234 8.45095 0.50299C7.98828 -0.00997241 7.47477 -0.112565 6.85958 0.154175C5.93934 0.554286 5.09535 1.06212 4.3073 1.68793C3.7582 2.12395 3.57008 2.66256 3.7582 3.37558C4.23103 5.15556 3.28028 6.65341 1.47029 7.03813C0.636478 7.21253 0.306003 7.54083 0.153476 8.3667C-0.0295565 9.38236 -0.0600619 10.398 0.122971 11.4188C0.244992 12.1318 0.595804 12.5884 1.29743 12.6551C2.96506 12.8038 4.36322 14.6607 3.62601 16.5331C3.39722 17.1024 3.565 17.6308 4.02766 18.036C4.91232 18.8106 5.89866 19.4159 6.9816 19.8724C7.56121 20.1187 8.09505 20.0161 8.44586 19.498C9.51864 17.8975 11.7964 17.9488 12.8234 19.4313C13.1691 19.9289 13.6928 20.0058 14.2419 19.7698C15.2587 19.3338 16.1841 18.7439 17.0128 18.0001C17.4145 17.6359 17.5822 17.1794 17.445 16.6151C16.9467 14.553 17.689 13.3065 19.738 12.7628C20.3531 12.5935 20.7141 12.2293 20.8463 11.5932C21.0446 10.6186 21.0293 9.64911 20.9226 8.66935ZM16.9925 8.60266C15.94 9.62859 15.9044 10.5622 16.8755 11.6907C17.1247 11.9831 17.1958 12.3011 17.0789 12.6551C16.8247 13.3835 16.4586 14.0452 15.9858 14.6556C15.7265 14.989 15.3808 15.066 14.9689 14.9326C13.6114 14.4915 12.7065 15.0096 12.4065 16.4048C12.3048 16.8511 12.0608 17.1076 11.6032 17.1537C10.8456 17.2307 10.0881 17.1948 9.34069 17.046C8.86786 16.9588 8.59331 16.6869 8.49162 16.1842C8.23233 14.8916 7.1748 14.2658 5.93425 14.6556C5.42074 14.8146 5.00384 14.7274 4.68861 14.2914C4.27171 13.7118 3.93615 13.0911 3.72261 12.4037C3.57517 11.9215 3.71244 11.5573 4.07342 11.2342C5.09535 10.316 5.16145 9.25925 4.26154 8.23333C3.94632 7.87938 3.87514 7.50492 4.05817 7.07404C4.33272 6.41744 4.68353 5.80702 5.12586 5.24789C5.41566 4.88369 5.75122 4.81187 6.18338 4.95037C7.41885 5.34535 8.30859 4.84778 8.6594 3.58076C8.78142 3.10884 9.06106 2.878 9.53389 2.8421C10.2559 2.78054 10.9727 2.81132 11.6896 2.94982C12.1828 3.03702 12.4777 3.28837 12.6149 3.8116C12.8895 4.8683 13.8148 5.54541 14.8113 5.26841C15.757 5.0068 16.2451 5.4223 16.6671 6.14044C16.7281 6.24817 16.784 6.36102 16.845 6.47387C16.8552 6.46874 16.8704 6.46361 16.8806 6.46361C17.0179 6.79704 17.1552 7.14072 17.2772 7.47928C17.4246 7.90503 17.3382 8.26924 16.9925 8.60266Z" fill="url(#paint0_linear_133_1601)"/>
<path d="M14.6485 8.9055C13.8808 8.64389 13.6114 8.10015 13.7893 7.27428C13.8351 7.07936 13.8707 6.88443 13.7588 6.69464C13.6368 6.4638 12.8792 5.89441 12.4369 5.67897C12.1217 5.53021 11.8726 5.56099 11.6082 5.81234C11.0337 6.33556 10.3981 6.3253 9.88971 5.76104C9.57448 5.4071 9.26943 5.37119 8.88811 5.55586C8.60848 5.69436 8.33901 5.83799 8.06955 5.98675C7.68315 6.20732 7.5357 6.50997 7.61197 6.98189C7.73399 7.72056 7.31708 8.28995 6.55953 8.42845C6.0867 8.51052 5.86807 8.77726 5.81723 9.22354C5.78673 9.5108 5.75114 9.80319 5.74605 10.0904C5.73588 10.5726 5.88841 10.9009 6.42226 11.0548C7.13405 11.2446 7.51537 11.9166 7.28658 12.5732C7.09846 13.1323 7.25099 13.4811 7.69332 13.7786C7.94753 13.9479 8.20174 14.1172 8.45595 14.2865C8.8271 14.5378 9.13215 14.4968 9.45754 14.1531C9.97105 13.6196 10.6879 13.6196 11.1608 14.1839C11.5167 14.6096 11.8522 14.6404 12.2844 14.3737C12.503 14.2403 12.7216 14.1172 12.9453 13.9992C13.3673 13.7786 13.5249 13.4709 13.4385 12.9784C13.3063 12.2551 13.713 11.6806 14.4299 11.537C14.8977 11.4395 15.1112 11.1882 15.1824 10.7419C15.2332 10.4034 15.2485 10.0545 15.2332 9.71085C15.2282 9.30048 15.0655 9.04913 14.6485 8.9055ZM8.40511 11.1625C7.76958 10.0032 8.18649 8.5413 9.32535 7.89497C10.5201 7.21273 11.9946 7.64362 12.6403 8.84908C13.2606 10.0135 12.8436 11.4601 11.6844 12.1064C10.5151 12.7578 9.05081 12.3424 8.40511 11.1625Z" fill="url(#paint1_linear_133_1601)"/>
<defs>
<linearGradient id="paint0_linear_133_1601" x1="10.5" y1="0" x2="10.5" y2="20" gradientUnits="userSpaceOnUse">
<stop stop-color="#FF4E71"/>
<stop offset="1" stop-color="#FB0230"/>
</linearGradient>
<linearGradient id="paint1_linear_133_1601" x1="10.5" y1="0" x2="10.5" y2="20" gradientUnits="userSpaceOnUse">
<stop stop-color="#FF4E71"/>
<stop offset="1" stop-color="#FB0230"/>
</linearGradient>
</defs>
</svg>
