<svg width="22" height="20" viewBox="0 0 22 20" fill="none" xmlns="http://www.w3.org/2000/svg">
<path d="M19.1672 5.55219C19.033 8.41178 18.4231 11.1402 16.9227 13.6002C15.6296 15.7293 13.8121 17.2028 11.5188 18.0832C11.159 18.2205 10.8235 18.2143 10.4637 18.0769C6.93225 16.7221 4.80974 14.056 3.657 10.4722C3.07758 8.65528 2.84581 6.78843 2.79092 4.88412C2.77262 4.30346 2.99829 3.95382 3.51062 3.69158C5.8039 2.53651 8.09109 1.35646 10.3661 0.170171C10.8113 -0.0608433 11.1834 -0.0546007 11.6225 0.176414C13.8243 1.33149 16.0261 2.48656 18.2645 3.5792C18.9964 3.93509 19.3013 4.4096 19.1794 5.20254C19.1733 5.31493 19.1733 5.43356 19.1672 5.55219ZM8.62171 11.646C8.62781 12.133 9.01816 12.3827 9.4085 12.083C10.482 11.2651 11.5127 11.2152 12.5679 12.0893C12.7386 12.2266 12.9582 12.2766 13.1656 12.1205C13.3913 11.9519 13.3913 11.7272 13.3486 11.4836C13.2754 11.0528 13.2144 10.6158 13.1168 10.185C13.0436 9.86654 13.1168 9.62928 13.3486 9.417C13.6535 9.12979 13.9402 8.8301 14.239 8.53041C14.4159 8.34934 14.6172 8.18076 14.5318 7.88107C14.4403 7.5564 14.1597 7.53142 13.8975 7.48772C13.5559 7.43153 13.2144 7.36909 12.8667 7.34411C12.4459 7.31289 12.1592 7.14432 11.9945 6.72599C11.8421 6.33264 11.6408 5.96427 11.4578 5.58341C11.3541 5.37737 11.2139 5.21503 10.9638 5.22752C10.7381 5.24001 10.61 5.38985 10.5186 5.58341C10.3295 5.97676 10.1221 6.36386 9.95743 6.7697C9.80495 7.15056 9.54268 7.30665 9.16454 7.34411C8.7376 7.38782 8.31065 7.45026 7.88981 7.53767C7.38358 7.64381 7.2677 8.03091 7.62755 8.41802C7.93251 8.74893 8.25576 9.06736 8.58512 9.3733C8.84128 9.61055 8.93277 9.86654 8.85348 10.2287C8.75589 10.6969 8.701 11.184 8.62171 11.646Z" fill="url(#paint0_linear_133_1602)"/>
<path d="M3.6081 20C3.30924 19.1883 3.02868 18.4578 2.77252 17.7086C2.66273 17.3777 2.49805 17.1779 2.1626 17.0655C1.50389 16.847 0.869578 16.566 0.216968 16.3287C-0.0147998 16.2413 -0.0818906 16.1664 0.119382 15.9604C1.04645 15.0238 1.96743 14.081 2.8823 13.132C3.08967 12.9197 3.15676 13.0196 3.25435 13.2194C3.96795 14.6617 4.90112 15.9416 6.07216 17.0343C6.18195 17.1342 6.32223 17.2216 6.15145 17.3964C5.32196 18.2455 4.48638 19.1072 3.6081 20Z" fill="url(#paint1_linear_133_1602)"/>
<path d="M18.3927 19.9997C17.5144 19.1006 16.6788 18.2452 15.8371 17.3898C15.6969 17.2462 15.7884 17.1588 15.892 17.0652C17.0997 15.96 18.045 14.6489 18.7708 13.1754C18.8928 12.9319 18.9843 13.0068 19.1246 13.1504C20.0334 14.087 20.936 15.0235 21.857 15.9413C22.1193 16.2036 21.9851 16.2722 21.7411 16.3659C21.1373 16.5907 20.5457 16.8466 19.9358 17.0464C19.5576 17.1713 19.3381 17.3773 19.2161 17.7769C18.9721 18.495 18.6855 19.2067 18.3927 19.9997Z" fill="url(#paint2_linear_133_1602)"/>
<defs>
<linearGradient id="paint0_linear_133_1602" x1="11" y1="0" x2="11" y2="20" gradientUnits="userSpaceOnUse">
<stop stop-color="#FF4E71"/>
<stop offset="1" stop-color="#FB0230"/>
</linearGradient>
<linearGradient id="paint1_linear_133_1602" x1="11" y1="0" x2="11" y2="20" gradientUnits="userSpaceOnUse">
<stop stop-color="#FF4E71"/>
<stop offset="1" stop-color="#FB0230"/>
</linearGradient>
<linearGradient id="paint2_linear_133_1602" x1="11" y1="0" x2="11" y2="20" gradientUnits="userSpaceOnUse">
<stop stop-color="#FF4E71"/>
<stop offset="1" stop-color="#FB0230"/>
</linearGradient>
</defs>
</svg>
