<svg width="20" height="20" viewBox="0 0 20 20" fill="none" xmlns="http://www.w3.org/2000/svg">
<path d="M9.95289 15.9369C7.64722 15.9369 5.33601 15.9369 3.03034 15.9369C1.1847 15.9369 0.00415685 14.7618 0.00415685 12.9192C-0.00138562 9.60906 -0.00138562 6.30444 0.00415685 2.9943C0.00415685 1.18476 1.19025 0.00965457 3.00817 0.00413767C7.66939 -0.00137922 12.3306 -0.00137922 16.9974 0.00413767C18.8153 0.00413767 19.9958 1.17924 19.9958 2.9943C20.0014 6.31547 20.0014 9.64216 19.9958 12.9633C19.9903 14.7453 18.8042 15.9259 17.014 15.9314C14.664 15.9425 12.3084 15.9369 9.95289 15.9369ZM10.0028 11.5731C12.5578 11.5731 15.1129 11.5676 17.668 11.5786C18.0283 11.5786 18.1336 11.4848 18.1336 11.1207C18.1169 8.43948 18.128 5.75826 18.1225 3.07705C18.1225 2.2109 17.7899 1.87437 16.9253 1.87437C12.3084 1.87437 7.69156 1.87437 3.07468 1.87437C2.2156 1.87437 1.87751 2.2109 1.87751 3.07705C1.87751 5.74171 1.8886 8.40638 1.86643 11.071C1.86088 11.4848 1.97728 11.5786 2.38188 11.5786C4.92587 11.562 7.46432 11.5731 10.0028 11.5731ZM10.9284 13.7302C10.9173 13.2226 10.485 12.8033 9.9806 12.8144C9.48178 12.8254 9.06055 13.2612 9.06609 13.7633C9.07164 14.2708 9.49841 14.6846 10.0139 14.6736C10.5348 14.6625 10.9394 14.2433 10.9284 13.7302Z" fill="url(#paint0_linear_133_1603)"/>
<path d="M9.95268 19.9975C8.689 19.9975 7.43086 19.9975 6.16718 19.9975C5.46882 19.9975 5.05314 19.6886 5.0088 19.1479C4.95892 18.5907 5.29147 18.2321 6.0009 18.1384C6.25031 18.1053 6.24477 17.9673 6.25031 17.7963C6.3002 16.8695 6.30019 16.8695 7.2535 16.8695C9.25433 16.8695 11.2552 16.8805 13.256 16.864C13.6273 16.8584 13.8102 16.9467 13.7493 17.3439C13.7326 17.4653 13.7604 17.5922 13.7437 17.7136C13.7105 18.017 13.8047 18.1384 14.1428 18.1549C14.6693 18.1825 15.0185 18.6073 14.9963 19.1093C14.9742 19.6058 14.5917 19.992 14.0597 19.9975C12.6907 20.0031 11.3217 19.9975 9.95268 19.9975Z" fill="url(#paint1_linear_133_1603)"/>
<path d="M15.0685 3.03268C15.5174 3.03268 15.9608 3.06026 16.3987 3.14301C16.5705 3.17612 16.6703 3.27543 16.5539 3.42438C15.9109 4.24088 15.8112 5.23392 15.656 6.19938C15.4398 7.53999 14.7747 8.59923 13.6829 9.38815C12.8127 10.0171 11.8649 10.1053 10.8673 9.71916C10.5569 9.59778 10.5347 9.52055 10.6567 9.2116C11.0834 8.15788 11.6321 7.17587 12.3083 6.26007C12.3638 6.18283 12.4247 6.1056 12.4801 6.02836C12.5411 5.92905 12.5633 5.82423 12.4691 5.74148C12.3748 5.65321 12.2695 5.6863 12.1809 5.76354C11.9592 5.9787 11.7264 6.18283 11.5158 6.41454C10.9338 7.0545 10.4682 7.77721 10.0525 8.53303C9.99712 8.62681 9.97495 8.77025 9.8253 8.76474C9.68674 8.75922 9.65349 8.62129 9.6036 8.52199C8.89417 7.21449 9.33756 5.4215 10.6012 4.45052C11.9259 3.43542 13.439 3.04923 15.0685 3.03268Z" fill="url(#paint2_linear_133_1603)"/>
<path d="M6.44458 6.06158C7.07642 6.07814 7.80249 6.19398 8.42879 6.66844C8.68928 6.86705 8.87773 7.09324 8.87218 7.45736C8.86664 7.79389 8.97195 8.13042 9.14376 8.42282C9.26016 8.62142 9.24907 8.79796 9.16593 8.99657C9.05508 9.27242 8.9664 9.29448 8.76133 9.07381C8.22926 8.50557 7.63067 8.02008 6.95449 7.62838C6.91015 7.60631 6.87135 7.57873 6.82701 7.55666C6.71616 7.49046 6.60531 7.46287 6.52218 7.58976C6.44458 7.71113 6.52218 7.78837 6.60531 7.86009C7.11522 8.31799 7.60296 8.80348 8.04636 9.3331C8.08515 9.37724 8.12395 9.42138 8.1572 9.46551C8.48975 9.86824 8.46204 9.96203 7.94105 10.0999C7.13739 10.3151 6.45567 10.0007 5.81828 9.57033C5.37489 9.2669 5.08668 8.83658 4.83727 8.36764C4.5546 7.83802 4.28302 7.3084 3.76757 6.94981C3.56804 6.81188 3.73986 6.72361 3.86179 6.66844C4.63219 6.29881 5.44694 6.06158 6.44458 6.06158Z" fill="url(#paint3_linear_133_1603)"/>
<defs>
<linearGradient id="paint0_linear_133_1603" x1="10" y1="0" x2="10" y2="20" gradientUnits="userSpaceOnUse">
<stop stop-color="#FF4E71"/>
<stop offset="1" stop-color="#FB0230"/>
</linearGradient>
<linearGradient id="paint1_linear_133_1603" x1="10" y1="0" x2="10" y2="20" gradientUnits="userSpaceOnUse">
<stop stop-color="#FF4E71"/>
<stop offset="1" stop-color="#FB0230"/>
</linearGradient>
<linearGradient id="paint2_linear_133_1603" x1="10" y1="0" x2="10" y2="20" gradientUnits="userSpaceOnUse">
<stop stop-color="#FF4E71"/>
<stop offset="1" stop-color="#FB0230"/>
</linearGradient>
<linearGradient id="paint3_linear_133_1603" x1="10" y1="0" x2="10" y2="20" gradientUnits="userSpaceOnUse">
<stop stop-color="#FF4E71"/>
<stop offset="1" stop-color="#FB0230"/>
</linearGradient>
</defs>
</svg>
