<svg width="52" height="40" viewBox="0 0 52 40" fill="none" xmlns="http://www.w3.org/2000/svg">
<path d="M26.0063 39.9961C23.906 39.9961 21.8142 40.0048 19.7138 39.9961C15.8181 39.9788 13.0318 37.0934 13.0148 33.0694C13.0063 31.4442 12.9555 29.819 13.3875 28.2112C14.6663 23.4224 18.85 20.033 23.6774 20.0069C25.8031 19.9982 27.9373 19.807 30.0546 20.172C35.0852 21.0411 38.9047 25.5604 38.9894 30.7837C39.0148 32.096 39.1334 33.4171 38.8454 34.7294C38.1764 37.7799 35.6441 39.9266 32.6037 39.9961C32.536 39.9961 32.4682 39.9961 32.4005 39.9961C30.2747 39.9961 28.1405 39.9961 26.0063 39.9961Z" fill="#2563EB"/>
<path d="M26.0402 17.7559C21.2552 17.7733 17.3679 13.8363 17.334 8.94324C17.3002 4.07629 21.1875 0.0262984 25.9301 0.000225501C30.749 -0.0345384 34.6787 3.95462 34.6871 8.8824C34.6956 13.7667 30.8252 17.7472 26.0402 17.7559Z" fill="#2563EB"/>
<path d="M8.72948 15.5832C9.54251 15.5832 10.3555 15.5745 11.1686 15.5832C12.2103 15.5919 13.1673 15.9134 14.0565 16.4349C15.8858 17.5039 15.8943 17.6864 14.3191 19.0335C10.9314 21.9363 9.01743 25.63 8.74642 30.1753C8.70407 30.8793 8.51775 31.1487 7.80635 31.114C6.58681 31.0618 5.36727 31.1313 4.15619 31.0792C1.86108 30.9836 0.0910423 29.1411 0.031759 26.7772C-0.0105863 25.178 -0.0105863 23.5789 0.031759 21.9884C0.11645 18.5642 2.84349 15.7483 6.18876 15.5919C7.03567 15.5484 7.88257 15.5832 8.72948 15.5832Z" fill="#2563EB"/>
<path d="M43.3425 15.5919C44.4943 15.6006 45.6546 15.4528 46.7809 15.6788C49.7621 16.2872 51.9301 18.9901 51.9809 22.1362C52.0064 23.631 52.0064 25.1172 51.9809 26.612C51.9386 29.1585 50.1686 31.001 47.6956 31.0792C46.4761 31.114 45.2565 31.0618 44.0454 31.1053C43.4695 31.1227 43.3002 30.8967 43.2748 30.3231C42.9953 25.291 40.8018 21.3192 36.8383 18.3817C36.2708 17.9645 36.2963 17.7386 36.779 17.3127C37.8884 16.3219 39.1334 15.6788 40.607 15.6006C41.5132 15.5571 42.4278 15.5919 43.3425 15.5919Z" fill="#2563EB"/>
<path d="M2.20831 6.71836C2.19138 3.00731 5.07085 0.0089219 8.6702 0.00023092C12.2526 -0.00846006 15.2083 3.00731 15.1998 6.66621C15.1998 10.2903 12.2865 13.2974 8.76336 13.3322C5.15554 13.367 2.23372 10.4207 2.20831 6.71836Z" fill="#2563EB"/>
<path d="M49.8129 6.70967C49.7959 10.412 46.8826 13.367 43.2663 13.3409C39.7347 13.3148 36.8298 10.3077 36.8213 6.6836C36.8129 3.0247 39.7686 0.000239353 43.3425 0.00893033C46.9503 0.00893033 49.8298 2.99863 49.8129 6.70967Z" fill="#2563EB"/>
</svg>
