<svg width="40" height="40" viewBox="0 0 40 40" fill="none" xmlns="http://www.w3.org/2000/svg">
<path d="M19.0114 0.0607891C20.4539 -0.0994155 21.5257 0.0607891 22.8875 0.497009C27.9103 2.10292 33.1943 5.61004 38.1979 7.50162C39.7384 8.23122 40.4587 9.75606 39.6827 11.3736C39.1314 12.5201 36.621 13.4987 35.4512 14.07C32.6181 15.4501 23.8536 19.8605 21.2721 20.0883C15.2908 20.6152 7.66923 14.6877 1.98376 12.8212C-0.305799 11.5164 -0.776387 9.21947 1.59576 7.64831C6.52445 6.0675 14.1249 0.605099 19.0114 0.0607891Z" fill="#9333EA"/>
<path d="M3.20729 16.8726C7.39264 18.3878 11.5645 21.1402 15.7384 22.5435C18.6906 23.5356 21.3393 23.5414 24.2858 22.5415C28.4231 21.1383 32.4875 18.4708 36.6459 16.9942C38.3477 17.276 40.0976 18.4168 39.9958 20.3643C39.894 22.3119 37.1934 23.2441 35.7009 23.9757C33.0003 25.3017 23.8344 29.8762 21.4507 30.1156C15.4829 30.7158 6.92013 24.4852 1.2846 22.3968C-1.37759 20.1057 0.510528 17.7566 3.20344 16.8726H3.20729Z" fill="#9333EA"/>
<path d="M3.20729 26.7165C7.39264 28.2317 11.5645 30.9841 15.7384 32.3874C18.6906 33.3795 21.3393 33.3853 24.2858 32.3854C28.4231 30.9822 32.4875 28.3147 36.6459 26.8381C38.3477 27.1199 40.0976 28.2607 39.9958 30.2082C39.894 32.1558 37.1934 33.088 35.7009 33.8196C33.0003 35.1456 23.8344 39.7201 21.4507 39.9595C15.4829 40.5597 6.92013 34.3291 1.2846 32.2407C-1.37759 29.9496 0.510528 27.6005 3.20344 26.7165H3.20729Z" fill="#9333EA"/>
</svg>
