<svg width="40" height="40" viewBox="0 0 40 40" fill="none" xmlns="http://www.w3.org/2000/svg">
<path d="M15.5482 34.9799C14.1935 34.9799 12.9533 34.9799 11.713 34.9799C9.36614 34.9799 7.01924 34.9894 4.67234 34.9799C1.97245 34.9512 0.0166954 32.9947 0.00715519 30.2843C-0.00238506 23.4126 -0.00238506 16.5505 0.00715519 9.67889C0.00715519 7.15929 1.8675 5.14552 4.23349 4.99281C4.81544 4.95464 5.10165 5.07871 5.04441 5.7277C4.99671 6.21444 5.02533 6.71072 5.04441 7.20701C5.11119 9.60254 6.94292 11.559 9.33752 11.6068C12.5526 11.6831 15.7676 11.6736 18.9827 11.6068C21.3964 11.559 23.2663 9.57391 23.3331 7.15929C23.3426 6.75844 23.3331 6.34805 23.3331 5.93766C23.3331 4.92601 23.3998 4.86874 24.4397 5.02145C26.5672 5.32685 28.2463 7.13066 28.3322 9.28759C28.3894 10.7096 28.3322 12.1317 28.3608 13.5442C28.3608 14.0405 28.17 14.1836 27.7025 14.2123C25.8612 14.3077 24.0963 14.7563 22.4554 15.6057C22.0738 15.7966 21.6826 15.8156 21.2724 15.8156C16.4927 15.8156 11.713 15.8156 6.93338 15.8156C6.61855 15.8156 6.28464 15.7966 5.98889 15.8729C5.3497 16.0447 5.00625 16.4933 5.06349 17.1613C5.12073 17.7817 5.4928 18.1635 6.11292 18.2589C6.39912 18.2971 6.69487 18.2875 6.98108 18.2875C10.4537 18.2875 13.9359 18.2875 17.4086 18.2875H18.5439C17.7043 19.261 16.9983 20.0818 16.4068 20.9885C16.1874 21.332 15.8344 21.208 15.5291 21.208C12.543 21.208 9.56649 21.2175 6.58039 21.208C5.98889 21.208 5.4928 21.3511 5.19705 21.9047C4.72004 22.8018 5.37832 23.718 6.53269 23.7276C9.05131 23.7467 11.5699 23.7562 14.0886 23.7276C14.7945 23.7276 15.1571 23.823 14.7945 24.6152C14.5083 25.2451 14.7373 26.1708 14.1935 26.543C13.6306 26.9343 12.7911 26.6576 12.066 26.6671C10.2438 26.6862 8.41212 26.6671 6.58993 26.6766C5.5882 26.6766 5.03487 27.1443 5.05395 27.9269C5.06349 28.7 5.62636 29.1581 6.61855 29.1676C8.90821 29.1772 11.1979 29.1676 13.4875 29.1772C13.7737 29.1772 14.2126 29.034 14.2317 29.5207C14.3271 31.3818 14.7755 33.1665 15.5578 34.9799H15.5482Z" fill="#EA580C"/>
<path d="M28.7901 17.5049C22.5698 17.4954 17.5517 22.4678 17.5231 28.6713C17.4944 34.9226 22.5031 39.9904 28.7233 40C34.9054 40.0095 39.9713 34.9894 39.9999 28.824C40.0285 22.5727 35.0199 17.524 28.7901 17.5049ZM29.7346 35.3044C29.3434 35.6575 28.8378 35.8388 28.2177 35.8388C27.5976 35.8388 27.0728 35.667 26.6912 35.3139C26.3096 34.9703 26.1188 34.5218 26.1188 33.9873C26.1188 33.4528 26.3096 33.0043 26.6912 32.6511C27.0728 32.298 27.588 32.1167 28.2177 32.1167C28.8473 32.1167 29.3434 32.298 29.7346 32.6511C30.1162 33.0043 30.307 33.4528 30.307 33.9873C30.307 34.5218 30.1162 34.9512 29.7346 35.3044ZM32.7875 28.4136C32.0529 29.0626 31.0797 29.3967 29.8681 29.4253L29.7727 30.7614H26.6054L26.5004 27.1157H27.817C28.647 27.1157 29.2862 27.0202 29.725 26.8293C30.1639 26.648 30.3833 26.3044 30.3833 25.8177C30.3833 25.4836 30.2974 25.226 30.1162 25.0351C29.9349 24.8442 29.6964 24.7488 29.3911 24.7488C29.0477 24.7488 28.7901 24.8538 28.6184 25.0542C28.4371 25.2546 28.3512 25.5314 28.3512 25.875H24.9644C24.9358 25.1305 25.0885 24.4434 25.4224 23.8325C25.7658 23.2122 26.2715 22.7255 26.9584 22.3628C27.6357 22.0001 28.4848 21.8188 29.4865 21.8188C30.8126 21.8188 31.8811 22.1624 32.692 22.8495C33.4934 23.5367 33.8941 24.5102 33.8941 25.7795C33.8941 26.8866 33.5316 27.7742 32.7875 28.4136Z" fill="#EA580C"/>
<path d="M14.0981 9.99384C12.648 9.99384 11.2074 10.0129 9.75729 9.99384C7.8874 9.96521 6.74257 8.81993 6.68533 6.94932C6.66625 6.22398 6.66625 5.49864 6.68533 4.7733C6.71395 3.79028 7.1528 3.3608 8.13545 3.32262C8.24993 3.32262 8.36441 3.30354 8.4789 3.32262C9.29936 3.43715 9.78591 3.19855 10.2057 2.35869C11.0071 0.745759 12.4667 -0.0368442 14.2603 0.00133159C16.0825 0.0395074 17.4944 0.908006 18.2672 2.5782C18.5534 3.18901 18.8873 3.40852 19.517 3.32262C19.8318 3.28445 20.1562 3.29399 20.471 3.32262C21.0339 3.37989 21.53 3.6662 21.5967 4.23884C21.7494 5.52727 21.902 6.85388 21.4536 8.10414C21.0052 9.34485 20.0226 9.96521 18.6965 9.98429C17.1605 10.0034 15.6245 9.98429 14.0981 9.98429V9.99384Z" fill="#EA580C"/>
</svg>
