<svg width="40" height="40" viewBox="0 0 40 40" fill="none" xmlns="http://www.w3.org/2000/svg">
<path d="M20.0893 8.32351e-05C9.04179 -0.031421 0.0420887 8.88427 8.31376e-05 19.9107C-0.0314211 30.9582 8.89477 39.9579 19.9107 39.9999C30.9582 40.0314 39.9579 31.1052 39.9999 20.0893C40.0314 9.03129 31.1157 0.0420888 20.0893 8.32351e-05ZM30.6012 22.5256C28.8264 22.5571 27.0622 22.5256 25.298 22.5256C23.5652 22.5361 21.822 22.5466 20.0893 22.5256C18.346 22.5046 17.4744 21.6435 17.4744 19.8897C17.4534 16.4558 17.4639 13.0218 17.4744 9.58786C17.4744 7.94964 18.388 6.93101 19.7637 6.96251C21.0974 6.98351 21.948 7.99165 21.948 9.58786C21.969 12.1187 21.9795 14.6495 21.9375 17.1804C21.927 17.8735 22.158 18.0625 22.8301 18.052C25.3925 18.0205 27.9653 18.031 30.5277 18.052C32.0819 18.0625 33.0795 19.0076 33.0375 20.3518C32.9955 21.6225 32.0504 22.4941 30.6012 22.5256Z" fill="#16A34A"/>
</svg>
