<svg width="20" height="20" viewBox="0 0 20 20" fill="none" xmlns="http://www.w3.org/2000/svg">
<path d="M14.0461 18.8725C13.6457 18.8725 13.2551 18.7885 12.8646 18.6996C12.4839 18.6106 12.1824 18.6897 11.9006 18.9566C11.6534 19.1888 11.3914 19.4112 11.1096 19.604C10.3582 20.1279 9.67599 20.1328 8.92951 19.6139C8.61312 19.3964 8.32145 19.1394 8.02978 18.8824C7.79249 18.6748 7.54037 18.6205 7.23882 18.6847C6.95209 18.749 6.66042 18.7984 6.36875 18.8429C5.33061 19.0159 4.59402 18.6057 4.19359 17.6271C4.07494 17.3306 3.96618 17.034 3.87226 16.7276C3.77339 16.4014 3.55093 16.2235 3.23948 16.1197C2.89343 16.006 2.54739 15.8874 2.22111 15.7342C1.36588 15.329 0.940731 14.6123 1.17308 13.7079C1.4252 12.7491 1.27689 12.0226 0.565022 11.2813C-0.221003 10.4658 -0.151793 9.59104 0.555134 8.69649C0.639175 8.58777 0.718272 8.46915 0.822086 8.38513C1.36093 7.94528 1.43509 7.3868 1.24723 6.75914C1.20768 6.62076 1.18791 6.47249 1.16319 6.32917C1.005 5.36543 1.39554 4.62904 2.29526 4.23861C2.63637 4.09034 2.99231 3.96678 3.34824 3.84817C3.59542 3.76415 3.75361 3.61094 3.83765 3.36878C3.93158 3.10684 4.02551 2.84984 4.11943 2.59779C4.57424 1.36717 5.32072 0.902605 6.58132 1.22385C7.39207 1.43142 7.96552 1.26339 8.56863 0.695032C9.5524 -0.224222 10.4571 -0.234107 11.4359 0.680205C12.0489 1.2535 12.6273 1.42648 13.4529 1.21891C14.7184 0.902605 15.4402 1.36717 15.9098 2.60767C16.3893 3.88277 16.1026 3.63566 17.3929 4.10022C18.085 4.34734 18.6683 4.70812 18.8413 5.49887C18.9056 5.78058 18.9007 6.06229 18.8562 6.344C18.8265 6.52192 18.8067 6.70478 18.7523 6.87776C18.5744 7.46094 18.7079 7.94033 19.1627 8.35054C19.3555 8.52352 19.5087 8.74592 19.6521 8.96337C20.1118 9.65034 20.1168 10.3472 19.662 11.0391C19.5235 11.2467 19.3802 11.4641 19.1973 11.6272C18.6733 12.0819 18.5843 12.6256 18.7721 13.2582C18.8067 13.3669 18.8216 13.4806 18.8364 13.5942C19.0341 14.7161 18.6139 15.4673 17.5362 15.8726C16.0631 16.4261 16.419 16.0654 15.8554 17.5579C15.5143 18.4574 14.931 18.8824 14.0461 18.8725ZM10.022 17.3454C14.0807 17.3404 17.3632 14.0588 17.3632 10.0012C17.3583 5.96344 14.0362 2.64721 10.0023 2.65215C5.96338 2.65709 2.65614 5.97827 2.66109 10.0161C2.66603 14.0736 5.95349 17.3503 10.022 17.3454Z" fill="url(#paint0_linear_143_122)"/>
<path d="M16.0433 10.11C15.9939 13.3175 13.3936 16.0703 9.92817 16.0308C6.7297 15.9962 4.01074 13.4164 3.96131 10.1199C3.91187 6.68506 6.58633 3.97178 9.97761 3.96684C13.2354 3.95695 16.0681 6.58622 16.0433 10.11ZM7.52561 13.2187C7.51078 13.6437 7.69863 13.7722 8.03479 13.6338C8.10895 13.6042 8.1831 13.5597 8.25725 13.5251C8.58847 13.3521 8.91969 13.1742 9.25585 13.0012C9.77987 12.7393 10.3088 12.7393 10.8279 13.0012C11.2135 13.194 11.5942 13.4015 11.9797 13.5992C12.1281 13.6734 12.2912 13.7475 12.4444 13.6239C12.5878 13.5103 12.573 13.3422 12.5483 13.1841C12.4889 12.8134 12.4346 12.4428 12.3604 12.077C12.217 11.3802 12.395 10.797 12.919 10.3176C13.2058 10.0557 13.4776 9.7789 13.7495 9.50707C13.8682 9.38846 13.9819 9.25502 13.9176 9.07216C13.8534 8.89918 13.6902 8.85964 13.532 8.83493C13.181 8.78057 12.83 8.72126 12.4741 8.68172C11.7227 8.60759 11.1937 8.24186 10.8872 7.54995C10.7488 7.23859 10.5857 6.93217 10.4324 6.62576C10.3484 6.46266 10.2693 6.26992 10.0518 6.26497C9.81942 6.26003 9.74032 6.45772 9.65628 6.62576C9.46842 7.00137 9.2954 7.38192 9.09766 7.75258C8.83071 8.25669 8.40556 8.55322 7.842 8.64218C7.40696 8.70643 6.97193 8.76574 6.54184 8.83493C6.38859 8.85964 6.23534 8.90412 6.17602 9.06722C6.1167 9.23525 6.21557 9.35881 6.31938 9.47742C6.36387 9.52684 6.40837 9.57132 6.45286 9.6158C6.71981 9.87774 6.99171 10.1397 7.25866 10.4016C7.69863 10.8365 7.85188 11.3604 7.74807 11.9683C7.66403 12.4032 7.58988 12.8431 7.52561 13.2187Z" fill="url(#paint1_linear_143_122)"/>
<defs>
<linearGradient id="paint0_linear_143_122" x1="10" y1="0" x2="10" y2="20" gradientUnits="userSpaceOnUse">
<stop stop-color="#FF4E71"/>
<stop offset="1" stop-color="#FB0230"/>
</linearGradient>
<linearGradient id="paint1_linear_143_122" x1="10" y1="0" x2="10" y2="20" gradientUnits="userSpaceOnUse">
<stop stop-color="#FF4E71"/>
<stop offset="1" stop-color="#FB0230"/>
</linearGradient>
</defs>
</svg>
