<svg width="22" height="20" viewBox="0 0 22 20" fill="none" xmlns="http://www.w3.org/2000/svg">
<path d="M10.9938 20C7.87601 20 4.75817 20 1.64034 20C0.467073 20 -0.0598083 19.4534 0.00537291 18.3075C0.0379635 17.682 0.097713 17.0565 0.266098 16.4468C0.727798 14.7281 1.83588 13.5612 3.52516 12.9042C4.39424 12.5678 5.30135 12.3628 6.23561 12.2577C6.75706 12.1999 6.90372 12.2997 7.03409 12.7938C7.39801 14.213 8.0281 15.506 8.94064 16.6728C9.11445 16.8936 9.28827 17.1406 9.6359 17.0565C10.0161 16.9619 10.0759 16.6623 10.0976 16.3417C10.1193 16.0789 10.1302 15.8161 10.1954 15.5638C10.3529 14.9646 10.2388 14.4285 9.91292 13.8976C9.66849 13.5034 9.78799 13.351 10.2714 13.3457C10.7711 13.3404 11.2654 13.3352 11.7652 13.3457C12.1943 13.3562 12.3355 13.5297 12.0965 13.8555C11.4338 14.7701 11.8738 15.711 11.9498 16.6466C11.9661 16.8673 12.1399 17.0092 12.3627 17.0618C12.6397 17.1249 12.8189 16.9777 12.9764 16.7832C13.8618 15.6742 14.4973 14.4442 14.883 13.0934C14.921 12.9515 14.9482 12.8096 14.9916 12.6677C15.084 12.3575 15.2958 12.1999 15.6271 12.2419C16.9362 12.3943 18.2072 12.6729 19.3588 13.3299C21.0209 14.2813 21.7325 15.7793 21.9389 17.5611C21.9715 17.8502 21.9877 18.1446 21.9986 18.4337C22.0312 19.4428 21.488 19.9947 20.4506 19.9947C17.2893 20 14.1388 20 10.9938 20Z" fill="url(#paint0_linear_143_121)"/>
<path d="M15.964 5.17756C15.9097 6.64928 15.6164 8.18408 14.7853 9.58222C14.1172 10.707 13.221 11.5901 11.8793 11.916C10.5268 12.2418 9.34269 11.8687 8.33781 10.9751C7.09393 9.87131 6.5073 8.43638 6.20855 6.87004C6.01301 5.81881 5.88808 4.75706 6.15424 3.70057C6.75716 1.28274 9.08196 -0.262573 11.6512 0.0370279C14.0901 0.320861 15.9586 2.39705 15.964 4.83591C15.964 4.90949 15.964 4.98308 15.964 5.17756Z" fill="url(#paint1_linear_143_121)"/>
<defs>
<linearGradient id="paint0_linear_143_121" x1="11" y1="0" x2="11" y2="20" gradientUnits="userSpaceOnUse">
<stop stop-color="#FF4E71"/>
<stop offset="1" stop-color="#FB0230"/>
</linearGradient>
<linearGradient id="paint1_linear_143_121" x1="11" y1="0" x2="11" y2="20" gradientUnits="userSpaceOnUse">
<stop stop-color="#FF4E71"/>
<stop offset="1" stop-color="#FB0230"/>
</linearGradient>
</defs>
</svg>
