<svg width="23" height="20" viewBox="0 0 23 20" fill="none" xmlns="http://www.w3.org/2000/svg">
<path d="M11.4637 18.6701C10.4299 18.6701 9.39619 18.6756 8.36245 18.6645C8.12776 18.6645 7.99924 18.7253 7.87072 18.9462C7.26165 19.9958 5.99881 20.3051 5.00977 19.6754C4.04867 19.0622 3.80839 17.8194 4.4901 16.8307C4.60745 16.6594 4.61862 16.5379 4.52363 16.3556C3.80839 14.9913 3.09874 13.6214 2.41144 12.2404C2.27733 11.9753 2.08176 11.9974 1.86384 11.9753C0.869207 11.898 0.09809 11.1467 0.00868517 10.1801C-0.0807197 9.23552 0.528351 8.35173 1.45593 8.08659C1.48386 8.07554 1.51739 8.05897 1.53974 8.05897C2.25498 8.17497 2.45614 7.67231 2.70759 7.16965C3.28873 6.00414 3.89221 4.84416 4.49569 3.6897C4.60186 3.48532 4.60745 3.34723 4.46216 3.13733C3.79163 2.1762 4.05984 0.905742 5.03771 0.30918C6.03234 -0.298431 7.26165 0.0108963 7.85955 1.04936C7.98248 1.26478 8.10541 1.33659 8.34569 1.33659C10.4411 1.33107 12.5365 1.33107 14.6376 1.33659C14.8722 1.33659 15.0008 1.27583 15.1293 1.05488C15.7383 0.00537372 17.0012 -0.303955 17.9902 0.32575C18.9513 0.938884 19.1916 2.18172 18.5099 3.17047C18.3926 3.34171 18.3814 3.46323 18.4764 3.64551C19.1916 5.00987 19.9013 6.37976 20.5886 7.76069C20.7227 8.02583 20.9182 8.00373 21.1362 8.02583C22.1308 8.10316 22.9019 8.85439 22.9913 9.82104C23.0807 10.7656 22.4716 11.6494 21.5441 11.9145C21.5161 11.9256 21.4826 11.9422 21.4603 11.9422C20.7506 11.8262 20.5439 12.3288 20.2924 12.8315C19.7113 13.997 19.1078 15.157 18.5043 16.3114C18.3981 16.5158 18.3926 16.6539 18.5378 16.8638C19.2084 17.8249 18.9402 19.0954 17.9623 19.6919C16.9844 20.2885 15.7439 19.9902 15.1628 18.9904C15.0119 18.7253 14.8387 18.6645 14.5593 18.6645C13.5312 18.6756 12.4974 18.6701 11.4637 18.6701ZM19.2251 11.1412C19.1301 11.1578 19.0743 11.1633 19.0128 11.1799C16.8224 11.7157 14.632 12.257 12.4415 12.7983C12.2795 12.837 12.1566 12.8812 12.1175 13.0966C12.0727 13.3231 12.1733 13.417 12.3186 13.533C13.2909 14.3008 14.2632 15.0575 15.2299 15.8364C15.5819 16.1236 15.9004 16.4219 16.3921 16.0849C16.4983 16.0076 16.6883 16.0076 16.828 16.0242C17.0794 16.0573 17.1968 15.9413 17.3029 15.7314C17.6661 15.0023 18.0461 14.2787 18.4205 13.5551C18.7558 12.9088 19.0799 12.2625 19.4207 11.6218C19.5604 11.3456 19.4654 11.2075 19.2251 11.1412ZM6.01557 3.99903C5.85353 3.98245 5.81441 4.08741 5.76971 4.17579C5.03771 5.59539 4.3057 7.02051 3.5737 8.44011C3.51224 8.56163 4.13248 9.98676 4.26659 10.0309C5.63001 10.4784 6.98785 10.9258 8.35127 11.3622C8.66978 11.4671 8.89329 11.2517 8.77595 10.9424C7.93219 8.69972 7.07725 6.46261 6.22791 4.2255C6.18321 4.1095 6.1385 4.00455 6.01557 3.99903ZM7.58016 3.7836C7.56898 3.87198 7.55781 3.90513 7.56339 3.92722C8.3848 6.09805 9.20621 8.26887 10.0332 10.4397C10.1673 10.7877 10.6926 10.8429 10.9272 10.5391C11.4078 9.91495 11.8772 9.28523 12.3577 8.66105C12.4751 8.51191 12.4807 8.39039 12.3913 8.22468C12.1957 7.87669 12.151 7.49555 12.2013 7.10889C12.2236 6.9487 12.2069 6.83271 12.056 6.73328C10.5752 5.75558 9.10004 4.77787 7.58016 3.7836ZM14.7828 17.3333C14.794 17.3002 14.8052 17.267 14.8164 17.2394C14.7102 17.1455 14.604 17.0461 14.4923 16.9577C13.5479 16.2065 12.5924 15.4718 11.6593 14.7095C11.3855 14.4831 11.1564 14.356 10.7987 14.5494C10.5361 14.6985 10.212 14.704 9.92145 14.6377C9.6197 14.5659 9.45766 14.6874 9.29561 14.9139C8.87653 15.4939 8.44068 16.0518 8.01042 16.6207C7.90425 16.7588 7.78691 16.8748 7.89866 17.0903C8.01042 17.3112 8.16129 17.3333 8.36804 17.3333C9.88233 17.3278 11.391 17.3333 12.9053 17.3333C13.5256 17.3333 14.1514 17.3333 14.7828 17.3333ZM6.30614 16.0076C6.62464 16.1347 6.80904 15.9966 6.98226 15.748C7.24489 15.3669 7.52987 15.0078 7.81484 14.6433C8.18364 14.1737 8.60831 13.7595 8.20599 13.0579C8.07747 12.8315 8.01042 12.6547 7.7422 12.5719C6.47377 12.1686 5.21652 11.7488 3.95367 11.3401C3.82515 11.3014 3.67428 11.1578 3.54576 11.3235C3.44518 11.4561 3.57929 11.5776 3.64076 11.6881C4.30012 12.9806 4.97624 14.2676 5.63001 15.5602C5.78088 15.864 5.92058 16.1181 6.30614 16.0076ZM8.54685 2.67886C8.53567 2.71753 8.5245 2.75619 8.51332 2.78933C9.96615 3.74494 11.4134 4.70054 12.8662 5.65614C12.9277 5.69481 12.9836 5.72796 13.073 5.68929C13.7547 5.37444 14.5649 5.25844 14.8946 4.4354C14.9672 4.2476 15.1516 4.10951 15.2522 3.92722C15.3416 3.76704 15.6601 3.60685 15.459 3.42456C15.1796 3.17047 15.1907 2.63467 14.5928 2.65676C13.3859 2.70095 12.1733 2.67333 10.9608 2.66781C10.1617 2.67886 9.35149 2.67886 8.54685 2.67886ZM19.5269 8.61134C18.739 7.07575 17.9958 5.6451 17.2582 4.20893C17.1074 3.91065 16.9453 3.93275 16.7665 4.17027C16.3977 4.65636 16.0457 5.15349 15.6713 5.62853C15.5372 5.79977 15.5819 5.89919 15.7104 6.03728C16.0233 6.37423 16.2021 6.77747 16.2133 7.24146C16.2189 7.40165 16.2468 7.51765 16.4256 7.57841C17.4259 7.90983 18.4261 8.24678 19.5269 8.61134ZM11.9219 11.4505C11.9386 11.4782 11.961 11.5003 11.9778 11.5279C14.2352 10.97 16.4983 10.4176 18.7558 9.8597C17.7835 9.4399 16.8224 9.11953 15.8669 8.78811C15.7048 8.73287 15.5875 8.77153 15.459 8.87648C14.9952 9.26314 14.4587 9.37914 13.8664 9.29629C13.7379 9.27972 13.6038 9.23 13.4976 9.36809C12.978 10.0696 12.4527 10.7601 11.9219 11.4505Z" fill="url(#paint0_linear_143_123)"/>
<defs>
<linearGradient id="paint0_linear_143_123" x1="11.5" y1="0" x2="11.5" y2="20" gradientUnits="userSpaceOnUse">
<stop stop-color="#FF4E71"/>
<stop offset="1" stop-color="#FB0230"/>
</linearGradient>
</defs>
</svg>
