<svg width="15" height="20" viewBox="0 0 15 20" fill="none" xmlns="http://www.w3.org/2000/svg">
<path d="M14.9755 11.1189C14.9755 8.52636 14.9853 5.93875 14.9755 3.35114C14.9755 3.31186 14.9755 3.27257 14.9755 3.23329C14.9755 3.21856 14.9755 3.20383 14.9755 3.1891C14.9755 3.14491 14.9706 3.09581 14.9657 3.05162C14.9608 3.00743 14.9559 2.96324 14.9509 2.91905C14.9509 2.91414 14.9509 2.90923 14.9509 2.90432C14.946 2.86013 14.9362 2.81594 14.9313 2.77174C14.9215 2.72264 14.9166 2.67845 14.9068 2.63426C14.8725 2.47223 14.8283 2.31511 14.7695 2.16781C14.7596 2.14817 14.7547 2.12852 14.7449 2.10888C14.74 2.08924 14.7302 2.07452 14.7253 2.05488C14.7106 2.02542 14.7008 1.99595 14.6861 1.96649C14.6714 1.93212 14.6517 1.89775 14.637 1.86338C14.2152 0.999201 13.4353 0.360892 12.4787 0.115388C12.4493 0.105567 12.4199 0.100661 12.3954 0.0957505C12.312 0.0761102 12.2335 0.0613769 12.1501 0.0466467C11.9784 0.0220963 11.8067 0.00736512 11.6302 0.00736512C8.87345 -0.00245504 6.11674 -0.00245504 3.36004 0.00736512C3.18345 0.00736512 3.01177 0.0220963 2.845 0.0466467C2.76161 0.0613769 2.67822 0.0761102 2.59483 0.0957505H2.58993C1.09876 0.434546 0.0147155 1.74554 0.00981032 3.35114C-9.13659e-09 5.93875 0.00490516 8.53127 0.00981032 11.1189C0.00981032 11.1631 0 11.2073 0 11.2515V11.276C0 11.4822 0 11.6835 0 11.8849C0 13.4561 1.1238e-07 15.0273 0.00490528 16.5985V16.6182C0.00490528 16.7655 0.0147155 16.9128 0.029431 17.0552C0.0343361 17.1092 0.0441466 17.1583 0.0539569 17.2123C0.0686724 17.2909 0.0833879 17.3694 0.103009 17.4431C0.456181 18.9357 1.76095 19.9914 3.39928 19.9963C4.5569 20.0012 5.71452 20.0012 6.87214 19.9963C6.94081 19.9963 7.00948 19.9963 7.07816 19.9963C7.08797 19.9963 7.10268 19.9963 7.11249 19.9963C7.24003 19.9963 7.36756 19.9963 7.5 19.9963C7.62753 19.9963 7.75507 19.9963 7.88751 19.9963C7.89732 19.9963 7.91203 19.9963 7.92184 19.9963H7.96599C8.01504 19.9963 8.069 19.9963 8.11805 19.9963H8.13277C9.29039 19.9963 10.448 20.0012 11.6056 19.9963C13.5334 19.9914 14.9951 18.5331 14.9951 16.6182C14.9951 14.8358 15 13.0584 15 11.276V11.2711C15 11.2711 15 11.2662 15 11.2613V11.2564C14.9853 11.2122 14.9755 11.1631 14.9755 11.1189ZM3.00196 3.34622C4.10562 3.3364 6.38162 3.34132 7.48528 3.34132C8.56442 3.34132 9.63865 3.33641 10.7178 3.34132C11.326 3.34132 11.6351 3.62119 11.64 4.15148C11.6449 4.70141 11.3309 4.99601 10.7129 4.99601C8.55461 4.99601 5.22891 4.99601 3.07554 4.99601C2.54578 4.99601 2.24166 4.75542 2.1828 4.31842C2.10432 3.73412 2.41334 3.35113 3.00196 3.34622ZM4.81197 11.6786C4.28221 11.6885 3.62982 11.6885 3.09516 11.6786C2.50654 11.6639 2.19752 11.3644 2.20242 10.8292C2.20733 10.3136 2.51145 10.0141 3.08535 10.0092C4.14977 9.99939 3.73283 9.99939 4.80216 10.0092C5.38097 10.0141 5.71452 10.3431 5.70471 10.8587C5.6949 11.3644 5.37606 11.6688 4.81197 11.6786ZM7.43133 8.33487C6.90157 8.34469 6.36691 8.33487 5.83224 8.33487C5.29758 8.33487 3.59549 8.34469 3.06573 8.33487C2.47711 8.32014 2.16808 8.02063 2.17299 7.48543C2.17789 6.96987 2.48201 6.67035 3.05592 6.66544C4.12034 6.65562 6.3571 6.65562 7.42152 6.66544C8.00033 6.67035 8.33388 6.99933 8.32407 7.51489C8.31426 8.01572 7.99052 8.32014 7.43133 8.33487ZM12.8957 12.0076C12.8957 12.5526 12.8957 13.0976 12.8957 13.6476C12.8957 13.9471 12.7829 14.1239 12.5523 14.1926C12.3365 14.2564 12.1599 14.173 11.9931 13.9275C11.8264 13.682 11.6596 13.4364 11.4977 13.1909C11.4339 13.0927 11.3849 13.0731 11.2966 13.1664C10.963 13.5101 10.6148 13.844 10.2812 14.1926C10.0801 14.4037 10.0016 14.6738 10.0065 14.9684C10.0065 15.7147 10.0065 16.4611 10.0065 17.2123C10.0065 17.9783 9.46207 18.5478 8.75082 18.5429C8.05919 18.538 7.50491 17.9586 7.5 17.2172C7.4951 16.2057 7.4951 15.1943 7.5 14.1828C7.5 13.677 7.6864 13.245 8.03957 12.8865C8.51537 12.4053 8.98627 11.9241 9.47188 11.4577C9.62394 11.3104 9.5896 11.2515 9.43264 11.1533C9.18738 11.001 8.95683 10.8292 8.71158 10.6721C8.52518 10.5493 8.43198 10.3873 8.48594 10.1614C8.54971 9.91592 8.72139 9.79807 8.96174 9.79807C10.1095 9.79316 11.2574 9.79316 12.4052 9.79807C12.7142 9.79807 12.8859 9.99448 12.8859 10.3136C12.9006 10.8685 12.8957 11.438 12.8957 12.0076Z" fill="url(#paint0_linear_143_124)"/>
<defs>
<linearGradient id="paint0_linear_143_124" x1="7.5" y1="0" x2="7.5" y2="20" gradientUnits="userSpaceOnUse">
<stop stop-color="#FF4E71"/>
<stop offset="1" stop-color="#FB0230"/>
</linearGradient>
</defs>
</svg>
