<svg width="16" height="20" viewBox="0 0 16 20" fill="none" xmlns="http://www.w3.org/2000/svg">
<path d="M15.9985 11.2865C15.9985 9.30408 15.9985 7.31578 15.9985 5.33333C15.9985 4.50877 15.699 3.81286 15.0941 3.25146C14.2072 2.42105 13.3027 1.60818 12.4159 0.783623C11.8403 0.245612 11.159 0 10.372 0C7.87006 0.00584795 5.37396 0 2.87198 0C1.18051 0 0 1.16374 0 2.84795C0 7.61403 0 12.3801 0 17.1462C0 17.3275 1.11584e-07 17.5088 0.029366 17.6784C0.270166 19.076 1.3802 19.9942 2.83674 20C6.27843 20 9.71423 20 13.1559 20C13.3908 20 13.6316 19.9825 13.8607 19.924C15.1587 19.614 15.9927 18.5555 15.9927 17.193C16.0044 15.2222 15.9985 13.2515 15.9985 11.2865ZM12.2691 9.5497C12.2691 10.0409 12.0811 10.3333 11.7052 10.4444C11.347 10.5497 11.0592 10.4152 10.7773 10.0058C10.5012 9.60233 10.2252 9.19883 9.95503 8.78947C9.84932 8.63158 9.77296 8.59648 9.62613 8.74853C9.07406 9.31578 8.49849 9.86549 7.94641 10.4444C7.61164 10.7953 7.4883 11.2339 7.4883 11.7193C7.49417 12.9474 7.49417 14.1813 7.4883 15.4094C7.48243 16.6667 6.5897 17.6082 5.40919 17.5965C4.26393 17.5848 3.34771 16.6316 3.34184 15.4152C3.33009 13.7485 3.33596 12.0819 3.34184 10.4152C3.34184 9.57894 3.64724 8.86549 4.23456 8.27485C5.02157 7.48537 5.8027 6.69006 6.60732 5.92398C6.85987 5.68421 6.80701 5.5848 6.54272 5.42105C6.13747 5.17544 5.74984 4.88889 5.35046 4.62573C5.03918 4.42105 4.88648 4.15789 4.98045 3.78363C5.08617 3.38012 5.36808 3.18713 5.76746 3.18713C7.67037 3.18128 9.5674 3.17544 11.4644 3.18713C11.9754 3.18713 12.2632 3.51462 12.2632 4.03508C12.2691 4.97076 12.2632 5.91228 12.2632 6.8538C12.2749 7.75438 12.2749 8.64911 12.2691 9.5497Z" fill="url(#paint0_linear_143_120)"/>
<defs>
<linearGradient id="paint0_linear_143_120" x1="8" y1="0" x2="8" y2="20" gradientUnits="userSpaceOnUse">
<stop stop-color="#FF4E71"/>
<stop offset="1" stop-color="#FB0230"/>
</linearGradient>
</defs>
</svg>
