<svg width="16" height="20" viewBox="0 0 16 20" fill="none" xmlns="http://www.w3.org/2000/svg">
<path d="M11.3756 9.0707C10.7374 8.61166 10.7374 7.77098 11.381 7.3064C11.558 7.1792 11.5902 7.05753 11.4883 6.86949C11.3542 6.62061 11.2147 6.37172 11.0699 6.12284C10.968 5.94585 10.8393 5.9016 10.6677 5.99563C10.0348 6.36065 9.19817 5.92373 9.16599 5.09965C9.16062 4.89501 9.05336 4.80652 8.86028 4.80652C8.62966 4.80099 8.39368 4.81205 8.16306 4.80099C7.85735 4.78993 7.73936 4.86736 7.70182 5.20474C7.62137 5.93479 6.90806 6.32194 6.26447 6.01222C6.20011 5.98456 6.14111 5.94586 6.09821 5.95139C5.9534 5.95692 5.87295 6.01775 5.81395 6.12284C5.67987 6.36619 5.54043 6.60955 5.40635 6.8529C5.29908 7.052 5.3259 7.16815 5.50825 7.30088C6.14648 7.75993 6.14648 8.60061 5.50289 9.06519C5.3259 9.19239 5.29372 9.31406 5.39562 9.5021C5.5297 9.75098 5.66915 9.99987 5.81395 10.2488C5.91586 10.4257 6.04457 10.47 6.2162 10.376C6.8437 10.0109 7.68573 10.4423 7.71791 11.2719C7.72327 11.471 7.83054 11.5651 8.02361 11.5651C8.29714 11.5706 8.57067 11.5706 8.84419 11.5651C9.05872 11.5651 9.14453 11.4766 9.16599 11.2498C9.24107 10.4423 9.93829 10.0331 10.6516 10.3704C10.8447 10.4644 10.968 10.4257 11.0807 10.2322C11.2147 9.99434 11.3488 9.75651 11.4829 9.51869C11.5848 9.31959 11.558 9.19791 11.3756 9.0707ZM8.42049 10.0607C7.41757 10.0496 6.61844 9.22004 6.61844 8.18027C6.61844 7.13496 7.43366 6.30535 8.44731 6.31088C9.46097 6.31641 10.2601 7.15155 10.2547 8.19686C10.2494 9.24216 9.43415 10.0718 8.42049 10.0607ZM8.42586 7.06305C7.83054 7.06858 7.34784 7.57189 7.34248 8.1858C7.34248 8.80524 7.8359 9.31406 8.43658 9.31406C9.03727 9.31406 9.52532 8.80524 9.52532 8.18027C9.52532 7.56083 9.0319 7.05752 8.42586 7.06305ZM11.3756 9.0707C10.7374 8.61166 10.7374 7.77098 11.381 7.3064C11.558 7.1792 11.5902 7.05753 11.4883 6.86949C11.3542 6.62061 11.2147 6.37172 11.0699 6.12284C10.968 5.94585 10.8393 5.9016 10.6677 5.99563C10.0348 6.36065 9.19817 5.92373 9.16599 5.09965C9.16062 4.89501 9.05336 4.80652 8.86028 4.80652C8.62966 4.80099 8.39368 4.81205 8.16306 4.80099C7.85735 4.78993 7.73936 4.86736 7.70182 5.20474C7.62137 5.93479 6.90806 6.32194 6.26447 6.01222C6.20011 5.98456 6.14111 5.94586 6.09821 5.95139C5.9534 5.95692 5.87295 6.01775 5.81395 6.12284C5.67987 6.36619 5.54043 6.60955 5.40635 6.8529C5.29908 7.052 5.3259 7.16815 5.50825 7.30088C6.14648 7.75993 6.14648 8.60061 5.50289 9.06519C5.3259 9.19239 5.29372 9.31406 5.39562 9.5021C5.5297 9.75098 5.66915 9.99987 5.81395 10.2488C5.91586 10.4257 6.04457 10.47 6.2162 10.376C6.8437 10.0109 7.68573 10.4423 7.71791 11.2719C7.72327 11.471 7.83054 11.5651 8.02361 11.5651C8.29714 11.5706 8.57067 11.5706 8.84419 11.5651C9.05872 11.5651 9.14453 11.4766 9.16599 11.2498C9.24107 10.4423 9.93829 10.0331 10.6516 10.3704C10.8447 10.4644 10.968 10.4257 11.0807 10.2322C11.2147 9.99434 11.3488 9.75651 11.4829 9.51869C11.5848 9.31959 11.558 9.19791 11.3756 9.0707ZM8.42049 10.0607C7.41757 10.0496 6.61844 9.22004 6.61844 8.18027C6.61844 7.13496 7.43366 6.30535 8.44731 6.31088C9.46097 6.31641 10.2601 7.15155 10.2547 8.19686C10.2494 9.24216 9.43415 10.0718 8.42049 10.0607ZM8.42586 7.06305C7.83054 7.06858 7.34784 7.57189 7.34248 8.1858C7.34248 8.80524 7.8359 9.31406 8.43658 9.31406C9.03727 9.31406 9.52532 8.80524 9.52532 8.18027C9.52532 7.56083 9.0319 7.05752 8.42586 7.06305ZM15.028 18.1798C11.9441 18.1743 8.86028 18.1798 5.77641 18.1743C5.55652 18.1743 5.33663 18.1798 5.1221 18.1466C4.43024 18.0526 3.98509 17.4608 4.06017 16.7418C4.12989 16.0615 4.66622 15.6301 5.48143 15.6301C8.39368 15.6246 11.3059 15.6301 14.2182 15.6301C15.0441 15.6301 15.4356 15.3536 15.7467 14.5517C15.8915 14.1866 15.9773 13.8105 15.9773 13.4179C15.9827 9.7344 15.9988 6.05647 15.9773 2.37301C15.972 1.08988 15.0656 -0.0217982 13.6121 0.000324647C10.1046 0.0501011 6.59699 0.0335144 3.08942 0.00586077C2.2903 0.000330049 1.78615 0.337703 1.41609 1.00692C1.00312 1.74251 0.756409 2.54445 0.600875 3.36853C-0.176796 7.49998 -0.16607 11.648 0.439977 15.7961C0.606238 16.9299 0.874401 18.0471 1.44291 19.0481C1.80224 19.6786 2.2903 20.016 3.05188 19.9994C5.00947 19.9607 6.96705 19.9884 8.92464 19.9884C10.9734 19.9884 13.0275 19.9884 15.0763 19.9884C15.6287 19.9884 15.9398 19.7063 15.9934 19.1753C16.0524 18.5448 15.7145 18.1798 15.028 18.1798ZM4.7413 6.53764C4.89148 6.25558 5.04701 5.9735 5.20791 5.7025C5.4868 5.23792 6.02312 5.07753 6.50581 5.30429C6.80616 5.44808 6.9456 5.36513 6.98314 5.02223C7.0475 4.4415 7.44975 4.0654 8.01289 4.05987C8.29714 4.05434 8.58139 4.05434 8.86564 4.05987C9.42878 4.0654 9.83103 4.4415 9.89539 5.02223C9.93293 5.36513 10.0724 5.4481 10.3781 5.29877C10.8554 5.07201 11.3971 5.2324 11.6706 5.69698C11.8315 5.97351 11.9871 6.25004 12.1372 6.53211C12.3893 7.01328 12.2606 7.57188 11.8315 7.89266C11.5526 8.09729 11.558 8.26876 11.8315 8.47339C12.2552 8.78311 12.3893 9.34724 12.1426 9.81736C11.9924 10.105 11.8315 10.3926 11.6653 10.6691C11.3864 11.1337 10.85 11.2941 10.3674 11.0673C10.067 10.9235 9.92757 11.0065 9.89003 11.3494C9.82567 11.9301 9.42342 12.3007 8.86028 12.3117C8.71547 12.3117 8.57603 12.3117 8.43122 12.3117C8.29178 12.3117 8.14697 12.3117 8.00216 12.3117C7.43902 12.3062 7.03678 11.9301 6.97242 11.3494C6.93487 11.0065 6.79543 10.929 6.48972 11.0728C6.0124 11.2996 5.47071 11.1392 5.19718 10.6746C5.03628 10.3981 4.88075 10.1215 4.73058 9.83948C4.47851 9.35831 4.60722 8.79971 5.03628 8.47893C5.31517 8.27429 5.30981 8.10283 5.03628 7.89819C4.61259 7.58294 4.48387 7.01881 4.7413 6.53764ZM5.49752 9.0707C5.32054 9.19791 5.28836 9.31959 5.39026 9.50764C5.52434 9.75652 5.66378 10.0054 5.80859 10.2543C5.91049 10.4313 6.03921 10.4755 6.21083 10.3815C6.83834 10.0165 7.68037 10.4479 7.71254 11.2775C7.71791 11.4766 7.82517 11.5706 8.01825 11.5706C8.29178 11.5761 8.5653 11.5761 8.83883 11.5706C9.05336 11.5706 9.13917 11.4821 9.16062 11.2553C9.23571 10.4479 9.93293 10.0386 10.6462 10.376C10.8393 10.47 10.9627 10.4313 11.0753 10.2377C11.2094 9.99988 11.3435 9.76205 11.4775 9.52423C11.5848 9.32512 11.558 9.20898 11.3756 9.07624C10.7374 8.61719 10.7374 7.77652 11.381 7.31194C11.558 7.18473 11.5902 7.06305 11.4883 6.87501C11.3542 6.62613 11.2147 6.37726 11.0699 6.12837C10.968 5.95139 10.8393 5.90714 10.6677 6.00116C10.0348 6.36619 9.19817 5.92926 9.16599 5.10519C9.16062 4.90055 9.05336 4.81206 8.86028 4.81206C8.62966 4.80653 8.39368 4.81758 8.16306 4.80652C7.85735 4.79546 7.73936 4.8729 7.70182 5.21027C7.62137 5.94033 6.90806 6.32747 6.26447 6.01775C6.20011 5.9901 6.14111 5.95138 6.09821 5.95691C5.9534 5.96244 5.87295 6.02329 5.81395 6.12837C5.67987 6.37173 5.54043 6.61506 5.40635 6.85842C5.29908 7.05752 5.3259 7.17367 5.50825 7.3064C6.14648 7.76545 6.14111 8.60612 5.49752 9.0707ZM8.44731 6.31642C9.46097 6.32195 10.2601 7.15709 10.2547 8.20239C10.2494 9.2477 9.43415 10.0718 8.42049 10.0607C7.41757 10.0496 6.61844 9.22004 6.61844 8.18027C6.62381 7.14049 7.43366 6.31089 8.44731 6.31642ZM8.44195 9.31406C9.04263 9.31406 9.53069 8.80524 9.53069 8.18027C9.52532 7.56083 9.0319 7.05752 8.42586 7.06305C7.83054 7.06858 7.34784 7.57189 7.34248 8.1858C7.34784 8.81077 7.8359 9.31406 8.44195 9.31406Z" fill="url(#paint0_linear_143_125)"/>
<defs>
<linearGradient id="paint0_linear_143_125" x1="8" y1="0" x2="8" y2="20" gradientUnits="userSpaceOnUse">
<stop stop-color="#FF4E71"/>
<stop offset="1" stop-color="#FB0230"/>
</linearGradient>
</defs>
</svg>
