<svg width="20" height="20" viewBox="0 0 20 20" fill="none" xmlns="http://www.w3.org/2000/svg">
<path d="M0 9.98527C0 7.04566 0 4.10604 0 1.16053C0 0.341679 0.341492 0.00589102 1.15989 0.00589102C4.34518 0.00589102 7.52459 0.00589102 10.7099 0C10.9101 0 11.0514 0.0589102 11.1927 0.200295C12.3879 1.40795 13.589 2.60972 14.796 3.8056C14.9373 3.94698 15.0021 4.08247 15.0021 4.28866C14.9962 9.13697 14.9962 13.9853 14.9962 18.8277C14.9962 19.6524 14.6488 20 13.8186 20C9.60298 20 5.38143 20 1.16578 20C0.382706 20 0 19.6171 0 18.8336C0 15.8881 0 12.9367 0 9.98527ZM9.51466 14.0029C10.0446 14.0029 10.5686 14.0088 11.0985 14.0029C11.4694 13.9971 11.8403 14.0383 12.2113 13.9794C12.594 13.9205 12.8471 13.6907 12.9472 13.3137C13.1356 12.6127 12.6764 12.0177 11.9404 12.0118C10.3213 12.0059 8.70214 12.0118 7.07712 12.0118C7.01824 12.0118 6.95936 12.0118 6.90048 12.0177C6.47067 12.0648 6.06442 12.4713 6.01143 12.9072C5.95255 13.3432 6.20572 13.7555 6.62964 13.9323C6.7945 14.0029 6.97114 14.0088 7.14777 14.0088C7.93085 14.0029 8.7257 14.0029 9.51466 14.0029ZM9.52643 16.0118C8.68448 16.0118 7.84842 16.0059 7.00646 16.0118C6.47656 16.0177 6.00554 16.489 5.99965 17.0015C5.98788 17.5376 6.40591 17.9971 6.97702 18.0029C8.66682 18.0147 10.3566 18.0147 12.0405 18.0029C12.5174 17.9971 12.8354 17.732 12.9472 17.3137C13.1239 16.6244 12.6705 16.0236 11.9581 16.0177C11.1456 16 10.3331 16.0059 9.52643 16.0118ZM9.49111 10.0029C10.3213 10.0029 11.1515 10.0088 11.9816 10.0029C12.4998 9.99706 12.8354 9.74374 12.9472 9.3137C13.1298 8.60088 12.6646 8.01767 11.8992 8.01767C10.2977 8.01178 8.69626 8.01767 7.09478 8.01767C7.00646 8.01767 6.91815 8.02357 6.82983 8.04124C6.27638 8.14139 5.89367 8.7246 6.0232 9.27246C6.12329 9.7025 6.52366 10.0088 7.02413 10.0147C7.84842 10.0088 8.67271 10.0029 9.49111 10.0029ZM8.49607 6.00884C8.96121 6.00884 9.43223 6.00884 9.89737 6.00884C9.91503 6.00884 9.93858 6.00884 9.95624 6.00884C10.5921 5.99706 10.9866 5.61414 10.9866 5.01915C10.9866 4.46539 10.5627 4.02356 9.97979 4.01767C8.99653 4.00589 8.01327 4.00589 7.02413 4.01767C6.4589 4.02356 5.98199 4.51252 5.99376 5.04271C6.00554 5.59058 6.44124 6.00295 7.03001 6.00884C7.52459 6.01473 8.01327 6.00884 8.49607 6.00884ZM3.99192 17.0191C3.99192 16.4536 3.55033 16.0059 2.99688 16.0059C2.49053 16.0118 2.00185 16.4948 1.99596 17.0074C1.99007 17.5493 2.45521 18.0029 3.01455 18.0029C3.59155 17.9971 3.99192 17.5965 3.99192 17.0191ZM3.99192 13.0074C3.98603 12.4536 3.55033 12.0177 3.01455 12.0118C2.49642 12.0118 1.99596 12.5066 2.00185 13.025C2.00773 13.5611 2.46109 13.9971 3.00866 13.9971C3.59155 14.0029 3.99781 13.5965 3.99192 13.0074ZM3.99192 5.02504C3.99192 4.46539 3.54445 4.00589 2.99688 4.01178C2.49053 4.01767 2.00185 4.51252 2.00185 5.01915C2.00185 5.56701 2.46109 6.00884 3.02043 6.00884C3.59155 5.99706 3.99192 5.60236 3.99192 5.02504ZM3.00866 10.0029C3.58566 10.0029 3.98603 9.60825 3.99192 9.03682C3.99781 8.47128 3.55622 8.01767 3.00866 8.01767C2.49053 8.01767 1.99007 8.51841 2.00185 9.03682C2.00773 9.5729 2.45521 10.0029 3.00866 10.0029Z" fill="url(#paint0_linear_146_154)"/>
<path d="M16.9862 10.062C16.9862 8.47146 16.9921 6.88088 16.9803 5.28442C16.9803 5.05467 17.0392 4.98397 17.2747 4.98987C18.0931 5.00165 18.9115 5.00165 19.7358 4.98987C19.9183 4.98987 19.9889 5.02521 19.9889 5.2314C19.983 8.34774 20.0301 11.4641 19.9654 14.5745C19.9359 16.1475 19.5827 17.6909 19.0822 19.1872C19.0057 19.4052 18.9115 19.6231 18.7643 19.8117C18.5641 20.0591 18.3933 20.065 18.199 19.8058C18.0224 19.5701 17.9047 19.2933 17.8222 19.0164C17.3218 17.3139 16.9685 15.5937 16.9862 13.8087C16.9979 12.5598 16.9862 11.3109 16.9862 10.062Z" fill="url(#paint1_linear_146_154)"/>
<path d="M18.4697 3.00448C18.0694 3.00448 17.669 2.98681 17.2686 3.01037C17.0272 3.02216 16.9742 2.93379 16.9801 2.70993C16.9978 2.30934 16.9801 1.90875 16.986 1.50817C16.9978 0.701096 17.6631 0.0236289 18.4521 0.0118469C19.2528 -0.00582614 19.9535 0.66575 19.977 1.4846C19.9888 1.91465 19.9711 2.34469 19.9829 2.77473C19.9888 2.98092 19.9064 3.01627 19.7297 3.01037C19.3117 2.99859 18.8937 3.00448 18.4697 3.00448Z" fill="url(#paint2_linear_146_154)"/>
<defs>
<linearGradient id="paint0_linear_146_154" x1="10" y1="0" x2="10" y2="20" gradientUnits="userSpaceOnUse">
<stop stop-color="#FF4E71"/>
<stop offset="1" stop-color="#FB0230"/>
</linearGradient>
<linearGradient id="paint1_linear_146_154" x1="10" y1="0" x2="10" y2="20" gradientUnits="userSpaceOnUse">
<stop stop-color="#FF4E71"/>
<stop offset="1" stop-color="#FB0230"/>
</linearGradient>
<linearGradient id="paint2_linear_146_154" x1="10" y1="0" x2="10" y2="20" gradientUnits="userSpaceOnUse">
<stop stop-color="#FF4E71"/>
<stop offset="1" stop-color="#FB0230"/>
</linearGradient>
</defs>
</svg>
