<svg width="21" height="20" viewBox="0 0 21 20" fill="none" xmlns="http://www.w3.org/2000/svg">
<path d="M10.5324 6.31254C12.8841 6.31254 15.2419 6.35579 17.5935 6.30018C19.5573 6.25694 21.0655 7.82616 20.9978 9.70429C20.9547 10.9646 20.9978 12.2311 20.9855 13.4914C20.9732 14.9186 20.1175 15.7711 18.6893 15.7835C18.1906 15.7897 17.692 15.7958 17.1872 15.7835C16.8978 15.7773 16.7809 15.8947 16.787 16.1851C16.7993 16.7349 16.7993 17.2847 16.787 17.8346C16.7624 19.0826 15.8882 19.9846 14.6509 19.9907C11.8745 20.0031 9.10422 20.0031 6.32782 19.9907C5.11506 19.9846 4.23474 19.0826 4.20396 17.8717C4.19165 17.3712 4.16702 16.8646 4.21012 16.3642C4.24705 15.8762 4.05621 15.7464 3.60066 15.7773C3.12049 15.8082 2.63416 15.7897 2.14782 15.7835C0.904291 15.7588 0.0239681 14.8815 0.0116559 13.6335C-0.000656296 12.2558 -0.0068124 10.8843 0.0116559 9.50659C0.0362803 7.69642 1.40293 6.33725 3.21898 6.3249C5.66296 6.30019 8.10077 6.31254 10.5324 6.31254ZM10.5017 17.8902C11.6467 17.8902 12.7917 17.8964 13.9368 17.8902C14.5154 17.884 14.694 17.711 14.694 17.1303C14.7001 15.8823 14.7001 14.6405 14.694 13.3926C14.6878 12.8242 14.5031 12.6327 13.9368 12.6327C11.6467 12.6265 9.35662 12.6265 7.06655 12.6327C6.49403 12.6327 6.3155 12.818 6.30935 13.3926C6.30319 14.6405 6.30319 15.8823 6.30935 17.1303C6.3155 17.711 6.48788 17.884 7.06655 17.8902C8.21158 17.8964 9.35662 17.8902 10.5017 17.8902ZM17.8336 8.42543C17.2426 8.43161 16.8055 8.87643 16.8055 9.46952C16.8055 10.0811 17.2672 10.5321 17.8828 10.5136C18.4676 10.5013 18.8986 10.0379 18.8863 9.44481C18.8801 8.8579 18.4246 8.41926 17.8336 8.42543Z" fill="url(#paint0_linear_146_152)"/>
<path d="M10.4955 4.20571C8.83331 4.20571 7.17116 4.21188 5.50901 4.20571C4.62254 4.20571 4.21623 3.79178 4.21623 2.90214C4.21008 2.30287 4.20392 1.7036 4.22239 1.10433C4.2347 0.461813 4.67794 0.00463353 5.31818 0.00463353C8.78406 -0.00154451 12.2561 -0.00154451 15.722 0.00463353C16.3376 0.00463353 16.7747 0.461812 16.7931 1.07962C16.8116 1.72831 16.8055 2.37701 16.7993 3.01952C16.787 3.76089 16.3684 4.19335 15.6296 4.19953C13.9121 4.21188 12.2007 4.20571 10.4955 4.20571Z" fill="url(#paint1_linear_146_152)"/>
<defs>
<linearGradient id="paint0_linear_146_152" x1="10.5" y1="0" x2="10.5" y2="20" gradientUnits="userSpaceOnUse">
<stop stop-color="#FF4E71"/>
<stop offset="1" stop-color="#FB0230"/>
</linearGradient>
<linearGradient id="paint1_linear_146_152" x1="10.5" y1="0" x2="10.5" y2="20" gradientUnits="userSpaceOnUse">
<stop stop-color="#FF4E71"/>
<stop offset="1" stop-color="#FB0230"/>
</linearGradient>
</defs>
</svg>
