<svg width="21" height="20" viewBox="0 0 21 20" fill="none" xmlns="http://www.w3.org/2000/svg">
<path d="M6.29298 13.3192C6.29298 11.9838 6.28776 10.6484 6.29298 9.31296C6.29298 8.71486 6.47573 8.47768 7.06052 8.31268C7.36859 8.23019 7.5931 8.03426 7.80718 7.81771C8.92456 6.68853 9.84352 5.39436 10.8826 4.19815C11.3577 3.65161 11.4465 2.91429 11.5822 2.22338C11.7023 1.58403 11.8538 0.965307 12.261 0.429077C12.4908 0.130026 12.7675 -0.0143449 13.1539 0.00112327C14.9814 0.0526838 15.8638 0.991089 15.9421 2.9607C15.9839 4.04347 15.6758 5.02828 15.138 5.96152C14.7464 6.63697 14.7673 6.64728 15.5296 6.64728C16.4434 6.64728 17.3519 6.66275 18.2656 6.64213C19.3412 6.6215 20.161 7.05461 20.6727 7.97754C21.1948 8.9211 21.0591 9.86982 20.5004 10.7515C20.3385 11.0042 20.302 11.2104 20.3699 11.494C20.5474 12.221 20.4899 12.9274 20.067 13.5719C19.9417 13.7626 19.9156 13.9328 19.9521 14.1597C20.0775 14.9795 19.9051 15.7426 19.3673 16.3974C19.2316 16.5624 19.1898 16.7222 19.1846 16.9285C19.1742 18.764 18.1508 19.8055 16.2867 19.9551C13.6865 20.1613 11.2115 19.6405 8.79403 18.7434C8.24056 18.5372 7.67143 18.3773 7.08141 18.2948C6.54883 18.2226 6.29298 17.9081 6.29298 17.3667C6.28776 16.021 6.29298 14.6701 6.29298 13.3192Z" fill="url(#paint0_linear_146_151)"/>
<path d="M0.00130529 13.2883C0.00130529 11.9838 0.00130529 10.6794 0.00130529 9.37488C0.00130529 8.62725 0.298925 8.32304 1.04036 8.32304C2.17863 8.31789 3.31689 8.31789 4.45515 8.32304C5.14438 8.3282 5.45766 8.6324 5.45766 9.31816C5.46288 11.989 5.46288 14.6547 5.45766 17.3255C5.45766 18.0061 5.13916 18.3052 4.44471 18.3103C3.30645 18.3155 2.16818 18.3155 1.02992 18.3103C0.314589 18.3052 0.0065268 18.001 0.0065268 17.2894C-0.00391598 15.9592 0.00130529 14.6237 0.00130529 13.2883ZM3.35866 15.7993C3.34822 15.3507 2.94617 14.9795 2.49191 14.995C2.02721 15.0053 1.67737 15.392 1.69826 15.8612C1.71914 16.3149 2.06898 16.6449 2.52846 16.6398C2.98794 16.6295 3.37433 16.2427 3.35866 15.7993Z" fill="url(#paint1_linear_146_151)"/>
<defs>
<linearGradient id="paint0_linear_146_151" x1="10.5" y1="0" x2="10.5" y2="20" gradientUnits="userSpaceOnUse">
<stop stop-color="#FF4E71"/>
<stop offset="1" stop-color="#FB0230"/>
</linearGradient>
<linearGradient id="paint1_linear_146_151" x1="10.5" y1="0" x2="10.5" y2="20" gradientUnits="userSpaceOnUse">
<stop stop-color="#FF4E71"/>
<stop offset="1" stop-color="#FB0230"/>
</linearGradient>
</defs>
</svg>
