<svg width="25" height="20" viewBox="0 0 25 20" fill="none" xmlns="http://www.w3.org/2000/svg">
<path d="M9.54141 10.4642C7.95635 8.67855 8.40201 5.43441 10.9473 4.36667C11.2873 4.22581 11.3837 4.04407 11.3746 3.69876C11.3516 2.89454 11.3608 2.09486 11.37 1.29064C11.3791 0.509143 11.8662 -0.0133703 12.5461 0.000260483C13.2077 0.0138913 13.6717 0.522774 13.6809 1.27701C13.6901 2.09941 13.6947 2.9218 13.6763 3.73965C13.6671 4.04407 13.759 4.20309 14.0577 4.32123C15.1511 4.75741 15.8678 5.52983 16.2584 6.6521C17.2278 9.44642 18.7623 13.8355 20.1222 17.7158C20.7241 19.4287 18.4866 20.6964 17.2875 19.3242C14.5079 16.1255 11.3837 12.5406 9.54141 10.4642ZM14.3563 8.2151C14.3609 7.16099 13.5109 6.33859 12.4359 6.38857C11.5032 6.42946 10.7268 7.22005 10.6992 8.14694C10.667 9.21015 11.4756 10.0416 12.5323 10.0325C13.5615 10.028 14.3517 9.23741 14.3563 8.2151Z" fill="url(#paint0_linear_146_153)"/>
<path d="M7.74954 9.56465C8.48463 11.0913 9.66538 12.0818 10.5797 13.2813C10.8645 13.6493 11.1815 13.9992 11.5031 14.3309C11.7512 14.5853 11.8155 14.7398 11.5629 15.0215C10.5797 16.1392 9.15082 17.7704 7.6944 19.4243C6.49528 20.7874 4.27161 19.5197 4.86887 17.8113L7.74954 9.56465Z" fill="url(#paint1_linear_146_153)"/>
<path d="M5.33266 10.0192C5.02943 10.778 4.06462 11.1915 3.29276 10.887C2.52551 10.5872 2.11661 9.633 2.42443 8.86513C2.72306 8.12907 3.68788 7.72014 4.44135 8.00639C5.20861 8.30173 5.63589 9.25589 5.33266 10.0192Z" fill="url(#paint2_linear_146_153)"/>
<path d="M2.81975 12.1138C3.60998 12.3364 3.99131 13.4769 3.71565 14.113C3.40324 14.8354 2.44761 15.2716 1.69873 14.9944C0.936066 14.7127 0.499602 13.7449 0.793641 12.9862C1.09687 12.2183 2.03871 11.8094 2.81975 12.1138Z" fill="url(#paint3_linear_146_153)"/>
<path d="M4.96083 6.68426C4.06952 6.40256 3.82602 5.31664 4.06952 4.71234C4.37735 3.94901 5.31919 3.54009 6.10942 3.84905C6.87668 4.14439 7.29017 5.08037 6.99154 5.83461C6.67912 6.61611 5.76484 6.99777 4.96083 6.68426Z" fill="url(#paint4_linear_146_153)"/>
<path d="M0.242258 17.2072C0.311173 17.0345 0.366305 16.8618 0.449004 16.6937C0.586835 16.4029 0.885468 16.2575 1.17032 16.3212C1.44598 16.3848 1.65273 16.6347 1.60678 16.9618C1.53327 17.4798 1.3449 17.9705 1.0187 18.3839C0.853307 18.593 0.563863 18.6566 0.301984 18.5112C0.0355117 18.3612 -0.0379981 18.0886 0.0171342 17.8115C0.0584834 17.6024 0.168748 17.4071 0.242258 17.2072Z" fill="url(#paint5_linear_146_153)"/>
<path d="M6.63284 1.05006C6.71094 0.85014 6.77526 0.641138 6.87634 0.450306C7.02336 0.17769 7.35415 0.0640974 7.62981 0.164057C7.89169 0.259472 8.06168 0.550263 7.98358 0.845598C7.87331 1.28633 7.70332 1.70888 7.48279 2.10418C7.33578 2.36771 7.02336 2.44949 6.7477 2.34044C6.47204 2.22685 6.32042 1.91335 6.41231 1.58621C6.46285 1.39992 6.55014 1.22272 6.62365 1.04552C6.62365 1.04552 6.62824 1.05006 6.63284 1.05006Z" fill="url(#paint6_linear_146_153)"/>
<path d="M19.6674 10.0192C19.9706 10.778 20.9354 11.1915 21.7073 10.887C22.4745 10.5872 22.8834 9.633 22.5756 8.86513C22.277 8.12907 21.3122 7.72014 20.5587 8.00639C19.7868 8.30173 19.3642 9.25589 19.6674 10.0192Z" fill="url(#paint7_linear_146_153)"/>
<path d="M22.1761 12.1138C21.3859 12.3364 21.0045 13.4769 21.2802 14.113C21.5926 14.8354 22.5483 15.2716 23.2971 14.9944C24.0598 14.7127 24.4963 13.7449 24.2022 12.9862C23.9036 12.2183 22.9617 11.8094 22.1761 12.1138Z" fill="url(#paint8_linear_146_153)"/>
<path d="M20.0395 6.68426C20.9308 6.40256 21.1743 5.31664 20.9308 4.71234C20.623 3.94901 19.6811 3.54009 18.8909 3.84905C18.1236 4.14439 17.7102 5.08037 18.0088 5.83461C18.3212 6.61611 19.2355 6.99777 20.0395 6.68426Z" fill="url(#paint9_linear_146_153)"/>
<path d="M24.7577 17.2072C24.6888 17.0345 24.6337 16.8618 24.551 16.6937C24.4132 16.4029 24.1145 16.2575 23.8297 16.3212C23.554 16.3848 23.3473 16.6347 23.3932 16.9618C23.4667 17.4798 23.6551 17.9705 23.9813 18.3839C24.1467 18.593 24.4361 18.6566 24.698 18.5112C24.9645 18.3612 25.038 18.0886 24.9829 17.8115C24.9415 17.6024 24.8313 17.4071 24.7577 17.2072C24.7531 17.2072 24.7531 17.2072 24.7577 17.2072Z" fill="url(#paint10_linear_146_153)"/>
<path d="M18.3672 1.05006C18.2891 0.85014 18.2247 0.641138 18.1237 0.450306C17.9767 0.17769 17.6459 0.0640974 17.3702 0.164057C17.1083 0.259472 16.9383 0.550263 17.0164 0.845598C17.1267 1.28633 17.2967 1.70888 17.5172 2.10418C17.6642 2.36771 17.9767 2.44949 18.2523 2.34044C18.528 2.22685 18.6796 1.91335 18.5877 1.58621C18.5372 1.39992 18.4499 1.22272 18.3764 1.04552C18.3764 1.04552 18.3718 1.05006 18.3672 1.05006Z" fill="url(#paint11_linear_146_153)"/>
<defs>
<linearGradient id="paint0_linear_146_153" x1="12.5" y1="0" x2="12.5" y2="20" gradientUnits="userSpaceOnUse">
<stop stop-color="#FF4E71"/>
<stop offset="1" stop-color="#FB0230"/>
</linearGradient>
<linearGradient id="paint1_linear_146_153" x1="12.5" y1="0" x2="12.5" y2="20" gradientUnits="userSpaceOnUse">
<stop stop-color="#FF4E71"/>
<stop offset="1" stop-color="#FB0230"/>
</linearGradient>
<linearGradient id="paint2_linear_146_153" x1="12.5" y1="0" x2="12.5" y2="20" gradientUnits="userSpaceOnUse">
<stop stop-color="#FF4E71"/>
<stop offset="1" stop-color="#FB0230"/>
</linearGradient>
<linearGradient id="paint3_linear_146_153" x1="12.5" y1="0" x2="12.5" y2="20" gradientUnits="userSpaceOnUse">
<stop stop-color="#FF4E71"/>
<stop offset="1" stop-color="#FB0230"/>
</linearGradient>
<linearGradient id="paint4_linear_146_153" x1="12.5" y1="0" x2="12.5" y2="20" gradientUnits="userSpaceOnUse">
<stop stop-color="#FF4E71"/>
<stop offset="1" stop-color="#FB0230"/>
</linearGradient>
<linearGradient id="paint5_linear_146_153" x1="12.5" y1="0" x2="12.5" y2="20" gradientUnits="userSpaceOnUse">
<stop stop-color="#FF4E71"/>
<stop offset="1" stop-color="#FB0230"/>
</linearGradient>
<linearGradient id="paint6_linear_146_153" x1="12.5" y1="0" x2="12.5" y2="20" gradientUnits="userSpaceOnUse">
<stop stop-color="#FF4E71"/>
<stop offset="1" stop-color="#FB0230"/>
</linearGradient>
<linearGradient id="paint7_linear_146_153" x1="12.5" y1="0" x2="12.5" y2="20" gradientUnits="userSpaceOnUse">
<stop stop-color="#FF4E71"/>
<stop offset="1" stop-color="#FB0230"/>
</linearGradient>
<linearGradient id="paint8_linear_146_153" x1="12.5" y1="0" x2="12.5" y2="20" gradientUnits="userSpaceOnUse">
<stop stop-color="#FF4E71"/>
<stop offset="1" stop-color="#FB0230"/>
</linearGradient>
<linearGradient id="paint9_linear_146_153" x1="12.5" y1="0" x2="12.5" y2="20" gradientUnits="userSpaceOnUse">
<stop stop-color="#FF4E71"/>
<stop offset="1" stop-color="#FB0230"/>
</linearGradient>
<linearGradient id="paint10_linear_146_153" x1="12.5" y1="0" x2="12.5" y2="20" gradientUnits="userSpaceOnUse">
<stop stop-color="#FF4E71"/>
<stop offset="1" stop-color="#FB0230"/>
</linearGradient>
<linearGradient id="paint11_linear_146_153" x1="12.5" y1="0" x2="12.5" y2="20" gradientUnits="userSpaceOnUse">
<stop stop-color="#FF4E71"/>
<stop offset="1" stop-color="#FB0230"/>
</linearGradient>
</defs>
</svg>
