<svg width="19" height="20" viewBox="0 0 19 20" fill="none" xmlns="http://www.w3.org/2000/svg">
<path d="M9.20432 19.9814C8.09486 19.9359 6.6865 20.0875 5.29334 19.9157C3.13521 19.6428 1.41276 17.9953 1.07334 15.8577C0.69845 13.4724 0.348893 11.077 0.039865 8.68165C-0.264097 6.30143 1.19492 4.43163 3.57089 4.11326C3.89512 4.06778 4.00657 3.8909 4.11296 3.64833C4.57397 2.63257 5.13123 1.69766 6.07858 1.02554C8.8953 -0.970603 13.1052 0.0603146 14.6199 3.13792C14.6756 3.24404 14.7415 3.35017 14.777 3.46135C14.9239 3.89596 15.1822 4.08293 15.6736 4.14862C17.6646 4.41141 19.2097 6.3267 18.9767 8.31779C18.6727 10.89 18.3181 13.4572 17.8824 16.0093C17.4873 18.3187 15.4254 19.9409 13.0241 19.9814C11.8488 19.9965 10.6735 19.9814 9.20432 19.9814ZM13.4699 10.036C13.4649 9.61151 13.2572 9.3083 12.8772 9.13648C12.4517 8.94444 12.0616 9.0455 11.7424 9.37904C10.8508 10.319 9.9389 11.2438 9.0878 12.2191C8.73318 12.6234 8.50014 12.6133 8.15059 12.2646C7.85676 11.9766 7.51733 11.7289 7.18804 11.4813C6.67637 11.0972 6.05325 11.1579 5.70876 11.6127C5.3744 12.0473 5.47066 12.6386 5.95193 13.0327C6.64598 13.6038 7.34509 14.1698 8.05433 14.7257C8.57613 15.1401 9.06754 15.1148 9.52855 14.6297C10.7444 13.3511 11.945 12.0625 13.1558 10.7789C13.3483 10.5666 13.475 10.3342 13.4699 10.036ZM9.48295 4.07282C10.4506 4.07282 11.4182 4.06272 12.3858 4.07788C12.7911 4.08294 12.8265 3.96165 12.6391 3.63823C11.8589 2.27377 10.5924 2.04636 9.16886 2.08679C7.92262 2.12216 6.96514 2.57698 6.33695 3.66855C6.15964 3.97681 6.22043 4.088 6.58518 4.08294C7.54773 4.06273 8.51534 4.07282 9.48295 4.07282Z" fill="url(#paint0_linear_146_149)"/>
<defs>
<linearGradient id="paint0_linear_146_149" x1="9.5" y1="0" x2="9.5" y2="20" gradientUnits="userSpaceOnUse">
<stop stop-color="#FF4E71"/>
<stop offset="1" stop-color="#FB0230"/>
</linearGradient>
</defs>
</svg>
