<svg width="21" height="20" viewBox="0 0 21 20" fill="none" xmlns="http://www.w3.org/2000/svg">
<path d="M11.947 14.237C10.4155 14.237 8.884 14.237 7.35803 14.237C5.72662 14.2315 4.73335 13.3393 4.50584 11.7378C4.05637 8.57914 3.57916 5.42601 3.11859 2.26735C3.0742 1.97365 2.93547 1.87944 2.65247 1.88498C2.13642 1.90161 1.61481 1.89051 1.09321 1.89051C0.427326 1.88497 -0.00549627 1.50815 5.27325e-05 0.93737C0.00560173 0.383218 0.427326 0.0119403 1.07101 0.00639879C1.6592 0.000857276 2.2474 -0.00468424 2.83559 0.00639879C3.9232 0.0285649 4.72225 0.699085 4.93311 1.7686C5.0219 2.21192 5.09403 2.65525 5.14397 3.09858C5.17172 3.33132 5.26605 3.40335 5.48246 3.38118C5.59344 3.3701 5.69888 3.38118 5.80986 3.38118C10.4155 3.38118 15.0212 3.38118 19.6213 3.38118C19.81 3.38118 20.0042 3.38118 20.1929 3.41443C20.7478 3.51418 21.0863 3.96859 20.9808 4.51166C20.4759 7.0663 19.9764 9.62094 19.4326 12.1645C19.1552 13.4723 18.1175 14.2148 16.697 14.2204C15.1211 14.2426 13.5341 14.237 11.947 14.237Z" fill="url(#paint0_linear_146_150)"/>
<path d="M15.9256 20C14.5716 20.0055 13.4674 18.9138 13.4618 17.5672C13.4507 16.2262 14.5605 15.1123 15.9034 15.1013C17.224 15.0902 18.3616 16.2151 18.3727 17.5506C18.3893 18.8806 17.274 19.9944 15.9256 20Z" fill="url(#paint1_linear_146_150)"/>
<path d="M9.91045 17.5396C9.91599 18.853 8.784 19.989 7.49108 19.9835C6.19262 19.9724 5.10501 18.8641 5.11611 17.5507C5.12166 16.2318 6.25365 15.0847 7.53547 15.1014C8.82284 15.1124 9.91045 16.2263 9.91045 17.5396Z" fill="url(#paint2_linear_146_150)"/>
<defs>
<linearGradient id="paint0_linear_146_150" x1="10.5" y1="0" x2="10.5" y2="20" gradientUnits="userSpaceOnUse">
<stop stop-color="#FF4E71"/>
<stop offset="1" stop-color="#FB0230"/>
</linearGradient>
<linearGradient id="paint1_linear_146_150" x1="10.5" y1="0" x2="10.5" y2="20" gradientUnits="userSpaceOnUse">
<stop stop-color="#FF4E71"/>
<stop offset="1" stop-color="#FB0230"/>
</linearGradient>
<linearGradient id="paint2_linear_146_150" x1="10.5" y1="0" x2="10.5" y2="20" gradientUnits="userSpaceOnUse">
<stop stop-color="#FF4E71"/>
<stop offset="1" stop-color="#FB0230"/>
</linearGradient>
</defs>
</svg>
