<svg width="100" height="100" viewBox="0 0 100 100" fill="none" xmlns="http://www.w3.org/2000/svg">
<rect width="100" height="100" rx="28.5714" fill="black" fill-opacity="0.01"/>
<rect width="100" height="100" rx="28.5714" fill="url(#paint0_linear_133_1085)" fill-opacity="0.7"/>
<g filter="url(#filter1_d_133_1085)">
<path d="M68.0601 49.0098C68.7754 47.5683 68.7754 44.6855 68.7754 42.5233" stroke="black" stroke-width="2.85714" stroke-linecap="round"/>
<path d="M58.8822 33.6256C58.8822 32.4004 58.8392 31.1895 58.8965 29.9643C59.0109 26.8796 61.1855 24.6598 64.2329 24.5589C66.3503 24.4869 68.4677 24.4869 70.5851 24.5589C73.661 24.6598 75.8929 26.9373 75.9644 30.0652C76.0216 32.4292 76.0216 34.7931 75.9644 37.1427C75.8929 40.3282 73.6467 42.5625 70.4849 42.6345C68.4104 42.6778 66.3217 42.6922 64.2472 42.6345C61.1855 42.5481 59.0252 40.3715 58.8965 37.2724C58.8392 36.0616 58.8822 34.8508 58.8822 33.6256Z" fill="url(#paint1_linear_133_1085)"/>
<path d="M60.9062 33.874C59.4756 33.1533 53.7532 33.153 52.3222 33.874" stroke="black" stroke-width="2.85714" stroke-linecap="round"/>
<path d="M39.5818 42.6632C36.7062 42.6632 33.8305 42.6776 30.9549 42.6632C27.3925 42.6343 25.1892 40.3713 25.1606 36.7821C25.1463 34.6488 25.1463 32.5155 25.1606 30.3821C25.1892 26.8939 27.4783 24.5731 30.9406 24.5587C36.7634 24.5299 42.5863 24.5299 48.4091 24.5587C51.8141 24.5731 54.1032 26.8794 54.1461 30.2956C54.1747 32.501 54.1747 34.7209 54.1461 36.9263C54.1032 40.3569 51.857 42.6199 48.4234 42.6632C45.4905 42.692 42.5433 42.6632 39.5818 42.6632Z" fill="url(#paint2_linear_133_1085)"/>
<path d="M34.439 40.3604C33.7236 41.8018 33.7236 47.5675 34.439 49.009" stroke="black" stroke-width="2.85714" stroke-linecap="round"/>
<path d="M41.8285 60.8973C41.8285 63.7514 41.8428 66.6054 41.8285 69.4739C41.7999 73.2648 39.568 75.4991 35.8053 75.5135C34.1457 75.5279 32.4719 75.5423 30.8123 75.5135C27.4931 75.4414 25.1754 73.1351 25.1611 69.791C25.1325 63.8811 25.1325 57.9856 25.1611 52.0757C25.1754 48.7172 27.4502 46.4109 30.7837 46.3388C32.5148 46.2956 34.2602 46.31 36.0056 46.3388C39.4965 46.3821 41.7569 48.6019 41.8142 52.119C41.8714 55.0307 41.8285 57.9568 41.8285 60.8973Z" fill="url(#paint3_linear_133_1085)"/>
<path d="M40.877 61.2607C42.3076 61.9815 46.5997 61.9815 48.0306 61.2604" stroke="black" stroke-width="2.85714" stroke-linecap="round"/>
<path d="M61.2283 75.3115C58.3526 75.3115 55.477 75.3259 52.6013 75.3115C48.8958 75.297 46.6354 73.0772 46.6211 69.3583C46.5925 63.607 46.5925 57.8557 46.6211 52.1043C46.6354 48.3854 48.8815 46.1512 52.587 46.1368C58.4098 46.1224 64.2327 46.1224 70.0555 46.1368C73.7324 46.1512 75.9928 48.4431 75.9928 52.1476C76.0071 57.8557 76.0071 63.5782 75.9928 69.2863C75.9928 72.9907 73.7324 75.297 70.0698 75.3115C67.1226 75.3259 64.1755 75.3115 61.2283 75.3115Z" fill="url(#paint4_linear_133_1085)"/>
<path d="M68.0601 49.0098C68.7754 47.5683 68.7754 45.4062 68.7754 43.9647" stroke="black" stroke-width="2.85714" stroke-linecap="round"/>
</g>
<defs>
<filter id="filter1_d_133_1085" x="10.8539" y="15.9335" width="79.4391" height="79.5968" filterUnits="userSpaceOnUse" color-interpolation-filters="sRGB">
<feFlood flood-opacity="0" result="BackgroundImageFix"/>
<feColorMatrix in="SourceAlpha" type="matrix" values="0 0 0 0 0 0 0 0 0 0 0 0 0 0 0 0 0 0 127 0" result="hardAlpha"/>
<feOffset dy="5.71429"/>
<feGaussianBlur stdDeviation="7.14286"/>
<feComposite in2="hardAlpha" operator="out"/>
<feColorMatrix type="matrix" values="0 0 0 0 0 0 0 0 0 0 0 0 0 0 0 0 0 0 0.1 0"/>
<feBlend mode="normal" in2="BackgroundImageFix" result="effect1_dropShadow_133_1085"/>
<feBlend mode="normal" in="SourceGraphic" in2="effect1_dropShadow_133_1085" result="shape"/>
</filter>
<linearGradient id="paint0_linear_133_1085" x1="50" y1="0" x2="50" y2="100" gradientUnits="userSpaceOnUse">
<stop stop-color="#9EDEFF"/>
<stop offset="1" stop-color="#0058E2"/>
</linearGradient>
<linearGradient id="paint1_linear_133_1085" x1="67.437" y1="24.5049" x2="67.437" y2="42.6726" gradientUnits="userSpaceOnUse">
<stop stop-color="white"/>
<stop offset="1" stop-color="#97D4F7"/>
</linearGradient>
<linearGradient id="paint2_linear_133_1085" x1="39.6587" y1="24.5371" x2="39.6587" y2="42.676" gradientUnits="userSpaceOnUse">
<stop stop-color="white"/>
<stop offset="1" stop-color="#97D4F7"/>
</linearGradient>
<linearGradient id="paint3_linear_133_1085" x1="33.4918" y1="46.3115" x2="33.4918" y2="75.5301" gradientUnits="userSpaceOnUse">
<stop stop-color="white"/>
<stop offset="1" stop-color="#97D4F7"/>
</linearGradient>
<linearGradient id="paint4_linear_133_1085" x1="61.3016" y1="46.126" x2="61.3016" y2="75.3179" gradientUnits="userSpaceOnUse">
<stop stop-color="white"/>
<stop offset="1" stop-color="#97D4F7"/>
</linearGradient>
</defs>
</svg>
