<svg width="70" height="70" viewBox="0 0 70 70" fill="none" xmlns="http://www.w3.org/2000/svg">
<rect width="70" height="70" rx="20" fill="black" fill-opacity="0.01"/>
<rect width="70" height="70" rx="20" fill="url(#paint0_linear_107_988)" fill-opacity="0.7"/>
<path d="M26.139 35.6295C25.4787 35.4177 25.1085 35.7808 24.7383 36.5473C23.7879 38.5241 21.5067 39.4217 19.4357 38.7863C17.3747 38.1509 16.024 36.0834 16.2441 33.9351C16.4743 31.7768 18.1951 30.0623 20.3562 29.8303C22.4172 29.6084 24.5082 30.9901 25.0785 33.0476C25.2386 33.6326 25.4887 33.8242 26.029 33.7839C26.2391 33.7738 26.4392 33.8242 26.6493 33.8343C27.3796 33.8746 28.16 34.0763 28.8204 33.8847C29.5407 33.6729 29.3806 32.7047 29.7008 32.1096C30.3511 30.9296 31.1515 29.911 32.2921 29.2252C32.8023 28.9226 32.8624 28.6301 32.6122 28.1662C32.6022 28.146 32.5922 28.1158 32.5822 28.0956C32.2421 26.8651 31.8419 26.0886 30.181 26.028C27.2796 25.9373 25.2186 23.3049 25.3186 20.481C25.4087 17.657 27.6498 15.3171 30.4211 15.1457C33.2726 14.9742 35.7438 16.9308 36.184 19.8254C36.5042 21.9535 35.7338 23.7084 34.0529 25.0094C33.6327 25.3321 33.5727 25.5843 33.7628 26.0381C34.0329 26.6634 34.123 27.4199 34.5332 27.914C35.0134 28.4889 35.7738 27.9342 36.4141 27.9746C38.205 28.0754 39.7858 28.6604 41.0964 29.8908C41.4866 30.2539 41.7067 30.1833 42.0569 29.911C43.1174 29.0941 44.188 28.3074 45.2685 27.5308C45.6487 27.2585 45.7287 27.0265 45.5886 26.5626C44.8283 24.0513 46.239 21.4794 48.7002 20.8037C51.1814 20.1179 53.6827 21.5904 54.323 24.1118C54.9533 26.5928 53.4125 29.1041 50.8813 29.6891C49.5906 29.9917 48.39 29.7295 47.3295 28.9529C46.9693 28.6805 46.7392 28.6906 46.389 28.9529C45.2885 29.8 44.1779 30.617 43.0474 31.4238C42.7172 31.6558 42.6372 31.8575 42.8173 32.2609C43.7878 34.3386 43.7677 36.4263 42.7673 38.4837C42.5872 38.8569 42.5872 39.0586 42.9373 39.3208C44.7482 40.6925 46.5591 42.0742 48.34 43.4862C48.7402 43.7988 48.9703 43.6072 49.2905 43.4055C50.9013 42.407 52.5621 42.3566 54.1629 43.3853C55.7337 44.3838 56.454 45.8966 56.2439 47.7524C56.0238 49.6687 54.9433 51 53.1124 51.595C51.4015 52.1598 49.8508 51.7665 48.5701 50.5058C47.2595 49.2249 46.8693 47.6314 47.4296 45.8765C47.5996 45.3319 47.4896 45.0999 47.0794 44.7872C45.3485 43.4862 43.6277 42.1549 41.9268 40.8135C41.5767 40.5311 41.3766 40.5311 41.0164 40.8337C38.6452 42.8105 36.0239 43.1735 33.2125 41.9128C32.7923 41.7212 32.5922 41.7515 32.3221 42.1347C31.4517 43.3551 30.5612 44.5452 29.6508 45.7252C29.3706 46.0883 29.4006 46.3001 29.6708 46.6632C31.1315 48.65 31.1915 51.1008 29.8809 53.0675C28.5802 55.014 26.2591 55.8915 23.988 55.3267C21.7569 54.7619 20.1461 52.8154 19.906 50.3948C19.5258 46.5018 23.5177 43.4559 27.1996 44.8578C27.7098 45.0495 27.9599 45.0192 28.2801 44.5653C29.1205 43.3652 30.0109 42.1952 30.9014 41.0354C31.1615 40.6925 31.1515 40.4908 30.8614 40.1781C29.8809 39.109 29.3006 37.8181 29.1205 36.3759C29.0605 35.8817 28.8704 35.7808 28.4402 35.7808C27.7098 35.7606 27.0095 35.6799 26.139 35.6295Z" fill="#9B988B"/>
<path d="M34.2476 29.7656C35.7498 32.7917 36.2503 34.3056 36.7513 35.8197M36.7513 35.8197L41.7586 31.2791M36.7513 35.8197L41.2579 39.3512M36.7513 35.8197L32.7453 39.8557M36.7513 35.8197L30.2415 34.8102" stroke="black" stroke-width="2" stroke-linecap="round"/>
<defs>
<linearGradient id="paint0_linear_107_988" x1="35" y1="0" x2="35" y2="70" gradientUnits="userSpaceOnUse">
<stop stop-color="#F8F8F8"/>
<stop offset="1" stop-color="white"/>
</linearGradient>
</defs>
</svg>
