<svg width="70" height="70" viewBox="0 0 70 70" fill="none" xmlns="http://www.w3.org/2000/svg">
<rect width="70" height="70" rx="20" fill="black" fill-opacity="0.01"/>
<rect width="70" height="70" rx="20" fill="white" fill-opacity="0.7"/>
<g filter="url(#filter1_d_107_894)">
<path d="M51.24 32.9546C52.2798 32.9623 53.3273 32.8324 54.3442 33.031C57.0355 33.5657 58.9929 35.9414 59.0388 38.7066C59.0617 40.0204 59.0617 41.3267 59.0388 42.6405C59.0005 44.8787 57.4025 46.4981 55.17 46.5668C54.069 46.5974 52.968 46.5515 51.8746 46.5897C51.3547 46.605 51.2018 46.4064 51.1788 45.9022C50.9265 41.4794 48.9462 37.9885 45.368 35.4066C44.8557 35.04 44.8786 34.8414 45.3145 34.4671C46.3161 33.5963 47.44 33.031 48.7704 32.9623C49.5885 32.9241 50.4142 32.9546 51.24 32.9546Z" fill="#B3B3B3"/>
<path d="M35.5886 54.4035C33.6924 54.4035 31.8039 54.4111 29.9077 54.4035C26.3906 54.3882 23.8751 51.8522 23.8598 48.3154C23.8522 46.887 23.8063 45.4586 24.1962 44.0454C25.3508 39.8365 29.1278 36.8574 33.4859 36.8344C35.4051 36.8268 37.3318 36.6588 39.2433 36.9796C43.7849 37.7435 47.2332 41.7156 47.3096 46.3065C47.3326 47.4599 47.4396 48.621 47.1797 49.7744C46.5756 52.4556 44.2895 54.3424 41.5447 54.4035C41.4835 54.4035 41.4223 54.4035 41.3612 54.4035C39.4421 54.4035 37.5153 54.4035 35.5886 54.4035Z" fill="#65BEF9"/>
<path d="M19.9908 32.9461C20.7248 32.9461 21.4588 32.9385 22.1928 32.9461C23.1333 32.9538 23.9972 33.2364 24.8001 33.6947C26.4516 34.6343 26.4592 34.7947 25.0371 35.9787C21.9787 38.53 20.2508 41.7765 20.0061 45.7716C19.9679 46.3903 19.7997 46.6271 19.1574 46.5965C18.0564 46.5507 16.9554 46.6118 15.8621 46.566C13.79 46.4819 12.1921 44.8625 12.1385 42.7848C12.1003 41.3793 12.1003 39.9738 12.1385 38.5759C12.215 35.5662 14.677 33.0913 17.6971 32.9538C18.4617 32.9156 19.2262 32.9461 19.9908 32.9461Z" fill="#D89DFF"/>
<path d="M57.0735 25.1478C57.0582 28.4019 54.428 30.999 51.1632 30.9761C47.9749 30.9532 45.3524 28.3102 45.3447 25.1249C45.3371 21.909 48.0055 19.2507 51.232 19.2583C54.4968 19.2583 57.0964 21.886 57.0735 25.1478Z" fill="#37D9AC"/>
<path d="M35.6192 34.8561C31.2993 34.8714 27.7898 31.411 27.7592 27.1104C27.7286 22.8328 31.2381 19.2731 35.5198 19.2502C39.8703 19.2196 43.4179 22.7258 43.4256 27.057C43.4332 31.3499 39.9314 34.8485 35.6192 34.8561Z" fill="#F756B3"/>
<path d="M14.1038 25.1547C14.0885 21.893 16.6881 19.2577 19.9376 19.25C23.1718 19.2424 25.8402 21.893 25.8326 25.1089C25.8326 28.2943 23.2024 30.9373 20.0217 30.9678C16.7646 30.9984 14.1268 28.4088 14.1038 25.1547Z" fill="#FD9A43"/>
<path d="M18.9172 38.001C19.3374 39.6043 21.1906 43.4029 27.0206 42.7363" stroke="black" stroke-width="2" stroke-linecap="round"/>
<path d="M51.9009 38.001C51.4807 39.6043 48.4923 43.8605 43.7975 42.7363" stroke="black" stroke-width="2" stroke-linecap="round"/>
</g>
<defs>
<filter id="filter1_d_107_894" x="2.10986" y="13.25" width="66.946" height="55.1567" filterUnits="userSpaceOnUse" color-interpolation-filters="sRGB">
<feFlood flood-opacity="0" result="BackgroundImageFix"/>
<feColorMatrix in="SourceAlpha" type="matrix" values="0 0 0 0 0 0 0 0 0 0 0 0 0 0 0 0 0 0 127 0" result="hardAlpha"/>
<feOffset dy="4"/>
<feGaussianBlur stdDeviation="5"/>
<feComposite in2="hardAlpha" operator="out"/>
<feColorMatrix type="matrix" values="0 0 0 0 0 0 0 0 0 0 0 0 0 0 0 0 0 0 0.25 0"/>
<feBlend mode="normal" in2="BackgroundImageFix" result="effect1_dropShadow_107_894"/>
<feBlend mode="normal" in="SourceGraphic" in2="effect1_dropShadow_107_894" result="shape"/>
</filter>
</defs>
</svg>
