<svg width="70" height="70" viewBox="0 0 70 70" fill="none" xmlns="http://www.w3.org/2000/svg">
<rect width="70" height="70" rx="20" fill="black" fill-opacity="0.01"/>
<rect width="70" height="70" rx="20" fill="url(#paint0_linear_107_927)" fill-opacity="0.7"/>
<g filter="url(#filter1_d_107_927)">
<path d="M47.6421 34.3062C48.1428 33.2971 48.1428 31.2791 48.1428 29.7656" stroke="black" stroke-width="2" stroke-linecap="round"/>
<path d="M41.2174 23.5378C41.2174 22.6801 41.1873 21.8326 41.2274 20.9749C41.3075 18.8157 42.8297 17.2618 44.9629 17.1912C46.445 17.1407 47.9272 17.1407 49.4094 17.1912C51.5626 17.2618 53.1249 18.856 53.1749 21.0456C53.215 22.7003 53.215 24.3551 53.1749 25.9998C53.1249 28.2297 51.5526 29.7936 49.3393 29.8441C47.8872 29.8744 46.425 29.8844 44.9729 29.8441C42.8297 29.7835 41.3175 28.2599 41.2274 26.0906C41.1873 25.243 41.2174 24.3955 41.2174 23.5378Z" fill="url(#paint1_linear_107_927)"/>
<path d="M42.6343 23.7119C41.6328 23.2074 37.6271 23.2072 36.6254 23.7119" stroke="black" stroke-width="2" stroke-linecap="round"/>
<path d="M27.7073 29.864C25.6944 29.864 23.6814 29.8741 21.6685 29.864C19.1748 29.8438 17.6325 28.2597 17.6125 25.7473C17.6025 24.254 17.6025 22.7606 17.6125 21.2673C17.6325 18.8255 19.2349 17.201 21.6584 17.1909C25.7344 17.1707 29.8104 17.1707 33.8864 17.1909C36.2699 17.201 37.8723 18.8154 37.9023 21.2068C37.9224 22.7505 37.9224 24.3044 37.9023 25.8482C37.8723 28.2496 36.3 29.8338 33.8964 29.864C31.8434 29.8842 29.7804 29.864 27.7073 29.864Z" fill="url(#paint2_linear_107_927)"/>
<path d="M24.1074 28.2524C23.6067 29.2614 23.6067 33.2975 24.1074 34.3065" stroke="black" stroke-width="2" stroke-linecap="round"/>
<path d="M29.2798 42.6285C29.2798 44.6263 29.2899 46.6242 29.2798 48.6321C29.2598 51.2858 27.6975 52.8497 25.0636 52.8598C23.9019 52.8699 22.7302 52.88 21.5685 52.8598C19.2451 52.8094 17.6227 51.195 17.6127 48.8541C17.5926 44.7172 17.5926 40.5903 17.6127 36.4534C17.6227 34.1024 19.215 32.488 21.5485 32.4376C22.7602 32.4073 23.982 32.4174 25.2038 32.4376C27.6474 32.4678 29.2298 34.0217 29.2698 36.4837C29.3099 38.5219 29.2798 40.5701 29.2798 42.6285Z" fill="url(#paint3_linear_107_927)"/>
<path d="M28.6138 42.8828C29.6152 43.3873 32.6197 43.3873 33.6213 42.8826" stroke="black" stroke-width="2" stroke-linecap="round"/>
<path d="M42.8597 52.7179C40.8467 52.7179 38.8338 52.728 36.8208 52.7179C34.227 52.7078 32.6447 51.154 32.6347 48.5507C32.6146 44.5248 32.6146 40.4989 32.6347 36.4729C32.6447 33.8697 34.217 32.3057 36.8108 32.2957C40.8868 32.2856 44.9628 32.2856 49.0388 32.2957C51.6126 32.3057 53.1949 33.9101 53.1949 36.5032C53.2049 40.4989 53.2049 44.5046 53.1949 48.5003C53.1949 51.0934 51.6126 52.7078 49.0488 52.7179C46.9858 52.728 44.9227 52.7179 42.8597 52.7179Z" fill="url(#paint4_linear_107_927)"/>
<path d="M47.6421 34.3062C48.1428 33.2971 48.1428 31.7836 48.1428 30.7746" stroke="black" stroke-width="2" stroke-linecap="round"/>
</g>
<defs>
<filter id="filter1_d_107_927" x="7.59766" y="11.1533" width="55.6074" height="55.7183" filterUnits="userSpaceOnUse" color-interpolation-filters="sRGB">
<feFlood flood-opacity="0" result="BackgroundImageFix"/>
<feColorMatrix in="SourceAlpha" type="matrix" values="0 0 0 0 0 0 0 0 0 0 0 0 0 0 0 0 0 0 127 0" result="hardAlpha"/>
<feOffset dy="4"/>
<feGaussianBlur stdDeviation="5"/>
<feComposite in2="hardAlpha" operator="out"/>
<feColorMatrix type="matrix" values="0 0 0 0 0 0 0 0 0 0 0 0 0 0 0 0 0 0 0.1 0"/>
<feBlend mode="normal" in2="BackgroundImageFix" result="effect1_dropShadow_107_927"/>
<feBlend mode="normal" in="SourceGraphic" in2="effect1_dropShadow_107_927" result="shape"/>
</filter>
<linearGradient id="paint0_linear_107_927" x1="35" y1="0" x2="35" y2="70" gradientUnits="userSpaceOnUse">
<stop stop-color="#9EDEFF"/>
<stop offset="1" stop-color="#0058E2"/>
</linearGradient>
<linearGradient id="paint1_linear_107_927" x1="47.2058" y1="17.1533" x2="47.2058" y2="29.8707" gradientUnits="userSpaceOnUse">
<stop stop-color="white"/>
<stop offset="1" stop-color="#97D4F7"/>
</linearGradient>
<linearGradient id="paint2_linear_107_927" x1="27.7612" y1="17.1758" x2="27.7612" y2="29.873" gradientUnits="userSpaceOnUse">
<stop stop-color="white"/>
<stop offset="1" stop-color="#97D4F7"/>
</linearGradient>
<linearGradient id="paint3_linear_107_927" x1="23.4442" y1="32.4185" x2="23.4442" y2="52.8715" gradientUnits="userSpaceOnUse">
<stop stop-color="white"/>
<stop offset="1" stop-color="#97D4F7"/>
</linearGradient>
<linearGradient id="paint4_linear_107_927" x1="42.911" y1="32.2881" x2="42.911" y2="52.7224" gradientUnits="userSpaceOnUse">
<stop stop-color="white"/>
<stop offset="1" stop-color="#97D4F7"/>
</linearGradient>
</defs>
</svg>
