<svg width="70" height="70" viewBox="0 0 70 70" fill="none" xmlns="http://www.w3.org/2000/svg">
<rect width="70" height="70" rx="19.9106" fill="black" fill-opacity="0.01"/>
<rect y="0.156738" width="69.6869" height="69.6869" rx="19.9106" fill="url(#paint0_linear_107_940)" fill-opacity="0.7"/>
<mask id="mask0_107_940" style="mask-type:alpha" maskUnits="userSpaceOnUse" x="0" y="0" width="70" height="70">
<rect width="70" height="70" rx="19.9106" fill="url(#paint1_linear_107_940)" fill-opacity="0.7"/>
</mask>
<g mask="url(#mask0_107_940)">
<path d="M71 -1V55C71 55 68 28 35 29C2 30 -1 3 -1 3V-1H71Z" fill="url(#paint2_linear_107_940)"/>
<path d="M-2.99963 17L-2.99963 19.8307C-2.51966 26.7828 1.80021 44.0576 33.0004 43C72.0003 41.678 69.0004 69 69.0004 69L69.0004 73L-2.99963 73L-2.99963 19.8307C-3.11962 18.0928 -2.99963 17 -2.99963 17Z" fill="url(#paint3_linear_107_940)"/>
</g>
<g filter="url(#filter1_d_107_940)">
<ellipse cx="35.2832" cy="30.9961" rx="13" ry="12" fill="white"/>
<path d="M36.1393 48.6317C30.9091 48.6221 25.6788 48.5839 20.4773 47.9726C17.5557 47.6288 15.7643 45.5943 15.4961 42.7003C14.8064 35.3076 14.8543 27.9149 15.5249 20.5221C15.7643 17.8382 17.776 15.8133 20.4486 15.5937C29.7117 14.82 38.9747 14.8009 48.2282 15.5459C51.8683 15.842 53.5543 17.4848 54.1003 21.1048C55.154 28.1918 55.2785 35.298 54.493 42.4138C54.1099 45.8904 52.1749 47.858 48.6689 48.0586C44.4923 48.3069 40.3254 48.603 36.1393 48.6317ZM32.8057 27.2654C32.48 27.2463 32.1543 27.3227 31.9244 27.5424C29.75 29.7009 27.5563 31.8404 25.4393 34.0564C24.8742 34.639 24.9508 35.4413 25.5351 36.043C26.1003 36.6257 26.7804 36.6257 27.4318 36.1767C27.7479 35.9666 28.0161 35.6801 28.2844 35.4126C29.568 34.1328 30.8707 32.8815 32.1065 31.5539C32.6046 31.019 32.8919 31.0954 33.3326 31.5826C33.984 32.2989 34.6928 32.9866 35.3921 33.6552C36.3021 34.5244 37.1259 34.5244 38.036 33.6361C39.971 31.7258 41.8868 29.806 43.7931 27.8671C44.5594 27.0839 44.6456 25.9282 44.0325 25.3455C43.4099 24.7629 42.4711 24.9157 41.6378 25.7467C40.2871 27.103 38.9077 28.4306 37.5953 29.8347C37.0206 30.446 36.647 30.5701 36.0531 29.8633C35.4592 29.147 34.7407 28.5261 34.0798 27.8575C33.7349 27.4946 33.3422 27.2272 32.8057 27.2654Z" fill="url(#paint4_linear_107_940)"/>
<path d="M34.7695 51.6976C37.3463 51.6976 39.9327 51.6881 42.5095 51.6976C43.8505 51.6976 44.6073 52.3089 44.5977 53.35C44.5977 54.3911 43.8505 54.9928 42.4903 54.9928C37.3271 55.0024 32.1735 55.0024 27.0103 54.9928C25.7075 54.9928 24.9987 54.4293 24.9412 53.4264C24.8837 52.3376 25.5351 51.7167 26.8092 51.7072C29.4722 51.6881 32.116 51.6976 34.7695 51.6976Z" fill="url(#paint5_linear_107_940)"/>
<path d="M36.1393 48.6317C30.9091 48.6221 25.6788 48.5839 20.4773 47.9726C17.5557 47.6288 15.7643 45.5943 15.4961 42.7003C14.8064 35.3076 14.8543 27.9149 15.5249 20.5221C15.7643 17.8382 17.776 15.8133 20.4486 15.5937C29.7117 14.82 38.9747 14.8009 48.2282 15.5459C51.8683 15.842 53.5543 17.4848 54.1003 21.1048C55.154 28.1918 55.2785 35.298 54.493 42.4138C54.1099 45.8904 52.1749 47.858 48.6689 48.0586C44.4923 48.3069 40.3254 48.603 36.1393 48.6317ZM32.8057 27.2654C32.48 27.2463 32.1543 27.3227 31.9244 27.5424C29.75 29.7009 27.5563 31.8404 25.4393 34.0564C24.8742 34.639 24.9508 35.4413 25.5351 36.043C26.1003 36.6257 26.7804 36.6257 27.4318 36.1767C27.7479 35.9666 28.0161 35.6801 28.2844 35.4126C29.568 34.1328 30.8707 32.8815 32.1065 31.5539C32.6046 31.019 32.8919 31.0954 33.3326 31.5826C33.984 32.2989 34.6928 32.9866 35.3921 33.6552C36.3021 34.5244 37.1259 34.5244 38.036 33.6361C39.971 31.7258 41.8868 29.806 43.7931 27.8671C44.5594 27.0839 44.6456 25.9282 44.0325 25.3455C43.4099 24.7629 42.4711 24.9157 41.6378 25.7467C40.2871 27.103 38.9077 28.4306 37.5953 29.8347C37.0206 30.446 36.647 30.5701 36.0531 29.8633C35.4592 29.147 34.7407 28.5261 34.0798 27.8575C33.7349 27.4946 33.3422 27.2272 32.8057 27.2654Z" stroke="white" stroke-width="1.49329"/>
<path d="M34.7695 51.6976C37.3463 51.6976 39.9327 51.6881 42.5095 51.6976C43.8505 51.6976 44.6073 52.3089 44.5977 53.35C44.5977 54.3911 43.8505 54.9928 42.4903 54.9928C37.3271 55.0024 32.1735 55.0024 27.0103 54.9928C25.7075 54.9928 24.9987 54.4293 24.9412 53.4264C24.8837 52.3376 25.5351 51.7167 26.8092 51.7072C29.4722 51.6881 32.116 51.6976 34.7695 51.6976Z" stroke="white" stroke-width="1.49329"/>
<path d="M26.4435 53.0002C22.4374 53 22.9383 49.0001 23.4391 47.9998" stroke="black" stroke-width="1.99106" stroke-linecap="round"/>
<path d="M44.7631 53.0002C48.7691 53 48.2682 49.0001 47.7675 47.9998" stroke="black" stroke-width="1.99106" stroke-linecap="round"/>
</g>
<defs>
<filter id="filter1_d_107_940" x="10.2713" y="14.2534" width="49.4574" height="49.4574" filterUnits="userSpaceOnUse" color-interpolation-filters="sRGB">
<feFlood flood-opacity="0" result="BackgroundImageFix"/>
<feColorMatrix in="SourceAlpha" type="matrix" values="0 0 0 0 0 0 0 0 0 0 0 0 0 0 0 0 0 0 127 0" result="hardAlpha"/>
<feOffset dy="3.98211"/>
<feGaussianBlur stdDeviation="1.99106"/>
<feComposite in2="hardAlpha" operator="out"/>
<feColorMatrix type="matrix" values="0 0 0 0 0 0 0 0 0 0 0 0 0 0 0 0 0 0 0.25 0"/>
<feBlend mode="normal" in2="BackgroundImageFix" result="effect1_dropShadow_107_940"/>
<feBlend mode="normal" in="SourceGraphic" in2="effect1_dropShadow_107_940" result="shape"/>
</filter>
<linearGradient id="paint0_linear_107_940" x1="34.8435" y1="0.156738" x2="34.8435" y2="69.8437" gradientUnits="userSpaceOnUse">
<stop stop-color="#EBEEF1"/>
<stop offset="1" stop-color="#E5E7EB"/>
</linearGradient>
<linearGradient id="paint1_linear_107_940" x1="35" y1="0" x2="35" y2="70" gradientUnits="userSpaceOnUse">
<stop stop-color="#EBEEF1"/>
<stop offset="1" stop-color="#E5E7EB"/>
</linearGradient>
<linearGradient id="paint2_linear_107_940" x1="35" y1="-1" x2="35" y2="55" gradientUnits="userSpaceOnUse">
<stop stop-color="#ACFFBC"/>
<stop offset="1" stop-color="#00991A"/>
</linearGradient>
<linearGradient id="paint3_linear_107_940" x1="33.0005" y1="17" x2="33.0005" y2="73" gradientUnits="userSpaceOnUse">
<stop stop-color="#FFE5F6"/>
<stop offset="1" stop-color="#F883CE"/>
</linearGradient>
<linearGradient id="paint4_linear_107_940" x1="35" y1="15" x2="35" y2="55" gradientUnits="userSpaceOnUse">
<stop stop-color="#58B6F9"/>
<stop offset="1" stop-color="#2276F5"/>
</linearGradient>
<linearGradient id="paint5_linear_107_940" x1="35" y1="15" x2="35" y2="55" gradientUnits="userSpaceOnUse">
<stop stop-color="#58B6F9"/>
<stop offset="1" stop-color="#2276F5"/>
</linearGradient>
</defs>
</svg>
