<svg width="70" height="70" viewBox="0 0 70 70" fill="none" xmlns="http://www.w3.org/2000/svg">
<rect width="70" height="70" rx="20" fill="black" fill-opacity="0.01"/>
<rect width="70" height="70" rx="20" fill="url(#paint0_linear_107_1035)" fill-opacity="0.7"/>
<g filter="url(#filter1_dd_107_1035)">
<path d="M54.9027 31.7957C57.2127 32.5004 58.4615 34.4083 57.5614 37.5357C56.466 41.3349 55.8152 45.2331 55.3163 49.1534C54.7741 53.415 52.5724 55.4963 48.6138 55.5073C44.0696 55.5073 39.5253 55.5073 34.9811 55.5073C30.3718 55.5073 25.7516 55.5073 21.1423 55.5073C17.6717 55.5073 14.8627 52.6442 14.8519 49.1203C14.841 41.2798 14.841 33.4173 14.8519 25.5657C15.3445 21.2011 18.3489 18.6786 22.4871 19.2889C24.0624 19.1788 25.5459 19.2889 27.2266 19.2779C28.4413 19.0576 29.3848 19.2118 30.2633 19.8395C31.5322 20.7315 32.8662 21.5463 34.1134 22.4824C34.8835 23.066 35.6643 23.2422 36.5971 23.2312C39.8724 23.1871 43.1369 23.1981 46.4122 23.2202C49.2754 23.2422 51.6289 25.1363 52.2688 27.7241C52.3121 27.9003 52.3338 28.0875 52.3772 28.2747C52.3881 28.3077 52.3881 30.7536 52.399 30.7867C52.7135 32.3063 53.4494 31.3552 54.9027 31.7957Z" fill="white"/>
<path d="M47.8766 28.158C48.5936 27.4264 49.3788 26.6445 49.8796 26.14C50.0856 25.9327 50.7292 25.371 50.881 25.1419C51.6076 25.9602 52.2097 27.0342 52.3832 28.158C52.4917 28.9436 52.2925 29.498 51.4793 29.4107C51.0021 29.3562 50.5142 29.378 50.0371 29.3998C49.1913 29.4544 48.2128 29.2273 47.8766 28.158Z" fill="url(#paint1_linear_107_1035)"/>
<path d="M57.7737 36.8164C56.9171 41.2353 56.0496 45.6541 55.1821 50.062C54.4556 53.7061 52.2977 55.4955 48.6108 55.4955H21.1437C17.3267 55.4846 14.8652 53.0515 14.8543 49.2C14.8435 41.3989 14.8435 33.6087 14.8543 25.8185C14.8652 21.9561 17.305 19.194 21.122 19.1831C23.4642 19.1831 25.8065 19.2049 28.1487 19.1722C28.9403 19.1613 29.6235 19.3686 30.2632 19.8159C30.4584 19.9468 30.6428 20.0778 30.838 20.2087C30.7512 20.3615 30.6753 20.5142 30.6102 20.6669C30.003 22.1399 30.1548 23.9964 30.9789 25.2948C30.0572 24.6074 29.103 23.9855 28.062 23.6691C26.2944 23.1236 24.245 23.5055 22.3148 23.4945C19.1159 23.4945 18.8231 23.7891 18.8231 26.9641C18.8231 34.3506 18.834 41.7262 18.8123 49.1018C18.8123 50.0401 19.0183 50.8257 19.9075 51.2731C20.7967 51.7204 21.1111 51.5567 21.3063 50.5639C22.2064 46.0469 23.1172 41.5408 24.0064 37.0237C24.7655 33.205 26.8041 31.5139 30.6861 31.5139C32.779 31.5139 34.8827 31.5139 36.9755 31.503C37.2032 31.743 37.4309 31.9612 37.6587 32.1903C38.8948 33.4123 40.1961 33.6742 41.0636 33.6742C41.9419 33.6742 43.2432 33.4123 44.4793 32.1903C44.7071 31.9612 44.9348 31.7321 45.1625 31.503C47.9168 31.503 50.6603 31.5139 53.4037 31.5139C56.7653 31.5139 58.4135 33.5105 57.7737 36.8164Z" fill="url(#paint2_linear_107_1035)"/>
<path d="M44.0889 18.1917C44.0889 19.01 44.1106 19.8392 44.0781 20.6575C44.0672 21.1158 44.219 21.2685 44.6745 21.2467C45.4552 21.214 46.2468 21.2358 47.0384 21.2467C47.7432 21.2576 48.2421 21.574 48.5131 22.2287C48.7734 22.8615 48.589 23.4288 48.1445 23.8871C46.1709 25.8837 44.1973 27.8913 42.2021 29.8661C41.4756 30.5862 40.6731 30.5862 39.9466 29.8661C37.9514 27.8913 35.9778 25.8946 34.0043 23.8871C33.5488 23.4288 33.3753 22.8615 33.6356 22.2287C33.9067 21.574 34.4163 21.2576 35.1103 21.2467C35.8694 21.2358 36.6284 21.214 37.3767 21.2576C37.9188 21.2903 38.0815 21.1049 38.0707 20.5593C38.0381 19.01 38.0815 17.4498 38.049 15.9005C38.0381 15.3331 38.1682 15.1258 38.7755 15.1367C40.3153 15.1804 41.866 15.1804 43.4058 15.1367C44.013 15.1149 44.154 15.3331 44.1323 15.9005C44.0564 16.6642 44.0889 17.428 44.0889 18.1917Z" fill="url(#paint3_linear_107_1035)"/>
</g>
<defs>
<filter id="filter1_dd_107_1035" x="4.84375" y="9.13525" width="63.0659" height="60.3721" filterUnits="userSpaceOnUse" color-interpolation-filters="sRGB">
<feFlood flood-opacity="0" result="BackgroundImageFix"/>
<feColorMatrix in="SourceAlpha" type="matrix" values="0 0 0 0 0 0 0 0 0 0 0 0 0 0 0 0 0 0 127 0" result="hardAlpha"/>
<feOffset dy="4"/>
<feGaussianBlur stdDeviation="5"/>
<feComposite in2="hardAlpha" operator="out"/>
<feColorMatrix type="matrix" values="0 0 0 0 0 0 0 0 0 0 0 0 0 0 0 0 0 0 0.25 0"/>
<feBlend mode="normal" in2="BackgroundImageFix" result="effect1_dropShadow_107_1035"/>
<feColorMatrix in="SourceAlpha" type="matrix" values="0 0 0 0 0 0 0 0 0 0 0 0 0 0 0 0 0 0 127 0" result="hardAlpha"/>
<feOffset dy="4"/>
<feGaussianBlur stdDeviation="2"/>
<feComposite in2="hardAlpha" operator="out"/>
<feColorMatrix type="matrix" values="0 0 0 0 0 0 0 0 0 0 0 0 0 0 0 0 0 0 0.25 0"/>
<feBlend mode="normal" in2="effect1_dropShadow_107_1035" result="effect2_dropShadow_107_1035"/>
<feBlend mode="normal" in="SourceGraphic" in2="effect2_dropShadow_107_1035" result="shape"/>
</filter>
<linearGradient id="paint0_linear_107_1035" x1="35" y1="0" x2="35" y2="70" gradientUnits="userSpaceOnUse">
<stop stop-color="white"/>
<stop offset="1" stop-color="white"/>
</linearGradient>
<linearGradient id="paint1_linear_107_1035" x1="36.3779" y1="15.1353" x2="36.3779" y2="55.4955" gradientUnits="userSpaceOnUse">
<stop stop-color="#FFA6B7"/>
<stop offset="1" stop-color="#FF2A51"/>
</linearGradient>
<linearGradient id="paint2_linear_107_1035" x1="36.3779" y1="15.1353" x2="36.3779" y2="55.4955" gradientUnits="userSpaceOnUse">
<stop stop-color="#FFA6B7"/>
<stop offset="1" stop-color="#FF2A51"/>
</linearGradient>
<linearGradient id="paint3_linear_107_1035" x1="36.3779" y1="15.1353" x2="36.3779" y2="55.4955" gradientUnits="userSpaceOnUse">
<stop stop-color="#FFA6B7"/>
<stop offset="1" stop-color="#FF2A51"/>
</linearGradient>
</defs>
</svg>
