<svg width="100" height="100" viewBox="0 0 100 100" fill="none" xmlns="http://www.w3.org/2000/svg">
<rect width="100" height="100" rx="28.5714" fill="black" fill-opacity="0.01"/>
<rect width="100" height="100" rx="28.5714" fill="white" fill-opacity="0.7"/>
<g filter="url(#filter1_d_107_890)">
<path d="M78.6846 57.9653C78.5601 61.053 78.9585 64.9127 78.5103 68.7475C77.813 74.7487 72.9573 79.0442 66.9187 79.1065C65.2628 79.1314 63.6068 79.1189 61.9509 79.1065C58.1161 79.0691 55.7505 76.7159 55.7131 72.906C55.6882 69.8183 55.7505 66.7305 55.6758 63.6428C55.6135 60.9036 53.7833 58.5878 51.3554 57.9653C47.9439 57.0937 44.5075 59.7208 44.3581 63.4684C44.2336 66.4566 44.3208 69.4697 44.3083 72.4578C44.2959 76.8155 42.0423 79.094 37.697 79.1065C36.315 79.1065 34.9205 79.1065 33.5385 79.1065C26.5786 79.094 21.4738 74.1636 21.3618 67.1787C21.2622 60.5176 21.2995 53.8441 21.3618 47.1705C21.3991 43.2984 22.9306 40.0612 25.9561 37.5711C31.0359 33.3877 36.0784 29.1669 41.1708 25.0084C46.4747 20.6756 53.5218 20.6631 58.8258 24.9835C63.9305 29.1296 68.9731 33.3628 74.0405 37.5462C77.1407 40.0986 78.6223 43.4229 78.6721 47.4071C78.7219 50.6816 78.6846 53.9561 78.6846 57.9653Z" fill="url(#paint0_linear_107_890)"/>
<path d="M44.2991 67.6465C45.7348 69.0807 50.042 71.9492 55.7849 67.6465" stroke="black" stroke-width="2.85714" stroke-linecap="round"/>
</g>
<defs>
<filter id="filter1_d_107_890" x="7.01458" y="13.1795" width="86.0009" height="85.9411" filterUnits="userSpaceOnUse" color-interpolation-filters="sRGB">
<feFlood flood-opacity="0" result="BackgroundImageFix"/>
<feColorMatrix in="SourceAlpha" type="matrix" values="0 0 0 0 0 0 0 0 0 0 0 0 0 0 0 0 0 0 127 0" result="hardAlpha"/>
<feOffset dy="5.71429"/>
<feGaussianBlur stdDeviation="7.14286"/>
<feComposite in2="hardAlpha" operator="out"/>
<feColorMatrix type="matrix" values="0 0 0 0 0 0 0 0 0 0 0 0 0 0 0 0 0 0 0.25 0"/>
<feBlend mode="normal" in2="BackgroundImageFix" result="effect1_dropShadow_107_890"/>
<feBlend mode="normal" in="SourceGraphic" in2="effect1_dropShadow_107_890" result="shape"/>
</filter>
<linearGradient id="paint0_linear_107_890" x1="50.015" y1="21.751" x2="50.015" y2="79.1208" gradientUnits="userSpaceOnUse">
<stop stop-color="#01C2FF"/>
<stop offset="1" stop-color="#2593FF"/>
</linearGradient>
</defs>
</svg>
