<svg width="70" height="70" viewBox="0 0 70 70" fill="none" xmlns="http://www.w3.org/2000/svg">
<rect width="70" height="70" rx="20" fill="black" fill-opacity="0.01"/>
<rect width="70" height="70" rx="20" fill="url(#paint0_linear_107_980)" fill-opacity="0.7"/>
<path d="M46.0264 52.8971C44.4591 53.1222 42.8917 53.3571 41.3243 53.5626C36.4361 54.1989 31.5479 54.8155 26.6597 55.4419C23.8384 55.8041 21.84 54.3065 21.4678 51.4876C20.3412 43.0112 19.2343 34.5349 18.1371 26.0585C17.853 23.8268 19.1657 21.8399 21.2719 21.1939C22.418 20.8415 22.5453 20.9296 22.5453 22.0944C22.5453 29.68 22.5453 37.2755 22.5453 44.8611C22.5453 49.7258 25.5135 52.6817 30.4018 52.6915C35.5936 52.6915 40.7953 52.6915 45.9872 52.6915C45.9872 52.76 46.0068 52.8285 46.0264 52.8971Z" fill="black"/>
<path d="M54.1472 32.5382C54.1472 36.6981 54.157 40.858 54.1472 45.0179C54.1374 48.1305 52.4427 49.8336 49.3275 49.8336C42.9699 49.8434 36.6123 49.8434 30.2547 49.8336C27.1395 49.8336 25.4448 48.1403 25.4448 45.0179C25.4448 36.6688 25.4448 28.3196 25.4448 19.9705C25.4448 16.8481 27.1493 15.145 30.2547 15.145C36.6025 15.1353 42.9699 15.1353 49.3275 15.1353C52.4329 15.1353 54.1374 16.8481 54.1472 19.9607C54.157 24.1598 54.1472 28.349 54.1472 32.5382ZM39.7862 39.6541C37.5233 39.6541 35.2604 39.6443 32.9976 39.6541C31.871 39.6541 31.2049 40.1826 31.1755 41.0538C31.1461 41.9738 31.822 42.5513 33.0074 42.5513C37.5331 42.5611 42.0589 42.5611 46.5847 42.5513C47.7112 42.5513 48.3871 42.013 48.4165 41.1516C48.4459 40.2512 47.7406 39.6541 46.5749 39.6541C44.312 39.6443 42.0491 39.6541 39.7862 39.6541ZM39.7764 31.0309C42.0393 31.0309 44.3022 31.0407 46.5651 31.0309C47.7308 31.0309 48.4361 30.4436 48.4165 29.5431C48.3969 28.672 47.721 28.1337 46.5944 28.1337C42.0687 28.1239 37.5429 28.1239 33.0172 28.1337C31.822 28.1337 31.1559 28.6916 31.1853 29.6214C31.2147 30.5023 31.8808 31.0309 32.9976 31.0407C35.2507 31.0309 37.5135 31.0309 39.7764 31.0309ZM39.7764 36.796C42.0393 36.796 44.3022 36.8058 46.5651 36.796C47.7406 36.796 48.4361 36.2087 48.4067 35.3082C48.3773 34.4371 47.7014 33.889 46.5847 33.889C42.0589 33.8792 37.5331 33.8792 33.0074 33.889C31.822 33.889 31.1461 34.4567 31.1657 35.3768C31.1853 36.2577 31.8514 36.796 32.978 36.796C35.2506 36.8058 37.5135 36.796 39.7764 36.796ZM39.6687 25.2462C42.0001 25.2462 44.3218 25.256 46.6532 25.2462C47.7406 25.2462 48.4361 24.6491 48.4165 23.778C48.3969 22.9363 47.7602 22.3881 46.6924 22.3783C42.1079 22.3686 37.5135 22.3686 32.929 22.3783C31.8024 22.3783 31.1559 22.9363 31.1755 23.8368C31.1951 24.7177 31.8612 25.2462 32.9878 25.2462C35.2115 25.256 37.4352 25.2462 39.6687 25.2462Z" fill="#EE4843"/>
<path d="M44.7076 23.6969C48.1433 24.7204 47.1414 29.7659 44.7132 29.6991" stroke="black" stroke-width="2" stroke-linecap="round"/>
<path d="M44.7102 35.3155C47.5464 36.7188 47.0813 39.9801 44.7229 40.9062" stroke="black" stroke-width="2" stroke-linecap="round"/>
<defs>
<linearGradient id="paint0_linear_107_980" x1="35" y1="0" x2="35" y2="70" gradientUnits="userSpaceOnUse">
<stop stop-color="white"/>
<stop offset="1" stop-color="#E5E7EB"/>
</linearGradient>
</defs>
</svg>
