<svg width="70" height="70" viewBox="0 0 70 70" fill="none" xmlns="http://www.w3.org/2000/svg">
<rect width="70" height="70" rx="20" fill="black" fill-opacity="0.01"/>
<rect width="70" height="70" rx="20" fill="url(#paint0_linear_107_970)" fill-opacity="0.7"/>
<g filter="url(#filter1_d_107_970)">
<path d="M34.8626 14.8657C38.3126 14.8851 41.7142 15.2534 45.0383 16.1643C46.6761 16.6101 48.2363 17.24 49.6222 18.2285C50.9983 19.217 51.7736 20.4963 51.7154 22.2697C51.6476 24.2661 51.6282 26.2625 51.7251 28.2588C51.7833 29.5478 51.2309 30.4103 50.2715 31.108C49.0504 31.9996 47.6742 32.6005 46.24 33.0366C41.123 34.5871 35.8802 34.9263 30.5888 34.4224C27.478 34.122 24.4059 33.5986 21.5276 32.2807C20.9849 32.0384 20.4616 31.767 19.948 31.4569C18.63 30.6719 17.8547 29.635 17.971 27.9487C18.1066 26.088 18.0582 24.208 17.9807 22.3376C17.9031 20.4381 18.756 19.1104 20.2484 18.1026C22.2738 16.7264 24.59 16.0868 26.9546 15.6119C29.5615 15.108 32.1975 14.8657 34.8626 14.8657ZM34.8917 17.618C32.4495 17.5986 30.017 17.7731 27.6233 18.2479C25.5107 18.6646 23.4077 19.188 21.6148 20.4769C20.4228 21.3297 20.4519 22.0178 21.6536 22.8803C22.6033 23.5587 23.6597 24.0432 24.7741 24.3533C31.4901 26.2043 38.2157 26.214 44.922 24.3533C46.1527 24.0141 47.335 23.4908 48.3332 22.6477C49.1473 21.9596 49.1473 21.4169 48.3623 20.7095C47.6549 20.0699 46.802 19.6822 45.9298 19.343C42.3732 17.9669 38.6518 17.6568 34.8917 17.618Z" fill="url(#paint1_linear_107_970)"/>
<path d="M34.7753 45.3443C31.1121 45.3152 27.4973 44.9082 23.9601 43.8906C22.4483 43.4545 21.014 42.8634 19.696 42.0008C18.5621 41.2643 17.8547 40.3243 17.9613 38.8318C18.0776 37.2813 17.9903 35.7113 17.9903 34.151C17.9903 33.8022 17.9322 33.3854 18.5137 33.7343C22.7487 36.2346 27.4489 36.9615 32.246 37.2134C37.1981 37.4848 42.0921 37.1262 46.8602 35.6435C48.2945 35.1977 49.69 34.6647 50.9595 33.8506C51.415 33.5599 51.7154 33.4048 51.696 34.1995C51.667 35.973 51.6767 37.7561 51.6863 39.5296C51.6863 40.6053 50.9983 41.2449 50.2327 41.7973C48.8856 42.7858 47.3544 43.3964 45.7554 43.8615C42.1794 44.9276 38.4967 45.3249 34.7753 45.3443Z" fill="url(#paint2_linear_107_970)"/>
<path d="M17.9903 44.2298C24.3186 47.7283 31.0249 48.2322 37.8668 47.9027C41.3071 47.738 44.699 47.205 47.9455 45.9839C49.06 45.5672 50.1551 45.1117 51.1533 44.4527C51.5119 44.2201 51.7057 44.2104 51.7057 44.7337C51.6863 46.1389 51.7735 47.5538 51.6669 48.9494C51.5506 50.5096 50.5331 51.5466 49.2829 52.351C47.1121 53.7465 44.67 54.3861 42.1696 54.8319C36.3065 55.8688 30.4919 55.7138 24.7159 54.202C23.0781 53.7755 21.5179 53.1359 20.1224 52.1571C18.7075 51.1589 17.8837 49.8603 17.9806 48.0481C18.0485 46.8076 17.9903 45.5672 17.9903 44.2298Z" fill="url(#paint3_linear_107_970)"/>
<path d="M24.4832 48.4327C24.4832 39.8561 24.4831 30.775 24.4831 26.7389C24.9835 23.2074 27.8638 22.5153 28.9897 24.2167" stroke="black" stroke-width="2" stroke-linecap="round"/>
<path d="M48.7756 48.4336C48.7756 39.8571 48.7757 30.7759 48.7757 26.7399C48.2753 23.2084 45.395 22.5163 44.2691 24.2177" stroke="black" stroke-width="2" stroke-linecap="round"/>
<path d="M47.5168 15.6403C44.5126 14.6314 43.0104 16.1449 43.2679 18.7002" stroke="black" stroke-width="2" stroke-linecap="round"/>
<path d="M24.469 15.6403C27.4732 14.6314 28.9754 16.1449 28.7179 18.7002" stroke="black" stroke-width="2" stroke-linecap="round"/>
</g>
<defs>
<filter id="filter1_d_107_970" x="7.95068" y="8.32373" width="53.7788" height="61.1719" filterUnits="userSpaceOnUse" color-interpolation-filters="sRGB">
<feFlood flood-opacity="0" result="BackgroundImageFix"/>
<feColorMatrix in="SourceAlpha" type="matrix" values="0 0 0 0 0 0 0 0 0 0 0 0 0 0 0 0 0 0 127 0" result="hardAlpha"/>
<feOffset dy="4"/>
<feGaussianBlur stdDeviation="5"/>
<feComposite in2="hardAlpha" operator="out"/>
<feColorMatrix type="matrix" values="0 0 0 0 0 0 0 0 0 0 0 0 0 0 0 0 0 0 0.25 0"/>
<feBlend mode="normal" in2="BackgroundImageFix" result="effect1_dropShadow_107_970"/>
<feBlend mode="normal" in="SourceGraphic" in2="effect1_dropShadow_107_970" result="shape"/>
</filter>
<linearGradient id="paint0_linear_107_970" x1="35" y1="0" x2="35" y2="70" gradientUnits="userSpaceOnUse">
<stop stop-color="#ACFFBC"/>
<stop offset="1" stop-color="#00991A"/>
</linearGradient>
<linearGradient id="paint1_linear_107_970" x1="34.84" y1="14.8657" x2="34.84" y2="55.4954" gradientUnits="userSpaceOnUse">
<stop stop-color="white"/>
<stop offset="1" stop-color="#AAFFCE"/>
</linearGradient>
<linearGradient id="paint2_linear_107_970" x1="34.84" y1="14.8657" x2="34.84" y2="55.4954" gradientUnits="userSpaceOnUse">
<stop stop-color="white"/>
<stop offset="1" stop-color="#AAFFCE"/>
</linearGradient>
<linearGradient id="paint3_linear_107_970" x1="34.84" y1="14.8657" x2="34.84" y2="55.4954" gradientUnits="userSpaceOnUse">
<stop stop-color="white"/>
<stop offset="1" stop-color="#AAFFCE"/>
</linearGradient>
</defs>
</svg>
