<svg width="70" height="70" viewBox="0 0 70 70" fill="none" xmlns="http://www.w3.org/2000/svg">
<g filter="url(#filter0_ii_107_1025)">
<rect width="70" height="70" rx="20" fill="black" fill-opacity="0.01"/>
<rect width="70" height="70" rx="20" fill="url(#paint0_linear_107_1025)" fill-opacity="0.7"/>
</g>
<g filter="url(#filter1_dd_107_1025)">
<path d="M22.3703 35.2873C22.3703 35.0763 22.3504 34.8653 22.3703 34.6543C22.5103 33.3881 22.3104 32.5339 20.9207 31.8104C18.4213 30.5141 17.9014 27.1477 19.551 24.8465C21.1906 22.5654 24.3499 22.073 26.5293 23.8316C27.0092 24.2134 27.3191 24.2034 27.799 23.9019C28.9487 23.1784 30.1284 22.5051 31.3181 21.862C31.758 21.6208 31.858 21.3796 31.798 20.8772C31.5181 18.7468 32.2779 17.0485 34.0975 15.913C35.807 14.8579 37.5866 14.878 39.2662 15.9633C41.0058 17.0887 41.7656 18.7569 41.4756 20.8169C41.3957 21.4198 41.5956 21.6509 42.0555 21.9022C43.2852 22.5855 44.5049 23.299 45.7146 24.0225C46.0645 24.2335 46.2745 24.2235 46.5944 23.9622C48.254 22.6156 50.0935 22.3644 51.9931 23.3492C53.8226 24.3039 54.7624 25.8916 54.6424 27.9717C54.5224 30.1121 53.3927 31.5893 51.3932 32.3631C51.0133 32.5138 50.8933 32.7048 50.9033 33.1067C50.9233 34.5739 50.9233 36.041 50.9033 37.5082C50.8933 37.9302 51.0033 38.1412 51.4232 38.3121C53.3827 39.0758 54.5124 40.5429 54.6324 42.6432C54.7624 44.7534 53.8226 46.3613 51.9531 47.326C50.0735 48.2907 48.254 48.0394 46.6144 46.723C46.2645 46.4417 46.0345 46.4316 45.6646 46.6527C44.5049 47.3561 43.3352 48.0495 42.1455 48.6926C41.5956 48.984 41.4057 49.2755 41.4856 49.9588C41.7956 52.7021 40.016 54.9933 37.3567 55.4354C34.9173 55.8374 32.4779 54.1793 31.858 51.6972C31.6881 51.0039 31.6881 50.2904 31.818 49.587C31.888 49.2252 31.768 49.0644 31.4881 48.9036C30.1484 48.1399 28.8088 47.3863 27.4991 46.5823C27.1192 46.3512 26.9192 46.4919 26.6293 46.723C23.71 49.0544 19.521 47.537 18.7212 43.8792C18.2214 41.5679 19.4911 39.2165 21.7605 38.3121C22.2204 38.1312 22.4203 37.9302 22.3803 37.4177C22.3404 36.7042 22.3703 35.9908 22.3703 35.2873ZM28.3489 43.9294C28.2289 44.261 28.4389 44.4218 28.7088 44.5826C30.0185 45.3363 31.3381 46.0899 32.6378 46.8637C32.9477 47.0446 33.1477 47.0546 33.4576 46.8135C35.5071 45.1855 37.8066 45.1755 39.8261 46.7934C40.116 47.0245 40.3159 47.0647 40.6359 46.8738C41.9355 46.1 43.2452 45.3463 44.5649 44.6027C44.8848 44.4218 45.0148 44.2208 44.9348 43.849C44.4149 41.5177 45.9146 39.0054 48.124 38.302C48.4939 38.1814 48.5839 37.9805 48.5739 37.6187C48.5539 36.1013 48.5639 34.5739 48.5739 33.0565C48.5739 32.745 48.5139 32.554 48.184 32.4033C45.6146 31.2678 44.6449 29.5795 44.9448 26.8161C44.9848 26.4945 44.9348 26.2835 44.6249 26.1127C43.2652 25.3389 41.9055 24.5551 40.5659 23.7612C40.2859 23.6004 40.116 23.6607 39.886 23.8517C37.7466 25.5097 35.5671 25.5198 33.4576 23.8617C33.1877 23.6507 33.0077 23.6105 32.7078 23.7914C31.3881 24.5752 30.0485 25.349 28.7088 26.1127C28.4189 26.2835 28.3289 26.4644 28.3689 26.806C28.6488 29.6298 27.689 31.2979 25.1497 32.4133C24.8897 32.5239 24.7298 32.6344 24.7298 32.966C24.7498 34.5437 24.7398 36.1114 24.7398 37.689C24.7398 37.9302 24.7798 38.091 25.0597 38.2216C27.799 39.5179 28.5988 40.9147 28.3489 43.9294Z" fill="url(#paint1_linear_107_1025)"/>
</g>
<path d="M50.1455 27.7473C40.1309 28.7572 36.7138 31.9324 36.6259 35.3155M36.6259 35.3155C39.4371 37.1678 41.033 41.3338 36.6258 50.4503M36.6259 35.3155C33.6214 33.8022 33.1204 27.748 36.6256 20.1802M36.6259 35.3155C39.4821 33.5345 45.5946 35.9024 50.1453 42.8826M36.6259 35.3155C36.7287 38.6982 31.3812 42.4024 23.106 42.883M23.145 27.7478C28.7776 36.1518 33.6275 36.3373 36.6254 34.8104" stroke="black" stroke-width="2" stroke-linecap="round"/>
<defs>
<filter id="filter0_ii_107_1025" x="-0.75" y="-0.75" width="71.25" height="71.25" filterUnits="userSpaceOnUse" color-interpolation-filters="sRGB">
<feFlood flood-opacity="0" result="BackgroundImageFix"/>
<feBlend mode="normal" in="SourceGraphic" in2="BackgroundImageFix" result="shape"/>
<feColorMatrix in="SourceAlpha" type="matrix" values="0 0 0 0 0 0 0 0 0 0 0 0 0 0 0 0 0 0 127 0" result="hardAlpha"/>
<feOffset dx="0.5" dy="0.5"/>
<feGaussianBlur stdDeviation="0.45"/>
<feComposite in2="hardAlpha" operator="arithmetic" k2="-1" k3="1"/>
<feColorMatrix type="matrix" values="0 0 0 0 1 0 0 0 0 1 0 0 0 0 1 0 0 0 1 0"/>
<feBlend mode="normal" in2="shape" result="effect1_innerShadow_107_1025"/>
<feColorMatrix in="SourceAlpha" type="matrix" values="0 0 0 0 0 0 0 0 0 0 0 0 0 0 0 0 0 0 127 0" result="hardAlpha"/>
<feOffset dx="-0.75" dy="-0.75"/>
<feGaussianBlur stdDeviation="0.45"/>
<feComposite in2="hardAlpha" operator="arithmetic" k2="-1" k3="1"/>
<feColorMatrix type="matrix" values="0 0 0 0 0 0 0 0 0 0 0 0 0 0 0 0 0 0 0.47 0"/>
<feBlend mode="normal" in2="effect1_innerShadow_107_1025" result="effect2_innerShadow_107_1025"/>
</filter>
<filter id="filter1_dd_107_1025" x="8.59961" y="9.13525" width="56.0532" height="60.3604" filterUnits="userSpaceOnUse" color-interpolation-filters="sRGB">
<feFlood flood-opacity="0" result="BackgroundImageFix"/>
<feColorMatrix in="SourceAlpha" type="matrix" values="0 0 0 0 0 0 0 0 0 0 0 0 0 0 0 0 0 0 127 0" result="hardAlpha"/>
<feOffset dy="4"/>
<feGaussianBlur stdDeviation="5"/>
<feComposite in2="hardAlpha" operator="out"/>
<feColorMatrix type="matrix" values="0 0 0 0 0 0 0 0 0 0 0 0 0 0 0 0 0 0 0.25 0"/>
<feBlend mode="normal" in2="BackgroundImageFix" result="effect1_dropShadow_107_1025"/>
<feColorMatrix in="SourceAlpha" type="matrix" values="0 0 0 0 0 0 0 0 0 0 0 0 0 0 0 0 0 0 127 0" result="hardAlpha"/>
<feOffset dy="4"/>
<feGaussianBlur stdDeviation="2"/>
<feComposite in2="hardAlpha" operator="out"/>
<feColorMatrix type="matrix" values="0 0 0 0 0 0 0 0 0 0 0 0 0 0 0 0 0 0 0.25 0"/>
<feBlend mode="normal" in2="effect1_dropShadow_107_1025" result="effect2_dropShadow_107_1025"/>
<feBlend mode="normal" in="SourceGraphic" in2="effect2_dropShadow_107_1025" result="shape"/>
</filter>
<linearGradient id="paint0_linear_107_1025" x1="35" y1="0" x2="35" y2="70" gradientUnits="userSpaceOnUse">
<stop stop-color="#313131"/>
<stop offset="1"/>
</linearGradient>
<linearGradient id="paint1_linear_107_1025" x1="36.6261" y1="15.1353" x2="36.6261" y2="55.4955" gradientUnits="userSpaceOnUse">
<stop stop-color="white"/>
<stop offset="1" stop-color="#AFAFAD"/>
</linearGradient>
</defs>
</svg>
