<svg width="70" height="70" viewBox="0 0 70 70" fill="none" xmlns="http://www.w3.org/2000/svg">
<rect width="70" height="70" rx="20" fill="black" fill-opacity="0.01"/>
<rect width="70" height="70" rx="20" fill="url(#paint0_linear_107_906)" fill-opacity="0.7"/>
<g filter="url(#filter1_d_107_906)">
<path d="M29.3379 55.4545C31.9404 55.4747 34.2026 53.1777 34.1925 50.5282C34.1825 47.8786 32.0004 45.622 29.4179 45.6019C26.8455 45.5716 24.5833 47.8786 24.5733 50.5483C24.5633 53.1878 26.7354 55.4344 29.3379 55.4545Z" fill="url(#paint1_linear_107_906)"/>
<path d="M38.2664 43.8596C35.2035 43.8596 32.1405 43.8596 29.0775 43.8596C25.8144 43.8495 23.8225 42.0462 23.362 38.8225C22.4512 32.4454 21.5002 26.0885 20.5794 19.7115C20.4993 19.1272 20.219 18.9257 19.6485 18.9459C18.6075 18.9761 17.5765 18.9559 16.5355 18.9559C15.1942 18.9459 14.3333 18.1802 14.3433 17.0217C14.3534 15.9034 15.2042 15.1478 16.4954 15.1378C17.6666 15.1378 18.8477 15.1277 20.0188 15.1478C22.2009 15.1881 23.7925 16.5482 24.2229 18.7142C24.393 19.6007 24.5432 20.4973 24.6433 21.404C24.6933 21.8775 24.8935 22.0185 25.3239 21.9782C25.5441 21.9581 25.7644 21.9782 25.9846 21.9782C35.2035 21.9782 44.4223 21.9782 53.6512 21.9782C54.0316 21.9782 54.422 21.9782 54.7923 22.0487C55.9034 22.2502 56.5841 23.167 56.3638 24.2651C55.3529 29.4131 54.3619 34.5711 53.2709 39.709C52.7103 42.3485 50.6383 43.8495 47.7956 43.8596C44.6125 43.8798 41.4395 43.8596 38.2664 43.8596Z" fill="url(#paint2_linear_107_906)"/>
<path d="M46.2342 55.4956C43.5316 55.5057 41.3095 53.2994 41.2995 50.5794C41.2794 47.8795 43.4916 45.6228 46.1842 45.6027C48.8267 45.5825 51.0989 47.8492 51.1289 50.5391C51.159 53.2289 48.9368 55.4856 46.2342 55.4956Z" fill="url(#paint3_linear_107_906)"/>
<path d="M40.3089 37.1363C37.6063 37.1463 35.3842 34.9401 35.3742 32.22C35.3541 29.5201 37.5663 27.2634 40.2589 27.2433C42.9014 27.2231 45.1736 29.4899 45.2036 32.1797C45.2337 34.8695 43.0115 37.1262 40.3089 37.1363Z" fill="#E74B50"/>
<path d="M43.3133 43.1905C40.6107 43.2005 38.3886 40.9943 38.3786 38.2742C38.3585 35.5743 40.5707 33.3176 43.2633 33.2975C45.9058 33.2773 48.178 35.5441 48.208 38.2339C48.2381 40.9237 46.0159 43.1804 43.3133 43.1905Z" fill="#75C7F0"/>
<path d="M33.2987 43.1905C30.5961 43.2005 28.3739 40.9943 28.3639 38.2742C28.3439 35.5743 30.556 33.3176 33.2486 33.2975C35.8912 33.2773 38.1633 35.5441 38.1934 38.2339C38.2234 40.9237 36.0013 43.1804 33.2987 43.1905Z" fill="#EBFEFF"/>
<path d="M26.3608 33.3643C30.6592 33.6207 33.9575 31.1169 36.3242 26.5575" stroke="black" stroke-width="2" stroke-linecap="round"/>
<path d="M49.2603 41.5103C50.7484 39.741 50.8064 37.5924 49.7392 35.2413" stroke="black" stroke-width="2" stroke-linecap="round"/>
</g>
<defs>
<filter id="filter1_d_107_906" x="4.34326" y="9.13525" width="62.0618" height="60.3604" filterUnits="userSpaceOnUse" color-interpolation-filters="sRGB">
<feFlood flood-opacity="0" result="BackgroundImageFix"/>
<feColorMatrix in="SourceAlpha" type="matrix" values="0 0 0 0 0 0 0 0 0 0 0 0 0 0 0 0 0 0 127 0" result="hardAlpha"/>
<feOffset dy="4"/>
<feGaussianBlur stdDeviation="5"/>
<feComposite in2="hardAlpha" operator="out"/>
<feColorMatrix type="matrix" values="0 0 0 0 0 0 0 0 0 0 0 0 0 0 0 0 0 0 0.25 0"/>
<feBlend mode="normal" in2="BackgroundImageFix" result="effect1_dropShadow_107_906"/>
<feBlend mode="normal" in="SourceGraphic" in2="effect1_dropShadow_107_906" result="shape"/>
</filter>
<linearGradient id="paint0_linear_107_906" x1="35" y1="0" x2="35" y2="70" gradientUnits="userSpaceOnUse">
<stop stop-color="white"/>
<stop offset="1" stop-color="#ECEDEA"/>
</linearGradient>
<linearGradient id="paint1_linear_107_906" x1="29.3829" y1="45.6016" x2="29.3829" y2="55.4547" gradientUnits="userSpaceOnUse">
<stop stop-color="#58B6F9"/>
<stop offset="1" stop-color="#2276F5"/>
</linearGradient>
<linearGradient id="paint2_linear_107_906" x1="35.3742" y1="15.1353" x2="35.3742" y2="43.8686" gradientUnits="userSpaceOnUse">
<stop stop-color="#58B6F9"/>
<stop offset="1" stop-color="#2276F5"/>
</linearGradient>
<linearGradient id="paint3_linear_107_906" x1="46.2143" y1="45.6025" x2="46.2143" y2="55.4957" gradientUnits="userSpaceOnUse">
<stop stop-color="#58B6F9"/>
<stop offset="1" stop-color="#2276F5"/>
</linearGradient>
</defs>
</svg>
