<svg width="70" height="70" viewBox="0 0 70 70" fill="none" xmlns="http://www.w3.org/2000/svg">
<rect width="70" height="70" rx="20" fill="black" fill-opacity="0.01"/>
<rect width="70" height="70" rx="20" fill="url(#paint0_linear_107_918)" fill-opacity="0.7"/>
<g filter="url(#filter1_d_107_918)">
<path d="M24.5008 32.0976C22.0807 32.0976 19.649 32.109 17.2289 32.0976C15.2044 32.0862 14.3202 30.6625 15.3208 28.9655C17.799 24.7285 20.3122 20.5143 22.8021 16.3001C23.2442 15.5597 23.8725 15.1383 24.7684 15.2408C25.6643 15.3547 26.1879 15.9014 26.4206 16.7329C26.5835 17.3251 26.758 17.9174 26.9442 18.5097C27.2932 19.6487 27.5492 19.7626 28.6545 19.3184C32.4941 17.7693 36.4267 17.4504 40.4641 18.3844C47.8988 20.1042 53.7629 26.3344 54.8682 33.658C56.0434 41.4714 52.4132 49.0114 45.6533 52.8383C36.671 57.9296 25.4083 55.2302 19.8584 46.6651C18.5553 44.6491 18.9742 42.4053 20.8823 41.1866C22.7323 40.0135 24.9546 40.5944 26.2926 42.5648C29.0152 46.574 32.8315 48.4077 37.7066 47.7357C42.3024 47.0979 45.4439 44.4783 46.8633 40.1957C48.3526 35.731 47.3404 31.6648 43.8266 28.4074C40.6153 25.4232 36.7525 24.7513 32.529 25.913C31.4818 26.1978 31.412 26.6078 32.1799 27.4165C32.6104 27.8607 33.0642 28.3049 33.483 28.7604C34.0415 29.3527 34.2859 30.0247 33.9368 30.822C33.5878 31.642 32.9362 32.0065 32.0519 32.0065C29.5271 32.0065 27.0023 32.0065 24.4775 32.0065C24.5008 32.0179 24.5008 32.0635 24.5008 32.0976Z" fill="url(#paint1_linear_107_918)"/>
<path d="M44.0491 29.2886C44.5518 29.791 45.5581 29.7907 46.0607 28.7865C48.0467 25.727 48.9938 20.0528 45.0545 18.7417" stroke="black" stroke-width="2" stroke-linecap="round"/>
<path d="M38.9306 26.5217C39.6204 26.695 40.4837 26.1788 40.3985 25.0594C40.5293 21.4158 38.4238 16.0613 34.3693 16.9561" stroke="black" stroke-width="2" stroke-linecap="round"/>
<path d="M47.0678 34.8134C47.1931 35.5348 47.8254 35.818 48.4196 35.5679C52.0367 34.0456 55.9469 29.7594 53.6067 26.2756" stroke="black" stroke-width="2" stroke-linecap="round"/>
<circle cx="20.9343" cy="41.3425" r="2.00899" fill="black"/>
</g>
<defs>
<filter id="filter1_d_107_918" x="4.90723" y="9.22559" width="60.4092" height="60.1797" filterUnits="userSpaceOnUse" color-interpolation-filters="sRGB">
<feFlood flood-opacity="0" result="BackgroundImageFix"/>
<feColorMatrix in="SourceAlpha" type="matrix" values="0 0 0 0 0 0 0 0 0 0 0 0 0 0 0 0 0 0 127 0" result="hardAlpha"/>
<feOffset dy="4"/>
<feGaussianBlur stdDeviation="5"/>
<feComposite in2="hardAlpha" operator="out"/>
<feColorMatrix type="matrix" values="0 0 0 0 0 0 0 0 0 0 0 0 0 0 0 0 0 0 0.25 0"/>
<feBlend mode="normal" in2="BackgroundImageFix" result="effect1_dropShadow_107_918"/>
<feBlend mode="normal" in="SourceGraphic" in2="effect1_dropShadow_107_918" result="shape"/>
</filter>
<linearGradient id="paint0_linear_107_918" x1="35" y1="0" x2="35" y2="70" gradientUnits="userSpaceOnUse">
<stop stop-color="#ACFFBC"/>
<stop offset="1" stop-color="#00991A"/>
</linearGradient>
<linearGradient id="paint1_linear_107_918" x1="34.9971" y1="15.2256" x2="34.9971" y2="55.4053" gradientUnits="userSpaceOnUse">
<stop stop-color="white"/>
<stop offset="1" stop-color="#AAFFCE"/>
</linearGradient>
</defs>
</svg>
