<svg width="70" height="70" viewBox="0 0 70 70" fill="none" xmlns="http://www.w3.org/2000/svg">
<rect width="70" height="70" rx="20" fill="black" fill-opacity="0.01"/>
<rect width="70" height="70" rx="20" fill="url(#paint0_linear_107_1414)" fill-opacity="0.7"/>
<mask id="mask0_107_1414" style="mask-type:alpha" maskUnits="userSpaceOnUse" x="1" y="1" width="68" height="68">
<rect x="1" y="1" width="68" height="68" rx="19.4286" fill="black" fill-opacity="0.01"/>
<rect x="1" y="1" width="68" height="68" rx="19.4286" fill="url(#paint1_linear_107_1414)" fill-opacity="0.7"/>
</mask>
<g mask="url(#mask0_107_1414)">
<path d="M80 73H-2V-4H71.9312L80 73Z" fill="#FFD630"/>
</g>
<g filter="url(#filter1_dd_107_1414)">
<path d="M27.7502 34.9761C27.7502 33.9841 27.718 32.9921 27.7582 32.0081C27.7824 31.4961 27.6052 31.2241 27.1622 30.9601C26.3971 30.5041 25.8252 30.2561 24.8909 30.8881C23.2317 32.0081 20.9604 31.5121 19.6072 30.0242C18.2944 28.5762 18.1413 26.3682 19.2448 24.7442C20.3563 23.1122 22.4343 22.4402 24.3029 23.1042C26.2118 23.7842 27.3716 25.6242 27.1219 27.6482C27.0656 28.0722 27.2025 28.2642 27.5327 28.5202C28.459 29.2322 29.2563 29.2562 30.2551 28.5762C31.6163 27.6562 33.0741 26.8722 34.5319 26.1042C35.1602 25.7762 35.3535 25.3842 35.3454 24.6962C35.3454 23.9122 35.2166 23.4242 34.387 23.0242C32.607 22.1682 31.7935 20.0643 32.317 18.1763C32.8405 16.2803 34.6044 14.9763 36.5858 15.0003C38.5511 15.0323 40.315 16.4403 40.7338 18.3283C41.1687 20.2803 40.2666 22.2162 38.4947 23.1362C38.1 23.3442 37.5684 23.4002 37.6812 24.0802C37.794 24.7922 37.4154 25.5842 38.4141 26.0802C40.0975 26.9202 41.7084 27.8962 43.3192 28.8802C43.8911 29.2322 44.3099 29.2002 44.8818 28.8802C45.5906 28.4882 45.9691 28.1442 45.8886 27.1762C45.7275 25.2402 47.2095 23.4482 49.1023 22.9842C51.0434 22.5042 53.0408 23.3602 53.9913 25.0882C54.9417 26.8162 54.5953 28.9602 53.1455 30.3121C51.7119 31.6481 49.513 31.8401 47.8377 30.7841C47.4914 30.5681 47.2095 30.0962 46.694 30.5201C46.1222 30.9921 45.1878 31.0321 45.2603 32.1841C45.3731 34.0241 45.3248 35.8801 45.2764 37.7281C45.2603 38.4401 45.4698 38.856 46.1141 39.184C46.7665 39.52 47.2095 39.736 47.9666 39.208C49.6177 38.0561 51.873 38.4081 53.2905 39.84C54.692 41.264 54.9336 43.488 53.8543 45.16C52.767 46.856 50.6729 47.5759 48.764 46.912C46.847 46.24 45.6469 44.384 45.8966 42.392C45.953 41.936 45.8161 41.736 45.4536 41.456C44.5435 40.768 43.7703 40.76 42.7957 41.408C41.3459 42.376 39.7914 43.216 38.245 44.04C37.3268 44.528 37.8262 45.32 37.6893 45.968C37.5845 46.48 37.947 46.608 38.3255 46.784C40.2344 47.6799 41.209 49.6959 40.7257 51.7119C40.2747 53.5999 38.5108 54.9839 36.5375 54.9999C34.5319 55.0159 32.7278 53.6159 32.2767 51.7119C31.8015 49.6879 32.76 47.6639 34.693 46.8C35.1843 46.576 35.281 46.312 35.3374 45.816C35.4743 44.728 35.0635 44.12 34.0809 43.64C32.5586 42.888 31.1008 42 29.651 41.112C29.1033 40.776 28.7006 40.808 28.161 41.12C27.4441 41.528 27.0253 41.864 27.1058 42.872C27.2669 44.824 25.7608 46.584 23.8599 47.032C21.8786 47.504 19.873 46.6 18.9548 44.816C18.0447 43.064 18.4555 40.936 19.9455 39.616C21.4034 38.3281 23.6264 38.1921 25.2614 39.296C25.5675 39.504 25.8413 39.896 26.2682 39.504C26.7756 39.04 27.7985 39.112 27.726 38.0241C27.6938 37.0161 27.7502 35.9921 27.7502 34.9761Z" fill="white"/>
</g>
<path d="M22.48 27.4998C24.9838 23 28.9896 19.5 36 19.5" stroke="black" stroke-width="2" stroke-linecap="round"/>
<path d="M34.5319 26.1042C32.9954 27 31.9939 27.5 29.4902 29H43.5109C41.9 28.016 40.0974 26.9202 38.4141 26.0802C37.4153 25.5842 37.7939 24.7922 37.6811 24.0802C37.5684 23.4002 38.1 23.3442 38.4946 23.1362C40.2666 22.2162 41.1687 20.2803 40.7337 18.3283C40.3149 16.4403 38.551 15.0323 36.5858 15.0003C34.6044 14.9763 32.8405 16.2803 32.3169 18.1763C31.7934 20.0643 32.6069 22.1682 34.3869 23.0242C35.2165 23.4242 35.3454 23.9122 35.3454 24.6962C35.3534 25.3842 35.1601 25.7762 34.5319 26.1042Z" fill="white"/>
<path d="M36.501 19.5C42.5098 19.5 47.5172 23 49.4565 27.3008" stroke="black" stroke-width="2" stroke-linecap="round"/>
<path d="M43.2407 28.8757C41.6956 27.995 40.7612 27.3789 38.2084 25.9639L45.2187 38.0882C45.2667 36.2032 45.3158 34.0966 45.2026 32.2209C45.1335 31.1092 46.0096 31.0406 46.5708 30.5871C47.1041 30.1496 47.4185 30.5813 47.7962 30.8186C49.4801 31.8909 51.6102 31.703 53.0857 30.3509C54.5137 29.0447 54.8529 26.8154 53.8981 25.0999C52.9282 23.3745 50.9153 22.5012 49.0091 22.9964C47.1099 23.4877 45.6919 25.2431 45.8395 27.2104C45.9074 28.1278 45.5486 28.4832 44.8686 28.8752C44.276 29.2262 43.8393 29.255 43.2407 28.8757Z" fill="white"/>
<path d="M50.2659 27.0535C53.2703 32.2496 52.7384 38.3298 49.978 42.1572" stroke="black" stroke-width="2" stroke-linecap="round"/>
<path d="M45.5048 37.5692C45.4961 35.7926 44.5617 34.9146 44.5126 31.9995L38.5038 43.8859C40.1627 42.9848 42.0143 41.974 43.5845 40.9383C44.5141 40.3227 45.0117 41.046 45.6856 41.3045C46.3317 41.547 46.1145 42.0347 46.0976 42.48C46.0095 44.4722 47.2375 46.2203 49.1479 46.8202C50.9948 47.402 53.0979 46.5807 54.1083 44.8972C55.1198 43.1958 54.8708 41.0185 53.4882 39.6178C52.1125 38.221 49.881 37.8725 48.2486 38.9838C47.4869 39.5012 46.9992 39.3686 46.3192 38.9766C45.7185 38.6396 45.4752 38.2765 45.5048 37.5692Z" fill="white"/>
<path d="M49.9705 42.7547C46.966 47.9508 41.4268 50.5309 36.7271 50.0576" stroke="black" stroke-width="2" stroke-linecap="round"/>
<path d="M38.4696 43.8958C40.0061 43 41.0075 42.5 43.5112 41L29.4906 41C31.1015 41.984 32.904 43.0798 34.5874 43.9198C35.5861 44.4158 35.2076 45.2078 35.3203 45.9198C35.4331 46.5998 34.9015 46.6558 34.5068 46.8638C32.7349 47.7838 31.8328 49.7197 32.2677 51.6717C32.6865 53.5597 34.4505 54.9677 36.4157 54.9997C38.3971 55.0237 40.161 53.7197 40.6845 51.8237C41.2081 49.9357 40.3946 47.8318 38.6146 46.9758C37.785 46.5758 37.6561 46.0878 37.6561 45.3038C37.648 44.6158 37.8413 44.2238 38.4696 43.8958Z" fill="white"/>
<path d="M36.3301 50.5869C30.3213 50.5869 25.3139 47.0869 23.3745 42.7861" stroke="black" stroke-width="2" stroke-linecap="round"/>
<path d="M29.5907 41.2137C31.1359 42.0945 32.4453 42.5846 34.9981 43.9997L27.6128 32.0013C27.5648 33.8863 27.5156 35.9929 27.6288 37.8686C27.698 38.9803 26.8218 39.0489 26.2607 39.5024C25.7273 39.9399 25.4129 39.5082 25.0352 39.2709C23.3513 38.1986 21.2212 38.3865 19.7457 39.7386C18.3177 41.0448 17.9785 43.2741 18.9334 44.9896C19.9032 46.715 21.9161 47.5883 23.8223 47.0931C25.7215 46.6018 27.1395 44.8463 26.9919 42.8791C26.924 41.9617 27.2829 41.6063 27.9628 41.2143C28.5555 40.8633 28.9921 40.8345 29.5907 41.2137Z" fill="white"/>
<path d="M22.9006 42.8313C19.8962 37.6351 20.4281 31.555 23.1885 27.7275" stroke="black" stroke-width="2" stroke-linecap="round"/>
<path d="M27.6604 32.317C27.6691 34.0935 27.8987 35.471 27.9478 38.386L34.6614 26.0003C33.0026 26.9013 31.1509 27.9121 29.5807 28.9478C28.6511 29.5635 28.1535 28.8401 27.4796 28.5816C26.8335 28.3392 27.0507 27.8515 27.0677 27.4062C27.1557 25.4139 25.9277 23.6658 24.0173 23.0659C22.1704 22.4841 20.0673 23.3055 19.0569 24.9889C18.0454 26.6903 18.2944 28.8677 19.6771 30.2684C21.0527 31.6651 23.2843 32.0136 24.9167 30.9023C25.6784 30.3849 26.1661 30.5175 26.846 30.9095C27.4467 31.2465 27.6901 31.6097 27.6604 32.317Z" fill="white"/>
<defs>
<filter id="filter1_dd_107_1414" x="8.47412" y="9" width="56.0532" height="60" filterUnits="userSpaceOnUse" color-interpolation-filters="sRGB">
<feFlood flood-opacity="0" result="BackgroundImageFix"/>
<feColorMatrix in="SourceAlpha" type="matrix" values="0 0 0 0 0 0 0 0 0 0 0 0 0 0 0 0 0 0 127 0" result="hardAlpha"/>
<feOffset dy="4"/>
<feGaussianBlur stdDeviation="5"/>
<feComposite in2="hardAlpha" operator="out"/>
<feColorMatrix type="matrix" values="0 0 0 0 0 0 0 0 0 0 0 0 0 0 0 0 0 0 0.25 0"/>
<feBlend mode="normal" in2="BackgroundImageFix" result="effect1_dropShadow_107_1414"/>
<feColorMatrix in="SourceAlpha" type="matrix" values="0 0 0 0 0 0 0 0 0 0 0 0 0 0 0 0 0 0 127 0" result="hardAlpha"/>
<feOffset dy="4"/>
<feGaussianBlur stdDeviation="2"/>
<feComposite in2="hardAlpha" operator="out"/>
<feColorMatrix type="matrix" values="0 0 0 0 0 0 0 0 0 0 0 0 0 0 0 0 0 0 0.25 0"/>
<feBlend mode="normal" in2="effect1_dropShadow_107_1414" result="effect2_dropShadow_107_1414"/>
<feBlend mode="normal" in="SourceGraphic" in2="effect2_dropShadow_107_1414" result="shape"/>
</filter>
<linearGradient id="paint0_linear_107_1414" x1="35" y1="0" x2="35" y2="70" gradientUnits="userSpaceOnUse">
<stop stop-color="white"/>
<stop offset="1" stop-color="white"/>
</linearGradient>
<linearGradient id="paint1_linear_107_1414" x1="35" y1="1" x2="35" y2="69" gradientUnits="userSpaceOnUse">
<stop stop-color="white"/>
<stop offset="1" stop-color="white"/>
</linearGradient>
</defs>
</svg>
