<svg width="70" height="71" viewBox="0 0 70 71" fill="none" xmlns="http://www.w3.org/2000/svg">
<rect width="70" height="70" rx="20" fill="black" fill-opacity="0.01"/>
<rect width="70" height="70" rx="20" fill="url(#paint0_linear_107_994)" fill-opacity="0.7"/>
<g filter="url(#filter1_d_107_994)">
<path d="M35.0002 18.2744L49.6264 26.7949V43.8359L35.0002 52.3564L20.374 43.8359V26.7949L35.0002 18.2744Z" fill="white"/>
<path d="M36.3894 38.51C34.6359 38.51 33.26 37.1991 33.206 35.4514C33.1521 33.6489 34.6089 32.1196 36.3624 32.1196C38.116 32.1196 39.5998 33.6489 39.5458 35.4514C39.4919 37.1991 38.143 38.51 36.3894 38.51Z" fill="#E1840E"/>
<path d="M53.6655 23.3935L38.1209 14.477C37.0328 13.8592 35.7044 13.8592 34.6304 14.477L19.0858 23.3935C18.0118 24.0113 17.3477 25.1628 17.3477 26.3984V44.2314C17.3477 45.467 18.0118 46.6184 19.0858 47.2363L34.6304 56.1527C35.7044 56.7706 37.0328 56.7706 38.1209 56.1527L53.6655 47.2363C54.7394 46.6184 55.4036 45.467 55.4036 44.2314V26.3984C55.4036 25.1628 54.7394 24.0113 53.6655 23.3935ZM49.313 35.3009C49.313 37.2526 49.2988 39.2185 49.3271 41.1843C49.3554 42.1672 49.0021 42.8553 48.1118 43.3467C44.5931 45.3407 41.0743 47.3627 37.5839 49.3847C36.7501 49.8761 36.0012 49.8621 35.1674 49.3706C31.6769 47.3486 28.1582 45.3266 24.6395 43.3327C23.7916 42.8553 23.4383 42.2094 23.4383 41.2686C23.4666 37.2667 23.4666 33.2789 23.4383 29.277C23.4242 28.266 23.834 27.6201 24.7101 27.1286C28.2006 25.1628 31.6769 23.1688 35.1533 21.1468C36.0153 20.6413 36.7784 20.6554 37.6404 21.1609C41.1167 23.1688 44.5931 25.1628 48.0835 27.1426C48.9597 27.6341 49.3554 28.2941 49.3271 29.3051C49.2847 31.299 49.313 33.2929 49.313 35.3009Z" fill="#3C80F4"/>
<path d="M45.978 35.3144C45.978 33.7136 45.9497 32.1269 45.9921 30.5402C45.9921 29.9926 45.8226 29.6696 45.328 29.4029C42.5441 27.8302 39.7743 26.2435 37.0187 24.6287C36.5241 24.3478 36.1567 24.404 35.6903 24.6708C32.963 26.2575 30.2356 27.8302 27.48 29.3748C26.9571 29.6696 26.7734 30.0066 26.7734 30.6104C26.8158 33.7136 26.8158 36.8169 26.7734 39.9201C26.7734 40.5239 26.9712 40.8468 27.4941 41.1417C30.2497 42.6863 32.9771 44.2589 35.7045 45.8457C36.1849 46.1265 36.5382 46.1686 37.0328 45.8737C39.7884 44.2589 42.5582 42.6722 45.3421 41.1136C45.8226 40.8328 45.9921 40.5098 45.9921 39.9762C45.9497 38.4176 45.978 36.859 45.978 35.3144ZM36.3262 40.2149C33.5282 40.2009 31.3237 37.9542 31.3802 35.174C31.4226 32.4499 33.6554 30.2734 36.3828 30.2734C39.1525 30.2734 41.3994 32.5201 41.3853 35.2863C41.3712 38.0666 39.1525 40.243 36.3262 40.2149Z" fill="#EF453D"/>
<path d="M36.904 17.7424C42.7179 19.8721 42.718 27.8606 36.3753 35.3159" stroke="black" stroke-width="2" stroke-linecap="round"/>
<path d="M52.2324 44.3687C46.947 48.6287 40.5507 44.1885 36.3757 35.3158" stroke="black" stroke-width="2" stroke-linecap="round"/>
<path d="M21.0477 44.3687C20.0286 37.627 26.6619 34.5228 36.3761 35.3163" stroke="black" stroke-width="2" stroke-linecap="round"/>
</g>
<defs>
<filter id="filter1_d_107_994" x="7.34766" y="8.01367" width="58.0562" height="62.6025" filterUnits="userSpaceOnUse" color-interpolation-filters="sRGB">
<feFlood flood-opacity="0" result="BackgroundImageFix"/>
<feColorMatrix in="SourceAlpha" type="matrix" values="0 0 0 0 0 0 0 0 0 0 0 0 0 0 0 0 0 0 127 0" result="hardAlpha"/>
<feOffset dy="4"/>
<feGaussianBlur stdDeviation="5"/>
<feComposite in2="hardAlpha" operator="out"/>
<feColorMatrix type="matrix" values="0 0 0 0 0 0 0 0 0 0 0 0 0 0 0 0 0 0 0.25 0"/>
<feBlend mode="normal" in2="BackgroundImageFix" result="effect1_dropShadow_107_994"/>
<feBlend mode="normal" in="SourceGraphic" in2="effect1_dropShadow_107_994" result="shape"/>
</filter>
<linearGradient id="paint0_linear_107_994" x1="35" y1="0" x2="35" y2="70" gradientUnits="userSpaceOnUse">
<stop stop-color="white"/>
<stop offset="1" stop-color="white"/>
</linearGradient>
</defs>
</svg>
