<svg width="27" height="25" viewBox="0 0 27 25" fill="none" xmlns="http://www.w3.org/2000/svg">
<path d="M18.5297 0.00041166C19.3447 -0.0169383 19.8788 0.514838 19.9018 1.4633C19.9133 1.90277 20.0457 2.04706 20.4818 2.02971C21.2565 2.00081 22.0314 2.01228 22.8061 2.02385C25.0729 2.06444 26.8289 3.73643 26.8461 6.0092C26.8805 11.0117 26.8863 16.0204 26.8461 21.0229C26.8286 23.2839 25.0322 24.9839 22.7826 24.9897C19.6606 25.007 16.5384 24.9955 13.4164 24.9955C10.3575 24.9955 7.29856 25.0013 4.23966 24.9955C1.73741 24.9897 0.0100431 23.2602 0.00430405 20.7387C-0.00143463 15.9271 -0.00143473 11.1098 0.00430405 6.29826C0.00430405 3.75939 1.70333 2.0412 4.21134 2.02385C4.92288 2.01806 5.6403 1.99501 6.3461 2.02971C6.81661 2.05281 6.95462 1.90234 6.96036 1.42815C6.97198 0.526175 7.51112 0.00041166 8.29727 0.00041166C9.07773 0.00619607 9.63398 0.560924 9.62833 1.43986C9.62259 1.93131 9.78362 2.03543 10.2367 2.02971C12.3717 2.00658 14.5129 2.00658 16.6479 2.02971C17.0724 2.03547 17.2269 1.93165 17.227 1.47502C17.227 0.578789 17.7552 0.0179794 18.5297 0.00041166ZM18.7904 12.4438C17.9538 11.6277 16.8274 11.6915 15.9184 12.6196C14.8324 13.7237 13.7303 14.82 12.7006 15.9721C12.2018 16.5242 11.904 16.5324 11.4213 15.9643C10.8984 15.3562 10.3754 14.6678 9.59512 14.6918C8.64605 14.6838 8.06703 15.0363 7.7211 15.7162C7.33496 16.4764 7.46344 17.2046 8.03458 17.8207C8.87111 18.7248 9.72372 19.6049 10.5844 20.477C11.598 21.5011 12.6364 21.5099 13.642 20.4858C15.3394 18.7495 17.0203 17.0048 18.7016 15.2446C19.5704 14.3324 19.5949 13.2279 18.7904 12.4438ZM10.4096 4.68986C9.86436 4.68408 9.58877 4.73677 9.61173 5.40764C9.6403 6.17671 9.00874 6.726 8.29141 6.726C7.56269 6.73172 7.02335 6.19983 6.94864 5.4135C6.93716 5.3094 6.9313 5.19924 6.94278 5.09514C6.97146 4.80033 6.85112 4.69006 6.54727 4.69572C5.68646 4.71307 4.83094 4.67861 3.97012 4.7133C3.22978 4.74222 2.73612 5.27487 2.70743 6.02092C2.69026 6.50657 2.73587 6.9923 2.69571 7.47795C2.64984 8.00401 2.86223 8.1029 3.33829 8.10295C6.69568 8.09717 10.0482 8.10295 13.3998 8.10295C16.7914 8.10295 20.183 8.09627 23.5746 8.10783C23.9935 8.10783 24.1891 8.01572 24.1547 7.55315C24.1203 7.09059 24.1544 6.62793 24.143 6.15959C24.1258 5.22848 23.632 4.73065 22.6908 4.7133C21.9392 4.70175 21.1818 4.73626 20.4301 4.70158C20.0169 4.68424 19.9074 4.82327 19.8959 5.22795C19.873 6.17636 19.3452 6.73757 18.559 6.73186C17.7727 6.73186 17.2221 6.14742 17.2221 5.22209C17.222 4.80018 17.0953 4.69574 16.6938 4.69572C14.5991 4.71307 12.5043 4.72456 10.4096 4.68986Z" fill="url(#paint0_linear_1065_610)"/>
<defs>
<linearGradient id="paint0_linear_1065_610" x1="13.4371" y1="0" x2="13.4371" y2="24.9993" gradientUnits="userSpaceOnUse">
<stop stop-color="#456DB5"/>
<stop offset="1" stop-color="#2D5FB9"/>
</linearGradient>
</defs>
</svg>
