<svg width="27" height="25" viewBox="0 0 27 25" fill="none" xmlns="http://www.w3.org/2000/svg">
<path d="M18.5297 0.000410935C19.3447 -0.016939 19.8788 0.515814 19.9018 1.46428C19.9133 1.90354 20.0458 2.04803 20.4818 2.03068C21.2565 2.00179 22.0314 2.01326 22.8061 2.02483C25.0727 2.06545 26.8287 3.73667 26.8461 6.0092C26.8805 11.0117 26.8863 16.0204 26.8461 21.0229C26.8289 23.2841 25.0324 24.9849 22.7826 24.9906C19.6606 25.008 16.5384 24.9965 13.4164 24.9965C10.3575 24.9965 7.29857 25.0023 4.23966 24.9965C1.73739 24.9907 0.0100432 23.2612 0.00430405 20.7397C-0.00143484 15.9281 -0.00143453 11.1108 0.00430405 6.29924C0.00430405 3.76036 1.70333 2.04218 4.21134 2.02483C4.92286 2.01904 5.64032 1.99599 6.3461 2.03068C6.81655 2.05377 6.95462 1.90329 6.96036 1.42912C6.97188 0.526993 7.51104 0.000410935 8.29727 0.000410935C9.07776 0.00622304 9.63407 0.561799 9.62833 1.44084C9.6226 1.93227 9.78359 2.03642 10.2367 2.03068C12.3717 2.00755 14.5129 2.00755 16.6479 2.03068C17.0724 2.03643 17.227 1.93183 17.227 1.47502C17.2271 0.579035 17.7553 0.0179392 18.5297 0.000410935ZM12.308 12.6215C11.4539 11.7417 10.4159 11.6461 9.60977 12.3022C9.57808 12.3261 9.55463 12.3504 9.52286 12.3822C9.44303 12.4623 9.36309 12.5343 9.29923 12.6303C8.50106 13.5504 8.57228 14.5024 9.51407 15.4145C9.90521 15.7905 10.2889 16.1743 10.6801 16.5424C10.2889 16.9265 9.90523 17.3109 9.51407 17.6869C8.64415 18.5431 8.54103 19.5829 9.20352 20.391C9.22741 20.423 9.24304 20.4472 9.27481 20.4711C9.36262 20.5591 9.43505 20.6315 9.52286 20.7035C10.4406 21.4953 11.3902 21.4316 12.308 20.4799C12.6832 20.0958 13.0586 19.703 13.4418 19.311C13.817 19.703 14.1926 20.0958 14.5678 20.4799C15.4776 21.4236 16.4193 21.4953 17.3451 20.7035C17.409 20.6555 17.4736 20.5994 17.5375 20.5434C17.5692 20.5116 17.5928 20.4795 17.6166 20.4477C18.343 19.6316 18.2477 18.5591 17.3617 17.6869C16.9706 17.3109 16.5869 16.9265 16.1957 16.5424C16.5869 16.1743 16.9706 15.7905 17.3617 15.4145C18.3035 14.5024 18.3673 13.5663 17.5854 12.6303C17.5295 12.5743 17.4733 12.5017 17.4174 12.4457C17.3855 12.4138 17.3615 12.3818 17.3217 12.3578C16.5155 11.6378 15.4379 11.7256 14.5678 12.6215C14.1927 13.0055 13.8091 13.3977 13.434 13.7817C13.0589 13.3977 12.6831 13.0055 12.308 12.6215ZM10.4096 4.69084C9.86436 4.68506 9.58877 4.73775 9.61173 5.40861C9.64015 6.17755 9.00866 6.72697 8.29141 6.72697C7.56257 6.73273 7.02325 6.20001 6.94864 5.4135C6.9372 5.30961 6.93135 5.2 6.94278 5.09611C6.97148 4.80116 6.85047 4.69092 6.5463 4.6967C5.68566 4.71403 4.83076 4.6796 3.97012 4.71428C3.22987 4.74319 2.73623 5.27501 2.70743 6.02092C2.69021 6.50672 2.73588 6.99313 2.69571 7.47893C2.64993 8.00479 2.86226 8.10291 3.33829 8.10295C6.69553 8.09717 10.0473 8.10295 13.3988 8.10295C16.7906 8.10295 20.1828 8.09724 23.5746 8.10881C23.9935 8.10881 24.189 8.01647 24.1547 7.55412C24.1203 7.09146 24.1545 6.62804 24.143 6.15959C24.1256 5.22873 23.6319 4.73163 22.6908 4.71428C21.9392 4.70272 21.1818 4.73723 20.4301 4.70256C20.0169 4.68521 19.9074 4.82409 19.8959 5.22893C19.8729 6.17727 19.3451 6.73852 18.559 6.73283C17.7727 6.73283 17.2211 6.1484 17.2211 5.22307C17.2211 4.80097 17.0953 4.69673 16.6938 4.6967C14.5991 4.71405 12.5042 4.72553 10.4096 4.69084Z" fill="url(#paint0_linear_1065_596)"/>
<defs>
<linearGradient id="paint0_linear_1065_596" x1="13.4371" y1="0" x2="13.4371" y2="25.0002" gradientUnits="userSpaceOnUse">
<stop stop-color="#456DB5"/>
<stop offset="1" stop-color="#2D5FB9"/>
</linearGradient>
</defs>
</svg>
