<svg width="26" height="25" viewBox="0 0 26 25" fill="none" xmlns="http://www.w3.org/2000/svg">
<path d="M4.19706 21.4087C4.18634 21.1419 4.28817 20.8915 4.38464 20.6302C5.16712 18.5506 4.00412 16.4166 1.84963 15.9756C0.552642 15.7089 0.241794 15.3387 0.0863702 14.0158C-0.0636942 12.7311 -0.0154592 11.4572 0.209637 10.1833C0.365061 9.32864 0.804535 8.88224 1.66741 8.72437C4.05236 8.28341 5.1832 6.3726 4.45432 4.0045C4.21314 3.20425 4.40072 2.5782 5.05457 2.05558C6.05679 1.26077 7.15012 0.629278 8.33991 0.171989C9.19742 -0.160089 9.77624 -0.0131034 10.3819 0.667385C11.8879 2.36588 14.112 2.36044 15.6288 0.656497C16.2183 -0.00765946 16.7971 -0.154645 17.6225 0.155658C18.9195 0.645609 20.0985 1.34243 21.1651 2.23523C21.8564 2.81773 22.0172 3.37301 21.7546 4.23314C21.0954 6.39437 22.1887 8.33241 24.3754 8.81147C25.2275 8.99656 25.6777 9.48651 25.8224 10.3521C26.0743 11.8165 26.0582 13.27 25.7742 14.7236C25.608 15.5728 25.0239 15.9484 24.2199 16.1063C22.7354 16.3948 21.8403 17.3312 21.5027 18.8174C21.3634 19.438 21.4384 20.0531 21.6474 20.6574C21.9797 21.6155 21.8028 22.2035 21.0257 22.835C20.0878 23.5917 19.0695 24.2123 17.9655 24.6859C17.0865 25.067 16.4541 24.9091 15.8431 24.1742C14.3264 22.3505 11.9147 22.394 10.4355 24.2667C9.85663 24.9962 9.25102 25.1704 8.37743 24.8383C7.08044 24.3429 5.90673 23.6407 4.83484 22.7533C4.42216 22.4103 4.18098 21.9803 4.19706 21.4087ZM13.0401 8.09832C10.6391 8.08743 8.67756 10.0418 8.66684 12.4643C8.65612 14.8978 10.5909 16.8848 12.9812 16.8902C15.3769 16.8957 17.3223 14.925 17.3277 12.4915C17.3331 10.0962 15.4037 8.1092 13.0401 8.09832Z" fill="url(#paint0_linear_569_960)"/>
<defs>
<linearGradient id="paint0_linear_569_960" x1="13" y1="0" x2="13" y2="25" gradientUnits="userSpaceOnUse">
<stop stop-color="#FF4E71"/>
<stop offset="1" stop-color="#FB0230"/>
</linearGradient>
</defs>
</svg>
