<svg width="31" height="23" viewBox="0 0 31 23" fill="none" xmlns="http://www.w3.org/2000/svg">
<path d="M15.5038 22.9978C14.2517 22.9978 13.0046 23.0028 11.7525 22.9978C9.43001 22.9878 7.76893 21.3287 7.75883 19.0149C7.75378 18.0804 7.72349 17.1459 7.98098 16.2214C8.74336 13.4679 11.2375 11.519 14.1153 11.504C15.3826 11.499 16.6549 11.389 17.9171 11.5989C20.9162 12.0986 23.1932 14.6972 23.2437 17.7006C23.2588 18.4552 23.3295 19.2148 23.1579 19.9694C22.759 21.7235 21.2494 22.9578 19.4368 22.9978C19.3965 22.9978 19.3561 22.9978 19.3157 22.9978C18.0484 22.9978 16.7761 22.9978 15.5038 22.9978Z" fill="url(#paint0_linear_1070_622)"/>
<path d="M15.524 10.2096C12.6714 10.2196 10.3539 7.95585 10.3338 5.14236C10.3136 2.34387 12.631 0.0151216 15.4583 0.000129663C18.3311 -0.0198596 20.6738 2.27391 20.6789 5.10738C20.6839 7.91587 18.3766 10.2046 15.524 10.2096Z" fill="url(#paint1_linear_1070_622)"/>
<path d="M5.20411 8.96033C5.6888 8.96033 6.17349 8.95534 6.65818 8.96033C7.27919 8.96533 7.84972 9.15023 8.37985 9.45007C9.4704 10.0647 9.47545 10.1697 8.53636 10.9443C6.51682 12.6134 5.37577 14.7372 5.21421 17.3508C5.18897 17.7556 5.07789 17.9105 4.65379 17.8905C3.92675 17.8605 3.19972 17.9005 2.47773 17.8705C1.10949 17.8156 0.0542752 16.7561 0.0189332 15.3969C-0.00631107 14.4774 -0.00631107 13.5579 0.0189332 12.6434C0.0694218 10.6744 1.69515 9.05528 3.68945 8.96533C4.19434 8.94034 4.69923 8.96033 5.20411 8.96033Z" fill="url(#paint2_linear_1070_622)"/>
<path d="M25.8388 8.96533C26.5254 8.97033 27.2171 8.88538 27.8886 9.01531C29.6658 9.36512 30.9583 10.9193 30.9886 12.7283C31.0038 13.5878 31.0038 14.4424 30.9886 15.3019C30.9634 16.7661 29.9082 17.8256 28.4339 17.8705C27.7069 17.8905 26.9798 17.8605 26.2579 17.8855C25.9145 17.8955 25.8136 17.7656 25.7984 17.4358C25.6318 14.5423 24.3241 12.2586 21.9613 10.5695C21.623 10.3296 21.6381 10.1997 21.9259 9.9548C22.5873 9.38511 23.3295 9.01531 24.208 8.97033C24.7482 8.94534 25.2935 8.96533 25.8388 8.96533Z" fill="url(#paint3_linear_1070_622)"/>
<path d="M1.3165 3.86305C1.3064 1.7292 3.02301 0.00513009 5.16877 0.000132779C7.30444 -0.00486453 9.06649 1.7292 9.06145 3.83307C9.06145 5.91695 7.32464 7.64602 5.22431 7.66601C3.0735 7.686 1.33164 5.99191 1.3165 3.86305Z" fill="url(#paint4_linear_1070_622)"/>
<path d="M29.6961 3.85806C29.686 5.98692 27.9492 7.686 25.7934 7.67101C23.688 7.65602 21.9562 5.92695 21.9512 3.84307C21.9461 1.7392 23.7082 0.000137628 25.8388 0.00513494C27.9896 0.00513494 29.7062 1.72421 29.6961 3.85806Z" fill="url(#paint5_linear_1070_622)"/>
<defs>
<linearGradient id="paint0_linear_1070_622" x1="15.5" y1="0" x2="15.5" y2="23" gradientUnits="userSpaceOnUse">
<stop stop-color="#456DB5"/>
<stop offset="1" stop-color="#2D5FB9"/>
</linearGradient>
<linearGradient id="paint1_linear_1070_622" x1="15.5" y1="0" x2="15.5" y2="23" gradientUnits="userSpaceOnUse">
<stop stop-color="#456DB5"/>
<stop offset="1" stop-color="#2D5FB9"/>
</linearGradient>
<linearGradient id="paint2_linear_1070_622" x1="15.5" y1="0" x2="15.5" y2="23" gradientUnits="userSpaceOnUse">
<stop stop-color="#456DB5"/>
<stop offset="1" stop-color="#2D5FB9"/>
</linearGradient>
<linearGradient id="paint3_linear_1070_622" x1="15.5" y1="0" x2="15.5" y2="23" gradientUnits="userSpaceOnUse">
<stop stop-color="#456DB5"/>
<stop offset="1" stop-color="#2D5FB9"/>
</linearGradient>
<linearGradient id="paint4_linear_1070_622" x1="15.5" y1="0" x2="15.5" y2="23" gradientUnits="userSpaceOnUse">
<stop stop-color="#456DB5"/>
<stop offset="1" stop-color="#2D5FB9"/>
</linearGradient>
<linearGradient id="paint5_linear_1070_622" x1="15.5" y1="0" x2="15.5" y2="23" gradientUnits="userSpaceOnUse">
<stop stop-color="#456DB5"/>
<stop offset="1" stop-color="#2D5FB9"/>
</linearGradient>
</defs>
</svg>
