<svg width="20" height="20" viewBox="0 0 20 20" fill="none" xmlns="http://www.w3.org/2000/svg">
<path d="M4.94824 10.1596C4.61958 10.0535 4.43404 10.2338 4.24851 10.6156C3.77672 11.5966 2.637 12.042 1.60331 11.7238C0.574915 11.4057 -0.103612 10.3876 0.0130097 9.31647C0.124331 8.25065 0.983092 7.39694 2.0645 7.28028C3.09289 7.16893 4.13719 7.85296 4.42344 8.87635C4.50295 9.16799 4.62488 9.25814 4.89523 9.24223C4.99595 9.23693 5.10197 9.26344 5.20799 9.26874C5.57376 9.28465 5.96073 9.3907 6.29469 9.29526C6.65516 9.18921 6.57564 8.71197 6.73467 8.41503C7.05803 7.83175 7.45561 7.3227 8.02812 6.98334C8.28257 6.82956 8.31437 6.68639 8.18715 6.45838C8.18185 6.44778 8.17655 6.43717 8.17124 6.42126C8.00161 5.81147 7.80548 5.42438 6.97322 5.39787C5.52605 5.35015 4.49765 4.05102 4.54536 2.65114C4.59307 1.25126 5.71158 0.0899964 7.08984 0.0051553C8.51051 -0.0796858 9.74564 0.890685 9.96298 2.32238C10.122 3.37759 9.74034 4.24721 8.89748 4.88882C8.68544 5.0479 8.65894 5.17516 8.75435 5.39787C8.89218 5.70542 8.93459 6.0819 9.13602 6.33112C9.37457 6.61746 9.75624 6.34173 10.0743 6.36294C10.9649 6.41066 11.7547 6.7023 12.412 7.3121C12.6029 7.49238 12.7142 7.46057 12.8944 7.3227C13.4245 6.91971 13.9546 6.52732 14.5006 6.14553C14.6915 6.01297 14.7286 5.89631 14.6597 5.6683C14.278 4.4275 14.983 3.15488 16.2129 2.81552C17.4533 2.47615 18.699 3.2026 19.0224 4.45401C19.3404 5.68421 18.5718 6.92501 17.3049 7.21665C16.6581 7.36512 16.0591 7.23786 15.529 6.85077C15.3488 6.71821 15.2322 6.71821 15.0572 6.85077C14.5112 7.26968 13.9493 7.67267 13.3874 8.07567C13.2231 8.19232 13.1807 8.29307 13.2761 8.48927C13.7638 9.51796 13.7479 10.552 13.2549 11.5754C13.1648 11.761 13.1648 11.8617 13.3397 11.989C14.2462 12.6677 15.1474 13.357 16.0379 14.0517C16.2394 14.2054 16.3507 14.11 16.515 14.0092C17.3208 13.5161 18.1477 13.4896 18.9429 13.9986C19.7274 14.4918 20.0879 15.2447 19.9819 16.1621C19.8705 17.1112 19.3298 17.7688 18.4181 18.0657C17.5646 18.3414 16.7907 18.1505 16.1492 17.5248C15.4972 16.8885 15.3011 16.0985 15.5767 15.2341C15.6616 14.9637 15.6085 14.847 15.4018 14.6933C14.5377 14.0464 13.679 13.3888 12.8255 12.726C12.6506 12.5882 12.5499 12.5882 12.3696 12.7366C11.1875 13.7176 9.87817 13.8979 8.4734 13.2669C8.26666 13.1767 8.16594 13.1873 8.02812 13.3782C7.59344 13.9827 7.14815 14.5766 6.69227 15.1599C6.55444 15.3402 6.56504 15.4462 6.69757 15.6265C7.4291 16.6128 7.46091 17.8271 6.79829 18.7975C6.14626 19.7572 4.99065 20.1973 3.85623 19.9163C2.74302 19.6353 1.93727 18.6702 1.81535 17.4718C1.62451 15.547 3.61769 14.0358 5.45713 14.7251C5.71158 14.8205 5.83881 14.8046 5.99253 14.5819C6.41131 13.988 6.8566 13.4047 7.30188 12.8321C7.43441 12.6624 7.4238 12.5616 7.28068 12.4079C6.79298 11.8776 6.50143 11.236 6.41131 10.5255C6.37951 10.2815 6.28409 10.2338 6.07205 10.2285C5.73279 10.2232 5.38292 10.1861 4.94824 10.1596Z" fill="url(#paint0_linear_144_512)"/>
<defs>
<linearGradient id="paint0_linear_144_512" x1="10" y1="0" x2="10" y2="20" gradientUnits="userSpaceOnUse">
<stop stop-color="#FF4E71"/>
<stop offset="1" stop-color="#FB0230"/>
</linearGradient>
</defs>
</svg>
