<svg width="18" height="20" viewBox="0 0 18 20" fill="none" xmlns="http://www.w3.org/2000/svg">
<path d="M17.1853 4.39768L9.83142 0.216007C9.31457 -0.0720022 8.68536 -0.0720022 8.17974 0.216007L0.820221 4.39768C0.314606 4.68568 0 5.22847 0 5.81002V14.1844C0 14.766 0.314606 15.3032 0.820221 15.5968L8.17412 19.784C8.67974 20.072 9.30895 20.072 9.8258 19.784L17.1797 15.5968C17.6853 15.3088 17.9999 14.766 17.9999 14.1844V5.81002C18.0055 5.22847 17.6909 4.69122 17.1853 4.39768ZM15.1235 9.99169C15.1235 10.9056 15.1179 11.8305 15.1292 12.7555C15.1404 13.2152 14.9775 13.542 14.5561 13.769C12.8932 14.7051 11.2247 15.6522 9.57299 16.6048C9.17974 16.8374 8.82581 16.8264 8.42693 16.5993C6.77525 15.6522 5.11234 14.6995 3.44381 13.7635C3.04493 13.542 2.87639 13.2373 2.87639 12.7942C2.88763 10.9166 2.88763 9.04459 2.87639 7.16699C2.87077 6.69067 3.06178 6.39158 3.47751 6.15896C5.12919 5.23401 6.77525 4.29798 8.42131 3.35087C8.83142 3.11271 9.19097 3.11825 9.60108 3.35641C11.2471 4.29798 12.8932 5.23401 14.5449 6.1645C14.9606 6.39712 15.146 6.70728 15.1348 7.17807C15.1123 8.10856 15.1235 9.04459 15.1235 9.99169Z" fill="url(#paint0_linear_144_515)"/>
<path d="M13.5448 9.99717C13.5448 9.24391 13.5336 8.50174 13.5505 7.75402C13.5505 7.49925 13.4718 7.34416 13.2359 7.22231C11.9156 6.48568 10.6067 5.73796 9.30329 4.97917C9.06733 4.84624 8.89318 4.87393 8.67408 5.00132C7.38195 5.7435 6.09544 6.48567 4.78645 7.21123C4.53926 7.3497 4.44938 7.51032 4.44938 7.79279C4.47185 9.24945 4.47185 10.7061 4.44938 12.1628C4.44938 12.4452 4.54488 12.6003 4.79207 12.7388C6.09544 13.4643 7.38757 14.201 8.6797 14.9487C8.90441 15.0816 9.07295 15.0982 9.30891 14.9598C10.6123 14.201 11.9213 13.4588 13.2415 12.7277C13.4662 12.5948 13.5505 12.4452 13.5505 12.196C13.5336 11.4538 13.5448 10.7227 13.5448 9.99717ZM8.98306 12.2957C7.65723 12.2902 6.61791 11.2323 6.64038 9.9307C6.66285 8.65128 7.71903 7.63217 9.00554 7.63217C10.3145 7.63217 11.3819 8.68451 11.3707 9.98609C11.3651 11.2877 10.3201 12.3123 8.98306 12.2957Z" fill="url(#paint1_linear_144_515)"/>
<path d="M9.01102 10.7338C8.57844 10.7338 8.24136 10.4181 8.22451 9.99715C8.20765 9.56513 8.5672 9.19404 9.0054 9.1885C9.4436 9.1885 9.80315 9.55406 9.79192 9.99161C9.78068 10.4181 9.4436 10.7338 9.01102 10.7338Z" fill="url(#paint2_linear_144_515)"/>
<defs>
<linearGradient id="paint0_linear_144_515" x1="9" y1="0" x2="9" y2="20" gradientUnits="userSpaceOnUse">
<stop stop-color="#FF4E71"/>
<stop offset="1" stop-color="#FB0230"/>
</linearGradient>
<linearGradient id="paint1_linear_144_515" x1="9" y1="0" x2="9" y2="20" gradientUnits="userSpaceOnUse">
<stop stop-color="#FF4E71"/>
<stop offset="1" stop-color="#FB0230"/>
</linearGradient>
<linearGradient id="paint2_linear_144_515" x1="9" y1="0" x2="9" y2="20" gradientUnits="userSpaceOnUse">
<stop stop-color="#FF4E71"/>
<stop offset="1" stop-color="#FB0230"/>
</linearGradient>
</defs>
</svg>
