<svg width="17" height="20" viewBox="0 0 17 20" fill="none" xmlns="http://www.w3.org/2000/svg">
<path d="M4.35703 9.98458C4.35703 9.48744 4.34227 8.99547 4.36195 8.49833C4.37179 8.24458 4.28814 8.10476 4.08149 7.97529C3.71738 7.74744 3.45168 7.62315 3.00885 7.93904C2.22651 8.49833 1.15387 8.24975 0.519141 7.50922C-0.100825 6.78421 -0.17463 5.68118 0.346928 4.86814C0.868487 4.04993 1.84764 3.71332 2.73331 4.04993C3.63373 4.38653 4.17989 5.30832 4.06672 6.31815C4.04212 6.53047 4.10117 6.62368 4.26354 6.75315C4.70145 7.11047 5.0754 7.12083 5.54775 6.77904C6.1874 6.31815 6.88117 5.92975 7.5651 5.54654C7.86033 5.38082 7.94889 5.18404 7.94889 4.84225C7.94889 4.44868 7.88985 4.20528 7.49622 4.0085C6.65484 3.57867 6.27105 2.52742 6.51707 1.58492C6.76308 0.637236 7.59463 -0.0152642 8.5295 0.000271562C9.45452 0.0158073 10.291 0.720094 10.4878 1.6626C10.6945 2.63617 10.2664 3.60975 9.43484 4.06546C9.24787 4.16903 8.99693 4.19493 9.05105 4.53671C9.10518 4.89404 8.92805 5.2876 9.39548 5.53618C10.1877 5.95564 10.9503 6.44761 11.7081 6.93439C11.9787 7.11047 12.1755 7.09493 12.4461 6.93439C12.7807 6.73761 12.9627 6.56671 12.9234 6.08511C12.8447 5.11671 13.5483 4.22082 14.4389 3.98778C15.354 3.74439 16.2938 4.17421 16.7465 5.03904C17.1943 5.90386 17.0319 6.97582 16.348 7.64904C15.6689 8.31708 14.6357 8.41547 13.8435 7.88208C13.6811 7.77333 13.5483 7.54029 13.3022 7.75261C13.0316 7.98565 12.5937 8.00636 12.6282 8.58636C12.6823 9.50815 12.6577 10.4351 12.6331 11.3569C12.6232 11.7142 12.7216 11.9214 13.0316 12.0871C13.3416 12.258 13.5483 12.3616 13.9075 12.0974C14.6849 11.5226 15.7526 11.6987 16.4168 12.4133C17.0811 13.1228 17.1893 14.2362 16.6825 15.0751C16.1708 15.9192 15.1818 16.2817 14.2814 15.9503C13.3761 15.6137 12.8102 14.6867 12.9283 13.6924C12.9578 13.4646 12.8889 13.361 12.7216 13.2264C12.2936 12.8794 11.9295 12.8742 11.467 13.2057C10.783 13.6924 10.0499 14.1067 9.32168 14.521C8.88868 14.7644 9.12486 15.158 9.0609 15.4842C9.01169 15.7432 9.18391 15.8053 9.36104 15.8933C10.2615 16.3387 10.7191 17.3485 10.4927 18.3584C10.2811 19.3009 9.4496 19.9948 8.51966 20C7.57495 20.0051 6.72372 19.3112 6.51215 18.3532C6.28581 17.3434 6.7434 16.3284 7.65367 15.8985C7.88493 15.7846 7.92921 15.6551 7.95873 15.4066C8.0227 14.8628 7.8308 14.5625 7.36829 14.3191C6.64992 13.9462 5.96599 13.5008 5.28205 13.0555C5.0262 12.8898 4.8343 12.9001 4.57844 13.0555C4.23894 13.2626 4.04212 13.4283 4.08149 13.9307C4.15529 14.9094 3.44676 15.7846 2.55125 16.0125C1.61638 16.2455 0.671673 15.795 0.23868 14.9042C-0.189391 14.0291 0.00250288 12.9623 0.706115 12.3046C1.39497 11.6573 2.443 11.5899 3.2155 12.1441C3.36311 12.2476 3.49104 12.4444 3.69278 12.2476C3.93388 12.0146 4.41115 12.0508 4.38163 11.5071C4.33242 11.0048 4.35703 10.4921 4.35703 9.98458ZM11.526 10.0001C11.526 9.49262 11.5162 8.98512 11.5309 8.47762C11.5358 8.26012 11.4817 8.12547 11.2898 8.01154C10.4288 7.50404 9.57261 6.981 8.72631 6.45279C8.56886 6.3544 8.45077 6.34922 8.29332 6.44761C7.4421 6.97583 6.59087 7.49368 5.72981 8.00636C5.54283 8.11512 5.47395 8.24458 5.47887 8.46726C5.48871 9.48226 5.48871 10.4973 5.47887 11.5071C5.47887 11.7246 5.52807 11.8592 5.71997 11.9732C6.58103 12.4807 7.43718 13.0037 8.28348 13.5319C8.44093 13.6303 8.5541 13.6407 8.71647 13.5371C9.57753 13.0037 10.4435 12.4755 11.3144 11.9576C11.4768 11.8592 11.5408 11.7505 11.5358 11.5589C11.5162 11.041 11.526 10.5232 11.526 10.0001Z" fill="url(#paint0_linear_144_514)"/>
<defs>
<linearGradient id="paint0_linear_144_514" x1="8.5" y1="0" x2="8.5" y2="20" gradientUnits="userSpaceOnUse">
<stop stop-color="#FF4E71"/>
<stop offset="1" stop-color="#FB0230"/>
</linearGradient>
</defs>
</svg>
