<svg width="18" height="20" viewBox="0 0 18 20" fill="none" xmlns="http://www.w3.org/2000/svg">
<path d="M1.88655 9.98732C1.88655 9.88163 1.87596 9.77594 1.88655 9.67553C1.95539 9.04666 1.85478 8.6239 1.16112 8.26455C-0.0885228 7.62511 -0.347983 5.95518 0.472759 4.81371C1.28821 3.68281 2.86615 3.43972 3.95694 4.31167C4.19522 4.50192 4.34878 4.49663 4.59235 4.34338C5.16422 3.98403 5.75198 3.6511 6.35033 3.32874C6.56743 3.21248 6.62038 3.08565 6.58861 2.84256C6.45094 1.79093 6.82689 0.945399 7.73765 0.385234C8.59016 -0.13794 9.47974 -0.127369 10.3217 0.411658C11.1901 0.966539 11.566 1.79621 11.423 2.81614C11.3807 3.11207 11.4813 3.22834 11.709 3.35517C12.3232 3.69338 12.9321 4.04745 13.5358 4.4068C13.7105 4.51249 13.8164 4.50721 13.9753 4.37509C14.8066 3.70395 15.7227 3.58241 16.6705 4.06859C17.5865 4.53892 18.0525 5.3316 17.9943 6.36209C17.936 7.42429 17.3694 8.15356 16.374 8.53934C16.1833 8.61332 16.1251 8.70845 16.1304 8.90398C16.141 9.63325 16.141 10.3572 16.1304 11.0865C16.1251 11.2979 16.178 11.4036 16.3899 11.4829C17.3694 11.8581 17.9307 12.5873 17.9943 13.6284C18.0578 14.6747 17.5918 15.4727 16.6546 15.9483C15.7174 16.4239 14.8119 16.3024 13.9912 15.6471C13.8164 15.5044 13.6999 15.5044 13.5199 15.6154C12.9427 15.9642 12.3603 16.3077 11.7619 16.63C11.4866 16.778 11.3913 16.9207 11.4336 17.2536C11.5872 18.6118 10.7029 19.7532 9.36854 19.9699C8.15066 20.1707 6.93279 19.3463 6.62567 18.115C6.54095 17.7715 6.54095 17.4174 6.60449 17.0687C6.63626 16.889 6.58331 16.8097 6.44034 16.7304C5.77316 16.3552 5.10598 15.9747 4.44938 15.5784C4.25876 15.4621 4.16345 15.5308 4.01519 15.6471C2.55903 16.8044 0.467464 16.0487 0.0703305 14.2361C-0.17854 13.0894 0.451578 11.9268 1.59003 11.4776C1.81772 11.3877 1.91832 11.2873 1.89714 11.0337C1.87067 10.6902 1.88655 10.3361 1.88655 9.98732ZM4.87299 14.2678C4.80945 14.4317 4.91535 14.5109 5.05303 14.5902C5.70962 14.9601 6.36621 15.3353 7.01222 15.7211C7.16577 15.8109 7.26638 15.8162 7.41994 15.6947C8.4419 14.8861 9.59093 14.8861 10.597 15.6841C10.7453 15.8004 10.8406 15.8162 11.0047 15.7211C11.656 15.3353 12.3073 14.9654 12.9639 14.5955C13.1228 14.5056 13.1863 14.4052 13.144 14.2203C12.8845 13.0629 13.6311 11.8211 14.7325 11.467C14.9178 11.4089 14.9602 11.3085 14.9602 11.1288C14.9496 10.3731 14.9549 9.62268 14.9602 8.86699C14.9602 8.70845 14.9337 8.61861 14.7643 8.54463C13.4775 7.97918 12.9957 7.1495 13.144 5.77551C13.1598 5.61168 13.1387 5.51127 12.9851 5.42672C12.3073 5.04623 11.6295 4.65518 10.9571 4.25883C10.8194 4.17956 10.7347 4.21127 10.6182 4.30111C9.54857 5.1255 8.46308 5.1255 7.40935 4.30639C7.27697 4.2007 7.18166 4.18484 7.0334 4.2694C6.37151 4.66046 5.70962 5.04095 5.03714 5.41616C4.88888 5.50071 4.85181 5.59055 4.8677 5.75965C5.01067 7.16007 4.52881 7.98975 3.26328 8.53406C3.1309 8.59219 3.05677 8.64504 3.05677 8.80886C3.06736 9.59098 3.06207 10.3678 3.06207 11.1499C3.06207 11.2715 3.07795 11.3507 3.22092 11.4142C4.59765 12.0853 4.99478 12.7776 4.87299 14.2678Z" fill="url(#paint0_linear_144_513)"/>
<defs>
<linearGradient id="paint0_linear_144_513" x1="9" y1="0" x2="9" y2="20" gradientUnits="userSpaceOnUse">
<stop stop-color="#FF4E71"/>
<stop offset="1" stop-color="#FB0230"/>
</linearGradient>
</defs>
</svg>
