<svg width="20" height="17" viewBox="0 0 20 17" fill="none" xmlns="http://www.w3.org/2000/svg">
<path d="M9.35517 16.9836C7.21119 16.9836 5.06722 16.9836 2.92324 16.9836C1.14818 16.9836 0.00935651 15.831 0.00400993 14.0119C-0.00133664 10.3356 -0.00133664 6.65919 0.00400993 2.98283C0.00935651 1.1583 1.14283 0.00568341 2.91255 0.00568341C3.9979 0.000220753 5.0886 0.0166034 6.17396 0.000215418C6.54287 -0.00524724 6.85832 0.0930875 7.15773 0.306131C7.7512 0.726755 8.36605 1.10368 8.94348 1.54069C9.30171 1.81382 9.66527 1.89576 10.0983 1.8903C11.6168 1.87391 13.1352 1.87391 14.659 1.88484C16.0812 1.89576 17.236 2.90635 17.4338 4.25016C17.4873 4.62162 17.4018 4.76912 17.0222 4.72542C16.803 4.6981 16.573 4.70903 16.3485 4.72542C15.9582 4.74727 15.6374 4.75273 15.4717 4.23924C15.338 3.81862 14.8996 3.78037 14.4932 3.78037C12.8465 3.78583 11.1997 3.77491 9.55299 3.78584C9.11992 3.7913 8.75101 3.67659 8.39279 3.41984C7.66031 2.89543 6.95456 2.21806 6.13653 1.96677C5.31316 1.71003 4.36147 1.8903 3.46859 1.8903C1.9769 1.88483 1.84323 2.02686 1.84323 3.52909C1.84323 7.0088 1.84858 10.4885 1.83789 13.9737C1.83789 14.4162 1.93412 14.7876 2.34581 15.0007C2.7575 15.2137 2.9072 15.1372 2.99809 14.6674C3.41513 12.537 3.83751 10.4066 4.24919 8.28161C4.60207 6.47893 5.54841 5.68138 7.3502 5.68138C10.8683 5.68138 14.3863 5.68138 17.9097 5.68138C19.4709 5.68138 20.2355 6.62642 19.936 8.18874C19.5404 10.27 19.1394 12.3567 18.7331 14.438C18.3962 16.1587 17.3911 17 15.6802 17C13.579 16.9836 11.4671 16.9836 9.35517 16.9836Z" fill="url(#paint0_linear_144_511)"/>
<defs>
<linearGradient id="paint0_linear_144_511" x1="10" y1="0" x2="10" y2="17" gradientUnits="userSpaceOnUse">
<stop stop-color="#FF4E71"/>
<stop offset="1" stop-color="#FB0230"/>
</linearGradient>
</defs>
</svg>
