<svg width="30" height="30" viewBox="0 0 30 30" fill="none" xmlns="http://www.w3.org/2000/svg">
<path d="M0 15C0 6.7125 6.72749 -0.00749373 15.015 6.27179e-06C23.3025 0.00750627 30.015 6.7425 30 15.03C29.985 23.2875 23.2725 29.9925 15.015 30C6.72749 30.0075 0 23.2875 0 15ZM15.3825 4.305C11.85 4.2975 9.00749 5.61 6.83999 8.0775C3.8925 11.4375 3.4725 16.74 5.8275 20.5275C6.05999 20.9025 6.17249 20.805 6.40499 20.565C6.89999 20.04 7.42499 19.5375 7.93499 19.0275C12.1125 14.85 16.29 10.665 20.4825 6.495C20.8725 6.1125 20.805 5.9775 20.37 5.7375C18.705 4.8 16.935 4.2975 15.3825 4.305ZM15.09 25.695C15.585 25.68 16.185 25.65 16.785 25.5525C24.135 24.3675 28.05 15.885 24.1875 9.525C23.985 9.195 23.8725 9.1125 23.58 9.435C23.01 10.05 22.4025 10.6275 21.81 11.22C17.715 15.315 13.62 19.4175 9.50999 23.505C9.11999 23.895 9.19499 24.0225 9.62249 24.2625C11.295 25.2 13.065 25.7025 15.09 25.695Z" fill="#FF0000"/>
</svg>
