<svg width="20" height="20" viewBox="0 0 20 20" fill="none" xmlns="http://www.w3.org/2000/svg">
<path d="M19.9462 7.45815C19.7798 3.68234 19.08 0.816065 14.8667 0.255593C12.5569 -0.0492248 9.71865 -0.0443084 7.37952 0.0786021C4.49721 0.226095 1.6149 0.530913 0.572573 3.70692C-0.205504 6.08647 -0.112526 13.058 0.386617 15.5801C1.11576 19.2772 4.25253 19.7787 7.44803 19.9262C10.1737 20.0491 15.6643 20.2408 17.7686 18.4611C20.1517 16.4552 20.0832 10.4129 19.9462 7.45815ZM4.93274 7.39424L7.78569 4.15432C8.62249 3.42668 9.72354 3.99207 9.56695 5.06877C9.48865 5.61449 8.43653 6.39129 8.12334 6.86818H14.348C15.1799 6.86818 15.4343 8.65776 14.4263 8.88391L5.75486 8.90849C4.95721 8.90358 4.63913 8.07762 4.93274 7.39424ZM15.1652 12.2418C14.4116 13.6037 13.061 14.6312 12.1312 15.8849C11.3237 16.5929 10.1982 15.8898 10.3499 14.8721C10.4282 14.3264 11.4803 13.5496 11.7935 13.0727H5.5689C4.737 13.0727 4.48253 11.288 5.49061 11.057L14.162 11.0324C14.8471 11.0422 15.2484 11.5781 15.1652 12.2418Z" fill="#14AE5C"/>
</svg>
