<svg width="16" height="20" viewBox="0 0 16 20" fill="none" xmlns="http://www.w3.org/2000/svg">
<path d="M15.9976 4.47447C15.9649 4.0783 15.7035 3.75851 15.3115 3.66782C15.1668 3.63441 15.0081 3.62964 14.8587 3.62964C10.2891 3.62964 5.72416 3.62964 1.15456 3.62964C0.991192 3.62964 0.81849 3.63441 0.65979 3.67737C0.26771 3.7776 0.0529991 4.05921 0.00632286 4.46492C-0.0403534 4.85631 0.174357 5.26679 0.552435 5.3718C0.879169 5.46249 0.897839 5.64386 0.897839 5.92547C0.893171 9.04705 0.888504 12.1734 0.893172 15.295C0.897839 18.049 2.78823 19.9869 5.47211 19.9964C7.16646 20.0012 8.86081 20.0012 10.5552 19.9964C10.8445 19.9964 11.1433 19.9916 11.428 19.9344C13.6124 19.5143 15.0921 17.7149 15.1014 15.4334C15.1154 12.2975 15.1061 9.15683 15.1061 6.02093V5.51022C15.2368 5.46726 15.3441 5.43385 15.4422 5.39089C15.8062 5.22861 16.0256 4.86586 15.9976 4.47447ZM7.09644 14.4835C7.09644 15.0611 6.72303 15.4525 6.2096 15.4477C5.70549 15.4429 5.33675 15.042 5.33208 14.4645C5.32275 13.5862 5.33208 12.708 5.33208 11.825C5.33208 10.9467 5.32741 10.0685 5.33208 9.18546C5.33675 8.56974 5.68682 8.18312 6.2236 8.18312C6.75104 8.1879 7.09178 8.55542 7.09644 9.15683C7.10578 10.9372 7.10578 12.708 7.09644 14.4835ZM10.6625 14.4406C10.6625 15.0468 10.2891 15.4525 9.76633 15.4477C9.25755 15.4429 8.90281 15.0515 8.89815 14.4645C8.88881 13.5719 8.89815 12.6793 8.89815 11.7868C8.89815 10.9229 8.89348 10.0542 8.89815 9.19024C8.90281 8.5602 9.24355 8.1879 9.785 8.19267C10.3171 8.19744 10.6578 8.58883 10.6625 9.20933C10.6672 10.9515 10.6672 12.6984 10.6625 14.4406Z" fill="#FF0000"/>
<path d="M8.02997 0.00212135C8.87481 0.00212135 9.72432 -0.00265169 10.5692 0.00212135C11.1619 0.0068944 11.5634 0.388738 11.5587 0.913773C11.5494 1.44358 11.1479 1.81111 10.5505 1.81111C8.84214 1.81588 7.13379 1.81588 5.42544 1.81111C4.83731 1.81111 4.43123 1.42449 4.4359 0.894681C4.44057 0.379192 4.83265 0.0068944 5.4021 0.00212135C6.27961 -0.00265169 7.15246 0.00212135 8.02997 0.00212135Z" fill="#FF0000"/>
</svg>
