<svg width="20" height="20" viewBox="0 0 20 20" fill="none" xmlns="http://www.w3.org/2000/svg">
<path d="M4.12026 19.9268C3.49418 19.9097 2.85102 20.029 2.21356 19.853C0.927246 19.5009 0.0621169 18.4335 0.00520051 17.1105C0.00520051 17.0651 0.00520051 17.0197 0.00520051 16.9742C0.0165838 13.2438 -0.285073 13.7492 2.38431 11.0976C4.17717 9.32039 5.96435 7.5432 7.73445 5.74897C8.09302 5.38558 8.29223 5.31177 8.69633 5.72058C10.5347 7.60566 12.4073 9.46802 14.2912 11.3077C14.6783 11.6824 14.627 11.8698 14.2741 12.2161C12.2308 14.2261 10.1648 16.2134 8.19547 18.2972C7.05714 19.4953 5.83344 20.2447 4.12026 19.9268Z" fill="#013594"/>
<path d="M20 5.26637C19.9659 6.06128 19.7154 6.74263 19.1804 7.28771C18.4917 7.99745 17.7803 8.6788 17.0973 9.38855C16.8696 9.62702 16.733 9.62702 16.4939 9.38855C14.5417 7.4183 12.5781 5.45942 10.6031 3.51188C10.3242 3.23934 10.3925 3.09172 10.6316 2.85892C11.3089 2.21164 11.952 1.52461 12.635 0.877322C13.8986 -0.303688 15.5833 -0.292332 16.8354 0.91139C17.6095 1.66088 18.3665 2.4274 19.1235 3.19392C19.6983 3.77875 19.9715 4.48849 20 5.26637Z" fill="#013594"/>
</svg>
