<svg width="58" height="59" viewBox="0 0 58 59" fill="none" xmlns="http://www.w3.org/2000/svg">
<g filter="url(#filter0_di_76_4690)">
<rect width="58" height="58" rx="29" fill="#414141"/>
</g>
<path d="M38.8177 31.0941C38.6288 35.3259 35.2672 39.0156 30.936 39.7466C25.3068 40.6964 20.0805 36.3303 20.001 30.6217C19.986 29.4829 20.1452 28.374 20.5281 27.2999C20.8861 26.2954 21.7414 25.8329 22.6564 26.1363C23.5614 26.4346 23.9692 27.3397 23.6509 28.3491C22.7857 31.0941 23.6161 33.7843 25.824 35.3756C27.8678 36.8525 30.5928 36.9221 32.7112 35.5546C34.8097 34.197 35.8838 31.6858 35.4114 29.2442C34.939 26.7976 32.9698 24.8483 30.5083 24.3908C30.3243 24.356 30.1403 24.3113 29.9066 24.3113V24.8732C29.9315 24.9776 29.9315 25.0821 29.9066 25.1865C29.8718 25.3357 29.7873 25.4749 29.648 25.5992C29.2353 25.9622 28.5938 25.9573 28.1015 25.5545C27.0821 24.719 26.0726 23.8836 25.0781 23.0283C24.6952 22.7001 24.6952 22.178 25.0781 21.8498C26.0776 20.9995 27.0871 20.1541 28.1065 19.3236C28.6087 18.9059 29.2204 18.896 29.648 19.2739C29.8817 19.4778 29.9713 19.7364 29.9066 19.9999V20.9945C30.5879 21.0591 31.1597 21.1287 31.7217 21.273C36.1523 22.4167 39.0216 26.3899 38.8177 31.0941Z" fill="white"/>
<defs>
<filter id="filter0_di_76_4690" x="0" y="0" width="58" height="62" filterUnits="userSpaceOnUse" color-interpolation-filters="sRGB">
<feFlood flood-opacity="0" result="BackgroundImageFix"/>
<feColorMatrix in="SourceAlpha" type="matrix" values="0 0 0 0 0 0 0 0 0 0 0 0 0 0 0 0 0 0 127 0" result="hardAlpha"/>
<feOffset dy="1"/>
<feComposite in2="hardAlpha" operator="out"/>
<feColorMatrix type="matrix" values="0 0 0 0 0 0 0 0 0 0 0 0 0 0 0 0 0 0 0.25 0"/>
<feBlend mode="normal" in2="BackgroundImageFix" result="effect1_dropShadow_76_4690"/>
<feBlend mode="normal" in="SourceGraphic" in2="effect1_dropShadow_76_4690" result="shape"/>
<feColorMatrix in="SourceAlpha" type="matrix" values="0 0 0 0 0 0 0 0 0 0 0 0 0 0 0 0 0 0 127 0" result="hardAlpha"/>
<feOffset dy="4"/>
<feGaussianBlur stdDeviation="2"/>
<feComposite in2="hardAlpha" operator="arithmetic" k2="-1" k3="1"/>
<feColorMatrix type="matrix" values="0 0 0 0 0 0 0 0 0 0 0 0 0 0 0 0 0 0 0.15 0"/>
<feBlend mode="normal" in2="shape" result="effect2_innerShadow_76_4690"/>
</filter>
</defs>
</svg>
