<svg width="28" height="20" viewBox="0 0 28 20" fill="none" xmlns="http://www.w3.org/2000/svg">
<path d="M21.1986 12.0673C21.1986 16.0314 18.0648 19.374 14.0845 19.6471C10.0663 19.9201 6.52352 17.1048 5.94336 13.1736C5.27761 8.67285 8.77756 4.53457 13.3047 4.47336C14.0988 4.46395 14.3366 4.63814 14.5506 5.38671C15.1355 7.43937 17.0852 8.62106 19.2061 8.20206C19.8623 8.07023 20.1857 8.2256 20.471 8.82821C20.956 9.85455 21.1986 10.9374 21.1986 12.0673Z" fill="black"/>
<path d="M13.5234 0.000837647C16.486 0.0479171 19.1014 1.07425 21.4316 2.83031C24.2705 4.97243 26.263 7.68891 27.0001 11.2105C27.1427 11.8884 26.8955 12.3733 26.3581 12.491C25.8208 12.6087 25.388 12.265 25.2406 11.5965C24.1421 6.66258 19.6531 2.53371 14.6076 1.86989C12.1348 1.54504 9.86653 2.21828 7.8027 3.52709C4.73074 5.48089 2.56705 8.11734 1.78717 11.7377C1.67304 12.2745 1.19751 12.5946 0.717216 12.491C0.203637 12.3827 -0.0864394 11.9119 0.0229338 11.3329C0.455671 9.06834 1.47332 7.08159 2.9665 5.33494C5.25858 2.65612 8.09278 0.838852 11.6165 0.17974C12.2442 0.0620409 12.8814 -0.00857824 13.5234 0.000837647Z" fill="black"/>
</svg>
